<svg width="24" height="24" viewBox="0 0 24 24" fill="none" xmlns="http://www.w3.org/2000/svg">
<path d="M15.75 21C16.5784 21 17.25 20.3284 17.25 19.5C17.25 18.6716 16.5784 18 15.75 18C14.9216 18 14.25 18.6716 14.25 19.5C14.25 20.3284 14.9216 21 15.75 21Z" fill="white"/>
<path d="M15.75 6C16.5784 6 17.25 5.32843 17.25 4.5C17.25 3.67157 16.5784 3 15.75 3C14.9216 3 14.25 3.67157 14.25 4.5C14.25 5.32843 14.9216 6 15.75 6Z" fill="white"/>
<path d="M3 13.5C3.82843 13.5 4.5 12.8284 4.5 12C4.5 11.1716 3.82843 10.5 3 10.5C2.17157 10.5 1.5 11.1716 1.5 12C1.5 12.8284 2.17157 13.5 3 13.5Z" fill="white"/>
<path d="M21 9C20.3367 9.00198 19.6928 9.22393 19.1692 9.6311C18.6456 10.0383 18.2718 10.6076 18.1065 11.25H14.8935C14.7873 10.827 14.5894 10.4326 14.3137 10.0947C14.0381 9.75669 13.6916 9.48346 13.2986 9.29432C12.9057 9.10519 12.476 9.00477 12.0399 9.00017C11.6038 8.99558 11.1721 9.08693 10.7753 9.26775L8.3925 6.29025C8.78445 5.77552 8.99774 5.14696 9 4.5C9 3.90666 8.82405 3.32664 8.49441 2.83329C8.16477 2.33994 7.69623 1.95543 7.14805 1.72836C6.59987 1.5013 5.99667 1.44189 5.41473 1.55765C4.83279 1.6734 4.29824 1.95912 3.87868 2.37868C3.45912 2.79824 3.1734 3.33279 3.05765 3.91473C2.94189 4.49667 3.0013 5.09987 3.22836 5.64805C3.45543 6.19623 3.83994 6.66477 4.33329 6.99441C4.82664 7.32405 5.40666 7.5 6 7.5C6.42291 7.49902 6.84072 7.40773 7.2255 7.23225L9.6075 10.2098C9.21376 10.7235 9.00036 11.3527 9.00036 12C9.00036 12.6473 9.21376 13.2765 9.6075 13.7903L7.2255 16.7678C6.84072 16.5923 6.42291 16.501 6 16.5C5.40666 16.5 4.82664 16.676 4.33329 17.0056C3.83994 17.3352 3.45543 17.8038 3.22836 18.352C3.0013 18.9001 2.94189 19.5033 3.05765 20.0853C3.1734 20.6672 3.45912 21.2018 3.87868 21.6213C4.29824 22.0409 4.83279 22.3266 5.41473 22.4424C5.99667 22.5581 6.59987 22.4987 7.14805 22.2716C7.69623 22.0446 8.16477 21.6601 8.49441 21.1667C8.82405 20.6734 9 20.0933 9 19.5C8.99779 18.853 8.78449 18.2245 8.3925 17.7098L10.7745 14.7323C11.1714 14.9132 11.6032 15.0047 12.0394 15.0001C12.4755 14.9956 12.9053 14.8952 13.2984 14.7061C13.6914 14.5169 14.038 14.2437 14.3137 13.9056C14.5894 13.5676 14.7873 13.1731 14.8935 12.75H18.1065C18.2477 13.2919 18.5381 13.7834 18.9446 14.1686C19.3511 14.5538 19.8575 14.8173 20.4062 14.9291C20.9549 15.041 21.524 14.9968 22.0489 14.8015C22.5738 14.6062 23.0333 14.2676 23.3754 13.8242C23.7176 13.3808 23.9285 12.8504 23.9843 12.2932C24.0401 11.7359 23.9385 11.1742 23.6912 10.6718C23.4438 10.1694 23.0605 9.74642 22.5848 9.4509C22.1091 9.15538 21.56 8.99917 21 9ZM4.5 4.5C4.5 4.20333 4.58797 3.91332 4.7528 3.66665C4.91762 3.41997 5.15189 3.22771 5.42598 3.11418C5.70007 3.00065 6.00167 2.97095 6.29264 3.02882C6.58361 3.0867 6.85088 3.22956 7.06066 3.43934C7.27044 3.64912 7.4133 3.91639 7.47118 4.20737C7.52906 4.49834 7.49935 4.79994 7.38582 5.07403C7.27229 5.34812 7.08003 5.58238 6.83336 5.74721C6.58668 5.91203 6.29667 6 6 6C5.6023 5.9996 5.221 5.84144 4.93978 5.56022C4.65856 5.279 4.5004 4.8977 4.5 4.5ZM6 21C5.70333 21 5.41332 20.912 5.16665 20.7472C4.91997 20.5824 4.72771 20.3481 4.61418 20.074C4.50065 19.7999 4.47095 19.4983 4.52882 19.2074C4.5867 18.9164 4.72956 18.6491 4.93934 18.4393C5.14912 18.2296 5.41639 18.0867 5.70737 18.0288C5.99834 17.9709 6.29994 18.0007 6.57403 18.1142C6.84812 18.2277 7.08238 18.42 7.24721 18.6666C7.41203 18.9133 7.5 19.2033 7.5 19.5C7.4996 19.8977 7.34144 20.279 7.06022 20.5602C6.779 20.8414 6.3977 20.9996 6 21ZM12 13.5C11.7033 13.5 11.4133 13.412 11.1666 13.2472C10.92 13.0824 10.7277 12.8481 10.6142 12.574C10.5007 12.2999 10.4709 11.9983 10.5288 11.7074C10.5867 11.4164 10.7296 11.1491 10.9393 10.9393C11.1491 10.7296 11.4164 10.5867 11.7074 10.5288C11.9983 10.4709 12.2999 10.5007 12.574 10.6142C12.8481 10.7277 13.0824 10.92 13.2472 11.1666C13.412 11.4133 13.5 11.7033 13.5 12C13.4996 12.3977 13.3414 12.779 13.0602 13.0602C12.779 13.3414 12.3977 13.4996 12 13.5ZM21 13.5C20.7033 13.5 20.4133 13.412 20.1666 13.2472C19.92 13.0824 19.7277 12.8481 19.6142 12.574C19.5007 12.2999 19.4709 11.9983 19.5288 11.7074C19.5867 11.4164 19.7296 11.1491 19.9393 10.9393C20.1491 10.7296 20.4164 10.5867 20.7074 10.5288C20.9983 10.4709 21.2999 10.5007 21.574 10.6142C21.8481 10.7277 22.0824 10.92 22.2472 11.1666C22.412 11.4133 22.5 11.7033 22.5 12C22.4996 12.3977 22.3414 12.779 22.0602 13.0602C21.779 13.3414 21.3977 13.4996 21 13.5Z" fill="white"/>
</svg>
