<svg width="134" height="22" viewBox="0 0 134 22" fill="none" xmlns="http://www.w3.org/2000/svg">
<g clip-path="url(#clip0_2975_739)">
<path d="M23.2375 4.48849V7.04049H22.4395C19.954 7.04049 18.356 8.80149 18.356 11.4435V17.4305H15.6045V4.66449H18.356V7.92249C18.8006 5.98549 20.0434 4.40049 22.4395 4.40049C22.7055 4.40049 22.9715 4.40049 23.2375 4.48849ZM38.3339 4.65749L32.954 17.4225L30.9252 22.0005H28.2789L30.3961 17.2465L25.1036 4.65649H27.8382L31.6309 14.0765L35.5119 4.56949H38.3339V4.65749ZM54.1091 11.0005C54.1091 15.4005 50.9348 17.6005 47.9372 17.6005C45.6453 17.6005 43.9708 16.3685 43.5301 15.3125H43.4408V22.0005H40.7091V4.66449H43.4418V6.68849H43.5301C43.9708 5.72049 45.6453 4.40049 47.9372 4.40049C51.0232 4.40049 54.1091 6.60049 54.1091 11.0005ZM51.4639 11.0005C51.4639 8.27249 49.436 6.86449 47.4091 6.86449C45.3813 6.86449 43.3534 8.27249 43.3534 11.0005C43.3534 13.7285 45.3813 15.1365 47.4091 15.1365C49.5244 15.1365 51.4639 13.7285 51.4639 11.0005ZM60.3784 6.80049V13.7415C60.3784 14.4445 60.7307 15.0595 61.7859 15.0595C62.0499 15.0595 62.4896 14.9715 62.9293 14.7955V16.9045C62.4896 17.2555 61.6092 17.4315 60.9064 17.4315C58.9709 17.4315 57.5644 16.4655 57.5644 14.1815V6.80049H55.8035V4.60549H57.5634V1.35449H60.289V4.60449H62.84V6.80149H60.3774L60.3784 6.80049ZM65.1339 11.0005C65.1339 6.68849 68.464 4.40049 71.7048 4.40049C75.035 4.40049 78.3651 6.68849 78.3651 11.0005C78.3651 15.3125 75.035 17.6005 71.7048 17.6005C68.464 17.6005 65.1339 15.3125 65.1339 11.0005ZM75.6484 11.0005C75.6484 8.36049 73.8081 6.86449 71.7058 6.86449C69.6025 6.86449 67.7632 8.36049 67.7632 11.0005C67.7632 13.6405 69.6899 15.1365 71.7058 15.1365C73.7208 15.1365 75.6484 13.6405 75.6484 11.0005ZM88.7119 4.48849V7.04049H87.9129C85.4274 7.04049 83.8294 8.80149 83.8294 11.4435V17.4305H81.0789V4.66449H83.8303V7.92249C84.274 5.98549 85.5158 4.40049 87.9129 4.40049C88.1789 4.40049 88.4449 4.40049 88.7119 4.48849ZM118.564 9.94449V17.4305H115.836V10.3855C115.836 8.18349 114.605 6.95049 112.756 6.95049C110.908 6.95049 109.588 8.18349 109.588 10.3855V17.4305H106.86V4.74849H109.588V6.68649C110.293 5.54149 111.612 4.57249 113.636 4.57249C116.365 4.48449 118.564 6.15749 118.564 9.94449ZM126.303 12.2375L124.533 14.1745V17.4315H121.787V0.000488281H124.533V10.6525L129.934 4.66649H133.211L127.986 10.3885L133.83 17.4315H130.731L126.303 12.2375ZM104.147 10.8995V4.32749H101.414V6.36449H101.326C100.885 5.30149 99.2096 4.06249 96.9187 4.06249C93.921 4.06249 90.7467 6.27549 90.7467 10.7025C90.7467 15.1295 93.9201 17.3425 96.9177 17.4315C97.2363 17.4315 97.543 17.4055 97.8358 17.3585C98.3877 17.0175 98.9972 16.4725 99.7247 15.6455C99.291 15.5795 98.9406 15.5325 98.6428 15.4915C97.5956 15.3495 97.1648 15.2905 95.9052 14.8385C95.264 14.6085 94.1305 13.5865 93.791 12.6265C93.5379 12.0815 93.391 11.4405 93.391 10.7025C93.391 7.95749 95.4189 6.54149 97.4467 6.54149C99.4746 6.54149 101.502 7.95749 101.502 10.7015L101.501 10.7895C102.496 10.8235 103.426 10.8645 104.147 10.8995Z" fill="#575757"/>
<path d="M99.9401 18.4454L99.4061 17.9234L101.721 15.3974L99.2274 13.0454L99.7625 12.5234L102.79 15.3974L99.9401 18.4454Z" fill="#575757" stroke="#575757" stroke-width="1.196" stroke-miterlimit="10"/>
<path d="M5.50089 15.0304C4.87952 14.7924 4.23732 14.4354 3.77874 13.9054C3.09465 13.0951 2.72075 12.0651 2.72461 11.0014C2.72461 8.36139 4.57083 6.86439 6.67909 6.86439C7.73422 6.86439 8.78835 7.21639 9.4921 8.00839C9.70055 8.21839 9.86929 8.43539 10.0043 8.65639L10.4986 8.46839C11.1835 8.20839 11.8674 7.94739 12.5523 7.68139C11.3612 5.52439 9.02062 4.40039 6.67909 4.40039C3.34001 4.40039 -6.10352e-05 6.68839 -6.10352e-05 11.0004C-6.10352e-05 15.2434 3.23182 17.5274 6.51631 17.6004C7.09201 17.1104 7.74712 16.4454 8.23548 15.9484L8.57395 15.6044C7.4424 15.6044 6.31084 15.4134 5.50089 15.0304Z" fill="#575757"/>
<path d="M8.68512 18.7846L8.15012 18.2626L10.4658 15.7366L7.97244 13.3846L8.50646 12.8616L11.5339 15.7366L8.68512 18.7846Z" fill="#575757" stroke="#575757" stroke-width="1.196" stroke-miterlimit="10"/>
</g>
<defs>
<clipPath id="clip0_2975_739">
<rect width="134" height="22" fill="white" transform="translate(-6.10352e-05 0.000488281)"/>
</clipPath>
</defs>
</svg>
