<svg width="137" height="38" viewBox="0 0 137 38" fill="none" xmlns="http://www.w3.org/2000/svg">
<g clip-path="url(#clip0_2947_2859)">
<path fill-rule="evenodd" clip-rule="evenodd" d="M47.089 23.2534L45.4001 20.3108H42.9273V23.2534H41.4727V14.4178H45.8525C46.3865 14.4136 46.9113 14.5572 47.3699 14.8329C47.8285 15.1088 48.2032 15.5063 48.4534 15.9822C48.7034 16.458 48.8192 16.9939 48.7881 17.5315C48.7569 18.0692 48.5802 18.5879 48.277 19.0311C47.9603 19.5013 47.5134 19.867 46.992 20.0827L48.7942 23.2534H47.089ZM45.8525 15.9175H42.9273V18.8518H45.8525C46.0438 18.8517 46.2328 18.8119 46.4081 18.7347C46.5832 18.6577 46.7408 18.5448 46.8708 18.4036C47.0722 18.1973 47.209 17.9359 47.2641 17.6518C47.3192 17.3678 47.2904 17.0736 47.181 16.8059C47.0715 16.5383 46.8866 16.3091 46.6489 16.1467C46.4113 15.9845 46.1315 15.8962 45.8446 15.8931L45.8525 15.9175ZM61.4251 14.4178L57.037 23.2534H58.6695L61.4251 17.7189L64.1728 23.2534H65.8051L61.4251 14.4178ZM79.9147 14.4178H78.0561L75.5589 17.6781L73.07 14.4178H71.2033L74.864 19.129V23.2534H76.3186V19.0557L79.9147 14.4178ZM87.3655 14.4178H90.2828C91.4418 14.4263 92.5509 14.8945 93.3705 15.7212C94.1901 16.5478 94.6543 17.6666 94.6628 18.8356C94.6564 20.0053 94.1929 21.1252 93.3728 21.9523C92.5529 22.7794 91.4425 23.2469 90.2828 23.2534H87.3655V14.4178ZM90.2828 21.7535C91.0558 21.7515 91.7966 21.4407 92.3433 20.8893C92.8899 20.338 93.1979 19.5909 93.2001 18.8111C93.1916 18.0333 92.8816 17.2898 92.3363 16.7398C91.791 16.1899 91.0539 15.8771 90.2828 15.8686H88.812V21.7535H90.2828ZM104.385 14.4178H102.93V23.2534H104.385V14.4178ZM119.949 19.5609C119.957 20.047 119.866 20.5295 119.681 20.9783C119.496 21.4271 119.222 21.8327 118.874 22.1692C118.363 22.6842 117.714 23.0347 117.006 23.1765C116.297 23.3181 115.564 23.2446 114.897 22.9653C114.231 22.6859 113.662 22.2132 113.262 21.6072C112.862 21.0011 112.65 20.2889 112.651 19.5609V14.4178H114.106V19.5609C114.106 20.1468 114.337 20.7087 114.748 21.123C115.158 21.5372 115.715 21.7699 116.296 21.7699C116.877 21.7699 117.434 21.5372 117.845 21.123C118.255 20.7087 118.486 20.1468 118.486 19.5609V14.4178H119.949V19.5609ZM129.671 23.2534V17.9716L132.603 20.9222L135.522 17.9716V23.2534H137V14.4178L132.603 18.8356L128.224 14.4178V23.2534H129.671Z" fill="#575757"/>
<path d="M30.668 14.1405V27.2798L16.1784 35.7159L1.68089 27.2798V10.3993L16.1784 1.95498L27.3144 8.44309L28.9953 7.46498L16.1784 -0.0012207L0 9.42119V28.2579L16.1784 37.6803L32.357 28.2579V13.1624L30.668 14.1405Z" fill="#575757"/>
<path d="M12.1218 27.288H9.69739V19.0882H17.7786C18.5432 19.0796 19.2736 18.7678 19.812 18.2202C20.3504 17.6726 20.6534 16.9332 20.6555 16.1619C20.6598 15.7807 20.5869 15.4024 20.441 15.0506C20.2949 14.6987 20.0793 14.3808 19.8069 14.1162C19.5434 13.843 19.2279 13.6264 18.8794 13.4794C18.5308 13.3322 18.1564 13.2577 17.7786 13.2602H9.69739V10.7661H17.7866C19.2028 10.7747 20.5587 11.3459 21.5601 12.356C22.5615 13.3661 23.1279 14.7336 23.1363 16.1619C23.145 17.2554 22.8145 18.3241 22.1909 19.2185C21.617 20.0743 20.8082 20.7428 19.8635 21.1421C18.928 21.4414 17.9518 21.59 16.9704 21.5824H12.1218V27.288Z" fill="#575757"/>
<path d="M23.0798 27.0841H20.2514L18.0695 23.245C18.9327 23.1917 19.7842 23.0161 20.5989 22.7234L23.0798 27.0841Z" fill="#575757"/>
<path d="M28.9791 11.4099L30.6518 12.3473L32.3247 11.4099V9.42928L30.6518 8.45117L28.9791 9.42928V11.4099Z" fill="#575757"/>
</g>
<defs>
<clipPath id="clip0_2947_2859">
<rect width="137" height="38" fill="white" transform="translate(0 -0.0012207)"/>
</clipPath>
</defs>
</svg>
