<svg width="279" height="189" viewBox="0 0 279 189" fill="none" xmlns="http://www.w3.org/2000/svg">
<g filter="url(#filter0_d_2949_2886)">
<rect x="4" y="0.654053" width="271" height="179.523" rx="20" fill="#101010"/>
<path d="M65.9061 29.3724L62.6365 24.5685H64.0904L66.6364 28.4143H66.7436L69.3298 24.5685H70.7032L67.3533 29.426L70.6295 34.2366H69.1824L66.6498 30.4243H66.5426L63.9631 34.2366H62.5963L65.9061 29.3724ZM72.539 34.2366V24.5685H76.2374C77.1218 24.5685 77.8208 24.7852 78.3345 25.2184C78.8437 25.6517 79.0983 26.2391 79.0983 26.9805C79.0983 27.4808 78.9375 27.9319 78.6159 28.3339C78.2898 28.7359 77.8945 28.9793 77.43 29.0642V29.1714C78.0911 29.2563 78.6159 29.5086 79.0045 29.9285C79.3931 30.3528 79.5874 30.8844 79.5874 31.5231C79.5874 32.3762 79.2993 33.0417 78.7231 33.5197C78.1424 33.9976 77.3384 34.2366 76.3111 34.2366H72.539ZM73.745 28.7359H75.6746C77.1441 28.7359 77.8789 28.22 77.8789 27.1882C77.8789 26.6969 77.7136 26.315 77.3831 26.0425C77.0481 25.7701 76.5813 25.6338 75.9828 25.6338H73.745V28.7359ZM76.1302 33.1713C77.6087 33.1713 78.3479 32.6018 78.3479 31.4628C78.3479 30.3372 77.5707 29.7744 76.0163 29.7744H73.745V33.1713H76.1302ZM86.8703 31.4695H83.0245L82.053 34.2366H80.7867L84.3511 24.5685H85.5437L89.108 34.2366H87.8417L86.8703 31.4695ZM83.3796 30.4444H86.5152L85.001 26.1296H84.8938L83.3796 30.4444ZM90.8031 34.2366V24.5685H91.9756L97.2217 32.0926H97.3289V24.5685H98.5215V34.2366H97.349L92.1029 26.7393H91.9957V34.2366H90.8031ZM100.987 34.2366V24.5685H102.193V29.2652H102.3L106.535 24.5685H108.049L104.183 28.7426L108.404 34.2366H106.843L103.352 29.5801L102.193 30.8598V34.2366H100.987ZM110.032 34.2366V24.5685H111.238V34.2366H110.032ZM113.704 34.2366V24.5685H114.876L120.122 32.0926H120.229V24.5685H121.422V34.2366H120.249L115.003 26.7393H114.896V34.2366H113.704ZM132.001 30.498C132.001 31.6906 131.626 32.6487 130.876 33.3723C130.125 34.1003 129.131 34.4644 127.894 34.4644C126.559 34.4644 125.493 34.0065 124.698 33.0909C123.908 32.1752 123.512 30.9447 123.512 29.3992C123.512 27.8716 123.912 26.6455 124.712 25.7209C125.511 24.8008 126.572 24.3407 127.894 24.3407C128.966 24.3407 129.866 24.6199 130.594 25.1782C131.318 25.7366 131.767 26.4937 131.941 27.4495H130.715C130.29 26.1185 129.35 25.4529 127.894 25.4529C126.938 25.4529 126.174 25.8103 125.603 26.5249C125.035 27.2396 124.752 28.1977 124.752 29.3992C124.752 30.6186 125.033 31.5812 125.596 32.2869C126.163 32.9971 126.932 33.3522 127.901 33.3522C128.767 33.3522 129.466 33.0998 129.998 32.5951C130.534 32.0904 130.802 31.4293 130.802 30.6119V30.3774H128.082V29.3188H132.001V30.498Z" fill="white"/>
<path d="M65.9061 45.3724L62.6365 40.5685H64.0904L66.6364 44.4143H66.7436L69.3298 40.5685H70.7032L67.3533 45.426L70.6295 50.2366H69.1824L66.6498 46.4243H66.5426L63.9631 50.2366H62.5963L65.9061 45.3724ZM72.539 50.2366V40.5685H76.2374C77.1218 40.5685 77.8208 40.7852 78.3345 41.2184C78.8437 41.6517 79.0983 42.2391 79.0983 42.9805C79.0983 43.4808 78.9375 43.9319 78.6159 44.3339C78.2898 44.7359 77.8945 44.9793 77.43 45.0642V45.1714C78.0911 45.2563 78.6159 45.5086 79.0045 45.9285C79.3931 46.3528 79.5874 46.8844 79.5874 47.5231C79.5874 48.3762 79.2993 49.0417 78.7231 49.5197C78.1424 49.9976 77.3384 50.2366 76.3111 50.2366H72.539ZM73.745 44.7359H75.6746C77.1441 44.7359 77.8789 44.22 77.8789 43.1882C77.8789 42.6969 77.7136 42.315 77.3831 42.0425C77.0481 41.7701 76.5813 41.6338 75.9828 41.6338H73.745V44.7359ZM76.1302 49.1713C77.6087 49.1713 78.3479 48.6018 78.3479 47.4628C78.3479 46.3372 77.5707 45.7744 76.0163 45.7744H73.745V49.1713H76.1302Z" fill="#A9A9A9"/>
<path d="M206.199 24.9531H206.105L203.955 26.5117V25.3984L206.205 23.7812H207.254V32.2363H206.199V24.9531ZM209.726 26.1602C209.726 25.4102 209.982 24.793 210.494 24.3086C211.002 23.8242 211.648 23.582 212.434 23.582C213.191 23.582 213.828 23.8105 214.344 24.2676C214.855 24.7207 215.111 25.2832 215.111 25.9551C215.111 26.3965 214.986 26.8281 214.736 27.25C214.486 27.6797 214.016 28.2656 213.324 29.0078L211.291 31.1934V31.2871H215.252V32.2363H209.779V31.5098L212.703 28.3164C213.246 27.7266 213.607 27.2773 213.787 26.9688C213.967 26.6602 214.057 26.3359 214.057 25.9961C214.057 25.5742 213.898 25.2188 213.582 24.9297C213.262 24.6445 212.869 24.502 212.404 24.502C211.908 24.502 211.508 24.6543 211.203 24.959C210.898 25.2637 210.746 25.6641 210.746 26.1602V26.166H209.726V26.1602ZM217.871 32.2949C217.664 32.2949 217.484 32.2207 217.332 32.0723C217.184 31.9199 217.109 31.7402 217.109 31.5332C217.109 31.3223 217.184 31.1426 217.332 30.9941C217.484 30.8457 217.664 30.7715 217.871 30.7715C218.082 30.7715 218.262 30.8457 218.41 30.9941C218.559 31.1426 218.633 31.3223 218.633 31.5332C218.633 31.7402 218.559 31.9199 218.41 32.0723C218.262 32.2207 218.082 32.2949 217.871 32.2949ZM222.851 32.4355C221.898 32.4355 221.16 32.0488 220.637 31.2754C220.113 30.502 219.851 29.4121 219.851 28.0059C219.851 26.6113 220.115 25.5254 220.643 24.748C221.17 23.9707 221.906 23.582 222.851 23.582C223.793 23.582 224.525 23.9727 225.049 24.7539C225.576 25.5352 225.84 26.625 225.84 28.0234C225.84 29.4258 225.58 30.5117 225.06 31.2812C224.537 32.0508 223.801 32.4355 222.851 32.4355ZM222.851 31.5156C223.476 31.5156 223.953 31.2148 224.281 30.6133C224.613 30.0078 224.779 29.1387 224.779 28.0059C224.779 26.8848 224.613 26.0215 224.281 25.416C223.945 24.8105 223.469 24.5078 222.851 24.5078C222.234 24.5078 221.756 24.8125 221.416 25.4219C221.08 26.0273 220.912 26.8887 220.912 28.0059C220.912 29.1348 221.08 30.002 221.416 30.6074C221.748 31.2129 222.226 31.5156 222.851 31.5156ZM227.516 26.1602C227.516 25.4102 227.771 24.793 228.283 24.3086C228.791 23.8242 229.437 23.582 230.223 23.582C230.98 23.582 231.617 23.8105 232.133 24.2676C232.644 24.7207 232.9 25.2832 232.9 25.9551C232.9 26.3965 232.775 26.8281 232.525 27.25C232.275 27.6797 231.805 28.2656 231.113 29.0078L229.08 31.1934V31.2871H233.041V32.2363H227.568V31.5098L230.492 28.3164C231.035 27.7266 231.396 27.2773 231.576 26.9688C231.756 26.6602 231.846 26.3359 231.846 25.9961C231.846 25.5742 231.687 25.2188 231.371 24.9297C231.051 24.6445 230.658 24.502 230.193 24.502C229.697 24.502 229.297 24.6543 228.992 24.959C228.687 25.2637 228.535 25.6641 228.535 26.1602V26.166H227.516V26.1602ZM235.66 32.2949C235.453 32.2949 235.273 32.2207 235.121 32.0723C234.973 31.9199 234.898 31.7402 234.898 31.5332C234.898 31.3223 234.973 31.1426 235.121 30.9941C235.273 30.8457 235.453 30.7715 235.66 30.7715C235.871 30.7715 236.051 30.8457 236.199 30.9941C236.348 31.1426 236.422 31.3223 236.422 31.5332C236.422 31.7402 236.348 31.9199 236.199 32.0723C236.051 32.2207 235.871 32.2949 235.66 32.2949ZM238.039 26.1602C238.039 25.4102 238.295 24.793 238.807 24.3086C239.314 23.8242 239.961 23.582 240.746 23.582C241.504 23.582 242.141 23.8105 242.656 24.2676C243.168 24.7207 243.424 25.2832 243.424 25.9551C243.424 26.3965 243.299 26.8281 243.049 27.25C242.799 27.6797 242.328 28.2656 241.637 29.0078L239.603 31.1934V31.2871H243.564V32.2363H238.092V31.5098L241.016 28.3164C241.559 27.7266 241.92 27.2773 242.1 26.9688C242.279 26.6602 242.369 26.3359 242.369 25.9961C242.369 25.5742 242.211 25.2188 241.894 24.9297C241.574 24.6445 241.182 24.502 240.717 24.502C240.221 24.502 239.82 24.6543 239.516 24.959C239.211 25.2637 239.059 25.6641 239.059 26.1602V26.166H238.039V26.1602ZM249.207 30.4844H245.088V29.5234C245.861 28.1484 247.068 26.2344 248.709 23.7812H250.238V29.541H251.439V30.4844H250.238V32.2363H249.207V30.4844ZM246.166 29.5469H249.213V24.7598H249.143C248.228 26.0879 247.236 27.6602 246.166 29.4766V29.5469ZM225.512 38.9531H225.418L223.268 40.5117V39.3984L225.518 37.7812H226.566V46.2363H225.512V38.9531ZM231.881 46.4355C231.08 46.4355 230.418 46.209 229.894 45.7559C229.371 45.3066 229.086 44.7168 229.039 43.9863H230.076C230.123 44.4434 230.312 44.8105 230.644 45.0879C230.98 45.3691 231.396 45.5098 231.893 45.5098C232.459 45.5098 232.914 45.332 233.258 44.9766C233.605 44.6211 233.779 44.1543 233.779 43.5762C233.779 42.998 233.605 42.5273 233.258 42.1641C232.914 41.8047 232.465 41.625 231.91 41.625C231.109 41.625 230.527 41.9414 230.164 42.5742H229.174L229.637 37.7812H234.353V38.7246H230.463L230.223 41.4375H230.316C230.726 40.957 231.322 40.7168 232.103 40.7168C232.908 40.7168 233.564 40.9805 234.072 41.5078C234.58 42.0352 234.834 42.7148 234.834 43.5469C234.834 44.4062 234.56 45.1016 234.014 45.6328C233.467 46.168 232.756 46.4355 231.881 46.4355ZM236.598 44.5371C236.598 44.2949 236.676 44.0957 236.832 43.9395C236.988 43.7832 237.187 43.7051 237.43 43.7051C237.668 43.7051 237.865 43.7832 238.021 43.9395C238.174 44.0957 238.25 44.2949 238.25 44.5371C238.25 44.7793 238.174 44.9785 238.021 45.1348C237.865 45.291 237.668 45.3691 237.43 45.3691C237.187 45.3691 236.988 45.291 236.832 45.1348C236.676 44.9785 236.598 44.7793 236.598 44.5371ZM236.598 39.9844C236.598 39.7422 236.676 39.541 236.832 39.3809C236.988 39.2246 237.187 39.1465 237.43 39.1465C237.668 39.1465 237.865 39.2246 238.021 39.3809C238.174 39.541 238.25 39.7422 238.25 39.9844C238.25 40.2266 238.174 40.4258 238.021 40.582C237.865 40.7383 237.668 40.8164 237.43 40.8164C237.187 40.8164 236.988 40.7383 236.832 40.582C236.676 40.4258 236.598 40.2266 236.598 39.9844ZM240.16 40.1602C240.16 39.4102 240.416 38.793 240.928 38.3086C241.435 37.8242 242.082 37.582 242.867 37.582C243.625 37.582 244.262 37.8105 244.777 38.2676C245.289 38.7207 245.545 39.2832 245.545 39.9551C245.545 40.3965 245.42 40.8281 245.17 41.25C244.92 41.6797 244.449 42.2656 243.758 43.0078L241.725 45.1934V45.2871H245.685V46.2363H240.213V45.5098L243.137 42.3164C243.68 41.7266 244.041 41.2773 244.221 40.9688C244.4 40.6602 244.49 40.3359 244.49 39.9961C244.49 39.5742 244.332 39.2188 244.016 38.9297C243.695 38.6445 243.303 38.502 242.838 38.502C242.342 38.502 241.941 38.6543 241.637 38.959C241.332 39.2637 241.18 39.6641 241.18 40.1602V40.166H240.16V40.1602ZM249.488 38.9531H249.394L247.244 40.5117V39.3984L249.494 37.7812H250.543V46.2363H249.488V38.9531Z" fill="#AEAEAE"/>
<path d="M51.4514 157.074V156.176C50.5446 156.109 49.8188 155.832 49.2739 155.346C48.7289 154.863 48.4542 154.251 48.4498 153.51H49.5955C49.6312 153.956 49.8121 154.323 50.1382 154.609C50.4642 154.894 50.902 155.071 51.4514 155.138V151.654L50.9154 151.506C50.1962 151.314 49.6446 151.004 49.2605 150.575C48.8763 150.146 48.6843 149.624 48.6843 149.007C48.6843 148.279 48.9322 147.679 49.428 147.205C49.9238 146.736 50.5982 146.459 51.4514 146.374V145.436H52.3491V146.368C53.1799 146.439 53.8499 146.712 54.3591 147.185C54.8728 147.663 55.1408 148.266 55.1631 148.994H54.0241C54.0107 148.574 53.8522 148.219 53.5484 147.929C53.2402 147.638 52.8405 147.464 52.3491 147.406V150.682L52.9253 150.823C53.7517 151.042 54.3614 151.364 54.7544 151.788C55.143 152.208 55.3373 152.753 55.3373 153.423C55.3373 154.218 55.076 154.854 54.5534 155.332C54.0308 155.815 53.2961 156.094 52.3491 156.17V157.074H51.4514ZM54.1782 153.516C54.1782 152.654 53.5685 152.094 52.3491 151.835V155.158C52.9298 155.127 53.3809 154.968 53.7025 154.682C54.0197 154.396 54.1782 154.008 54.1782 153.516ZM49.8367 148.94C49.8367 149.749 50.3749 150.265 51.4514 150.488V147.406C50.9824 147.433 50.596 147.591 50.2923 147.882C49.9885 148.168 49.8367 148.521 49.8367 148.94ZM64.5431 156.384C63.4532 156.384 62.609 155.942 62.0105 155.057C61.412 154.173 61.1127 152.927 61.1127 151.319C61.1127 149.724 61.4142 148.483 62.0172 147.594C62.6202 146.705 63.4621 146.26 64.5431 146.26C65.6195 146.26 66.457 146.707 67.0556 147.6C67.6586 148.494 67.9601 149.74 67.9601 151.339C67.9601 152.943 67.663 154.184 67.069 155.064C66.4704 155.944 65.6285 156.384 64.5431 156.384ZM64.5431 155.332C65.2577 155.332 65.8027 154.988 66.1779 154.3C66.5575 153.608 66.7474 152.614 66.7474 151.319C66.7474 150.037 66.5575 149.05 66.1779 148.357C65.7937 147.665 65.2488 147.319 64.5431 147.319C63.8373 147.319 63.2902 147.667 62.9016 148.364C62.5175 149.057 62.3254 150.041 62.3254 151.319C62.3254 152.61 62.5175 153.601 62.9016 154.294C63.2813 154.986 63.8284 155.332 64.5431 155.332ZM70.2246 156.223C69.9879 156.223 69.7824 156.138 69.6082 155.969C69.4385 155.794 69.3536 155.589 69.3536 155.352C69.3536 155.111 69.4385 154.906 69.6082 154.736C69.7824 154.566 69.9879 154.481 70.2246 154.481C70.4658 154.481 70.6713 154.566 70.841 154.736C71.0108 154.906 71.0956 155.111 71.0956 155.352C71.0956 155.589 71.0108 155.794 70.841 155.969C70.6713 156.138 70.4658 156.223 70.2246 156.223ZM74.6466 150.669H75.8191C76.3685 150.669 76.8196 150.508 77.1725 150.187C77.5209 149.865 77.6951 149.454 77.6951 148.954C77.6951 148.462 77.5254 148.065 77.1859 147.761C76.8464 147.462 76.3975 147.312 75.8392 147.312C75.2809 147.312 74.8297 147.457 74.4858 147.748C74.1419 148.043 73.9454 148.449 73.8962 148.967H72.7237C72.7863 148.127 73.0989 147.466 73.6617 146.984C74.2245 146.502 74.966 146.26 75.8861 146.26C76.7303 146.26 77.4472 146.506 78.0368 146.997C78.6264 147.489 78.9212 148.087 78.9212 148.793C78.9212 149.369 78.7716 149.856 78.4723 150.254C78.173 150.651 77.7576 150.915 77.2261 151.044V151.151C77.8827 151.236 78.3986 151.491 78.7738 151.915C79.149 152.344 79.3366 152.889 79.3366 153.55C79.3366 154.345 79.0083 155.017 78.3517 155.567C77.6951 156.112 76.8889 156.384 75.933 156.384C74.9503 156.384 74.1486 156.134 73.5277 155.634C72.9069 155.129 72.5741 154.463 72.5294 153.637H73.6952C73.7488 154.151 73.9766 154.562 74.3786 154.87C74.7806 155.178 75.2943 155.332 75.9196 155.332C76.5539 155.332 77.0765 155.162 77.4874 154.823C77.8939 154.483 78.0971 154.048 78.0971 153.516C78.0971 152.958 77.8983 152.516 77.5008 152.19C77.1033 151.864 76.5606 151.701 75.8727 151.701H74.6466V150.669ZM81.2126 149.208C81.2126 148.351 81.5051 147.645 82.0903 147.091C82.6709 146.537 83.4102 146.26 84.308 146.26C85.1745 146.26 85.9026 146.522 86.4921 147.044C87.0773 147.562 87.3698 148.206 87.3698 148.974C87.3698 149.479 87.2269 149.972 86.941 150.455C86.6552 150.946 86.117 151.616 85.3264 152.465L83.0015 154.964V155.071H87.5306V156.156H81.2729V155.325L84.6162 151.674C85.237 151 85.6502 150.486 85.8557 150.133C86.0611 149.78 86.1639 149.409 86.1639 149.021C86.1639 148.538 85.983 148.132 85.6212 147.801C85.2549 147.475 84.806 147.312 84.2745 147.312C83.7072 147.312 83.2494 147.487 82.901 147.835C82.5526 148.183 82.3784 148.641 82.3784 149.208V149.215H81.2126V149.208ZM91.8789 147.828H91.7717L89.3128 149.61V148.337L91.8856 146.488H93.0849V156.156H91.8789V147.828Z" fill="white"/>
<path d="M104.361 155.848H102.652V153.108H99.8921V151.379H102.652V148.646H104.361V151.379H107.128V153.108H104.361V155.848ZM112.568 157.061V156.223C111.519 156.165 110.697 155.886 110.103 155.386C109.504 154.885 109.203 154.227 109.198 153.409H111.115C111.137 153.74 111.28 154.019 111.543 154.247C111.811 154.475 112.153 154.611 112.568 154.655V152.163L111.865 151.996C110.217 151.611 109.393 150.711 109.393 149.295C109.393 148.474 109.672 147.81 110.23 147.306C110.788 146.801 111.568 146.508 112.568 146.428V145.517H113.506V146.428C114.44 146.517 115.186 146.814 115.744 147.319C116.303 147.828 116.588 148.469 116.602 149.242H114.732C114.724 148.938 114.605 148.672 114.377 148.445C114.15 148.217 113.859 148.078 113.506 148.029V150.414L114.223 150.562C115.934 150.928 116.789 151.83 116.789 153.269C116.789 154.122 116.504 154.803 115.932 155.312C115.365 155.821 114.556 156.121 113.506 156.21V157.061H112.568ZM114.887 153.496C114.887 152.889 114.427 152.5 113.506 152.331V154.662C113.94 154.635 114.279 154.519 114.525 154.314C114.766 154.108 114.887 153.836 114.887 153.496ZM111.336 149.108C111.336 149.689 111.747 150.059 112.568 150.22V148.022C112.207 148.04 111.912 148.152 111.684 148.357C111.452 148.558 111.336 148.809 111.336 149.108ZM125.975 156.404C124.778 156.404 123.84 155.955 123.161 155.057C122.478 154.155 122.136 152.905 122.136 151.305C122.136 149.711 122.478 148.467 123.161 147.574C123.84 146.685 124.778 146.24 125.975 146.24C127.168 146.24 128.103 146.685 128.782 147.574C129.47 148.471 129.814 149.718 129.814 151.312C129.814 152.907 129.472 154.155 128.789 155.057C128.11 155.955 127.172 156.404 125.975 156.404ZM125.975 154.756C126.538 154.756 126.976 154.463 127.288 153.878C127.605 153.28 127.764 152.422 127.764 151.305C127.764 150.198 127.603 149.347 127.282 148.753C126.973 148.181 126.538 147.895 125.975 147.895C125.417 147.895 124.981 148.183 124.669 148.759C124.347 149.354 124.186 150.202 124.186 151.305C124.186 152.418 124.347 153.275 124.669 153.878C124.977 154.463 125.412 154.756 125.975 154.756ZM132.28 156.337C131.927 156.337 131.639 156.228 131.415 156.009C131.201 155.79 131.094 155.511 131.094 155.171C131.094 154.832 131.201 154.555 131.415 154.341C131.634 154.122 131.922 154.012 132.28 154.012C132.637 154.012 132.925 154.122 133.144 154.341C133.358 154.55 133.466 154.827 133.466 155.171C133.466 155.515 133.358 155.794 133.144 156.009C132.925 156.228 132.637 156.337 132.28 156.337ZM138.651 156.404C137.454 156.404 136.516 155.955 135.837 155.057C135.154 154.155 134.812 152.905 134.812 151.305C134.812 149.711 135.154 148.467 135.837 147.574C136.516 146.685 137.454 146.24 138.651 146.24C139.844 146.24 140.78 146.685 141.459 147.574C142.146 148.471 142.49 149.718 142.49 151.312C142.49 152.907 142.149 154.155 141.465 155.057C140.786 155.955 139.848 156.404 138.651 156.404ZM138.651 154.756C139.214 154.756 139.652 154.463 139.965 153.878C140.282 153.28 140.44 152.422 140.44 151.305C140.44 150.198 140.279 149.347 139.958 148.753C139.65 148.181 139.214 147.895 138.651 147.895C138.093 147.895 137.658 148.183 137.345 148.759C137.023 149.354 136.862 150.202 136.862 151.305C136.862 152.418 137.023 153.275 137.345 153.878C137.653 154.463 138.089 154.756 138.651 154.756ZM144.212 149.383C144.212 148.449 144.538 147.692 145.191 147.111C145.843 146.531 146.691 146.24 147.736 146.24C148.746 146.24 149.568 146.502 150.202 147.024C150.841 147.551 151.16 148.23 151.16 149.061C151.16 149.588 150.995 150.111 150.664 150.629C150.334 151.151 149.751 151.806 148.916 152.592L147.066 154.354V154.475H151.301V156.156H144.326V154.743L147.482 151.654C148.161 150.993 148.614 150.495 148.842 150.16C149.07 149.834 149.184 149.512 149.184 149.195C149.184 148.806 149.043 148.487 148.762 148.237C148.476 147.991 148.112 147.868 147.669 147.868C147.2 147.868 146.821 148.009 146.53 148.29C146.236 148.567 146.088 148.929 146.088 149.376V149.416H144.212V149.383ZM158.597 158.012C157.387 156.493 156.781 154.535 156.781 152.136C156.781 149.97 157.407 148.087 158.657 146.488H160.46C159.973 147.051 159.575 147.859 159.267 148.914C158.954 149.972 158.798 151.044 158.798 152.13C158.798 154.14 159.345 156.1 160.44 158.012H158.597ZM166.697 155.848H164.989V153.108H162.229V151.379H164.989V148.646H166.697V151.379H169.464V153.108H166.697V155.848ZM175.22 156.404C174.179 156.404 173.324 156.121 172.654 155.553C171.997 154.999 171.653 154.285 171.622 153.409H173.491C173.549 153.811 173.739 154.135 174.061 154.381C174.382 154.626 174.773 154.749 175.233 154.749C175.756 154.749 176.178 154.588 176.499 154.267C176.825 153.945 176.989 153.523 176.989 153.001C176.989 152.469 176.825 152.04 176.499 151.714C176.173 151.388 175.753 151.225 175.24 151.225C174.494 151.225 173.942 151.515 173.585 152.096H171.776L172.258 146.488H178.335V148.17H173.826L173.612 150.656H173.732C174.17 150.026 174.853 149.711 175.783 149.711C176.698 149.711 177.451 150.015 178.04 150.622C178.626 151.23 178.918 152.007 178.918 152.954C178.918 153.981 178.579 154.812 177.9 155.446C177.221 156.085 176.327 156.404 175.22 156.404ZM181.551 156.337C181.198 156.337 180.91 156.228 180.687 156.009C180.472 155.79 180.365 155.511 180.365 155.171C180.365 154.832 180.472 154.555 180.687 154.341C180.906 154.122 181.194 154.012 181.551 154.012C181.909 154.012 182.197 154.122 182.415 154.341C182.63 154.55 182.737 154.827 182.737 155.171C182.737 155.515 182.63 155.794 182.415 156.009C182.197 156.228 181.909 156.337 181.551 156.337ZM188.03 156.404C186.989 156.404 186.134 156.121 185.464 155.553C184.807 154.999 184.463 154.285 184.432 153.409H186.301C186.36 153.811 186.549 154.135 186.871 154.381C187.193 154.626 187.583 154.749 188.043 154.749C188.566 154.749 188.988 154.588 189.31 154.267C189.636 153.945 189.799 153.523 189.799 153.001C189.799 152.469 189.636 152.04 189.31 151.714C188.984 151.388 188.564 151.225 188.05 151.225C187.304 151.225 186.753 151.515 186.395 152.096H184.586L185.069 146.488H191.146V148.17H186.636L186.422 150.656H186.543C186.98 150.026 187.664 149.711 188.593 149.711C189.509 149.711 190.261 150.015 190.851 150.622C191.436 151.23 191.728 152.007 191.728 152.954C191.728 153.981 191.389 154.812 190.71 155.446C190.031 156.085 189.138 156.404 188.03 156.404ZM195.849 150.455H197.028C197.488 150.455 197.859 150.332 198.14 150.086C198.426 149.84 198.569 149.521 198.569 149.128C198.569 148.739 198.428 148.429 198.147 148.197C197.87 147.969 197.495 147.855 197.021 147.855C196.552 147.855 196.173 147.978 195.882 148.223C195.592 148.469 195.434 148.802 195.407 149.222H193.537C193.573 148.306 193.908 147.58 194.542 147.044C195.177 146.508 196.021 146.24 197.075 146.24C198.067 146.24 198.884 146.484 199.527 146.971C200.166 147.462 200.485 148.087 200.485 148.847C200.485 149.405 200.322 149.885 199.996 150.287C199.675 150.689 199.244 150.946 198.703 151.058V151.178C199.369 151.254 199.893 151.498 200.278 151.908C200.666 152.324 200.86 152.849 200.86 153.483C200.86 154.332 200.503 155.031 199.788 155.58C199.074 156.129 198.165 156.404 197.062 156.404C195.985 156.404 195.11 156.129 194.435 155.58C193.761 155.031 193.401 154.3 193.357 153.389H195.293C195.324 153.8 195.501 154.124 195.822 154.361C196.144 154.602 196.564 154.722 197.082 154.722C197.586 154.722 198 154.593 198.321 154.334C198.638 154.075 198.797 153.74 198.797 153.329C198.797 152.905 198.641 152.572 198.328 152.331C198.015 152.085 197.589 151.962 197.048 151.962H195.849V150.455ZM210.388 155.091C210.625 155.091 210.812 154.986 210.951 154.776C211.089 154.566 211.158 154.28 211.158 153.918C211.158 153.552 211.091 153.266 210.957 153.061C210.819 152.855 210.629 152.753 210.388 152.753C210.151 152.753 209.963 152.855 209.825 153.061C209.687 153.271 209.617 153.557 209.617 153.918C209.617 154.28 209.687 154.566 209.825 154.776C209.963 154.986 210.151 155.091 210.388 155.091ZM210.388 156.377C209.713 156.377 209.168 156.152 208.753 155.701C208.338 155.25 208.13 154.658 208.13 153.925C208.13 153.193 208.338 152.601 208.753 152.15C209.168 151.699 209.713 151.473 210.388 151.473C211.067 151.473 211.614 151.696 212.029 152.143C212.445 152.594 212.652 153.188 212.652 153.925C212.652 154.658 212.445 155.25 212.029 155.701C211.614 156.152 211.067 156.377 210.388 156.377ZM204.391 151.171C203.717 151.171 203.172 150.946 202.757 150.495C202.337 150.044 202.127 149.45 202.127 148.713C202.127 147.98 202.334 147.39 202.75 146.944C203.17 146.493 203.717 146.267 204.391 146.267C205.07 146.267 205.617 146.49 206.033 146.937C206.448 147.388 206.656 147.98 206.656 148.713C206.656 149.45 206.448 150.044 206.033 150.495C205.617 150.946 205.07 151.171 204.391 151.171ZM203.192 156.156L206.844 151.091L209.751 146.488H211.634L207.922 151.594L205.081 156.156H203.192ZM204.391 149.885C204.628 149.885 204.816 149.78 204.954 149.57C205.093 149.36 205.162 149.074 205.162 148.713C205.162 148.346 205.095 148.058 204.961 147.848C204.822 147.643 204.633 147.54 204.391 147.54C204.155 147.54 203.967 147.645 203.829 147.855C203.69 148.065 203.621 148.351 203.621 148.713C203.621 149.074 203.69 149.36 203.829 149.57C203.967 149.78 204.155 149.885 204.391 149.885ZM213.744 158.012C214.839 156.1 215.386 154.14 215.386 152.13C215.386 151.04 215.232 149.968 214.924 148.914C214.615 147.859 214.218 147.051 213.731 146.488H215.533C216.784 148.087 217.409 149.97 217.409 152.136C217.409 154.526 216.804 156.485 215.594 158.012H213.744Z" fill="#FFDD2E"/>
<path d="M33.5105 152.515L32.1244 153.901C31.6141 154.411 30.7867 154.411 30.2763 153.901C29.766 153.39 29.766 152.563 30.2763 152.053L31.6624 150.667L28.0126 147.017H37.1603V156.165L33.5105 152.515Z" fill="#FFDD2E"/>
<path d="M26.7272 93.2187C27.8482 93.2187 28.7569 91.9559 28.7569 90.3982C28.7569 88.8404 27.8482 87.5776 26.7272 87.5776C25.6063 87.5776 24.6976 88.8404 24.6976 90.3982C24.6976 91.9559 25.6063 93.2187 26.7272 93.2187Z" fill="#1FC7A2" fill-opacity="0.1"/>
<path d="M36.8761 96.7634C37.9971 96.7634 38.9058 95.5006 38.9058 93.9428C38.9058 92.3851 37.9971 91.1223 36.8761 91.1223C35.7552 91.1223 34.8465 92.3851 34.8465 93.9428C34.8465 95.5006 35.7552 96.7634 36.8761 96.7634Z" fill="#1FC7A2" fill-opacity="0.1"/>
<path d="M47.0226 112.028C48.1436 112.028 49.0523 110.765 49.0523 109.207C49.0523 107.65 48.1436 106.387 47.0226 106.387C45.9017 106.387 44.993 107.65 44.993 109.207C44.993 110.765 45.9017 112.028 47.0226 112.028Z" fill="#1FC7A2" fill-opacity="0.1"/>
<path d="M57.172 118.196C58.2929 118.196 59.2016 116.933 59.2016 115.375C59.2016 113.818 58.2929 112.555 57.172 112.555C56.051 112.555 55.1423 113.818 55.1423 115.375C55.1423 116.933 56.051 118.196 57.172 118.196Z" fill="#1FC7A2" fill-opacity="0.1"/>
<path d="M67.3207 129.372C68.4417 129.372 69.3504 128.109 69.3504 126.551C69.3504 124.994 68.4417 123.731 67.3207 123.731C66.1998 123.731 65.2911 124.994 65.2911 126.551C65.2911 128.109 66.1998 129.372 67.3207 129.372Z" fill="#1FC7A2" fill-opacity="0.1"/>
<path d="M77.4676 131.161C78.5885 131.161 79.4972 129.898 79.4972 128.34C79.4972 126.783 78.5885 125.52 77.4676 125.52C76.3466 125.52 75.4379 126.783 75.4379 128.34C75.4379 129.898 76.3466 131.161 77.4676 131.161Z" fill="#1FC7A2" fill-opacity="0.1"/>
<path d="M87.6164 122.189C88.7374 122.189 89.6461 120.927 89.6461 119.369C89.6461 117.811 88.7374 116.548 87.6164 116.548C86.4955 116.548 85.5868 117.811 85.5868 119.369C85.5868 120.927 86.4955 122.189 87.6164 122.189Z" fill="#1FC7A2" fill-opacity="0.1"/>
<path d="M97.7658 111.6C98.8867 111.6 99.7954 110.337 99.7954 108.78C99.7954 107.222 98.8867 105.959 97.7658 105.959C96.6448 105.959 95.7361 107.222 95.7361 108.78C95.7361 110.337 96.6448 111.6 97.7658 111.6Z" fill="#1FC7A2" fill-opacity="0.1"/>
<path d="M107.912 109.957C109.033 109.957 109.942 108.694 109.942 107.136C109.942 105.579 109.033 104.316 107.912 104.316C106.791 104.316 105.882 105.579 105.882 107.136C105.882 108.694 106.791 109.957 107.912 109.957Z" fill="#1FC7A2" fill-opacity="0.1"/>
<path d="M118.061 110.494C119.182 110.494 120.091 109.231 120.091 107.674C120.091 106.116 119.182 104.853 118.061 104.853C116.94 104.853 116.032 106.116 116.032 107.674C116.032 109.231 116.94 110.494 118.061 110.494Z" fill="#1FC7A2" fill-opacity="0.1"/>
<path d="M128.21 122.706C129.331 122.706 130.24 121.443 130.24 119.885C130.24 118.328 129.331 117.065 128.21 117.065C127.089 117.065 126.18 118.328 126.18 119.885C126.18 121.443 127.089 122.706 128.21 122.706Z" fill="#1FC7A2" fill-opacity="0.1"/>
<path d="M138.357 118.419C139.478 118.419 140.386 117.156 140.386 115.599C140.386 114.041 139.478 112.778 138.357 112.778C137.236 112.778 136.327 114.041 136.327 115.599C136.327 117.156 137.236 118.419 138.357 118.419Z" fill="#1FC7A2" fill-opacity="0.1"/>
<path d="M148.506 114.722C149.626 114.722 150.535 113.459 150.535 111.901C150.535 110.343 149.626 109.081 148.506 109.081C147.385 109.081 146.476 110.343 146.476 111.901C146.476 113.459 147.385 114.722 148.506 114.722Z" fill="#1FC7A2" fill-opacity="0.1"/>
<path d="M158.655 116.837C159.776 116.837 160.685 115.574 160.685 114.017C160.685 112.459 159.776 111.196 158.655 111.196C157.534 111.196 156.625 112.459 156.625 114.017C156.625 115.574 157.534 116.837 158.655 116.837Z" fill="#1FC7A2" fill-opacity="0.1"/>
<path d="M168.801 116.535C169.922 116.535 170.831 115.272 170.831 113.714C170.831 112.157 169.922 110.894 168.801 110.894C167.68 110.894 166.772 112.157 166.772 113.714C166.772 115.272 167.68 116.535 168.801 116.535Z" fill="#1FC7A2" fill-opacity="0.1"/>
<path d="M178.95 115.29C180.071 115.29 180.98 114.027 180.98 112.469C180.98 110.911 180.071 109.648 178.95 109.648C177.829 109.648 176.921 110.911 176.921 112.469C176.921 114.027 177.829 115.29 178.95 115.29Z" fill="#1FC7A2" fill-opacity="0.1"/>
<path d="M189.099 116.834C190.22 116.834 191.129 115.571 191.129 114.013C191.129 112.455 190.22 111.193 189.099 111.193C187.978 111.193 187.069 112.455 187.069 114.013C187.069 115.571 187.978 116.834 189.099 116.834Z" fill="#1FC7A2" fill-opacity="0.1"/>
<path d="M199.246 104.313C200.367 104.313 201.275 103.05 201.275 101.492C201.275 99.9344 200.367 98.6716 199.246 98.6716C198.125 98.6716 197.216 99.9344 197.216 101.492C197.216 103.05 198.125 104.313 199.246 104.313Z" fill="#1FC7A2" fill-opacity="0.1"/>
<path d="M209.395 100.89C210.516 100.89 211.425 99.6271 211.425 98.0693C211.425 96.5116 210.516 95.2488 209.395 95.2488C208.274 95.2488 207.366 96.5116 207.366 98.0693C207.366 99.6271 208.274 100.89 209.395 100.89Z" fill="#1FC7A2" fill-opacity="0.1"/>
<path d="M219.544 93.8178C220.665 93.8178 221.574 92.555 221.574 90.9973C221.574 89.4396 220.665 88.1768 219.544 88.1768C218.423 88.1768 217.514 89.4396 217.514 90.9973C217.514 92.555 218.423 93.8178 219.544 93.8178Z" fill="#1FC7A2" fill-opacity="0.1"/>
<path d="M229.691 95.4099C230.812 95.4099 231.72 94.1471 231.72 92.5893C231.72 91.0316 230.812 89.7688 229.691 89.7688C228.57 89.7688 227.661 91.0316 227.661 92.5893C227.661 94.1471 228.57 95.4099 229.691 95.4099Z" fill="#1FC7A2" fill-opacity="0.1"/>
<path d="M239.84 77.1901C240.961 77.1901 241.869 75.9273 241.869 74.3696C241.869 72.8119 240.961 71.5491 239.84 71.5491C238.719 71.5491 237.81 72.8119 237.81 74.3696C237.81 75.9273 238.719 77.1901 239.84 77.1901Z" fill="#1FC7A2" fill-opacity="0.1"/>
<path d="M249.988 74.75C251.109 74.75 252.018 73.4872 252.018 71.9294C252.018 70.3717 251.109 69.1089 249.988 69.1089C248.867 69.1089 247.959 70.3717 247.959 71.9294C247.959 73.4872 248.867 74.75 249.988 74.75Z" fill="#1FC7A2" fill-opacity="0.1"/>
<path d="M26.7274 90.3982L36.8756 93.9424L47.0238 109.207L57.172 115.375L67.3202 126.551L77.4684 128.34L87.6166 119.369L97.7648 108.78L107.913 107.136L118.061 107.674L128.209 119.885L138.358 115.599L148.506 111.901L158.654 114.016L168.802 113.714L178.95 112.469L189.099 114.013L199.247 101.492L209.395 98.0695L219.543 90.9974L229.691 92.5893L239.84 74.3697L249.988 71.9294V128.34H26.7274V90.3982Z" fill="#FFDD2E" fill-opacity="0.1"/>
<path d="M26.7274 90.3982L36.8756 93.9424L47.0238 109.207L57.172 115.375L67.3202 126.551L77.4684 128.34L87.6166 119.369L97.7648 108.78L107.913 107.136L118.061 107.674L128.209 119.885L138.358 115.599L148.506 111.901L158.654 114.016L168.802 113.714L178.95 112.469L189.099 114.013L199.247 101.492L209.395 98.0695L219.543 90.9974L229.691 92.5893L239.84 74.3697L249.988 71.9294" stroke="#FFDD2E" stroke-width="2.28692" stroke-linecap="round" stroke-linejoin="round"/>
<path d="M40.0001 50.6972C48.2844 50.6972 55.0001 44.1956 55.0001 36.1756C55.0001 28.1556 48.2844 21.6541 40.0001 21.6541C31.7159 21.6541 25.0001 28.1556 25.0001 36.1756C25.0001 44.1956 31.7159 50.6972 40.0001 50.6972Z" fill="black"/>
<path d="M44.15 22.2185L36.2878 33.4139L35.6892 34.2628L35.0907 33.4139L32.8161 30.1486H29.9131L32.1907 33.4139L34.2408 36.3345L32.5318 38.7567L28.1234 45.0438C28.6247 45.6657 29.1772 46.2469 29.7755 46.7822L35.4378 38.7567L35.6833 38.409L35.9257 38.7567L38.5564 42.5232H45.9486C46.7779 42.5234 47.5847 42.2608 48.2452 41.7751C48.9055 41.2895 49.3838 40.6078 49.606 39.8342C49.8282 39.0607 49.7827 38.2379 49.4763 37.4918C49.1697 36.7456 48.6191 36.1174 47.9089 35.7028C48.2547 35.1456 48.4413 34.5096 48.4497 33.8596C48.4581 33.2097 48.288 32.5693 47.9567 32.0039C47.6254 31.4385 47.145 30.9685 46.5643 30.6421C45.9838 30.3155 45.3241 30.1443 44.6527 30.1457H41.5013L46.5112 23.079C45.7502 22.7291 44.9603 22.4413 44.15 22.2185ZM44.6497 32.4781C45.0189 32.4781 45.3728 32.6201 45.6337 32.8727C45.8947 33.1253 46.0414 33.468 46.0414 33.8253C46.0414 34.1827 45.8947 34.5253 45.6337 34.7781C45.3728 35.0307 45.0189 35.1726 44.6497 35.1726H39.2627L38.4306 36.3518L39.2387 37.5108H45.9456C46.3148 37.5108 46.6687 37.6528 46.9296 37.9054C47.1906 38.1581 47.3373 38.5007 47.3373 38.858C47.3373 39.2154 47.1906 39.5581 46.9296 39.8108C46.6687 40.0634 46.3148 40.2053 45.9456 40.2053H39.8313L38.8257 38.7567L37.9488 37.5108L37.1378 36.3518L37.9578 35.1928L39.1968 33.4342L39.8552 32.4983H44.6437L44.6497 32.4781Z" fill="white"/>
</g>
<defs>
<filter id="filter0_d_2949_2886" x="0" y="0.654053" width="279" height="187.523" filterUnits="userSpaceOnUse" color-interpolation-filters="sRGB">
<feFlood flood-opacity="0" result="BackgroundImageFix"/>
<feColorMatrix in="SourceAlpha" type="matrix" values="0 0 0 0 0 0 0 0 0 0 0 0 0 0 0 0 0 0 127 0" result="hardAlpha"/>
<feOffset dy="4"/>
<feGaussianBlur stdDeviation="2"/>
<feComposite in2="hardAlpha" operator="out"/>
<feColorMatrix type="matrix" values="0 0 0 0 0 0 0 0 0 0 0 0 0 0 0 0 0 0 0.25 0"/>
<feBlend mode="normal" in2="BackgroundImageFix" result="effect1_dropShadow_2949_2886"/>
<feBlend mode="normal" in="SourceGraphic" in2="effect1_dropShadow_2949_2886" result="shape"/>
</filter>
</defs>
</svg>
