<svg width="156" height="30" viewBox="0 0 156 30" fill="none" xmlns="http://www.w3.org/2000/svg">
<g clip-path="url(#clip0_2915_47)">
<path d="M15.0168 29.8993C23.2733 29.8993 29.9665 23.2061 29.9665 14.9497C29.9665 6.69319 23.2733 0 15.0168 0C6.76033 0 0.0671387 6.69319 0.0671387 14.9497C0.0671387 23.2061 6.76033 29.8993 15.0168 29.8993Z" fill="#444444"/>
<path fill-rule="evenodd" clip-rule="evenodd" d="M10.8523 9.87744H19.2348C19.5552 9.87744 19.8221 9.93083 20.1425 10.091C20.5162 10.2512 20.7298 10.5181 20.8365 10.7317C20.8365 10.7317 20.8365 10.7851 20.8899 10.7851C21.0501 11.0521 21.1569 11.3724 21.1569 11.7461C21.1569 12.0665 21.1035 12.3868 20.8899 12.7072L15.6042 21.7838C15.4974 21.9973 15.2838 22.1041 15.0169 22.1041C14.8033 22.1041 14.5897 21.9973 14.4296 21.7838L9.25056 12.7072C9.14378 12.4936 8.93021 12.2267 8.93021 11.7995C8.87682 11.4258 8.9836 11.1055 9.14378 10.7851C9.30395 10.4648 9.57091 10.1978 9.94465 10.091C10.265 9.87744 10.6387 9.87744 10.8523 9.87744ZM14.3762 11.1588H10.8523C10.6387 11.1588 10.532 11.1588 10.4786 11.2122C10.3718 11.2656 10.3184 11.319 10.265 11.4258C10.2116 11.4792 10.2116 11.586 10.2116 11.6928C10.2116 11.7461 10.265 11.7995 10.3718 12.0131L14.3762 18.954V11.1588ZM15.6576 11.1588V19.0074L19.7153 12.0131C19.7687 11.9063 19.7687 11.7995 19.7687 11.6928C19.7687 11.586 19.7687 11.4792 19.7153 11.4258C19.6619 11.3724 19.6619 11.319 19.6085 11.319L19.5551 11.2656C19.4484 11.2122 19.3416 11.2122 19.1814 11.2122H15.6576V11.1588Z" fill="#2A2A24"/>
</g>
<path d="M41.192 21V11.624H37.64V9.8H46.728V11.624H43.176V21H41.192ZM52.4296 21.192C48.9896 21.192 46.5896 18.584 46.5896 15.4C46.5896 12.248 49.0216 9.608 52.4616 9.608C55.9016 9.608 58.3016 12.216 58.3016 15.4C58.3016 18.552 55.8696 21.192 52.4296 21.192ZM52.4616 19.384C54.6856 19.384 56.2376 17.608 56.2376 15.4C56.2376 13.224 54.6536 11.416 52.4296 11.416C50.2056 11.416 48.6536 13.192 48.6536 15.4C48.6536 17.576 50.2376 19.384 52.4616 19.384ZM59.5594 21V9.8H61.3834L67.3834 17.544V9.8H69.3194V21H67.6714L61.4954 13.032V21H59.5594ZM78.4529 21.08L73.7969 9.8H75.9729L79.3489 18.408L82.7089 9.8H84.8369L80.1809 21.08H78.4529ZM85.6369 21V9.8H93.9409V11.56H87.6049V14.472H93.2209V16.232H87.6049V19.24H94.0209V21H85.6369ZM95.2356 21V9.8H97.0596L103.06 17.544V9.8H104.996V21H103.348L97.1716 13.032V21H95.2356ZM109.508 21V11.624H105.956V9.8H115.044V11.624H111.492V21H109.508ZM120.603 21.176C117.691 21.176 115.835 19.496 115.835 16.248V9.8H117.803V16.168C117.803 18.248 118.875 19.368 120.635 19.368C122.379 19.368 123.451 18.312 123.451 16.248V9.8H125.419V16.152C125.419 19.496 123.531 21.176 120.603 21.176ZM127.001 21V9.8H131.993C134.617 9.8 136.153 11.208 136.153 13.368C136.153 15.208 135.049 16.312 133.481 16.76L136.505 21H134.185L131.401 17.096H128.969V21H127.001ZM128.969 15.352H131.849C133.257 15.352 134.153 14.616 134.153 13.448C134.153 12.248 133.289 11.592 131.833 11.592H128.969V15.352ZM137.443 21V9.8H145.747V11.56H139.411V14.472H145.027V16.232H139.411V19.24H145.827V21H137.443ZM150.962 21.16C149.25 21.16 147.634 20.568 146.29 19.368L147.474 17.96C148.546 18.888 149.618 19.416 151.01 19.416C152.226 19.416 152.994 18.856 152.994 17.976C152.994 17.176 152.546 16.744 150.466 16.248C148.082 15.688 146.738 14.984 146.738 12.888C146.738 10.968 148.338 9.64 150.562 9.64C152.194 9.64 153.49 10.136 154.626 11.048L153.57 12.536C152.562 11.784 151.554 11.384 150.53 11.384C149.378 11.384 148.706 11.976 148.706 12.744C148.706 13.608 149.218 13.992 151.362 14.504C153.73 15.08 154.962 15.928 154.962 17.816C154.962 19.912 153.314 21.16 150.962 21.16Z" fill="#454543"/>
<defs>
<clipPath id="clip0_2915_47">
<rect width="29.8993" height="29.8993" fill="white" transform="translate(0.0671387)"/>
</clipPath>
</defs>
</svg>
