<svg width="71" height="24" viewBox="0 0 71 24" fill="none" xmlns="http://www.w3.org/2000/svg">
<g clip-path="url(#clip0_2918_2)">
<path d="M11.3773 24L11.3776 23.983C5.03756 23.6483 0 18.4113 0 12C0 5.58866 5.03756 0.35166 11.3776 0.0169899L11.3773 0H59.2493C65.7639 0.14766 71 5.46351 71 12C71 18.6274 65.6172 24 58.9771 24L59.249 23.996L11.3773 24Z" fill="#4E4B3C"/>
<path d="M39.8055 18.4865V6H45.0492C45.9261 6 46.683 6.16011 47.3196 6.48033C48.0524 6.84799 48.6351 7.37576 49.0675 8.06363C49.5 8.73965 49.7162 9.48683 49.7162 10.3052C49.7162 11.1235 49.5 11.8766 49.0675 12.5645C48.6471 13.2524 48.0705 13.7801 47.3377 14.1478C46.713 14.468 45.9502 14.6281 45.0492 14.6281H44.8738L44.8465 18.4865H39.8055ZM31.357 6V10.3784H36.7185V18.4865H31.357V14.5946H25.8329V6H31.357ZM23.7208 6L17.7991 18.4865L11.6979 6H23.7208Z" fill="#302E26"/>
<path d="M63.5836 9.06593L58.7743 16.2657C58.5748 16.565 58.2502 16.7584 57.8929 16.7933C57.8534 16.7978 57.8151 16.8 57.7745 16.8C57.4567 16.8 57.1501 16.6752 56.9247 16.4479L54.5206 14.0484C54.0506 13.5793 54.0506 12.8211 54.5206 12.3519C54.9906 11.8828 55.7502 11.8828 56.2202 12.3519L57.5886 13.7177L61.5843 7.73609C61.9528 7.18372 62.6978 7.03523 63.2512 7.40423C63.8035 7.76984 63.9522 8.51359 63.5836 9.06593Z" fill="#302E26"/>
</g>
<defs>
<clipPath id="clip0_2918_2">
<rect width="71" height="24" fill="white"/>
</clipPath>
</defs>
</svg>
