<svg width="20" height="20" viewBox="0 0 20 20" fill="none" xmlns="http://www.w3.org/2000/svg">
<g clip-path="url(#clip0_2942_1138)">
<path d="M17.8571 0.714355H2.1428C1.76392 0.714355 1.40056 0.864865 1.13265 1.13277C0.864743 1.40068 0.714233 1.76405 0.714233 2.14293V15.7144C0.714233 16.0932 0.864743 16.4566 1.13265 16.7245C1.40056 16.9924 1.76392 17.1429 2.1428 17.1429H17.8571C18.236 17.1429 18.5993 16.9924 18.8672 16.7245C19.1352 16.4566 19.2857 16.0932 19.2857 15.7144V2.14293C19.2857 1.76405 19.1352 1.40068 18.8672 1.13277C18.5993 0.864865 18.236 0.714355 17.8571 0.714355Z" stroke="white" stroke-linecap="round" stroke-linejoin="round"/>
<path d="M12.1428 11.4285C12.8058 11.4285 13.4417 11.1651 13.9105 10.6963C14.3794 10.2275 14.6428 9.59158 14.6428 8.92854M12.1428 11.4285C11.4797 11.4285 10.8438 11.1651 10.375 10.6963C9.90616 10.2275 9.64277 9.59158 9.64277 8.92854M12.1428 11.4285V13.2143M14.6428 8.92854C14.6428 8.2655 14.3794 7.62961 13.9105 7.16077C13.4417 6.69193 12.8058 6.42854 12.1428 6.42854M14.6428 8.92854H16.4285M12.1428 6.42854C11.4797 6.42854 10.8438 6.69193 10.375 7.16077C9.90616 7.62961 9.64277 8.2655 9.64277 8.92854M12.1428 6.42854V4.64282M9.64277 8.92854H7.85706M15.1713 5.89997L13.9142 7.15711M10.3713 10.7L9.1142 11.9571M15.1713 11.9571L13.9142 10.7M10.3713 7.15711L9.1142 5.89997M4.28563 6.42854V11.4285M2.85706 17.1428V19.2857M16.4285 17.1428V19.2857" stroke="white" stroke-linecap="round" stroke-linejoin="round"/>
</g>
<defs>
<clipPath id="clip0_2942_1138">
<rect width="20" height="20" fill="white"/>
</clipPath>
</defs>
</svg>
