<svg width="24" height="20" viewBox="0 0 24 20" fill="none" xmlns="http://www.w3.org/2000/svg">
<path d="M2.5 2.29175C2.5 2.12599 2.42098 1.96702 2.28033 1.84981C2.13968 1.7326 1.94891 1.66675 1.75 1.66675C1.55109 1.66675 1.36032 1.7326 1.21967 1.84981C1.07902 1.96702 1 2.12599 1 2.29175V17.7084C1 18.0534 1.336 18.3334 1.75 18.3334H20C20.1989 18.3334 20.3897 18.2676 20.5303 18.1504C20.671 18.0331 20.75 17.8742 20.75 17.7084C20.75 17.5427 20.671 17.3837 20.5303 17.2665C20.3897 17.1493 20.1989 17.0834 20 17.0834H2.5V2.29175Z" fill="white"/>
<path d="M22.28 6.48345C22.4125 6.36497 22.4846 6.20827 22.4811 6.04635C22.4777 5.88443 22.399 5.72994 22.2616 5.61543C22.1242 5.50092 21.9388 5.43533 21.7445 5.43247C21.5502 5.42961 21.3621 5.48972 21.22 5.60012L15.5 10.3668L11.78 7.26678C11.6393 7.14974 11.4487 7.084 11.25 7.084C11.0512 7.084 10.8606 7.14974 10.72 7.26678L4.71997 12.2668C4.64628 12.324 4.58718 12.393 4.54619 12.4697C4.5052 12.5463 4.48316 12.6291 4.48138 12.713C4.4796 12.7969 4.49813 12.8803 4.53585 12.9581C4.57357 13.0359 4.62971 13.1066 4.70093 13.166C4.77215 13.2253 4.85698 13.2721 4.95037 13.3036C5.04376 13.335 5.14379 13.3504 5.24449 13.3489C5.3452 13.3475 5.44451 13.3291 5.53651 13.2949C5.62851 13.2608 5.71131 13.2115 5.77997 13.1501L11.25 8.59178L14.97 11.6918C15.1106 11.8088 15.3012 11.8746 15.5 11.8746C15.6987 11.8746 15.8893 11.8088 16.03 11.6918L22.28 6.48345Z" fill="white"/>
</svg>
