<svg width="95" height="33" viewBox="0 0 95 33" fill="none" xmlns="http://www.w3.org/2000/svg">
<g clip-path="url(#clip0_2962_880)">
<path d="M63.0126 9.22949H58.2565C57.7784 9.22949 57.3917 9.62053 57.3917 10.1044V31.9761C57.3917 32.4601 57.7784 32.8509 58.2565 32.8509H63.0126C63.4907 32.8509 63.8771 32.4601 63.8771 31.9761V10.1044C63.8771 9.62053 63.4907 9.22949 63.0126 9.22949Z" fill="#363636"/>
<path d="M75.5507 14.8631V31.9761C75.5507 32.4601 75.9373 32.8509 76.4155 32.8509H81.1712C81.6493 32.8509 82.036 32.4601 82.036 31.9761V17.2823C82.036 16.4571 82.6943 15.791 83.5101 15.791H87.0409C87.8563 15.791 88.5147 16.4571 88.5147 17.2823V31.9761C88.5147 32.4601 88.9013 32.8509 89.3795 32.8509H94.1352C94.6137 32.8509 95 32.4601 95 31.9761V14.8631C95 11.7514 92.5075 9.22949 89.4317 9.22949H81.1189C78.0431 9.22949 75.5507 11.7514 75.5507 14.8631Z" fill="#363636"/>
<path d="M60.6344 0C58.6657 0 57.0674 1.61719 57.0674 3.60885C57.0674 5.60048 58.6657 7.21768 60.6344 7.21768C62.6028 7.21768 64.2013 5.60048 64.2013 3.60885C64.2013 1.61719 62.6063 0 60.6344 0Z" fill="#363636"/>
<path d="M72.0917 1.35547H67.3357C66.8575 1.35547 66.4712 1.74651 66.4712 2.23034V31.9759C66.4712 32.4597 66.8575 32.8509 67.3357 32.8509H72.0917C72.5699 32.8509 72.9565 32.4597 72.9565 31.9759V2.23034C72.9565 1.74651 72.5699 1.35547 72.0917 1.35547Z" fill="#363636"/>
<path d="M55.9506 31.4886L49.3702 21.5038C49.1834 21.2221 49.1771 20.8542 49.3506 20.5626L55.3872 10.5579C55.7409 9.97471 55.3248 9.22577 54.6503 9.22577H49.5371C49.236 9.22577 48.9576 9.38481 48.8002 9.6433L44.8796 16.1386C44.7127 16.4136 44.4179 16.6058 44.074 16.6058C43.5499 16.6058 43.124 16.175 43.124 15.6448V3.21765C43.124 2.73381 42.7376 2.34277 42.2592 2.34277H37.5035C37.0253 2.34277 36.6386 2.73381 36.6386 3.21765V31.9757C36.6386 32.4594 37.0253 32.8506 37.5035 32.8506H42.2592C42.7376 32.8506 43.124 32.4594 43.124 31.9757V26.0338C43.124 25.5036 43.5499 25.0728 44.074 25.0728C44.4014 25.0728 44.6864 25.2385 44.8599 25.4937L49.4522 32.4629C49.6125 32.7048 49.8813 32.8538 50.1727 32.8538H55.2333C55.9243 32.8538 56.3369 32.0753 55.9537 31.4952" fill="#363636"/>
<path d="M14.3954 10.8628C14.569 10.6839 14.8081 10.5745 15.0734 10.5745C15.3387 10.5745 15.5745 10.6806 15.7449 10.8562L19.957 15.1179C20.2977 15.4625 20.8512 15.4625 21.1918 15.1179L24.5426 11.7277C24.8832 11.3831 24.8832 10.8231 24.5426 10.4784L17.5234 3.36676C16.1739 2.00144 13.9827 2.00144 12.6332 3.36676L5.60417 10.4784C5.26353 10.8231 5.26353 11.3831 5.60417 11.7277L8.95492 15.1179C9.29556 15.4625 9.84909 15.4625 10.1898 15.1179L14.3954 10.8628Z" fill="#363636"/>
<path d="M29.138 15.1212L27.615 13.5803C27.2743 13.2356 26.7208 13.2356 26.3801 13.5803L15.7449 24.3405C15.5746 24.5128 15.3355 24.6222 15.0734 24.6222C14.8114 24.6222 14.5756 24.5161 14.402 24.3438L3.76998 13.5803C3.42934 13.2356 2.87581 13.2356 2.53517 13.5803L1.0121 15.1212C-0.337367 16.4865 -0.337367 18.7036 1.0121 20.0689L12.63 31.8233C13.9794 33.1887 16.1707 33.1887 17.5202 31.8233L29.138 20.0689C30.4875 18.7036 30.4875 16.4865 29.138 15.1212Z" fill="#363636"/>
</g>
<defs>
<clipPath id="clip0_2962_880">
<rect width="95" height="33" fill="white"/>
</clipPath>
</defs>
</svg>
