<svg width="111" height="26" viewBox="0 0 111 26" fill="none" xmlns="http://www.w3.org/2000/svg">
<path fill-rule="evenodd" clip-rule="evenodd" d="M27.701 0.779297C24.1092 0.779297 20.8714 2.35454 18.6455 4.89526C21.0738 5.35259 23.4009 6.41969 25.2727 8.04575C26.5881 9.11285 27.7516 10.3832 28.7634 11.806L29.3199 12.6699C29.4211 12.8223 29.4211 12.9747 29.3199 13.1272L28.7634 13.991C27.8022 15.4138 26.5881 16.6334 25.2727 17.7513C23.4009 19.3773 21.0738 20.4953 18.6455 20.9018C20.8714 23.4425 24.0586 25.0177 27.701 25.0177C34.3283 25.0177 39.6908 19.6314 39.6908 12.9239C39.6908 6.21643 34.3283 0.779297 27.701 0.779297Z" fill="#363636"/>
<path fill-rule="evenodd" clip-rule="evenodd" d="M23.0974 13.0257C23.0468 13.7371 22.4397 14.1944 21.7315 14.1436C21.0232 14.0928 20.5679 13.483 20.6185 12.7716V12.7208C20.7197 12.0602 21.3268 11.5521 22.035 11.6537C22.6927 11.7554 23.1986 12.3651 23.0974 13.0257ZM26.3857 12.67C25.0198 10.9423 21.7821 7.58858 17.229 7.28369H17.0266C16.116 9.01138 15.6607 10.9423 15.6607 12.8733C15.6607 14.9058 16.1666 16.786 17.0266 18.4628C17.0772 18.4628 17.1278 18.4628 17.229 18.4628C21.7821 18.158 24.9692 14.855 26.3857 13.0765C26.4869 12.9749 26.4869 12.7716 26.3857 12.67Z" fill="#363636"/>
<path fill-rule="evenodd" clip-rule="evenodd" d="M17.0266 18.4626C13.0806 18.6659 9.18525 16.5825 6.35223 13.0255C6.25105 12.9239 6.25105 12.7714 6.35223 12.6698C9.18525 9.11279 13.0806 7.0294 17.0266 7.23266C17.4819 6.36882 17.9878 5.6066 18.6455 4.8952C18.2408 4.84439 17.7855 4.74276 17.3808 4.74276C13.6877 4.59031 10.0453 5.86067 7.26285 8.29976C6.40282 9.01116 5.64398 9.77338 4.93573 10.6372C4.88514 10.688 4.83455 10.688 4.78396 10.6372C3.97452 9.21442 3.36745 7.68999 2.91214 6.16556C2.76037 5.86067 2.50743 5.55579 2.20389 5.45416C1.95094 5.35253 1.59681 5.35253 1.34386 5.45416C0.837969 5.70823 0.585022 6.318 0.686201 6.87696C1.24269 8.90953 2.10271 10.8913 3.21568 12.7206C3.26627 12.8222 3.26627 12.9239 3.21568 13.0255C2.10271 14.8548 1.24269 16.7858 0.686201 18.8691C0.686201 19.3773 0.989738 19.8346 1.44504 20.0887C1.59681 20.1395 1.74858 20.1903 1.90035 20.1903C2.30507 20.1903 2.65919 19.9871 2.91214 19.6314C3.36745 18.0561 3.97452 16.5317 4.78396 15.1089C4.83455 15.0581 4.88514 15.0581 4.93573 15.0581C5.64398 15.9219 6.40282 16.6841 7.26285 17.3955C9.84291 19.6314 13.1312 20.9017 16.5713 21.0033C16.8749 21.0033 17.1278 21.0033 17.4314 20.9525C17.8361 20.9017 18.2914 20.8509 18.6961 20.8001C18.0384 20.0887 17.4819 19.3265 17.0266 18.4626ZM93.4675 7.94406C93.8216 7.94406 94.1251 7.84243 94.3275 7.63917C94.5299 7.43592 94.6816 7.18185 94.6816 6.82615C94.6816 6.52126 94.5805 6.21637 94.3275 6.01312C94.1251 5.80986 93.8216 5.70823 93.4675 5.70823C93.1134 5.70823 92.8098 5.80986 92.6075 6.01312C92.4051 6.21637 92.3039 6.47044 92.3039 6.82615C92.3039 7.13103 92.4051 7.43592 92.6075 7.63917C92.8098 7.84243 93.1134 7.94406 93.4675 7.94406Z" fill="#363636"/>
<path fill-rule="evenodd" clip-rule="evenodd" d="M93.5181 9.21455H89.3192V8.96048C89.3192 8.50315 89.4203 8.19827 89.6227 7.9442C89.825 7.74094 90.1286 7.58849 90.5333 7.53768L90.8368 7.48687C91.0898 7.48687 91.2416 7.38524 91.3933 7.23279C91.5451 7.08035 91.5957 6.8771 91.5957 6.67384C91.5957 6.31814 91.4439 5.91162 90.7357 5.91162C90.6345 5.91162 90.5839 5.91162 90.4827 5.91162L90.1792 6.01325C89.2686 6.11488 88.5603 6.41977 88.0544 6.97872C87.5485 7.53768 87.2956 8.2999 87.2956 9.21455H86.6379C85.8791 9.21455 85.7273 9.67188 85.7273 10.0276C85.7273 10.3833 85.8791 10.8406 86.6379 10.8406H87.2956V15.8204C87.2956 16.1253 87.3967 16.3794 87.5991 16.5318C87.8015 16.6843 88.0544 16.7859 88.3074 16.7859C88.6109 16.7859 88.8638 16.6843 89.0156 16.5318C89.218 16.3794 89.3192 16.1253 89.3192 15.8204V10.8406H92.4051V15.8204C92.4051 16.1253 92.5063 16.3794 92.7087 16.5826C92.911 16.7351 93.164 16.8367 93.4169 16.8367C93.7204 16.8367 93.9734 16.7351 94.1252 16.5826C94.3275 16.4302 94.4287 16.1761 94.4287 15.8712V10.0276C94.4793 9.67188 94.3275 9.21455 93.5181 9.21455ZM101.815 13.4321C101.663 13.1273 101.359 12.924 100.955 12.7207C100.55 12.5175 100.044 12.365 99.3865 12.2126C98.7794 12.111 98.3747 11.9585 98.1723 11.8569C97.97 11.7553 97.8688 11.6028 97.8688 11.3996C97.8688 11.1963 97.97 10.9931 98.1217 10.8914C98.3241 10.739 98.5771 10.6882 98.9312 10.6882C99.2347 10.6882 99.4877 10.739 99.69 10.7898C99.8924 10.8406 100.145 10.9931 100.398 11.0947C100.55 11.1963 100.702 11.2471 100.803 11.2979C100.904 11.3488 101.056 11.3488 101.157 11.3488C101.359 11.3488 101.511 11.2471 101.612 11.0947C101.714 10.9422 101.815 10.739 101.815 10.5357C101.815 10.18 101.663 9.87514 101.309 9.67188C101.005 9.46862 100.651 9.31618 100.247 9.21455C99.8418 9.11293 99.4371 9.06211 99.0324 9.06211C98.4253 9.06211 97.9194 9.16374 97.4641 9.367C97.0088 9.57025 96.6546 9.87514 96.3511 10.2308C96.0982 10.5865 95.9464 11.0439 95.9464 11.4504C95.9464 12.0602 96.1488 12.5175 96.5535 12.8732C96.9582 13.2289 97.6158 13.483 98.4759 13.6354C98.9818 13.737 99.3359 13.8387 99.5888 13.9403C99.7912 14.0419 99.9936 14.0927 100.044 14.1944C100.145 14.296 100.145 14.3976 100.145 14.5501C100.145 14.7533 100.044 14.9058 99.8418 15.0582C99.6394 15.2106 99.3359 15.2615 98.9312 15.2615C98.5265 15.2615 98.2229 15.2106 97.97 15.1598C97.6664 15.0582 97.4135 14.9566 97.11 14.8041C96.8064 14.6517 96.5535 14.5501 96.3511 14.5501C96.1487 14.5501 95.997 14.6009 95.8958 14.7533C95.7946 14.9058 95.6934 15.0582 95.6934 15.3123C95.6934 15.7188 95.8452 15.9729 96.1993 16.2269C96.857 16.6843 97.7676 16.8875 98.8806 16.8875C99.8418 16.8875 100.601 16.6843 101.157 16.2777C101.764 15.8712 102.017 15.2615 102.017 14.5501C102.118 14.0419 102.017 13.6862 101.815 13.4321Z" fill="#363636"/>
<path fill-rule="evenodd" clip-rule="evenodd" d="M107.685 9.04596C107.129 9.04596 106.673 9.14759 106.218 9.35085C105.915 9.50329 105.611 9.75736 105.358 10.0114V6.86095C105.358 6.55606 105.257 6.3528 105.055 6.20036C104.852 6.04792 104.599 5.94629 104.346 5.94629C104.043 5.94629 103.79 6.04792 103.587 6.20036C103.385 6.40362 103.284 6.60688 103.284 6.91176V15.8043C103.284 16.1092 103.385 16.3632 103.537 16.5157C103.739 16.6681 103.992 16.7697 104.296 16.7697C104.599 16.7697 104.852 16.6681 105.055 16.5157C105.257 16.3632 105.358 16.1092 105.358 15.8043V12.5013C105.358 11.9424 105.51 11.5359 105.813 11.231C106.117 10.9261 106.522 10.7737 107.028 10.7737C107.432 10.7737 107.786 10.8753 107.938 11.1294C108.14 11.3326 108.242 11.7391 108.242 12.1965V15.8551C108.242 16.16 108.343 16.414 108.545 16.5665C108.748 16.7189 109 16.8206 109.304 16.8206C109.608 16.8206 109.861 16.7189 110.063 16.5665C110.265 16.414 110.316 16.16 110.316 15.8551V12.1456C110.316 10.1131 109.456 9.04596 107.685 9.04596Z" fill="#363636"/>
<path fill-rule="evenodd" clip-rule="evenodd" d="M49.0498 13.4321C48.8981 13.1272 48.5945 12.924 48.1898 12.7207C47.7851 12.5174 47.2792 12.365 46.6215 12.2126C46.0145 12.1109 45.6097 11.9585 45.4074 11.8569C45.205 11.7552 45.1039 11.6028 45.1039 11.3995C45.1039 11.1963 45.205 10.993 45.3568 10.8914C45.5592 10.7389 45.8121 10.6881 46.1662 10.6881C46.4698 10.6881 46.7227 10.7389 46.9251 10.7898C47.1274 10.8406 47.3804 10.993 47.6333 11.0946C47.7851 11.1963 47.9369 11.2471 48.038 11.2979C48.1392 11.3487 48.291 11.3487 48.3922 11.3487C48.5945 11.3487 48.7463 11.2471 48.8475 11.0946C48.9487 10.9422 49.0498 10.7389 49.0498 10.5357C49.0498 10.18 48.8981 9.8751 48.5439 9.67185C48.1898 9.46859 47.8357 9.31615 47.4816 9.21452C47.0768 9.11289 46.6721 9.06208 46.2674 9.06208C45.6603 9.06208 45.1544 9.1637 44.6991 9.36696C44.2438 9.57022 43.8897 9.87511 43.5862 10.2308C43.3332 10.5865 43.1814 10.993 43.1814 11.4503C43.1814 12.0601 43.3838 12.5175 43.7885 12.8732C44.1932 13.2289 44.8509 13.4829 45.7109 13.6354C46.2168 13.737 46.5709 13.8386 46.8239 13.9403C47.0263 14.0419 47.2286 14.0927 47.2792 14.1943C47.3804 14.296 47.3804 14.3976 47.3804 14.55C47.3804 14.7533 47.2792 14.9057 47.0768 15.0582C46.8745 15.2106 46.5709 15.2614 46.1662 15.2614C45.7615 15.2614 45.458 15.2106 45.205 15.1598C44.9015 15.0582 44.6485 14.9565 44.345 14.8041C44.0415 14.6517 43.7885 14.55 43.5862 14.55C43.3838 14.55 43.232 14.6008 43.1309 14.7533C43.0297 14.9057 42.9285 15.0582 42.9285 15.3122C42.9285 15.7188 43.0803 15.9728 43.4344 16.2269C44.0921 16.6842 45.0027 16.8875 46.1156 16.8875C47.0768 16.8875 47.8357 16.6842 48.3922 16.2777C48.9992 15.8712 49.2522 15.2614 49.2522 14.55C49.3028 14.0419 49.2016 13.6862 49.0498 13.4321ZM54.5641 15.2106L54.1594 15.1598C53.5523 15.109 53.2488 14.7533 53.2488 14.0927V10.7898H54.4123C54.7159 10.7898 54.9182 10.7389 55.07 10.5865C55.2218 10.4341 55.3229 10.2308 55.3229 9.97674C55.3229 9.72266 55.2218 9.5194 55.07 9.36696C54.9182 9.21452 54.6653 9.1637 54.4123 9.1637H53.2488V7.89334C53.2488 7.58846 53.1476 7.33439 52.9452 7.18195C52.7429 7.0295 52.4899 6.92788 52.1864 6.92788C51.8829 6.92788 51.6299 7.0295 51.4275 7.18195C51.2252 7.3852 51.124 7.58846 51.124 7.89334V9.1637H50.4663C50.1628 9.1637 49.9604 9.21452 49.8087 9.36696C49.6569 9.5194 49.5557 9.72266 49.5557 9.97674C49.5557 10.2308 49.6569 10.4341 49.8087 10.5865C49.9604 10.7389 50.2134 10.7898 50.4663 10.7898H51.124V13.9403C51.124 15.6679 51.984 16.5826 53.7041 16.735L54.1088 16.7859C54.1594 16.7859 54.21 16.7859 54.2606 16.7859C54.5641 16.7859 54.817 16.735 55.0194 16.6334C55.2218 16.481 55.3735 16.2777 55.3735 16.0236C55.4241 15.6679 55.2724 15.2614 54.5641 15.2106ZM60.736 13.3813V13.5846C60.736 14.0927 60.5843 14.4992 60.2807 14.8041C59.9772 15.109 59.6231 15.2614 59.1678 15.2614C58.8642 15.2614 58.6113 15.1598 58.4089 14.9565C58.2065 14.7533 58.1054 14.55 58.1054 14.2451C58.1054 13.9911 58.156 13.8386 58.3077 13.6862C58.4595 13.5337 58.7124 13.4321 59.0666 13.3813C59.4207 13.3305 59.9266 13.2797 60.5843 13.2797C60.5843 13.3813 60.736 13.3813 60.736 13.3813ZM61.9502 9.82429C61.4443 9.31615 60.6854 9.06208 59.6231 9.06208C59.1678 9.06208 58.6619 9.11289 58.2066 9.21452C57.7007 9.31615 57.2959 9.46859 56.9418 9.67185C56.7395 9.77347 56.5877 9.92592 56.4865 10.0784C56.3853 10.2308 56.3347 10.3832 56.3347 10.5865C56.3347 10.8406 56.3853 10.993 56.5371 11.1455C56.6889 11.2979 56.8406 11.3487 57.043 11.3487C57.1948 11.3487 57.3971 11.2979 57.6501 11.1455C58.0548 10.993 58.4089 10.8914 58.7124 10.7898C58.9654 10.6881 59.2689 10.6881 59.5725 10.6881C60.0278 10.6881 60.3313 10.7898 60.5337 10.993C60.736 11.1963 60.8372 11.552 60.8372 12.0093V12.2634H60.5843C59.5219 12.2634 58.6619 12.3142 58.0042 12.4666C57.3971 12.6191 56.8912 12.8223 56.6383 13.178C56.3347 13.4829 56.183 13.9402 56.183 14.4992C56.183 14.9565 56.2841 15.3631 56.5371 15.7188C56.79 16.0745 57.0936 16.3793 57.4983 16.5826C57.903 16.7859 58.3583 16.8875 58.8642 16.8875C59.3701 16.8875 59.7748 16.7859 60.1795 16.5318C60.4325 16.3793 60.6349 16.1761 60.8372 15.922C60.8372 16.1761 60.9384 16.3793 61.0902 16.5826C61.2925 16.735 61.4949 16.8367 61.7984 16.8367C62.1019 16.8367 62.3549 16.735 62.5067 16.5826C62.6584 16.4302 62.7596 16.1761 62.7596 15.8712V12.2126C62.709 11.1455 62.4561 10.3324 61.9502 9.82429ZM71.0057 15.109L68.5268 12.8732L70.8034 10.7898C71.0057 10.5865 71.1069 10.3324 71.1069 10.0784C71.1069 9.82429 71.0057 9.62103 70.8034 9.41777C70.6516 9.21452 70.3986 9.11289 70.1457 9.11289C69.8927 9.11289 69.6398 9.21452 69.488 9.41777L66.5032 12.3142V6.92788C66.5032 6.62299 66.4021 6.36892 66.1997 6.21647C65.9973 6.06403 65.7444 5.9624 65.4914 5.9624C65.1879 5.9624 64.935 6.06403 64.7832 6.21647C64.5808 6.36892 64.4797 6.62299 64.4797 6.92788V15.8204C64.4797 16.1253 64.5808 16.3793 64.7832 16.5318C64.9856 16.6842 65.2385 16.7859 65.4914 16.7859C65.7444 16.7859 66.0479 16.6842 66.1997 16.5318C66.4021 16.3793 66.5032 16.1253 66.5032 15.8204V13.4829L69.7916 16.481C69.9939 16.6842 70.2469 16.7859 70.4492 16.7859C70.7022 16.7859 70.9045 16.6842 71.1069 16.481C71.3093 16.2777 71.3598 16.0745 71.3598 15.8204C71.3598 15.5663 71.2587 15.3122 71.0057 15.109ZM77.1776 12.2126H74.0411C74.0917 11.7044 74.294 11.2979 74.547 10.993C74.8505 10.6881 75.2047 10.5357 75.66 10.5357C76.1153 10.5357 76.4694 10.6881 76.7223 10.993C76.9753 11.2471 77.1271 11.7044 77.1776 12.2126ZM78.24 14.4992C78.0883 14.4992 77.8353 14.6008 77.5318 14.7533C77.2282 14.9057 76.9753 15.0074 76.7223 15.0582C76.4694 15.109 76.2164 15.1598 75.9129 15.1598C75.3058 15.1598 74.8505 15.0074 74.547 14.7025C74.2435 14.3976 74.0917 13.9403 73.9905 13.3813H78.24C78.5436 13.3813 78.8977 13.2289 78.8977 12.6191C78.8977 11.9077 78.7459 11.2471 78.493 10.6881C78.24 10.1292 77.8353 9.72266 77.3294 9.41777C76.8235 9.11289 76.2164 8.96045 75.5588 8.96045C74.8505 8.96045 74.2434 9.11289 73.687 9.46859C73.1305 9.77348 72.6752 10.2816 72.3716 10.8406C72.0681 11.4503 71.9163 12.1109 71.9163 12.8732C71.9163 14.0419 72.2705 15.0074 72.9787 15.7188C73.687 16.4302 74.6482 16.735 75.8117 16.735C76.2164 16.735 76.6212 16.6842 77.0765 16.5826C77.4812 16.481 77.8859 16.3285 78.24 16.1253C78.6447 15.922 78.8471 15.6171 78.8471 15.2614C78.8471 15.0074 78.7965 14.8041 78.6447 14.6517C78.5942 14.6008 78.4424 14.4992 78.24 14.4992ZM82.7931 11.6536C83.5013 11.7552 83.9566 12.365 83.9061 13.0256C83.8049 13.737 83.1978 14.1943 82.5401 14.1435C81.8825 14.0927 81.3766 13.4321 81.4272 12.7715C81.4778 12.0601 82.0848 11.552 82.7931 11.6536Z" fill="#363636"/>
</svg>
