<svg width="146" height="26" viewBox="0 0 146 26" fill="none" xmlns="http://www.w3.org/2000/svg">
<g clip-path="url(#clip0_2962_845)">
<mask id="mask0_2962_845" style="mask-type:luminance" maskUnits="userSpaceOnUse" x="0" y="0" width="146" height="26">
<path d="M145.705 0H0V26H145.705V0Z" fill="white"/>
</mask>
<g mask="url(#mask0_2962_845)">
<path d="M29.4072 7.25871C24.114 7.25871 19.9782 11.2725 19.9782 16.6458C19.9782 22.0192 24.0095 25.9987 29.4072 25.9987C34.8048 25.9987 38.9062 21.9505 38.9062 16.6115C38.9062 11.3069 34.8749 7.25871 29.4072 7.25871ZM29.4429 22.1262C26.4286 22.1262 24.2198 19.7877 24.2198 16.6472C24.2198 13.471 26.3929 11.1338 29.4072 11.1338C32.4571 11.1338 34.6646 13.5067 34.6646 16.6472C34.6646 19.7877 32.4571 22.1262 29.4429 22.1262ZM40.0622 11.3425H42.6914V25.6512H46.8973V7.60752H40.0622V11.3425ZM9.39325 11.1325C11.602 11.1325 13.3545 12.4933 14.0198 14.5174H18.4717C17.6649 10.1905 14.0899 7.25871 9.42896 7.25871C4.13583 7.25871 0 11.2725 0 16.6472C0 22.0218 4.03135 26 9.42896 26C13.9854 26 17.6305 23.0683 18.4373 18.7056H14.0198C13.3889 20.7297 11.6364 22.1262 9.42766 22.1262C6.37768 22.1262 4.2403 19.7877 4.2403 16.6472C4.24165 13.471 6.34461 11.1325 9.39325 11.1325ZM119.977 14.9019L116.893 14.4487C115.421 14.24 114.37 13.7511 114.37 12.599C114.37 11.3425 115.737 10.715 117.594 10.715C119.627 10.715 120.925 11.587 121.205 13.0178H125.271C124.815 9.38848 122.01 7.26001 117.7 7.26001C113.248 7.26001 110.304 9.52855 110.304 12.7391C110.304 15.8095 112.232 17.5905 116.122 18.1481L119.206 18.6013C120.714 18.81 121.555 19.4045 121.555 20.5209C121.555 21.9518 120.084 22.545 118.051 22.545C115.561 22.545 114.159 21.533 113.949 19.9978H109.813C110.199 23.5227 112.968 26 118.015 26C122.607 26 125.656 23.9059 125.656 20.3109C125.656 17.1004 123.448 15.4251 119.977 14.9019ZM44.7943 0.174399C43.2522 0.174399 42.0952 1.29082 42.0952 2.82606C42.0952 4.3613 43.251 5.47771 44.7943 5.47771C46.3365 5.47771 47.4939 4.3613 47.4939 2.82606C47.4939 1.29082 46.3365 0.174399 44.7943 0.174399ZM106.519 13.7854C106.519 9.87732 104.135 7.26001 99.088 7.26001C94.3213 7.26001 91.6575 9.66859 91.1312 13.3679H95.3026C95.5129 11.9371 96.6345 10.7506 99.0181 10.7506C101.157 10.7506 102.208 11.6926 102.208 12.8448C102.208 14.3457 100.28 14.7288 97.8965 14.9732C94.6719 15.322 90.6762 16.4384 90.6762 20.6267C90.6762 23.8729 93.0951 25.9656 96.9509 25.9656C99.9649 25.9656 101.858 24.7092 102.805 22.7194C102.945 24.4991 104.277 25.6512 106.135 25.6512H108.589V21.9175H106.52V13.7854H106.519ZM102.383 18.3225C102.383 20.731 100.28 22.5107 97.7204 22.5107C96.1428 22.5107 94.8109 21.8474 94.8109 20.4523C94.8109 18.6726 96.9493 18.1838 98.9124 17.975C100.805 17.8006 101.856 17.3818 102.383 16.5785V18.3225ZM80.0556 7.25871C77.7066 7.25871 75.7439 8.23639 74.3421 9.87602V0H70.1361V25.6512H74.2717V23.2783C75.6735 24.9879 77.6724 26 80.0556 26C85.1025 26 88.9238 22.0218 88.9238 16.6472C88.9238 11.2725 85.0326 7.25871 80.0556 7.25871ZM79.4248 22.1262C76.4105 22.1262 74.2018 19.7877 74.2018 16.6472C74.2018 13.5067 76.445 11.1338 79.459 11.1338C82.5091 11.1338 84.6462 13.4723 84.6462 16.6472C84.6462 19.7877 82.4388 22.1262 79.4248 22.1262ZM60.0759 7.25871C57.3422 7.25871 55.554 8.37513 54.5027 9.94602V7.60752H50.331V25.6499H54.5369V15.8439C54.5369 13.0865 56.2893 11.1325 58.8831 11.1325C61.3021 11.1325 62.8085 12.8421 62.8085 15.3207V25.6512H67.0144V15.0076C67.016 10.4692 64.6682 7.25871 60.0759 7.25871ZM145.705 16.054C145.705 10.8894 141.92 7.26001 136.837 7.26001C131.439 7.26001 127.478 11.3082 127.478 16.6472C127.478 22.2663 131.72 26 136.907 26C141.289 26 144.724 23.4171 145.599 19.7533H141.217C140.587 21.3586 139.044 22.2663 136.976 22.2663C134.276 22.2663 132.243 20.591 131.788 17.6592H145.704V16.054H145.705ZM132.034 14.6575C132.701 12.1445 134.594 10.9237 136.767 10.9237C139.15 10.9237 140.973 12.2846 141.393 14.6575H132.034Z" fill="#363636"/>
</g>
</g>
<defs>
<clipPath id="clip0_2962_845">
<rect width="146" height="26" fill="white"/>
</clipPath>
</defs>
</svg>
