<svg width="139" height="24" viewBox="0 0 139 24" fill="none" xmlns="http://www.w3.org/2000/svg">
<g clip-path="url(#clip0_2962_852)">
<path d="M89.75 18.6199C88.614 18.6463 87.4846 18.4409 86.4307 18.0161C85.3769 17.5913 84.4206 16.9562 83.6204 16.1495C82.8203 15.3427 82.1929 14.3813 81.7768 13.324C81.3606 12.2667 81.1644 11.1357 81.2 9.99994C81.1706 8.87158 81.3709 7.74901 81.7886 6.70041C82.2063 5.6518 82.8328 4.69903 83.63 3.89994C84.4243 3.08739 85.3779 2.44768 86.4311 2.02092C87.4842 1.59417 88.6141 1.38956 89.75 1.41994C90.8875 1.39191 92.0168 1.61897 93.0551 2.08446C94.0934 2.54994 95.0142 3.24204 95.75 4.10994L94.28 5.57994C93.7408 4.89834 93.0515 4.35055 92.2657 3.97933C91.4799 3.60812 90.6189 3.42352 89.75 3.43994C88.9031 3.41926 88.0609 3.5718 87.2751 3.8882C86.4892 4.2046 85.7763 4.6782 85.18 5.27994C84.5709 5.90104 84.0952 6.64015 83.7822 7.45185C83.4692 8.26355 83.3255 9.13068 83.36 9.99994C83.3228 10.8725 83.4651 11.7435 83.7782 12.5588C84.0912 13.3741 84.5684 14.1165 85.18 14.7399C85.7749 15.3436 86.4876 15.8185 87.2737 16.135C88.0599 16.4515 88.9028 16.603 89.75 16.5799C90.7112 16.5753 91.6592 16.3555 92.5243 15.9367C93.3895 15.518 94.15 14.9109 94.75 14.1599L96.29 15.6599C95.5105 16.5918 94.529 17.3339 93.42 17.8299C92.2691 18.3581 91.0164 18.6278 89.75 18.6199ZM100.12 1.78994V18.2599H98V1.78994H100.12ZM101.94 12.6199C101.917 11.8305 102.05 11.0443 102.331 10.3065C102.613 9.56856 103.037 8.89348 103.58 8.31994C104.117 7.76318 104.765 7.32448 105.481 7.03178C106.197 6.73909 106.967 6.59883 107.74 6.61994C108.511 6.59792 109.277 6.73785 109.99 7.03068C110.704 7.32351 111.347 7.76273 111.88 8.31994C112.428 8.89008 112.857 9.56435 113.14 10.3029C113.424 11.0415 113.556 11.8293 113.53 12.6199C113.559 13.4109 113.428 14.1996 113.144 14.9385C112.861 15.6775 112.431 16.3515 111.88 16.9199C111.349 17.4792 110.705 17.9197 109.992 18.2127C109.278 18.5057 108.511 18.6445 107.74 18.6199C106.966 18.6435 106.196 18.5044 105.48 18.2116C104.763 17.9187 104.116 17.4787 103.58 16.9199C103.037 16.3464 102.613 15.6713 102.331 14.9334C102.05 14.1955 101.917 13.4093 101.94 12.6199ZM104.06 12.6199C104.011 13.7015 104.392 14.7583 105.12 15.5599C105.457 15.9171 105.863 16.2017 106.313 16.3962C106.764 16.5907 107.249 16.691 107.74 16.691C108.231 16.691 108.716 16.5907 109.167 16.3962C109.617 16.2017 110.023 15.9171 110.36 15.5599C111.088 14.7583 111.469 13.7015 111.42 12.6199C111.467 11.5447 111.086 10.4948 110.36 9.69994C110.027 9.33749 109.622 9.04817 109.171 8.85026C108.72 8.65235 108.232 8.55017 107.74 8.55017C107.248 8.55017 106.76 8.65235 106.309 8.85026C105.858 9.04817 105.453 9.33749 105.12 9.69994C104.395 10.4948 104.013 11.5447 104.06 12.6199ZM125.23 18.2599H123.23V16.6899H123.13C122.772 17.2769 122.26 17.7543 121.65 18.0699C121.016 18.4295 120.299 18.6189 119.57 18.6199C118.985 18.6578 118.399 18.5724 117.85 18.3691C117.3 18.1658 116.799 17.8492 116.38 17.4399C115.588 16.5027 115.19 15.2946 115.27 14.0699V6.99994H117.38V13.9399C117.336 14.3157 117.378 14.6965 117.503 15.0535C117.628 15.4105 117.833 15.7343 118.102 16.0004C118.371 16.2664 118.697 16.4677 119.055 16.5889C119.414 16.7101 119.795 16.7481 120.17 16.6999C120.575 16.707 120.976 16.6204 121.342 16.4469C121.708 16.2735 122.029 16.0178 122.28 15.6999C122.85 15.013 123.152 14.1425 123.13 13.2499V6.99994H125.25L125.23 18.2599ZM132.39 18.6199C131.67 18.6198 130.959 18.4642 130.305 18.1639C129.651 17.8636 129.069 17.4257 128.6 16.8799C127.549 15.712 126.978 14.1907 127 12.6199C126.966 11.0573 127.523 9.53932 128.56 8.36994C129.026 7.81928 129.606 7.37726 130.261 7.07493C130.916 6.77261 131.629 6.61731 132.35 6.61994C133.139 6.60657 133.919 6.78865 134.62 7.14994C135.263 7.46671 135.808 7.95021 136.2 8.54994H136.29L136.24 6.99994V1.78994H138.35V18.2599H136.35V16.6899H136.26C135.868 17.2897 135.323 17.7732 134.68 18.0899C133.973 18.4545 133.186 18.6366 132.39 18.6199ZM132.74 16.6899C133.223 16.7055 133.703 16.612 134.144 16.4164C134.586 16.2207 134.977 15.928 135.29 15.5599C135.989 14.7452 136.348 13.6921 136.29 12.6199C136.338 11.5551 135.981 10.5116 135.29 9.69994C134.978 9.32938 134.587 9.03363 134.146 8.83457C133.705 8.63551 133.224 8.53824 132.74 8.54994C132.257 8.54248 131.777 8.64166 131.337 8.84043C130.896 9.03919 130.504 9.33266 130.19 9.69994C129.499 10.5116 129.142 11.5551 129.19 12.6199C129.134 13.6858 129.493 14.7319 130.19 15.5399C130.504 15.9072 130.896 16.2007 131.337 16.3995C131.777 16.5982 132.257 16.6974 132.74 16.6899Z" fill="#363636"/>
<path d="M9.49 18.62C7.00164 18.6282 4.61024 17.6557 2.83393 15.913C1.05762 14.1704 0.0394428 11.7981 0 9.31001C0.0394428 6.82195 1.05762 4.44962 2.83393 2.707C4.61024 0.964375 7.00164 -0.00818927 9.49 1.46092e-05C10.6757 -0.019731 11.8534 0.197415 12.9541 0.638724C14.0548 1.08003 15.0563 1.73663 15.9 2.57001L14.09 4.36001C12.8559 3.17169 11.2031 2.51776 9.49 2.54001C8.603 2.5373 7.72432 2.711 6.90507 3.05101C6.08583 3.39102 5.34237 3.89055 4.71797 4.52054C4.09356 5.15053 3.60067 5.8984 3.26796 6.72064C2.93526 7.54288 2.76939 8.42308 2.78 9.31001C2.76939 10.197 2.93526 11.0771 3.26796 11.8994C3.60067 12.7216 4.09356 13.4695 4.71797 14.0995C5.34237 14.7295 6.08583 15.229 6.90507 15.569C7.72432 15.909 8.603 16.0827 9.49 16.08C10.3638 16.1159 11.2354 15.968 12.0484 15.6459C12.8615 15.3237 13.5979 14.8346 14.21 14.21C15.026 13.3299 15.5164 12.1973 15.6 11H9.49V8.47001H18.09C18.1838 8.99467 18.2273 9.52709 18.22 10.06C18.2877 12.2545 17.4904 14.3878 16 16C15.1612 16.8714 14.1475 17.5553 13.0255 18.0069C11.9034 18.4585 10.6985 18.6674 9.49 18.62Z" fill="#363636"/>
<path d="M31.52 12.6199C31.5528 13.4198 31.4237 14.2181 31.1402 14.9668C30.8567 15.7155 30.4249 16.3992 29.8705 16.9768C29.3162 17.5544 28.6508 18.0139 27.9143 18.3279C27.1779 18.6418 26.3856 18.8036 25.585 18.8036C24.7844 18.8036 23.9921 18.6418 23.2557 18.3279C22.5192 18.0139 21.8539 17.5544 21.2995 16.9768C20.7452 16.3992 20.3133 15.7155 20.0298 14.9668C19.7464 14.2181 19.6172 13.4198 19.65 12.6199C19.6172 11.8201 19.7464 11.0218 20.0298 10.2731C20.3133 9.52437 20.7452 8.8407 21.2995 8.26312C21.8539 7.68554 22.5192 7.22598 23.2557 6.91204C23.9921 6.59811 24.7844 6.43628 25.585 6.43628C26.3856 6.43628 27.1779 6.59811 27.9143 6.91204C28.6508 7.22598 29.3162 7.68554 29.8705 8.26312C30.4249 8.8407 30.8567 9.52437 31.1402 10.2731C31.4237 11.0218 31.5528 11.8201 31.52 12.6199ZM28.92 12.6199C28.9641 12.1554 28.9107 11.6868 28.7631 11.2441C28.6156 10.8014 28.3772 10.3944 28.0632 10.0492C27.7493 9.70402 27.3666 9.42822 26.9399 9.23949C26.5131 9.05077 26.0516 8.95329 25.585 8.95329C25.1184 8.95329 24.6569 9.05077 24.2301 9.23949C23.8034 9.42822 23.4207 9.70402 23.1068 10.0492C22.7928 10.3944 22.5544 10.8014 22.4069 11.2441C22.2593 11.6868 22.2059 12.1554 22.25 12.6199C22.2059 13.0845 22.2593 13.5531 22.4069 13.9958C22.5544 14.4385 22.7928 14.8455 23.1068 15.1907C23.4207 15.5359 23.8034 15.8117 24.2301 16.0004C24.6569 16.1891 25.1184 16.2866 25.585 16.2866C26.0516 16.2866 26.5131 16.1891 26.9399 16.0004C27.3666 15.8117 27.7493 15.5359 28.0632 15.1907C28.3772 14.8455 28.6156 14.4385 28.7631 13.9958C28.9107 13.5531 28.9641 13.0845 28.92 12.6199Z" fill="#363636"/>
<path d="M44.83 12.6199C44.8628 13.4198 44.7337 14.2181 44.4502 14.9668C44.1667 15.7155 43.7349 16.3992 43.1805 16.9768C42.6262 17.5544 41.9608 18.0139 41.2243 18.3279C40.4879 18.6418 39.6956 18.8036 38.895 18.8036C38.0944 18.8036 37.3021 18.6418 36.5657 18.3279C35.8292 18.0139 35.1639 17.5544 34.6095 16.9768C34.0552 16.3992 33.6233 15.7155 33.3398 14.9668C33.0564 14.2181 32.9272 13.4198 32.96 12.6199C32.9272 11.8201 33.0564 11.0218 33.3398 10.2731C33.6233 9.52437 34.0552 8.8407 34.6095 8.26312C35.1639 7.68554 35.8292 7.22598 36.5657 6.91204C37.3021 6.59811 38.0944 6.43628 38.895 6.43628C39.6956 6.43628 40.4879 6.59811 41.2243 6.91204C41.9608 7.22598 42.6262 7.68554 43.1805 8.26312C43.7349 8.8407 44.1667 9.52437 44.4502 10.2731C44.7337 11.0218 44.8628 11.8201 44.83 12.6199ZM42.23 12.6199C42.2657 12.1596 42.2058 11.6969 42.0541 11.2608C41.9024 10.8247 41.6622 10.4246 41.3486 10.0858C41.0349 9.74692 40.6546 9.47655 40.2316 9.29165C39.8085 9.10675 39.3517 9.0113 38.89 9.0113C38.4283 9.0113 37.9715 9.10675 37.5485 9.29165C37.1254 9.47655 36.7451 9.74692 36.4314 10.0858C36.1178 10.4246 35.8776 10.8247 35.7259 11.2608C35.5743 11.6969 35.5144 12.1596 35.55 12.6199C35.5144 13.0803 35.5743 13.543 35.7259 13.9791C35.8776 14.4152 36.1178 14.8153 36.4314 15.1541C36.7451 15.493 37.1254 15.7633 37.5485 15.9482C37.9715 16.1332 38.4283 16.2286 38.89 16.2286C39.3517 16.2286 39.8085 16.1332 40.2316 15.9482C40.6546 15.7633 41.0349 15.493 41.3486 15.1541C41.6622 14.8153 41.9024 14.4152 42.0541 13.9791C42.2058 13.543 42.2657 13.0803 42.23 12.6199Z" fill="#363636"/>
<path d="M57.8 7.00011V17.7601C57.8 22.1801 55.17 24.0001 52.07 24.0001C50.9291 24.0064 49.8122 23.6731 48.8613 23.0427C47.9104 22.4124 47.1685 21.5134 46.73 20.4601L49.04 19.4601C49.2728 20.0732 49.6819 20.6037 50.2158 20.9845C50.7497 21.3654 51.3845 21.5796 52.04 21.6001C54.04 21.6001 55.26 20.3701 55.26 18.0801V17.2201H55.2C54.8 17.6715 54.3066 18.0305 53.7541 18.2722C53.2015 18.514 52.603 18.6327 52 18.6201C50.4087 18.6201 48.8826 17.988 47.7574 16.8627C46.6321 15.7375 46 14.2114 46 12.6201C46 11.0288 46.6321 9.50268 47.7574 8.37747C48.8826 7.25225 50.4087 6.62011 52 6.62011C52.6009 6.609 53.1972 6.72637 53.7491 6.96436C54.301 7.20235 54.7956 7.55548 55.2 8.00011H55.29V7.00011H57.8ZM55.47 12.6601C55.5067 12.2067 55.4518 11.7506 55.3086 11.3189C55.1654 10.8872 54.9367 10.4887 54.6363 10.1472C54.3358 9.80566 53.9697 9.5281 53.5597 9.33104C53.1498 9.13398 52.7044 9.02143 52.25 9.00011C51.7885 9.01672 51.3349 9.12503 50.9157 9.31871C50.4965 9.5124 50.12 9.78758 49.8082 10.1282C49.4964 10.4689 49.2555 10.8682 49.0996 11.3029C48.9437 11.7376 48.8758 12.1989 48.9 12.6601C48.8786 13.1181 48.9486 13.5759 49.1061 14.0065C49.2637 14.4372 49.5054 14.8321 49.8173 15.1682C50.1293 15.5043 50.505 15.7749 50.9227 15.9641C51.3404 16.1533 51.7916 16.2573 52.25 16.2701C52.7026 16.254 53.1472 16.1464 53.5569 15.9536C53.9667 15.7609 54.3332 15.4871 54.6341 15.1487C54.9351 14.8103 55.1643 14.4145 55.308 13.985C55.4517 13.5556 55.5068 13.1015 55.47 12.6501V12.6601Z" fill="#363636"/>
<path d="M62.43 0.639893V18.2599H59.79V0.639893H62.43Z" fill="#363636"/>
<path d="M72.83 14.6L74.89 16C74.34 16.8208 73.5959 17.493 72.7236 17.9571C71.8513 18.4211 70.878 18.6626 69.89 18.66C69.1041 18.6712 68.324 18.5229 67.5971 18.2239C66.8701 17.925 66.2114 17.4816 65.6607 16.9207C65.1101 16.3598 64.679 15.693 64.3936 14.9606C64.1081 14.2282 63.9742 13.4456 64 12.66C63.8829 11.3094 64.267 9.96301 65.0788 8.8774C65.8907 7.79178 67.0737 7.04288 68.4023 6.77346C69.7309 6.50404 71.1122 6.73292 72.2828 7.4165C73.4535 8.10007 74.3317 9.19052 74.75 10.48L75.02 11.17L67.02 14.48C67.2693 15.0403 67.6806 15.5131 68.2011 15.8375C68.7215 16.1619 69.3272 16.323 69.94 16.3C70.5267 16.2867 71.1003 16.1235 71.6061 15.8259C72.112 15.5284 72.5333 15.1063 72.83 14.6ZM66.52 12.44L71.9 10.22C71.6847 9.82174 71.3584 9.4945 70.9608 9.27795C70.5632 9.06141 70.1114 8.96485 69.66 8.99999C69.2278 9.01924 68.8036 9.12355 68.4118 9.30694C68.02 9.49032 67.6682 9.74919 67.3765 10.0687C67.0848 10.3882 66.8591 10.7622 66.7121 11.1691C66.5651 11.5759 66.4998 12.0078 66.52 12.44Z" fill="#363636"/>
</g>
<defs>
<clipPath id="clip0_2962_852">
<rect width="138.35" height="24" fill="white"/>
</clipPath>
</defs>
</svg>
