<svg width="108" height="40" viewBox="0 0 108 40" fill="none" xmlns="http://www.w3.org/2000/svg">
<g clip-path="url(#clip0_2962_868)">
<path d="M21.8649 0.0965271L15.6908 3.58965C13.4591 4.85228 13.2605 7.99172 15.3154 9.52546L21.6193 14.2307C22.9033 15.189 22.7796 17.1506 21.3854 17.9401L15.697 21.1615C13.4639 22.4261 13.2686 25.5692 15.328 27.1005L21.3297 31.5633C21.9525 32.0264 22.3195 32.7567 22.3195 33.5327V33.7164C22.3195 34.2814 22.9295 34.6358 23.4203 34.3561L29.6268 30.8185C31.8597 29.5459 32.0427 26.3961 29.9723 24.8734L23.6728 20.2404C22.3796 19.2893 22.4929 17.3221 23.8869 16.5258L29.6382 13.2402C31.8676 11.9667 32.05 8.82094 29.9827 7.29829L23.9624 2.86404C23.3345 2.40149 22.9637 1.66798 22.9637 0.888027V0.737329C22.9637 0.173416 22.3557 -0.181155 21.8649 0.0965271Z" fill="#363636"/>
<path d="M8.32646 5.64267L2.15235 9.13579C-0.0793704 10.3984 -0.277926 13.5379 1.77693 15.0716L8.08081 19.7768C9.36478 20.7351 9.24113 22.6967 7.84698 23.4862L2.15848 26.7077C-0.0745764 27.9723 -0.269858 31.1153 1.78949 32.6466L7.79127 37.1094C8.414 37.5725 8.78103 38.3028 8.78103 39.0788V39.2626C8.78103 39.8275 9.39104 40.182 9.88186 39.9022L16.0884 36.3647C18.3212 35.092 18.5043 31.9422 16.4338 30.4195L10.1344 25.7865C8.84111 24.8354 8.95446 22.8682 10.3484 22.0719L16.0998 18.7864C18.3291 17.5128 18.5115 14.3671 16.4443 12.8444L10.424 8.41018C9.79599 7.94763 9.42525 7.21412 9.42525 6.43417V6.28347C9.42525 5.71956 8.81726 5.36498 8.32646 5.64267Z" fill="#363636"/>
<path d="M54.4656 30.9299C54.3729 30.9299 54.2848 30.8891 54.2249 30.8183L46.0822 21.2095C45.8922 20.9853 45.5258 21.1197 45.5258 21.4136V30.6143C45.5258 30.7886 45.3845 30.9299 45.2102 30.9299H42.1148C41.9405 30.9299 41.7992 30.7886 41.7992 30.6143V8.52606C41.7992 8.35175 41.9405 8.21045 42.1148 8.21045H45.2102C45.3845 8.21045 45.5258 8.35175 45.5258 8.52606V17.913C45.5258 18.208 45.8946 18.3417 46.0837 18.1152L54.2575 8.3238C54.3174 8.25197 54.4062 8.21045 54.4997 8.21045H58.3253C58.5974 8.21045 58.7419 8.53176 58.5615 8.7354L49.1313 19.3752C49.0247 19.4955 49.0255 19.6768 49.1333 19.7961L58.714 30.4027C58.8973 30.6057 58.7533 30.9299 58.4798 30.9299H54.4656Z" fill="#363636"/>
<path d="M76.3167 21.4827C76.3167 22.0503 76.2859 22.5717 76.2244 23.047C76.2045 23.2008 76.0718 23.3134 75.9168 23.3134H62.7639C62.5802 23.3134 62.4345 23.47 62.4577 23.6522C62.6203 24.9342 63.1429 25.9763 64.0253 26.7785C64.9842 27.6502 66.161 28.0861 67.5558 28.0861C69.49 28.0861 70.8766 27.3052 71.7156 25.7435C71.7724 25.6377 71.8815 25.569 72.0017 25.569H75.3902C75.6051 25.569 75.7571 25.7792 75.6797 25.9797C75.1119 27.4518 74.1692 28.6769 72.8515 29.6552C71.435 30.7013 69.6697 31.2243 67.5558 31.2243C65.8341 31.2243 64.2868 30.8429 62.9138 30.0802C61.5626 29.2956 60.4948 28.206 59.7102 26.8112C58.9475 25.3946 58.5661 23.7601 58.5661 21.9077C58.5661 20.0553 58.9366 18.4317 59.6775 17.0369C60.4403 15.6204 61.4973 14.5307 62.8484 13.7679C64.2214 13.0052 65.7905 12.6238 67.5558 12.6238C69.2557 12.6238 70.7703 12.9943 72.0997 13.7352C73.4291 14.4762 74.4642 15.5223 75.2052 16.8735C75.9462 18.2029 76.3167 19.7393 76.3167 21.4827ZM72.1177 20.8433C72.2893 20.837 72.4251 20.6947 72.414 20.5233C72.3296 19.2225 71.8434 17.7711 70.9555 17.0042C69.9966 16.1761 68.8089 15.762 67.3923 15.762C66.1065 15.762 65.006 16.1761 64.0907 17.0042C63.1275 17.8757 62.7049 19.4954 62.5063 20.8327C62.4778 21.0251 62.6326 21.1936 62.827 21.1864L72.1177 20.8433Z" fill="#363636"/>
<path d="M92.3811 16.3023C93.0657 15.0533 93.8739 14.0403 94.9636 13.4737C96.0532 12.9071 97.2846 12.6238 98.6575 12.6238C100.227 12.6238 101.654 13.0161 102.94 13.8006C104.247 14.5634 105.272 15.6421 106.013 17.0369C106.754 18.4317 107.124 20.0335 107.124 21.8423C107.124 23.6512 106.754 25.2748 106.013 26.7131C105.272 28.1297 104.247 29.2411 102.94 30.0475C101.654 30.832 100.227 31.2243 98.6575 31.2243C97.2846 31.2243 96.0641 30.9519 94.9963 30.4071C93.9284 29.8404 92.8989 28.7748 92.3811 27.5785V39.1792C92.3811 39.3536 92.2398 39.4949 92.0655 39.4949H88.97C88.7957 39.4949 88.6544 39.3536 88.6544 39.1792V13.2336C88.6544 13.0593 88.7957 12.918 88.97 12.918H92.0655C92.2398 12.918 92.3811 13.0593 92.3811 13.2336V16.3023ZM103.332 21.8423C103.332 20.6001 103.071 19.5322 102.548 18.6387C102.046 17.7234 101.371 17.0369 100.521 16.5793C99.6927 16.0998 98.7992 15.8601 97.8403 15.8601C96.9032 15.8601 96.0097 16.0998 95.1597 16.5793C94.3316 17.0587 93.656 17.7561 93.1329 18.6714C92.6317 19.5867 92.3811 20.6655 92.3811 21.9077C92.3811 23.1499 92.6317 24.2396 93.1329 25.1767C93.656 26.092 94.3316 26.7894 95.1597 27.2688C96.0097 27.7483 96.9032 27.988 97.8403 27.988C98.7992 27.988 99.6927 27.7483 100.521 27.2688C101.371 26.7676 102.046 26.0484 102.548 25.1113C103.071 24.1742 103.332 23.0845 103.332 21.8423Z" fill="#363636"/>
<path d="M83.0598 31.1929C81.297 31.1929 80.8661 30.7841 80.4054 30.3226C79.7424 29.6805 79.4109 28.6288 79.4109 27.1674V8.04804C79.4109 7.87373 79.5522 7.73242 79.7265 7.73242H82.609C82.7833 7.73242 82.9246 7.86258 82.9246 8.03688C82.9246 10.4102 82.9246 25.8716 82.9246 26.4013C82.9246 26.8071 83.136 27.0524 83.2562 27.1728C83.3764 27.2932 83.555 27.4885 84.2507 27.4692C84.6704 27.4692 85.0633 27.4692 85.4601 27.4692C85.6344 27.4692 85.7757 27.6105 85.7757 27.7848V30.8773C85.7757 31.0516 85.6344 31.1929 85.4601 31.1929C85.0752 31.1929 84.7175 31.1929 84.3859 31.1929C83.9653 31.1929 83.5681 31.1929 83.0598 31.1929Z" fill="#363636"/>
</g>
<defs>
<clipPath id="clip0_2962_868">
<rect width="107" height="40" fill="white" transform="translate(0.349976)"/>
</clipPath>
</defs>
</svg>
