<svg width="40" height="34" viewBox="0 0 40 34" fill="none" xmlns="http://www.w3.org/2000/svg">
<g clip-path="url(#clip0_4853_610)">
<mask id="mask0_4853_610" style="mask-type:luminance" maskUnits="userSpaceOnUse" x="0" y="0" width="40" height="34">
<path d="M39.6226 0H0.377365V34H39.6226V0Z" fill="white"/>
</mask>
<g mask="url(#mask0_4853_610)">
<mask id="mask1_4853_610" style="mask-type:luminance" maskUnits="userSpaceOnUse" x="0" y="0" width="40" height="34">
<path d="M39.6226 0H0.377365V34H39.6226V0Z" fill="white"/>
</mask>
<g mask="url(#mask1_4853_610)">
<path d="M30.0157 10.3529C29.3003 9.94695 28.3805 9.94695 27.5629 10.3529L21.8396 13.7022L17.956 15.8335L12.3349 19.1828C11.6195 19.5887 10.6997 19.5887 9.88212 19.1828L5.48743 16.5439C4.77202 16.138 4.26101 15.326 4.26101 14.4126V9.33796C4.26101 8.52601 4.66982 7.71407 5.48743 7.20662L9.88212 4.66932C10.5975 4.26335 11.5173 4.26335 12.3349 4.66932L16.7296 7.30816C17.445 7.71407 17.956 8.52601 17.956 9.4395V12.7887L21.8396 10.5559V7.10514C21.8396 6.2932 21.4308 5.48126 20.6132 4.9738L12.4371 0.203648C11.7217 -0.202323 10.8019 -0.202323 9.98431 0.203648L1.60378 5.07529C0.786173 5.48126 0.377365 6.2932 0.377365 7.10514V16.6455C0.377365 17.4574 0.786173 18.2693 1.60378 18.7768L9.88212 23.547C10.5975 23.9529 11.5173 23.9529 12.3349 23.547L17.956 20.2992L21.8396 18.0663L27.4607 14.8186C28.1761 14.4126 29.0959 14.4126 29.9135 14.8186L34.3082 17.3559C35.0236 17.7619 35.5346 18.5738 35.5346 19.4872V24.5619C35.5346 25.3738 35.1258 26.1857 34.3082 26.6932L30.0157 29.2305C29.3003 29.6365 28.3805 29.6365 27.5629 29.2305L23.1682 26.6932C22.4528 26.2872 21.9418 25.4753 21.9418 24.5619V21.3141L18.0582 23.547V26.8962C18.0582 27.7082 18.467 28.5201 19.2846 29.0276L27.5629 33.7977C28.2783 34.2037 29.1981 34.2037 30.0157 33.7977L38.294 29.0276C39.0094 28.6216 39.5205 27.8096 39.5205 26.8962V17.2544C39.5205 16.4425 39.1116 15.6305 38.294 15.1231L30.0157 10.3529Z" fill="#8B8B8B"/>
</g>
</g>
</g>
<defs>
<clipPath id="clip0_4853_610">
<rect width="40" height="34" fill="white"/>
</clipPath>
</defs>
</svg>
