<svg width="40" height="40" viewBox="0 0 40 40" fill="none" xmlns="http://www.w3.org/2000/svg">
<mask id="mask0_4853_623" style="mask-type:luminance" maskUnits="userSpaceOnUse" x="0" y="0" width="40" height="40">
<path d="M39.6226 0H0.37735V39.2453H39.6226V0Z" fill="white"/>
</mask>
<g mask="url(#mask0_4853_623)">
<mask id="mask1_4853_623" style="mask-type:luminance" maskUnits="userSpaceOnUse" x="0" y="0" width="40" height="40">
<path d="M39.6226 0H0.37735V39.2453H39.6226V0Z" fill="white"/>
</mask>
<g mask="url(#mask1_4853_623)">
<path d="M20 39.2453C30.8373 39.2453 39.6226 30.4599 39.6226 19.6226C39.6226 8.78536 30.8373 0 20 0C9.16271 0 0.37735 8.78536 0.37735 19.6226C0.37735 30.4599 9.16271 39.2453 20 39.2453Z" fill="#8B8B8B"/>
<path fill-rule="evenodd" clip-rule="evenodd" d="M21.4717 15.8208L25.8868 13.2453V18.3963L21.4717 15.8208ZM25.8868 26.8585L20 30.2925L14.1132 26.8585V20.8491L20 24.283L25.8868 20.8491V26.8585ZM14.1132 13.2453L18.5283 15.8208L14.1132 18.3963V13.2453ZM20.7359 17.0472L25.1509 19.6227L20.7359 22.1981V17.0472ZM19.2642 22.1981L14.8491 19.6227L19.2642 17.0472V22.1981ZM25.1509 12.0189L20 14.9623L14.8491 12.0189L20 8.95286L25.1509 12.0189ZM12.6415 11.5283V27.5944L20 31.7642L27.3585 27.5944V11.5283L20 7.35852L12.6415 11.5283Z" fill="white"/>
</g>
</g>
</svg>
