<svg width="40" height="40" viewBox="0 0 40 40" fill="none" xmlns="http://www.w3.org/2000/svg">
<g clip-path="url(#clip0_4853_687)">
<mask id="mask0_4853_687" style="mask-type:luminance" maskUnits="userSpaceOnUse" x="0" y="0" width="40" height="40">
<path d="M39.6226 0H0.377357V39.2453H39.6226V0Z" fill="white"/>
</mask>
<g mask="url(#mask0_4853_687)">
<mask id="mask1_4853_687" style="mask-type:luminance" maskUnits="userSpaceOnUse" x="0" y="0" width="40" height="40">
<path d="M39.6226 0H0.377357V39.2453H39.6226V0Z" fill="white"/>
</mask>
<g mask="url(#mask1_4853_687)">
<path d="M38.1202 11.8232C36.2806 10.1246 33.7358 7.53071 31.6632 5.69109L31.5405 5.60524C31.3365 5.44138 31.1063 5.31287 30.8598 5.22505C25.8622 4.29297 2.60323 -0.0546679 2.14946 0.000520776C2.0223 0.0183284 1.90077 0.0644285 1.7938 0.135426L1.67728 0.227408C1.53382 0.373106 1.42486 0.549123 1.35842 0.742502L1.32776 0.822219V1.2576V1.32505C3.94615 8.61608 14.2848 32.5005 16.3207 38.1053C16.4433 38.4854 16.6764 39.2091 17.1117 39.2458H17.2098C17.4429 39.2458 18.4362 37.9336 18.4362 37.9336C18.4362 37.9336 36.1947 16.3977 37.9915 14.1043C38.224 13.8218 38.4294 13.518 38.6047 13.1968C38.6494 12.9454 38.6283 12.6869 38.5434 12.4461C38.4585 12.2054 38.3128 11.9908 38.1202 11.8232ZM22.9924 14.3312L30.5716 8.04581L35.0174 12.142L22.9924 14.3312ZM20.049 13.9203L6.99993 3.22599L28.1127 7.11986L20.049 13.9203ZM21.2263 16.7227L34.582 14.5703L19.3131 32.9666L21.2263 16.7227ZM5.22776 4.29297L18.9575 15.9439L16.9707 32.9789L5.22776 4.29297Z" fill="#8B8B8B"/>
</g>
</g>
</g>
<defs>
<clipPath id="clip0_4853_687">
<rect width="40" height="39.2453" fill="white"/>
</clipPath>
</defs>
</svg>
