<svg width="40" height="40" viewBox="0 0 40 40" fill="none" xmlns="http://www.w3.org/2000/svg">
<g clip-path="url(#clip0_4853_734)">
<mask id="mask0_4853_734" style="mask-type:luminance" maskUnits="userSpaceOnUse" x="0" y="0" width="40" height="40">
<path d="M39.995 0H0V39.995H39.995V0Z" fill="white"/>
</mask>
<g mask="url(#mask0_4853_734)">
<path d="M3.78952 0.0419797C2.71965 0.157966 1.69978 0.701897 1.01787 1.51779C0.445938 2.19971 0.109979 2.99761 0.0199903 3.87749C-0.00800621 4.16546 -0.00800621 35.8295 0.0199903 36.1174C0.225965 38.1593 1.81577 39.7491 3.85751 39.955C4.94738 40.063 6.08124 39.7191 6.95512 39.0112C7.1611 38.8451 7.44706 38.5552 7.60505 38.3512C7.80502 38.0933 16.274 25.5107 16.334 25.3809C16.382 25.2789 16.388 25.2448 16.388 25.0469C16.388 24.8388 16.3839 24.8189 16.324 24.6948C16.076 24.189 15.48 24.0049 15.0421 24.2989C14.9941 24.331 13.1024 25.9607 10.8366 27.9224C8.57093 29.8822 6.67915 31.5061 6.63317 31.532C6.48518 31.6141 6.3292 31.57 6.22321 31.4161L6.17922 31.3501L6.18322 20.0795C6.18922 8.84489 6.18922 8.80889 6.22921 8.7549C6.3192 8.63491 6.51717 8.58292 6.64916 8.64291C6.67915 8.6569 12.0825 15.1061 19.1935 23.615C26.0648 31.8361 31.744 38.6251 31.816 38.7011C32.4579 39.387 33.4338 39.853 34.4337 39.955C34.6997 39.9809 35.8695 39.9809 36.1375 39.955C38.1792 39.7491 39.7731 38.1552 39.9749 36.1174C40.003 35.8275 40.003 4.16346 39.9749 3.87749C39.747 1.62178 37.8253 -0.0600076 35.5755 0.0259816C34.2598 0.0759755 33.0619 0.691899 32.298 1.70977C32.0739 2.00573 23.657 14.5162 23.615 14.6102C23.555 14.7541 23.531 14.9341 23.555 15.0701C23.6411 15.534 24.057 15.8661 24.511 15.832C24.7769 15.8121 24.8568 15.7581 25.5868 15.1241C25.9388 14.8161 27.7245 13.2623 29.5563 11.6685C31.3881 10.0747 32.9759 8.6929 33.0859 8.59691C33.1979 8.49893 33.3119 8.41093 33.3438 8.40094C33.4818 8.34695 33.6277 8.39494 33.7237 8.52492L33.7657 8.58092L33.7717 19.8655L33.7758 31.15L33.7318 31.216C33.7057 31.252 33.6618 31.3 33.6318 31.3221C33.5578 31.3761 33.3818 31.39 33.3018 31.348C33.2618 31.3281 28.5944 25.7588 20.7354 16.3539C13.5223 7.72102 8.15098 1.30982 8.04098 1.19983C7.43707 0.60191 6.66115 0.213958 5.77926 0.0679764C5.61129 0.0419797 5.40932 0.0339807 4.75939 0.0279814C4.31345 0.0259816 3.8775 0.0319808 3.78952 0.0419797Z" fill="#8B8B8B"/>
</g>
</g>
<defs>
<clipPath id="clip0_4853_734">
<rect width="40" height="40" fill="white"/>
</clipPath>
</defs>
</svg>
