<svg width="40" height="40" viewBox="0 0 40 40" fill="none" xmlns="http://www.w3.org/2000/svg">
<g clip-path="url(#clip0_4853_742)">
<path d="M20 40C31.0457 40 40 31.0457 40 20C40 8.9543 31.0457 0 20 0C8.9543 0 0 8.9543 0 20C0 31.0457 8.9543 40 20 40Z" fill="#8B8B8B"/>
<path fill-rule="evenodd" clip-rule="evenodd" d="M10.4062 30.4063C12.4062 33.875 16 35.9531 20 35.9531C24 35.9531 27.5937 33.875 29.5937 30.4063C31.5937 26.9375 31.5937 22.7969 29.5937 19.3281L21.1562 4.70312C20.6406 3.8125 19.3594 3.8125 18.8438 4.70312L10.4062 19.3281C8.39062 22.7969 8.39062 26.9375 10.4062 30.4063ZM17.625 11.6562L19.4219 8.53125C19.6719 8.09375 20.3281 8.09375 20.5781 8.53125L27.5 20.5312C28.7656 22.7344 29.0156 25.2812 28.2188 27.625C28.1406 27.25 28.0156 26.8594 27.8594 26.4688C26.9063 24.0469 24.7344 22.1875 21.4219 20.9375C19.1406 20.0781 17.6875 18.7969 17.1094 17.1563C16.3594 15.0313 17.1563 12.7188 17.625 11.6562ZM14.5469 16.9688L12.5 20.5312C10.9375 23.25 10.9375 26.4844 12.5 29.2031C14.0625 31.9219 16.875 33.5313 20 33.5313C22.0781 33.5313 24.0156 32.8125 25.5469 31.5469C25.75 31.0469 26.3594 29.2188 25.5938 27.3281C24.8906 25.5781 23.2031 24.1875 20.5625 23.1875C17.5938 22.0625 15.6563 20.2969 14.8125 17.9531C14.7031 17.625 14.625 17.2969 14.5469 16.9688Z" fill="white"/>
</g>
<defs>
<clipPath id="clip0_4853_742">
<rect width="40" height="40" fill="white"/>
</clipPath>
</defs>
</svg>
