<svg width="40" height="34" viewBox="0 0 40 34" fill="none" xmlns="http://www.w3.org/2000/svg">
<path d="M26.7927 24.9562C24.9561 24.416 23.0655 24.1459 21.1479 24.1729C18.0149 24.1729 14.9359 24.9291 12.154 26.3876L13.9365 23.3626L15.5301 20.6618L19.8244 13.3424L23.8758 20.0946L17.2046 8.93994L10.0203 21.1749L2.83592 33.599H8.02161C11.2627 30.709 15.449 29.1155 19.7974 29.0615C24.551 29.0345 28.8724 30.763 31.9514 33.599L26.7927 24.9562Z" fill="#8B8B8B"/>
<path d="M17.3396 0.0269775L8.66982 14.7198L0 29.4395L1.43147 31.4112L2.86293 33.5719L10.0473 21.1479L17.2316 8.91287L23.8758 20.0405C22.9305 19.9054 21.9581 19.8514 21.0128 19.8514C19.1492 19.8514 17.3126 20.1215 15.5301 20.6077L13.9365 23.3086L12.154 26.3335C14.9359 24.8751 18.0149 24.1188 21.1479 24.1188C23.0655 24.1188 24.9561 24.3889 26.7927 24.9021L31.9514 33.5179H37.4342L17.3396 0.0269775Z" fill="#A8A8A8"/>
<path d="M17.3396 0.0270063L37.4342 33.5719L40 29.2775L22.3903 0L17.3396 0.0270063Z" fill="#8B8B8B"/>
</svg>
