<svg width="40" height="40" viewBox="0 0 40 40" fill="none" xmlns="http://www.w3.org/2000/svg">
<path d="M20 39.8515V33.0661C19.317 33.0661 18.6192 33.0067 17.9362 32.9027L16.8671 39.5991C17.9065 39.7773 18.9607 39.8515 20 39.8515ZM23.118 39.614C24.1574 39.4506 25.1819 39.2131 26.1767 38.8864L24.0831 32.4276C23.4298 32.6355 22.7468 32.7988 22.0638 32.9027L23.118 39.614ZM13.8233 38.8864L15.9169 32.4425C15.2635 32.2346 14.6251 31.9673 14.0015 31.6555L10.9131 37.6986C11.8486 38.1589 12.8285 38.5598 13.8233 38.8864ZM29.072 37.6986C30.0074 37.2235 30.8983 36.6741 31.7446 36.0653L27.7357 30.5865C27.1863 30.9874 26.5924 31.3586 25.9688 31.6555L29.072 37.6986ZM8.24053 36.0505L12.2494 30.5716C11.7001 30.1707 11.1656 29.7253 10.6756 29.2353L5.86488 34.0312C6.60728 34.7587 7.40906 35.4417 8.24053 36.0505ZM34.1054 34.0609L34.15 34.0163C34.8924 33.2888 35.5754 32.487 36.1841 31.6555L30.6904 27.6615C30.2895 28.2108 29.8292 28.7454 29.3541 29.2205L29.2799 29.2947L31.5961 31.4774L34.1054 34.0609ZM3.83073 31.6407L9.32442 27.6466C8.92353 27.0973 8.55234 26.5033 8.24053 25.8946L2.18263 28.9681C2.65776 29.9035 3.20713 30.7944 3.83073 31.6407ZM37.8174 28.9829C38.2925 28.0624 38.6934 27.0824 39.02 26.0876L32.5464 24.0089C32.3385 24.6622 32.0713 25.3007 31.7595 25.9094L37.8174 28.9829ZM0.979955 26.0876L7.4536 23.9941C7.24573 23.3408 7.08241 22.6726 6.97847 21.9896L0.252413 23.0438C0.415739 24.0683 0.668151 25.0928 0.979955 26.0876ZM39.7476 23.0586C39.9109 22.0341 40 20.98 40 19.9406H33.1997C33.1997 20.6236 33.1403 21.3215 33.0364 22.0045L39.7476 23.0586ZM6.81514 19.9258C6.81514 19.2428 6.87454 18.5449 6.97847 17.8619L0.252413 16.8077C0.089087 17.8322 0.0148478 18.8864 0 19.9258H6.81514ZM33.0364 17.8768L39.7624 16.8226C39.5991 15.7981 39.3615 14.7736 39.0349 13.7788L32.5612 15.8575C32.7691 16.5256 32.9324 17.1938 33.0364 17.8768ZM7.4536 15.8575C7.66147 15.2042 7.92873 14.5657 8.24053 13.9569L2.18263 10.8834C1.7075 11.804 1.30661 12.784 0.979955 13.7788L7.4536 15.8575ZM31.7743 13.9718L37.8471 10.8983C37.3719 9.96288 36.8226 9.07201 36.199 8.22569L30.6904 12.2197C31.0913 12.7691 31.4625 13.363 31.7743 13.9718ZM9.32442 12.2049C9.72532 11.6555 10.1856 11.121 10.6756 10.631L10.6904 10.6162L5.87973 5.82034L5.86488 5.83519C5.12249 6.57758 4.43949 7.36451 3.83073 8.21084L9.32442 12.2049ZM29.3541 10.6607L30.8092 9.19079L34.15 5.86488L34.1351 5.85004C33.3927 5.12249 32.6058 4.43949 31.7743 3.83073L27.7654 9.30958C28.3148 9.71047 28.8493 10.1559 29.3244 10.6459L29.3541 10.6607ZM12.2643 9.27988C12.8137 8.87899 13.4076 8.52264 14.0312 8.21084L10.9428 2.16778C10.0074 2.64291 9.11656 3.19228 8.27023 3.80104L12.2643 9.27988ZM26.0134 8.22569L29.1166 2.18263C28.1811 1.7075 27.216 1.30661 26.2212 0.979955L24.1128 7.4239C24.7513 7.64662 25.3898 7.91388 26.0134 8.22569ZM15.9465 7.4239C16.5998 7.21603 17.2829 7.05271 17.9658 6.94877L16.9117 0.252413C15.8872 0.415738 14.8478 0.653303 13.853 0.979955L15.9465 7.4239ZM22.0787 6.94877L23.1477 0.252413C22.1232 0.0890867 21.069 0 20.0297 0V6.78545C20.7127 6.78545 21.4105 6.84484 22.0787 6.94877Z" fill="#A9A9A9"/>
<path d="M20.0001 33.3783V26.5631C19.421 26.5631 18.8568 26.4889 18.2926 26.3404L16.5109 32.918C17.6542 33.2149 18.8271 33.3783 20.0001 33.3783ZM23.4893 32.918C24.6326 32.621 25.7165 32.1756 26.741 31.5817L23.2963 25.6871C22.8063 25.9692 22.2718 26.1919 21.7225 26.3404L23.4893 32.918ZM13.274 31.5817L16.7187 25.6871C16.2288 25.405 15.7685 25.0486 15.3527 24.6477L15.2933 24.5884L13.1256 26.8601L10.453 29.4287L10.4975 29.4733C11.329 30.2899 12.2644 31.0026 13.274 31.5817ZM29.5176 29.4733C30.349 28.6418 31.0766 27.7212 31.6556 26.7116L25.7017 23.2966C25.4196 23.7866 25.0632 24.232 24.6475 24.6477L29.5176 29.4733ZM8.34457 26.6967L14.2985 23.2966C14.0164 22.8066 13.7937 22.2869 13.6452 21.7376L7.00827 23.4896C7.30523 24.6032 7.76551 25.6871 8.34457 26.6967ZM33.0068 23.5045C33.3037 22.376 33.4671 21.2179 33.4671 20.0598H26.5925C26.5925 20.624 26.5183 21.2031 26.3698 21.7524L33.0068 23.5045ZM13.4374 20.0449C13.4374 19.4807 13.5116 18.9016 13.6601 18.3523L7.00827 16.6002C6.71131 17.7287 6.54799 18.8868 6.54799 20.0449H13.4374ZM26.355 18.3671L33.0068 16.6151C32.7098 15.4866 32.2495 14.4028 31.6705 13.3931L25.7165 16.7933C25.9838 17.2981 26.2065 17.8178 26.355 18.3671ZM14.3134 16.7933C14.5955 16.3181 14.937 15.8578 15.3527 15.457L15.3676 15.4421L12.9029 13.0071L10.542 10.5869L10.4975 10.6314C9.66603 11.448 8.95333 12.3835 8.35942 13.3783L14.3134 16.7933ZM24.6475 15.457L27.0825 13.0368L29.5769 10.6908L29.5176 10.6314C28.6861 9.79994 27.7507 9.10209 26.741 8.50818L23.2963 14.4028C23.7863 14.6849 24.2317 15.0264 24.6475 15.4273V15.457ZM16.7187 14.4028C17.2087 14.1206 17.7432 13.8979 18.2926 13.7495L16.5406 7.17187C15.3973 7.46883 14.3134 7.91427 13.2889 8.50818L16.7187 14.4028ZM21.7076 13.7643L23.4893 7.18672C22.3609 6.88977 21.1879 6.72644 20.015 6.72644V13.5416C20.5792 13.5416 21.1582 13.6158 21.7076 13.7643Z" fill="#A9A9A9"/>
</svg>
