<svg width="40" height="40" viewBox="0 0 40 40" fill="none" xmlns="http://www.w3.org/2000/svg">
<path fill-rule="evenodd" clip-rule="evenodd" d="M9.30383 34.3384C4.93315 31.0742 2.11157 25.8645 2.11157 19.9908C2.11157 10.106 10.1245 2.09313 20.0092 2.09313C28.1697 2.09313 37.0678 6.97095 39.2255 14.4306C36.8096 6.1042 29.1194 0 20 0C8.95344 0 0 8.95344 0 20C0 31.0466 8.95344 40 20 40C31.0466 40 40 31.0466 40 20V18.9488H38.9027C38.8658 18.9488 38.8197 18.9488 38.7552 18.9488C38.6261 18.9488 38.4417 18.9396 38.2019 18.9304C37.7317 18.9119 37.077 18.8843 36.3393 18.8197C34.8363 18.6906 33.1305 18.4325 31.9594 17.9714C30.0876 17.2245 29.0272 16.2287 27.8193 15.0669L27.7455 15.0023C26.5376 13.8405 25.1729 12.5311 22.8124 11.4246C20.4887 10.3273 17.9161 10.5025 16.0258 10.899C15.0669 11.0927 14.2462 11.3601 13.6653 11.5722C13.3702 11.6736 13.1397 11.775 12.9737 11.8396C12.024 12.2361 11.1019 12.7155 10.1706 13.1489C10.1706 13.1489 11.9963 13.6468 12.9092 13.9327C12.9461 13.9419 12.9922 13.9604 13.0567 13.9788C13.195 14.0249 13.3887 14.0894 13.6192 14.1909C14.0987 14.3845 14.7257 14.6796 15.3435 15.0761C16.3209 15.7031 17.1323 16.4961 17.4643 17.4643C15.3896 17.7409 13.444 18.6445 11.9963 19.5021C11.1111 20.0184 10.3827 20.5348 9.8663 20.9221C9.60811 21.1157 9.40526 21.2817 9.26694 21.3923C9.14707 21.4938 7.27524 23.1351 7.27524 23.1351C7.27524 23.1351 9.6911 23.3933 10.8806 23.633C11.6736 23.7898 12.7432 24.0479 13.8589 24.4352C14.9746 24.8225 16.1088 25.3389 17.0493 25.9935C17.9899 26.6482 18.6814 27.4136 19.0226 28.2803C20.0092 30.8068 19.041 33.278 17.0862 34.6611C15.1591 36.0258 12.2361 36.3485 9.30383 34.3384ZM16.1272 37.4735C16.911 37.2153 17.6487 36.8465 18.3126 36.3762C20.9682 34.4859 22.3605 31.0373 20.9866 27.515C20.4426 26.1319 19.4099 25.0715 18.2573 24.2693C17.1047 23.467 15.7861 22.8769 14.5597 22.4527C13.7575 22.1761 12.9737 21.9548 12.2914 21.7888C12.5311 21.6321 12.7893 21.4661 13.0659 21.3094C14.6888 20.3596 16.7266 19.4836 18.6814 19.4836C21.6321 19.4836 23.8267 20.3873 25.929 21.3555C26.1226 21.4477 26.3071 21.5307 26.5007 21.6229C28.3725 22.4988 30.3458 23.4302 32.6326 23.4302C34.8548 23.4302 36.5791 22.8031 37.7686 22.1577C36.7082 31.0281 29.1563 37.9069 20 37.9069C18.6722 37.8884 17.3721 37.7409 16.1272 37.4735ZM35.491 20.8483C34.7072 21.1157 33.7483 21.3094 32.6326 21.3094C30.8345 21.3094 29.2946 20.5901 27.3398 19.6773C27.1646 19.5943 26.9894 19.5113 26.8142 19.4283C24.8594 18.5247 22.5911 17.5565 19.6404 17.3813C19.2439 15.4265 17.7593 14.0894 16.4961 13.278C16.3578 13.1858 16.2102 13.1028 16.0719 13.0198C16.201 12.9922 16.3301 12.9645 16.4592 12.9368C18.1651 12.5864 20.2029 12.4942 21.9179 13.3057C23.965 14.2646 25.1176 15.3804 26.3163 16.533L26.3532 16.5698C27.5888 17.7593 28.8981 18.9949 31.1757 19.9078C32.4481 20.4242 34.0894 20.7008 35.491 20.8483Z" fill="#8B8B8B"/>
</svg>
