<svg width="40" height="40" viewBox="0 0 40 40" fill="none" xmlns="http://www.w3.org/2000/svg">
<g clip-path="url(#clip0_4853_473)">
<path d="M39.9333 18.6666C39.2 7.66665 29.6667 -0.666687 18.6 0.0666464C13.1333 0.39998 8.33333 2.99998 5 6.79998L4.93333 6.86665C1.6 10.7333 -0.266672 15.8666 0.0666615 21.3333C0.133328 21.8666 0.133328 22.4 0.266661 22.8666V22.9333C0.333328 23.2666 0.399995 23.6 0.466661 23.9333C0.533328 24.2666 0.599995 24.5333 0.666662 24.8666C2.93333 34.0666 11.5333 40.6 21.3333 39.9333C32.4 39.2 40.7333 29.6666 39.9333 18.6666ZM35.6 18.9333C35.6667 20.2666 35.6 21.6 35.3333 22.8666C33.8667 19.3333 31 16.7333 28.4667 15.3333C29 9.33331 26.9333 6.79998 24.6 6.39998C22.8 6.06665 21.0667 7.26665 20.7333 9.06665C20.7333 9.13331 20.7333 9.19998 20.7333 9.26665C20.4667 11.0666 21.8 12.8 23.6 13C23.7333 13 23.9333 13 24.0667 13C24.0667 13.2 24.0667 13.4 24.0667 13.6666C21.9333 13.1333 19.9333 13 18.1333 13.2C17.4667 13.2666 16.8 13.3333 16.0667 13.4666C16.2667 11.4666 17.0667 9.13331 18.5333 7.46665C19.9333 5.86665 22.0667 4.93331 24.4 5.19998C24.8667 5.26665 25.3333 5.33331 25.7333 5.46665H25.8C31.2 7.73331 35.2 12.8 35.6 18.9333ZM21.6667 22C21.1333 22.7333 20.6 23.4 19.9333 24C19 23 18.1333 21.8666 17.5333 20.6C17.5333 20.5333 17.4667 20.4666 17.4667 20.4C17.0667 19.6 16.8 18.7333 16.6 17.9333C18 17.6 19.4 17.4666 20.7333 17.5333H20.9333C21.8 17.6 22.6667 17.7333 23.5333 18C23.0667 19.4 22.4667 20.8 21.6667 22ZM14.8 5.26665C12.4667 8.33331 11.6667 12.0666 11.6667 14.9333C6.2 17.4666 5.06666 20.5333 5.86666 22.7333C5.86666 22.8 5.93333 22.8666 5.93333 22.9333C6.66666 24.6666 8.6 25.4666 10.3333 24.7333C12.0667 24 12.8667 22.0666 12.1333 20.3333C12.0667 20.2 12 20.0666 11.9333 19.9333C12.1333 19.8 12.2667 19.7333 12.4667 19.6C13.0667 21.7333 14 23.4666 15 25C15.4 25.5333 15.8 26.1333 16.2667 26.6C14.4 27.4 12.0667 27.8666 9.86666 27.4666C7.73333 27.0666 5.93333 25.6666 4.93333 23.5333C4.73333 23.1333 4.6 22.6666 4.53333 22.2666C4.46666 21.8666 4.46666 21.4666 4.39999 21.1333C3.93333 13.8666 8.33333 7.53331 14.8 5.26665ZM21.0667 35.6C16.8 35.8666 12.8667 34.4666 9.8 31.8666C13.6 32.4 17.2667 31.2 19.7333 29.7333C24.6667 33.2 27.8667 32.6666 29.4 30.8666C30.6 29.4666 30.4667 27.3333 29.0667 26.1333C29 26.0666 28.9333 26.0666 28.9333 26C27.4667 24.8666 25.4 25.1333 24.2667 26.6C24.2 26.7333 24.0667 26.8666 24 27C23.8 26.9333 23.6 26.8 23.4 26.6666C24.8 25.2 25.9333 23.6 26.8 21.7333C27.1333 21.1333 27.4 20.4666 27.6 19.8666C29.2667 21.0666 30.8667 22.8666 31.5333 25C32.2 27.0666 31.9333 29.3333 30.6 31.2C30.3333 31.5333 30 31.9333 29.6667 32.2C27.2 34.2666 24.2 35.4 21.0667 35.6Z" fill="#8B8B8B"/>
<path opacity="0.9" d="M24.6667 6.4001C24.2667 6.33343 23.9333 6.33343 23.5333 6.4001C25.4667 7.46676 26.8667 10.3334 26.1333 16.0668C25.8667 17.9334 25.3333 19.7334 24.5333 21.4001C23.8 22.9334 22.8667 24.3334 21.8 25.6668C22.3333 26.0668 22.8667 26.4001 23.4667 26.7334C24.8667 25.2668 26 23.6668 26.8667 21.8001C27.6667 20.1334 28.2667 18.3334 28.4667 16.4668C29.2667 9.66676 27.1333 6.86676 24.6667 6.4001Z" fill="url(#paint0_radial_4853_473)"/>
<path opacity="0.8" d="M26.1333 16.0666C26.8667 10.3332 25.4667 7.46657 23.5333 6.3999C23.4667 6.3999 23.4 6.3999 23.3333 6.46657C25.2 7.53324 26.5333 10.4666 25.8 16.0666C25.5333 17.9332 25 19.7332 24.2 21.3999C23.5333 22.8666 22.6 24.2666 21.5333 25.5332C21.6 25.5999 21.6667 25.5999 21.7333 25.6666C22.8667 24.3999 23.8 22.9332 24.4667 21.3999C25.3333 19.7332 25.8667 17.9332 26.1333 16.0666Z" fill="white"/>
<path opacity="0.5" d="M18.8667 29.0667C18.6667 28.9334 18.5333 28.8001 18.3333 28.6667C15.5333 29.8667 11.6 30.6001 7.73334 29.6667C8.33334 30.4667 9.06667 31.2001 9.86667 31.8667C13.6667 32.4001 17.3333 31.2001 19.8 29.7334C19.4667 29.4667 19.1333 29.2667 18.8667 29.0667Z" fill="url(#paint1_radial_4853_473)"/>
<path opacity="0.6" d="M18.3333 28.5999C18.2667 28.5332 18.1333 28.4666 18.0667 28.3999C15.2 29.5332 11.2667 30.1999 7.39999 29.2666C7.46666 29.3999 7.59999 29.5332 7.66666 29.6666C11.6 30.5332 15.4667 29.7999 18.3333 28.5999Z" fill="url(#paint2_linear_4853_473)"/>
<path opacity="0.9" d="M5.86666 22.7334C5.86666 22.8 5.93333 22.8667 5.93333 22.9334C6.06666 23.2667 6.19999 23.5334 6.39999 23.7334C6.33333 21.5334 8.13333 18.8667 13.4667 16.6667C15.2 15.9334 17.0667 15.5334 18.9333 15.4C20.6 15.2667 22.3333 15.3334 24 15.6667C24.0667 14.9334 24.1333 14.2667 24.1333 13.6667C22.2 13.2 20.2 13 18.2 13.2C16.3333 13.3334 14.4667 13.7334 12.7333 14.4667C6.39999 17.1334 5.06666 20.4 5.86666 22.7334Z" fill="url(#paint3_radial_4853_473)"/>
<path opacity="0.8" d="M13.5333 16.6667C8.2 18.8667 6.4 21.5334 6.46667 23.7334C6.53333 23.8001 6.53333 23.8667 6.6 23.9334C6.6 21.8001 8.4 19.1334 13.6667 16.9334C15.4 16.2001 17.2667 15.8001 19.1333 15.6667C20.7333 15.5334 22.4 15.6001 24 15.9334C24 15.8667 24 15.8001 24 15.7334C22.3333 15.4001 20.6667 15.3334 18.9333 15.4667C17.1333 15.5334 15.2667 15.9334 13.5333 16.6667Z" fill="white"/>
<path opacity="0.4" d="M28.4 16.4666C28.4 16.6666 28.3333 16.9333 28.2667 17.1333C30.6667 18.9999 33.2667 21.9999 34.4667 25.7999C34.8667 24.8666 35.1333 23.8666 35.3333 22.8666C33.8667 19.3333 31 16.7999 28.4667 15.3333C28.4667 15.7333 28.4667 16.0666 28.4 16.4666Z" fill="url(#paint4_radial_4853_473)"/>
<path opacity="0.5" d="M28.2667 17.1333C28.2667 17.2666 28.2 17.3333 28.2 17.4666C30.6 19.3333 33.1333 22.4 34.2667 26.2666C34.3333 26.1333 34.4 26 34.4667 25.8C33.3333 22 30.7333 19 28.2667 17.1333Z" fill="url(#paint5_linear_4853_473)"/>
<path opacity="0.9" d="M29.4 30.8667C29.6667 30.6001 29.8667 30.2667 30 29.8667C28.1333 31.0001 24.9333 30.7334 20.3333 27.2667C18.8667 26.1334 17.5333 24.7334 16.5333 23.2001C15.5333 21.8001 14.8 20.2667 14.2667 18.6667C13.6 18.9334 13 19.2667 12.4667 19.5334C13 21.4667 13.8667 23.2667 15.0667 24.9334C16.0667 26.4667 17.4 27.8667 18.8667 29.0001C24.3333 33.2001 27.8 32.7334 29.4 30.8667Z" fill="url(#paint6_radial_4853_473)"/>
<path opacity="0.8" d="M20.3333 27.2668C24.9333 30.7334 28.1333 31.0001 30 29.8668C30 29.8001 30.0667 29.7334 30.0667 29.6668C28.2 30.7334 25 30.4668 20.4667 27.0001C19 25.8668 17.6667 24.4668 16.6667 22.9334C15.7333 21.6001 15 20.1334 14.4667 18.6001C14.4 18.6001 14.3333 18.6668 14.2667 18.6668C14.8 20.2668 15.6 21.8001 16.5333 23.2001C17.5333 24.7334 18.8 26.1334 20.3333 27.2668Z" fill="white"/>
<path opacity="0.3" d="M12.7333 14.4666C12.9333 14.3999 13.1333 14.3332 13.3333 14.1999C13.7333 11.1999 15.0667 7.39989 17.7333 4.46655C16.7333 4.59989 15.7333 4.86655 14.7333 5.19989C12.4 8.19989 11.6 11.9999 11.6667 14.8666C12.0667 14.7999 12.4 14.5999 12.7333 14.4666Z" fill="url(#paint7_radial_4853_473)"/>
<path opacity="0.4" d="M13.4 14.2666C13.5333 14.1999 13.6 14.1999 13.7333 14.1332C14.2 11.0666 15.5333 7.33322 18.3333 4.46655C18.2 4.46655 18 4.53322 17.8667 4.53322C15.0667 7.46655 13.7333 11.1999 13.4 14.2666Z" fill="url(#paint8_linear_4853_473)"/>
<path opacity="0.4" d="M18.6667 0.0666384C13.1333 0.399972 8.33333 2.99997 5 6.79997L4.93333 6.86664C5.6 7.53331 7.73333 8.79997 8.6 9.33331C10.3333 7.46664 12.4667 6.06664 14.8667 5.19997C15.0667 4.99997 15.2 4.73331 15.4 4.53331C17.6667 1.99997 20.7333 0.666638 24.3333 0.666638C24.7333 0.666638 25.5333 0.733305 25.5333 0.733305C23.2667 0.133305 20.9333 -0.133362 18.6667 0.0666384Z" fill="url(#paint9_linear_4853_473)"/>
<path opacity="0.4" d="M21.0667 35.6C16.8 35.8667 12.8667 34.4667 9.80001 31.8667C9.53334 31.8 9.26667 31.8 8.93334 31.7334C5.60001 31.0667 2.86667 29.0667 1.06667 25.9334C0.866674 25.6 0.666674 25.2667 0.53334 24.8667C2.93334 34.0667 11.5333 40.6 21.3333 39.9334C21.4 38.9334 21.1333 36.6 21.0667 35.6Z" fill="url(#paint10_linear_4853_473)"/>
<path opacity="0.4" d="M39.9333 18.6666C39.3333 18.5999 36.3333 18.8666 35.6 18.9333C35.6667 20.2666 35.6 21.5999 35.3333 22.8666C35.4667 23.1333 35.5333 23.3999 35.6 23.6666C36.6667 26.8666 36.3333 30.2666 34.5333 33.3333C34.3333 33.6666 34.1333 33.9999 33.8667 34.3333C38 30.3999 40.3333 24.7333 39.9333 18.6666Z" fill="url(#paint11_linear_4853_473)"/>
<path opacity="0.5" d="M24.4667 5.19994C24.9333 5.26661 25.4 5.33327 25.8 5.46661H25.8667C27.6 6.19994 29.1333 7.13328 30.5333 8.39994C31.2 7.66661 32.4667 6.79994 32.4667 6.79994C32.4667 6.79994 30.5333 4.79994 27.6 4.19994C25.5333 3.79994 20.8667 3.33328 17.9333 8.39994C18.1333 8.06661 18.4 7.73327 18.6667 7.46661C20.0667 5.86661 22.2 4.93327 24.4667 5.19994Z" fill="url(#paint12_linear_4853_473)"/>
<path opacity="0.5" d="M30.6 31.2667C30.3333 31.6 30 32 29.6667 32.2667C29.6667 32.2667 29.6667 32.2667 29.6 32.3333C28.1333 33.4667 26.4667 34.3333 24.7333 34.8667C25.0667 35.8 25.1333 37.3333 25.1333 37.3333C25.1333 37.3333 27.8 36.6667 29.8 34.4C31.2 32.8 33.9333 29 31.0667 23.9333C31.0667 23.9333 31.0667 23.9333 31.0667 24C31.2667 24.3333 31.4 24.7333 31.5333 25.0667C32.2 27.0667 31.9333 29.4 30.6 31.2667Z" fill="url(#paint13_linear_4853_473)"/>
<path opacity="0.5" d="M4.93333 23.5334C4.73333 23.1334 4.6 22.6667 4.53333 22.2667V22.2C4.26666 20.3334 4.33333 18.4667 4.73333 16.6667C3.73333 16.4667 2.4 15.8 2.4 15.8C2.4 15.8 1.66666 18.4667 2.6 21.3334C3.26666 23.3334 5.26666 27.6 11.0667 27.6667C11.0667 27.6667 11.0667 27.6667 11 27.6667C10.6 27.6667 10.2 27.6 9.8 27.5334C7.73333 27 5.86666 25.6667 4.93333 23.5334Z" fill="url(#paint14_linear_4853_473)"/>
<path opacity="0.6" d="M23.6667 13.0001C23.8 13.0001 24 13.0001 24.1333 13.0001C24.1333 13.0001 24 10.9334 23.8 9.86672C23.5333 8.80005 23.1333 8.06672 22.7333 7.66672C22.4667 7.40005 21.5333 7.00006 20.8 9.20005C20.5333 11.0667 21.8 12.8001 23.6667 13.0001Z" fill="url(#paint15_linear_4853_473)"/>
<path opacity="0.5" d="M12.1333 20.3333C12.0667 20.2 12 20.0667 11.9333 19.9333C11.9333 19.9333 10.2 21.0667 9.40001 21.8C8.60001 22.5334 8.20001 23.2667 8.06667 23.8C8.00001 24.2 8.13334 25.2 10.4 24.7333C12.0667 24 12.8667 22.0667 12.1333 20.3333Z" fill="url(#paint16_linear_4853_473)"/>
<path opacity="0.6" d="M24.2 26.6668C24.1333 26.8001 24 26.9335 23.9333 27.0668C23.9333 27.0668 25.8 28.0001 26.8667 28.3335C27.9333 28.6668 28.7333 28.6668 29.2667 28.5335C29.6667 28.4001 30.4667 27.8001 28.9333 26.0668C27.4667 24.8668 25.3333 25.2001 24.2 26.6668Z" fill="url(#paint17_linear_4853_473)"/>
<path opacity="0.3" d="M23.5333 18C23.1333 19.4 22.5334 20.6667 21.8 21.8C21.7334 21.8667 21.7333 21.9333 21.6667 22C21.1333 22.7333 20.6 23.4 19.9333 24C20.4 24.4667 20.8667 24.9333 21.4 25.4C22 25.8667 22.6667 26.3333 23.3333 26.7333C24.7333 25.2667 25.8667 23.6667 26.7333 21.8C27.0667 21.2 27.2667 20.5333 27.5333 19.9333C26.8 19.4 26.1333 19 25.4667 18.7333C24.8667 18.4667 24.2 18.2 23.5333 18Z" fill="url(#paint18_linear_4853_473)"/>
<path opacity="0.3" d="M9.79999 31.8666C13.6 32.3999 17.2667 31.1999 19.7333 29.7333C19.4 29.5333 19.1333 29.3333 18.8 29.0666C17.8667 28.3333 17 27.5333 16.2 26.5999C14.3333 27.3999 12 27.8666 9.79999 27.4666C7.66666 27.0666 5.86666 25.6666 4.86666 23.5333C4.66666 23.1333 4.53333 22.6666 4.46666 22.2666C5.06666 26.0666 6.99999 29.4666 9.79999 31.8666Z" fill="url(#paint19_linear_4853_473)"/>
<path opacity="0.3" d="M19.9333 24C19 23 18.1333 21.8667 17.5333 20.6C17.5333 20.5333 17.4667 20.4667 17.4667 20.4C17.0667 19.6 16.8 18.7333 16.6 17.9333C15.9333 18.0667 15.2667 18.2667 14.6667 18.5333C13.9333 18.8 13.2 19.2 12.5333 19.5333C13.1333 21.6667 14.0667 23.4 15.0667 24.9334C15.4667 25.4667 15.8667 26.0667 16.3333 26.5333C17.1333 26.2 17.8667 25.8 18.4 25.3333C18.9333 25 19.4667 24.5333 19.9333 24Z" fill="url(#paint20_linear_4853_473)"/>
<path opacity="0.3" d="M14.8 5.26657C12.4667 8.26657 11.6667 12.0666 11.7333 14.9332C12.0667 14.7999 12.4 14.5999 12.7333 14.4666C13.8 13.9999 15 13.6666 16.1333 13.4666C16.3333 11.4666 17.1333 9.13324 18.6 7.46657C20 5.86657 22.1333 4.93324 24.4667 5.1999C24.9333 5.26657 25.4 5.33324 25.8 5.46657H25.8667C23.6667 4.5999 21.2667 4.1999 18.9333 4.33324C17.4667 4.46657 16.1333 4.7999 14.8 5.26657Z" fill="url(#paint21_linear_4853_473)"/>
<path opacity="0.3" d="M35.3333 22.8666C33.9333 19.3333 31.0667 16.7999 28.5333 15.3333C28.5333 15.6666 28.4667 16.0666 28.4 16.4666C28.2667 17.6666 28 18.7999 27.6 19.9333C29.2667 21.1333 30.8667 22.9333 31.5333 25.0666C32.2 27.1333 31.9333 29.3999 30.6 31.2666C30.3333 31.5999 30 31.9999 29.6667 32.2666C32.6 29.9999 34.6667 26.6666 35.3333 22.8666Z" fill="url(#paint22_linear_4853_473)"/>
<path opacity="0.3" d="M16.1333 15.8668C16.2 16.5334 16.3333 17.2668 16.5333 17.9334C17.9333 17.6001 19.3333 17.4668 20.6667 17.5334H20.8667C21.7333 17.6001 22.6 17.7334 23.4667 18.0001C23.6667 17.3334 23.8 16.6668 23.9333 16.0001C24.0667 15.1334 24.0667 14.3334 24.0667 13.6668C21.9333 13.1334 19.9333 13.0001 18.1333 13.2001C17.4667 13.2668 16.8 13.3334 16.0667 13.4668C16.0667 14.3334 16.0667 15.1334 16.1333 15.8668Z" fill="url(#paint23_linear_4853_473)"/>
</g>
<defs>
<radialGradient id="paint0_radial_4853_473" cx="0" cy="0" r="1" gradientUnits="userSpaceOnUse" gradientTransform="translate(25.7001 15.9501) scale(7.60533)">
<stop stop-color="white"/>
<stop offset="1" stop-color="white" stop-opacity="0"/>
</radialGradient>
<radialGradient id="paint1_radial_4853_473" cx="0" cy="0" r="1" gradientUnits="userSpaceOnUse" gradientTransform="translate(14.4577 30.0565) scale(4.4256)">
<stop stop-color="white"/>
<stop offset="1" stop-color="white" stop-opacity="0"/>
</radialGradient>
<linearGradient id="paint2_linear_4853_473" x1="7.81953" y1="29.3094" x2="12.0849" y2="29.2507" gradientUnits="userSpaceOnUse">
<stop stop-color="white" stop-opacity="0"/>
<stop offset="1" stop-color="white"/>
</linearGradient>
<radialGradient id="paint3_radial_4853_473" cx="0" cy="0" r="1" gradientUnits="userSpaceOnUse" gradientTransform="translate(13.6481 17.0828) rotate(-120) scale(7.60532)">
<stop stop-color="white"/>
<stop offset="1" stop-color="white" stop-opacity="0"/>
</radialGradient>
<radialGradient id="paint4_radial_4853_473" cx="0" cy="0" r="1" gradientUnits="userSpaceOnUse" gradientTransform="translate(31.4854 19.768) rotate(-120) scale(4.42559)">
<stop stop-color="white"/>
<stop offset="1" stop-color="white" stop-opacity="0"/>
</radialGradient>
<linearGradient id="paint5_linear_4853_473" x1="34.1483" y1="25.8906" x2="31.965" y2="22.2266" gradientUnits="userSpaceOnUse">
<stop stop-color="white" stop-opacity="0"/>
<stop offset="1" stop-color="white"/>
</linearGradient>
<radialGradient id="paint6_radial_4853_473" cx="0" cy="0" r="1" gradientUnits="userSpaceOnUse" gradientTransform="translate(20.2887 26.6102) rotate(120) scale(7.60532)">
<stop stop-color="white"/>
<stop offset="1" stop-color="white" stop-opacity="0"/>
</radialGradient>
<radialGradient id="paint7_radial_4853_473" cx="0" cy="0" r="1" gradientUnits="userSpaceOnUse" gradientTransform="translate(14.0545 10.178) rotate(120) scale(4.42559)">
<stop stop-color="white"/>
<stop offset="1" stop-color="white" stop-opacity="0"/>
</radialGradient>
<linearGradient id="paint8_linear_4853_473" x1="18.0171" y1="4.79349" x2="15.9377" y2="8.51815" gradientUnits="userSpaceOnUse">
<stop stop-color="white" stop-opacity="0"/>
<stop offset="1" stop-color="white"/>
</linearGradient>
<linearGradient id="paint9_linear_4853_473" x1="18.9511" y1="2.90371" x2="12.4338" y2="4.79971" gradientUnits="userSpaceOnUse">
<stop stop-color="#231F20"/>
<stop offset="1" stop-color="white"/>
</linearGradient>
<linearGradient id="paint10_linear_4853_473" x1="6.63774" y1="27.7532" x2="12.0871" y2="33.4412" gradientUnits="userSpaceOnUse">
<stop stop-color="#231F20"/>
<stop offset="1" stop-color="white"/>
</linearGradient>
<linearGradient id="paint11_linear_4853_473" x1="35.8831" y1="26.8959" x2="37.7791" y2="21.1319" gradientUnits="userSpaceOnUse">
<stop stop-color="#231F20"/>
<stop offset="1" stop-color="white"/>
</linearGradient>
<linearGradient id="paint12_linear_4853_473" x1="21.9185" y1="6.20087" x2="30.6538" y2="8.20021" gradientUnits="userSpaceOnUse">
<stop stop-color="#231F20"/>
<stop offset="1" stop-color="white"/>
</linearGradient>
<linearGradient id="paint13_linear_4853_473" x1="30.9905" y1="28.5605" x2="24.8872" y2="35.1271" gradientUnits="userSpaceOnUse">
<stop stop-color="#231F20"/>
<stop offset="1" stop-color="white"/>
</linearGradient>
<linearGradient id="paint14_linear_4853_473" x1="7.088" y1="25.2417" x2="4.45466" y2="16.6757" gradientUnits="userSpaceOnUse">
<stop stop-color="#231F20"/>
<stop offset="1" stop-color="white"/>
</linearGradient>
<linearGradient id="paint15_linear_4853_473" x1="23.8271" y1="9.42172" x2="21.0651" y2="12.1877" gradientUnits="userSpaceOnUse">
<stop stop-color="#231F20"/>
<stop offset="1" stop-color="white"/>
</linearGradient>
<linearGradient id="paint16_linear_4853_473" x1="8.92514" y1="21.9721" x2="12.6998" y2="22.9861" gradientUnits="userSpaceOnUse">
<stop stop-color="#231F20"/>
<stop offset="1" stop-color="white"/>
</linearGradient>
<linearGradient id="paint17_linear_4853_473" x1="27.2415" y1="28.6027" x2="26.2301" y2="24.8294" gradientUnits="userSpaceOnUse">
<stop stop-color="#231F20"/>
<stop offset="1" stop-color="white"/>
</linearGradient>
<linearGradient id="paint18_linear_4853_473" x1="21.4919" y1="25.244" x2="23.1519" y2="22.9547" gradientUnits="userSpaceOnUse">
<stop stop-color="#231F20"/>
<stop offset="1" stop-color="white"/>
</linearGradient>
<linearGradient id="paint19_linear_4853_473" x1="15.7848" y1="24.2525" x2="12.4681" y2="25.8338" gradientUnits="userSpaceOnUse">
<stop stop-color="#231F20"/>
<stop offset="1" stop-color="white"/>
</linearGradient>
<linearGradient id="paint20_linear_4853_473" x1="14.584" y1="18.7309" x2="15.6107" y2="20.8636" gradientUnits="userSpaceOnUse">
<stop stop-color="#231F20"/>
<stop offset="1" stop-color="white"/>
</linearGradient>
<linearGradient id="paint21_linear_4853_473" x1="19.3531" y1="12.148" x2="18.6444" y2="9.7007" gradientUnits="userSpaceOnUse">
<stop stop-color="#231F20"/>
<stop offset="1" stop-color="white"/>
</linearGradient>
<linearGradient id="paint22_linear_4853_473" x1="27.0158" y1="23.3553" x2="29.0691" y2="23.828" gradientUnits="userSpaceOnUse">
<stop stop-color="#231F20"/>
<stop offset="1" stop-color="white"/>
</linearGradient>
<linearGradient id="paint23_linear_4853_473" x1="23.7944" y1="16.4183" x2="21.1897" y2="15.9456" gradientUnits="userSpaceOnUse">
<stop stop-color="#231F20"/>
<stop offset="1" stop-color="white"/>
</linearGradient>
<clipPath id="clip0_4853_473">
<rect width="40" height="40" fill="white"/>
</clipPath>
</defs>
</svg>
