<svg width="40" height="40" viewBox="0 0 40 40" fill="none" xmlns="http://www.w3.org/2000/svg">
<g clip-path="url(#clip0_4853_504)">
<mask id="mask0_4853_504" style="mask-type:luminance" maskUnits="userSpaceOnUse" x="0" y="0" width="40" height="40">
<path d="M39.6226 0H0.37735V39.2453H39.6226V0Z" fill="white"/>
</mask>
<g mask="url(#mask0_4853_504)">
<mask id="mask1_4853_504" style="mask-type:luminance" maskUnits="userSpaceOnUse" x="0" y="0" width="40" height="40">
<path d="M39.6226 0H0.37735V39.2453H39.6226V0Z" fill="white"/>
</mask>
<g mask="url(#mask1_4853_504)">
<path d="M5.2828 0.85791H34.7167C36.9243 0.85791 38.7639 2.69753 38.7639 4.90508V34.339C38.7639 36.5466 36.9243 38.3862 34.7167 38.3862H5.2828C3.07525 38.3862 1.23563 36.5466 1.23563 34.339V4.90508C1.23563 2.69753 3.07525 0.85791 5.2828 0.85791Z" fill="#8B8B8B" stroke="white" stroke-width="2.91659" stroke-miterlimit="5.3333"/>
<path d="M19.9998 29.4339C20.3677 29.4339 20.613 29.3113 20.8582 29.1886C21.1035 28.9434 21.2262 28.6981 21.2262 28.3301L21.4715 26.8584C20.4903 27.1037 19.5092 27.1037 18.5281 26.8584L18.7733 28.3301C18.7733 28.6981 18.896 28.9434 19.1413 29.1886C19.3866 29.3113 19.6318 29.4339 19.9998 29.4339ZM28.462 29.1886H30.7922V15.8207C30.7922 13.9811 29.9337 12.7547 28.462 12.2641V29.1886ZM9.20731 29.1886H11.5375V12.2641C10.0658 12.7547 9.20731 13.9811 9.20731 15.8207V29.1886ZM21.4715 26.8584C22.9432 26.4905 24.0469 25.3868 24.2922 23.4245L25.7639 12.1415C24.0469 12.5094 23.1884 13.8584 22.8205 15.9434L21.4715 26.8584ZM18.5281 26.8584L17.179 15.9434C16.9337 13.8584 15.9526 12.5094 14.3582 12.1415L15.8299 23.4245C16.0752 25.3868 17.0564 26.4905 18.5281 26.8584ZM28.462 12.2641V11.283C28.462 10.3018 27.9715 9.81128 27.2356 9.81128C26.4998 9.81128 26.0092 10.3018 25.8866 11.1603L25.7639 12.1415C26.6224 12.0188 27.6035 12.0188 28.462 12.2641ZM11.5375 12.2641C12.0281 12.1415 12.6413 12.0188 13.1318 12.0188C13.4998 12.0188 13.8677 12.0188 14.3582 12.1415L14.2356 11.1603C13.9903 10.1792 13.4998 9.81128 12.7639 9.81128C12.0281 9.81128 11.5375 10.3018 11.5375 11.283V12.2641Z" fill="#8B8B8B"/>
<path d="M21.4715 26.8584L21.2262 28.3301C21.2262 28.6981 21.1035 28.9434 20.8582 29.1886C20.613 29.3113 20.3677 29.4339 19.9998 29.4339C19.6318 29.4339 19.3866 29.3113 19.1413 29.1886C18.896 28.9434 18.7733 28.6981 18.7733 28.3301L18.5281 26.8584M21.4715 26.8584C20.4903 27.1037 19.5092 27.1037 18.5281 26.8584M21.4715 26.8584C22.9432 26.4905 24.0469 25.3868 24.2922 23.4245L25.7639 12.1415M21.4715 26.8584L22.8205 15.9434C23.1884 13.8584 24.0469 12.5094 25.7639 12.1415M18.5281 26.8584L17.179 15.9434C16.9337 13.8584 15.9526 12.5094 14.3582 12.1415M18.5281 26.8584C17.0564 26.4905 16.0752 25.3868 15.8299 23.4245L14.3582 12.1415M25.7639 12.1415L25.8866 11.1603C26.0092 10.3018 26.4998 9.81128 27.2356 9.81128C27.9715 9.81128 28.462 10.3018 28.462 11.283V12.2641M25.7639 12.1415C26.6224 12.0188 27.6035 12.0188 28.462 12.2641M14.3582 12.1415C13.8677 12.0188 13.4998 12.0188 13.1318 12.0188C12.6413 12.0188 12.0281 12.1415 11.5375 12.2641M14.3582 12.1415L14.2356 11.1603C13.9903 10.1792 13.4998 9.81128 12.7639 9.81128C12.0281 9.81128 11.5375 10.3018 11.5375 11.283V12.2641M28.462 12.2641C29.9337 12.7547 30.7922 13.9811 30.7922 15.8207V29.1886H28.462V12.2641ZM11.5375 12.2641V29.1886H9.20731V15.8207C9.20731 13.9811 10.0658 12.7547 11.5375 12.2641Z" stroke="white" stroke-width="2.91659" stroke-miterlimit="5.3333"/>
</g>
</g>
</g>
<defs>
<clipPath id="clip0_4853_504">
<rect width="40" height="39.2453" fill="white"/>
</clipPath>
</defs>
</svg>
