<svg width="40" height="40" viewBox="0 0 40 40" fill="none" xmlns="http://www.w3.org/2000/svg">
<g clip-path="url(#clip0_4853_553)">
<mask id="mask0_4853_553" style="mask-type:luminance" maskUnits="userSpaceOnUse" x="0" y="0" width="40" height="40">
<path d="M39.6226 0H0.37735V39.2453H39.6226V0Z" fill="white"/>
</mask>
<g mask="url(#mask0_4853_553)">
<mask id="mask1_4853_553" style="mask-type:luminance" maskUnits="userSpaceOnUse" x="0" y="0" width="40" height="40">
<path d="M39.6226 0H0.37735V39.2453H39.6226V0Z" fill="white"/>
</mask>
<g mask="url(#mask1_4853_553)">
<path d="M32.1028 6.73193H7.87146V28.7552H32.1028V6.73193Z" fill="white"/>
<path fill-rule="evenodd" clip-rule="evenodd" d="M39.6094 19.6231C39.6094 30.4461 30.83 39.2196 19.9999 39.2196C9.16974 39.2196 0.390259 30.4461 0.390259 19.6231C0.390259 8.80018 9.16974 0.0264893 19.9999 0.0264893C30.83 0.0264893 39.6094 8.80018 39.6094 19.6231ZM14.443 27.4215H10.6374C9.83766 27.4215 9.44272 27.4215 9.20181 27.2675C8.94166 27.099 8.78272 26.8197 8.76347 26.5116C8.74898 26.2277 8.94649 25.8809 9.34151 25.1877L18.7382 8.63581C19.138 7.93294 19.3404 7.58147 19.5957 7.45152C19.8703 7.31192 20.1978 7.31192 20.4725 7.45152C20.7278 7.58147 20.9301 7.93294 21.3299 8.63581L23.2617 12.0057L23.2716 12.0229C23.7034 12.7769 23.9223 13.1593 24.018 13.5606C24.1239 13.9987 24.1239 14.4609 24.018 14.899C23.9217 15.3034 23.7048 15.6885 23.2665 16.4539L18.3306 25.1733L18.3179 25.1956C17.8832 25.9559 17.6629 26.3412 17.3575 26.6319C17.0251 26.9497 16.6253 27.1806 16.1869 27.3108C15.7871 27.4215 15.3391 27.4215 14.443 27.4215ZM24.0537 27.4215H29.5067C30.3112 27.4215 30.7159 27.4215 30.9569 27.2628C31.217 27.0943 31.3808 26.8101 31.3953 26.5022C31.4092 26.2274 31.2159 25.8942 30.8374 25.2412C30.8243 25.219 30.8112 25.1964 30.7979 25.1734L28.0664 20.5037L28.0353 20.4511C27.6515 19.8025 27.4577 19.4749 27.2089 19.3483C26.9345 19.2087 26.6115 19.2087 26.3371 19.3483C26.0865 19.4783 25.8842 19.8201 25.4844 20.5085L22.7626 25.1782L22.7533 25.1943C22.3548 25.8816 22.1557 26.2251 22.17 26.5069C22.1894 26.8151 22.3483 27.099 22.6085 27.2675C22.8445 27.4215 23.2491 27.4215 24.0537 27.4215Z" fill="#8B8B8B"/>
</g>
</g>
</g>
<defs>
<clipPath id="clip0_4853_553">
<rect width="40" height="39.2453" fill="white"/>
</clipPath>
</defs>
</svg>
