<svg width="40" height="40" viewBox="0 0 40 40" fill="none" xmlns="http://www.w3.org/2000/svg">
<g clip-path="url(#clip0_4853_432)">
<mask id="mask0_4853_432" style="mask-type:luminance" maskUnits="userSpaceOnUse" x="0" y="0" width="40" height="40">
<path d="M39.6226 0H0.37735V39.2453H39.6226V0Z" fill="white"/>
</mask>
<g mask="url(#mask0_4853_432)">
<mask id="mask1_4853_432" style="mask-type:luminance" maskUnits="userSpaceOnUse" x="0" y="0" width="40" height="40">
<path d="M39.6226 0H0.37735V39.2453H39.6226V0Z" fill="white"/>
</mask>
<g mask="url(#mask1_4853_432)">
<path d="M6.75224 29.9538C6.98908 29.6516 7.31473 29.4753 7.66012 29.4753H38.9813C39.5537 29.4753 39.8399 30.3567 39.4353 30.8729L33.248 38.7673C33.0111 39.0695 32.6856 39.2458 32.3401 39.2458H1.0189C0.446554 39.2458 0.16038 38.3644 0.564971 37.8482L6.75224 29.9538Z" fill="#8B8B8B"/>
<path d="M6.75206 0.478448C6.99876 0.17627 7.32442 0 7.65994 0H38.9811C39.5535 0 39.8397 0.881351 39.4351 1.39757L33.2478 9.29192C33.011 9.59411 32.6854 9.77042 32.3399 9.77042H1.01872C0.446371 9.77042 0.160197 8.88906 0.564788 8.37283L6.75206 0.478448Z" fill="#8B8B8B"/>
<path d="M33.248 15.1218C33.0111 14.8196 32.6856 14.6433 32.3401 14.6433H1.0189C0.446554 14.6433 0.16038 15.5247 0.564971 16.0409L6.75224 23.9353C6.98908 24.2375 7.31473 24.4137 7.66012 24.4137H38.9813C39.5537 24.4137 39.8399 23.5324 39.4353 23.0161L33.248 15.1218Z" fill="#8B8B8B"/>
</g>
</g>
</g>
<defs>
<clipPath id="clip0_4853_432">
<rect width="40" height="39.2453" fill="white"/>
</clipPath>
</defs>
</svg>
