<svg width="40" height="40" viewBox="0 0 40 40" fill="none" xmlns="http://www.w3.org/2000/svg">
<g clip-path="url(#clip0_4853_566)">
<mask id="mask0_4853_566" style="mask-type:luminance" maskUnits="userSpaceOnUse" x="0" y="0" width="40" height="40">
<path d="M39.6226 0H0.377365V39.2453H39.6226V0Z" fill="white"/>
</mask>
<g mask="url(#mask0_4853_566)">
<mask id="mask1_4853_566" style="mask-type:luminance" maskUnits="userSpaceOnUse" x="0" y="0" width="40" height="40">
<path d="M39.6226 0H0.377365V39.2453H39.6226V0Z" fill="white"/>
</mask>
<g mask="url(#mask1_4853_566)">
<path d="M29.9682 9.53125C27.78 9.53125 25.3839 10.7235 22.8566 13.0752C21.664 14.1799 20.6137 15.383 19.8478 16.3346C19.8478 16.3346 21.0732 17.7457 22.4189 19.266C23.152 18.3472 24.1914 17.1003 25.4058 15.9737C27.6488 13.8736 29.1148 13.447 29.9573 13.447C33.1083 13.447 35.6685 16.094 35.6685 19.3645C35.6685 22.6021 33.1083 25.2491 29.9573 25.2819C29.8041 25.2819 29.6291 25.26 29.4103 25.2162C30.3293 25.6428 31.3249 25.9491 32.2549 25.9491C38.0317 25.9491 39.1696 21.9568 39.2352 21.6724C39.3993 20.9396 39.4978 20.1739 39.4978 19.3863C39.4869 13.9502 35.2199 9.53125 29.9682 9.53125Z" fill="#8B8B8B"/>
<path d="M9.78205 29.1979C11.9703 29.1979 14.3663 28.0056 16.8937 25.654C18.0863 24.5493 19.1366 23.3461 19.9025 22.3945C19.9025 22.3945 18.6771 20.9835 17.3313 19.4631C16.5983 20.3819 15.5589 21.6289 14.3445 22.7554C12.1015 24.8336 10.6245 25.2821 9.79299 25.2821C6.64198 25.2821 4.08179 22.6351 4.08179 19.3647C4.08179 16.1271 6.64198 13.4801 9.79299 13.4473C9.94612 13.4473 10.1212 13.4692 10.34 13.5129C9.42099 13.0863 8.42537 12.7801 7.49538 12.7801C1.71854 12.7691 0.580671 16.7615 0.515025 17.0568C0.35091 17.7896 0.252441 18.5553 0.252441 19.3428C0.252441 24.779 4.51943 29.1979 9.78205 29.1979Z" fill="#8B8B8B"/>
<path fill-rule="evenodd" clip-rule="evenodd" d="M14.1801 16.0612C13.5455 15.4487 10.4602 12.9439 7.50609 12.8564C2.23254 12.7251 0.689855 16.5534 0.547623 17.0456C1.56514 12.758 5.32883 9.55314 9.79277 9.53125C13.4361 9.53125 17.1233 13.1079 19.8476 16.3346L19.8585 16.3237C19.8585 16.3237 21.0839 17.7347 22.4296 19.2551C22.4296 19.2551 23.9614 21.0599 25.5806 22.6458C26.2152 23.2583 29.2896 25.7303 32.2436 25.8178C37.6595 25.9709 39.1584 21.9239 39.235 21.6177C38.2393 25.9381 34.4647 29.1539 29.9789 29.1758C26.3356 29.1758 22.6484 25.5991 19.9131 22.3724C19.9131 22.3833 19.9022 22.3833 19.9022 22.3943C19.9022 22.3943 18.6768 20.9832 17.3311 19.4629C17.342 19.4629 15.8103 17.6472 14.1801 16.0612Z" fill="#8B8B8B"/>
</g>
</g>
</g>
<defs>
<clipPath id="clip0_4853_566">
<rect width="40" height="39.2453" fill="white"/>
</clipPath>
</defs>
</svg>
