<svg width="40" height="40" viewBox="0 0 40 40" fill="none" xmlns="http://www.w3.org/2000/svg">
<g clip-path="url(#clip0_4853_580)">
<mask id="mask0_4853_580" style="mask-type:luminance" maskUnits="userSpaceOnUse" x="0" y="0" width="40" height="40">
<path d="M39.6226 0H0.377357V39.2453H39.6226V0Z" fill="white"/>
</mask>
<g mask="url(#mask0_4853_580)">
<mask id="mask1_4853_580" style="mask-type:luminance" maskUnits="userSpaceOnUse" x="0" y="0" width="40" height="40">
<path d="M39.6226 0H0.377357V39.2453H39.6226V0Z" fill="white"/>
</mask>
<g mask="url(#mask1_4853_580)">
<path d="M20 39.2453C30.8373 39.2453 39.6226 30.4599 39.6226 19.6226C39.6226 8.78536 30.8373 0 20 0C9.16272 0 0.377357 8.78536 0.377357 19.6226C0.377357 30.4599 9.16272 39.2453 20 39.2453Z" fill="#8B8B8B"/>
<path d="M28.5949 16.561H23.0613V22.0946H28.5949V16.561Z" fill="white"/>
<path d="M17.5275 24.1746C17.5275 25.3127 16.5856 26.2546 15.4475 26.2546C14.3094 26.2546 13.3675 25.3127 13.3675 24.1746C13.3675 23.0365 14.3094 22.0946 15.4475 22.0946H17.5275V16.561H15.4475C11.2482 16.561 7.83389 19.9754 7.83389 24.1746C7.83389 28.3739 11.2482 31.7882 15.4475 31.7882C19.6467 31.7882 23.0611 28.3739 23.0611 24.1746V22.0946H17.5275V24.1746Z" fill="white"/>
<path d="M25.1412 13.775H31.3812V8.24146H25.1412C20.942 8.24146 17.5276 11.6558 17.5276 15.855V16.5615H23.0612V15.855C23.0612 14.7169 24.0031 13.775 25.1412 13.775Z" fill="white"/>
<path d="M23.0612 16.561H17.5276V22.0946H23.0612V16.561Z" fill="#8B8B8B"/>
</g>
</g>
</g>
<defs>
<clipPath id="clip0_4853_580">
<rect width="40" height="39.2453" fill="white"/>
</clipPath>
</defs>
</svg>
