<svg width="40" height="40" viewBox="0 0 40 40" fill="none" xmlns="http://www.w3.org/2000/svg">
<g clip-path="url(#clip0_4853_596)">
<mask id="mask0_4853_596" style="mask-type:luminance" maskUnits="userSpaceOnUse" x="0" y="0" width="40" height="40">
<path d="M39.6226 0H0.377357V39.2453H39.6226V0Z" fill="white"/>
</mask>
<g mask="url(#mask0_4853_596)">
<mask id="mask1_4853_596" style="mask-type:luminance" maskUnits="userSpaceOnUse" x="0" y="0" width="40" height="40">
<path d="M39.6226 0H0.377357V39.2453H39.6226V0Z" fill="white"/>
</mask>
<g mask="url(#mask1_4853_596)">
<path d="M20 39.2453C30.8373 39.2453 39.6226 30.4599 39.6226 19.6226C39.6226 8.78536 30.8373 0 20 0C9.16272 0 0.377357 8.78536 0.377357 19.6226C0.377357 30.4599 9.16272 39.2453 20 39.2453Z" fill="#8B8B8B"/>
<path d="M14.278 24.8347C13.1085 24.8347 12.1509 24.5599 11.4052 24.0105C10.6674 23.4532 10.2985 22.6526 10.2985 21.6244C10.2985 21.4046 10.322 21.1456 10.3691 20.8316C10.4947 20.1252 10.6752 19.2775 10.9107 18.2807C11.5779 15.5806 13.3047 14.2306 16.0832 14.2306C16.8368 14.2306 17.5196 14.3562 18.1162 14.6152C18.7127 14.8585 19.1836 15.2353 19.529 15.7376C19.8743 16.2321 20.047 16.8208 20.047 17.5036C20.047 17.7077 20.0235 17.9667 19.9764 18.2807C19.8272 19.152 19.6546 20.0075 19.4426 20.8316C19.0973 22.1738 18.5086 23.1864 17.6609 23.8535C16.8211 24.5129 15.6908 24.8347 14.278 24.8347ZM14.4899 22.7154C15.0393 22.7154 15.5024 22.5506 15.887 22.2288C16.2795 21.907 16.562 21.4125 16.7269 20.7375C16.9545 19.8113 17.1272 19.0107 17.2449 18.3199C17.2842 18.1159 17.3077 17.9039 17.3077 17.6842C17.3077 16.7894 16.8446 16.342 15.9106 16.342C15.3611 16.342 14.8902 16.5068 14.4977 16.8286C14.1131 17.1504 13.8384 17.6449 13.6736 18.3199C13.4931 18.9793 13.3204 19.7799 13.1399 20.7375C13.1006 20.9337 13.0771 21.1378 13.0771 21.3575C13.0692 22.268 13.548 22.7154 14.4899 22.7154Z" fill="white"/>
<path d="M20.7302 24.6931C20.6203 24.6931 20.5418 24.6617 20.479 24.591C20.4319 24.5125 20.4162 24.4262 20.4319 24.3241L22.4648 14.7483C22.4805 14.6384 22.5355 14.5521 22.6297 14.4814C22.716 14.4108 22.8102 14.3794 22.9122 14.3794H26.8289C27.9199 14.3794 28.7912 14.607 29.4505 15.0544C30.1177 15.5097 30.4552 16.1611 30.4552 17.0167C30.4552 17.26 30.4238 17.519 30.3688 17.7859C30.1255 18.9161 29.631 19.7481 28.8775 20.2897C28.1397 20.8313 27.1272 21.0982 25.8399 21.0982H23.8541L23.1791 24.3241C23.1555 24.434 23.1085 24.5204 23.0143 24.591C22.9279 24.6617 22.8337 24.6931 22.7317 24.6931H20.7302ZM25.942 19.0653C26.358 19.0653 26.7112 18.9554 27.0173 18.7278C27.3312 18.5001 27.5353 18.1783 27.6374 17.7545C27.6688 17.5897 27.6845 17.4405 27.6845 17.3149C27.6845 17.0324 27.5981 16.8126 27.4333 16.6635C27.2685 16.5065 26.978 16.428 26.5777 16.428H24.8117L24.2544 19.0653H25.942Z" fill="white"/>
</g>
</g>
</g>
<defs>
<clipPath id="clip0_4853_596">
<rect width="40" height="39.2453" fill="white"/>
</clipPath>
</defs>
</svg>
