<svg width="40" height="40" viewBox="0 0 40 40" fill="none" xmlns="http://www.w3.org/2000/svg">
<g clip-path="url(#clip0_4853_635)">
<mask id="mask0_4853_635" style="mask-type:luminance" maskUnits="userSpaceOnUse" x="0" y="0" width="40" height="40">
<path d="M39.6227 0H0.37738V39.2453H39.6227V0Z" fill="white"/>
</mask>
<g mask="url(#mask0_4853_635)">
<mask id="mask1_4853_635" style="mask-type:luminance" maskUnits="userSpaceOnUse" x="0" y="0" width="40" height="40">
<path d="M39.6227 0H0.37738V39.2453H39.6227V0Z" fill="white"/>
</mask>
<g mask="url(#mask1_4853_635)">
<path d="M20 39.2453C30.8373 39.2453 39.6227 30.4599 39.6227 19.6226C39.6227 8.78536 30.8373 0 20 0C9.16274 0 0.37738 8.78536 0.37738 19.6226C0.37738 30.4599 9.16274 39.2453 20 39.2453Z" fill="#8B8B8B"/>
<path d="M20 31.0091C26.2883 31.0091 31.3861 25.9113 31.3861 19.623C31.3861 13.3347 26.2883 8.23706 20 8.23706C13.7117 8.23706 8.61407 13.3347 8.61407 19.623C8.61407 25.9113 13.7117 31.0091 20 31.0091Z" fill="#8B8B8B"/>
<path d="M20.0404 2.50293C17.9222 2.50293 16.2047 10.1856 16.2047 19.6627C16.2047 29.1398 17.9222 36.8225 20.0404 36.8225C22.1585 36.8225 23.876 29.1398 23.876 19.6627C23.876 10.1856 22.1585 2.50293 20.0404 2.50293ZM20.3052 35.854C20.063 36.1771 19.8208 35.9348 19.8208 35.9348C18.8453 34.8045 18.3575 32.7047 18.3575 32.7047C16.6514 27.2136 17.0574 15.4239 17.0574 15.4239C17.8593 6.06405 19.318 3.85297 19.8143 3.36208C19.865 3.31199 19.9317 3.28137 20.0028 3.27562C20.0738 3.26988 20.1446 3.28938 20.2027 3.33069C20.9229 3.84104 21.527 5.97535 21.527 5.97535C23.3107 12.597 23.1492 18.8148 23.1492 18.8148C23.3107 24.2252 22.2554 30.2816 22.2554 30.2816C21.443 34.8842 20.3052 35.854 20.3052 35.854Z" fill="white"/>
<path d="M34.9246 11.1232C33.8701 9.28524 26.352 11.6189 18.1277 16.335C9.90329 21.051 4.10188 26.3643 5.15569 28.2015C6.20951 30.0387 13.7283 27.7058 21.9526 22.9897C30.1771 18.2737 35.9785 12.9603 34.9246 11.1232ZM6.12866 27.9494C5.7249 27.8985 5.81611 27.5667 5.81611 27.5667C6.31138 26.1584 7.88751 24.6903 7.88751 24.6903C11.8031 20.4775 22.2323 14.963 22.2323 14.963C30.7491 11.0004 33.3945 11.1676 34.0656 11.3524C34.1345 11.3716 34.1944 11.4146 34.2346 11.4737C34.2748 11.5329 34.2929 11.6043 34.2854 11.6754C34.2047 12.5545 32.6502 14.14 32.6502 14.14C27.7976 18.9843 22.3234 21.9391 22.3234 21.9391C17.7109 24.7726 11.9324 26.8697 11.9324 26.8697C7.53553 28.4541 6.12866 27.9494 6.12866 27.9494Z" fill="white"/>
<path d="M34.8874 28.2635C35.9501 26.4304 30.1633 21.0927 21.9679 16.3412C13.7723 11.5897 6.25526 9.22712 5.19344 11.0633C4.13163 12.8996 9.91751 18.2341 18.1177 22.9856C26.318 27.7371 33.8256 30.0998 34.8874 28.2635ZM5.89766 11.7716C5.74068 11.3994 6.07207 11.3098 6.07207 11.3098C7.53922 11.0327 9.60008 11.6641 9.60008 11.6641C15.2066 12.9409 25.204 19.2031 25.204 19.2031C32.9013 24.5893 34.0817 26.9618 34.2586 27.6352C34.2767 27.7043 34.2697 27.7775 34.2389 27.8419C34.2082 27.9064 34.1557 27.9578 34.0907 27.9873C33.2881 28.3548 31.1383 27.8073 31.1383 27.8073C24.5127 26.0307 19.2137 22.7757 19.2137 22.7757C14.4527 20.2078 9.74483 16.2566 9.74483 16.2566C6.16751 13.2446 5.89876 11.7757 5.89876 11.7757L5.89766 11.7716Z" fill="white"/>
<path d="M20.0001 21.6407C21.1151 21.6407 22.0189 20.7369 22.0189 19.6219C22.0189 18.507 21.1151 17.6031 20.0001 17.6031C18.8852 17.6031 17.9813 18.507 17.9813 19.6219C17.9813 20.7369 18.8852 21.6407 20.0001 21.6407Z" fill="white"/>
<path d="M28.277 13.0814C28.9237 13.0814 29.448 12.5391 29.448 11.8701C29.448 11.2012 28.9237 10.6588 28.277 10.6588C27.6303 10.6588 27.1061 11.2012 27.1061 11.8701C27.1061 12.5391 27.6303 13.0814 28.277 13.0814Z" fill="white"/>
<path d="M9.05827 17.2C9.70491 17.2 10.2291 16.6577 10.2291 15.9887C10.2291 15.3197 9.70491 14.7775 9.05827 14.7775C8.41156 14.7775 7.88733 15.3197 7.88733 15.9887C7.88733 16.6577 8.41156 17.2 9.05827 17.2Z" fill="white"/>
<path d="M17.6178 32.0584C18.2644 32.0584 18.7886 31.5161 18.7886 30.8471C18.7886 30.1781 18.2644 29.6359 17.6178 29.6359C16.9711 29.6359 16.4468 30.1781 16.4468 30.8471C16.4468 31.5161 16.9711 32.0584 17.6178 32.0584Z" fill="white"/>
</g>
</g>
</g>
<defs>
<clipPath id="clip0_4853_635">
<rect width="40" height="39.2453" fill="white"/>
</clipPath>
</defs>
</svg>
