<svg width="40" height="40" viewBox="0 0 40 40" fill="none" xmlns="http://www.w3.org/2000/svg">
<g clip-path="url(#clip0_4853_674)">
<mask id="mask0_4853_674" style="mask-type:luminance" maskUnits="userSpaceOnUse" x="0" y="0" width="40" height="40">
<path d="M39.6226 0H0.377357V39.2453H39.6226V0Z" fill="white"/>
</mask>
<g mask="url(#mask0_4853_674)">
<mask id="mask1_4853_674" style="mask-type:luminance" maskUnits="userSpaceOnUse" x="0" y="0" width="40" height="40">
<path d="M39.6226 0H0.377357V39.2453H39.6226V0Z" fill="white"/>
</mask>
<g mask="url(#mask1_4853_674)">
<path d="M20 39.2453C30.8373 39.2453 39.6226 30.4599 39.6226 19.6226C39.6226 8.78536 30.8373 0 20 0C9.16272 0 0.377357 8.78536 0.377357 19.6226C0.377357 30.4599 9.16272 39.2453 20 39.2453Z" fill="#8B8B8B"/>
<path fill-rule="evenodd" clip-rule="evenodd" d="M14.5337 12.9644H25.5364C25.9569 12.9644 26.3073 13.0345 26.7278 13.2447C27.2183 13.4549 27.4986 13.8053 27.6388 14.0856C27.6388 14.0856 27.6388 14.1558 27.7089 14.1558C27.9192 14.5062 28.0593 14.9266 28.0593 15.4172C28.0593 15.8377 27.9892 16.2582 27.7089 16.6787L20.7709 28.5924C20.6307 28.8727 20.3504 29.0129 20 29.0129C19.7197 29.0129 19.4394 28.8727 19.2291 28.5924L12.4312 16.6787C12.2911 16.3983 12.0108 16.048 12.0108 15.4873C11.9407 14.9967 12.0808 14.5763 12.2911 14.1558C12.5014 13.7353 12.8518 13.3849 13.3423 13.2447C13.7628 12.9644 14.2534 12.9644 14.5337 12.9644ZM19.159 14.6463H14.5337C14.2534 14.6463 14.1132 14.6463 14.0431 14.7164C13.9029 14.7865 13.8329 14.8566 13.7628 14.9967C13.6928 15.0668 13.6928 15.207 13.6928 15.3471C13.6928 15.4172 13.7628 15.4873 13.9029 15.7676L19.159 24.8782V14.6463ZM20.841 14.6463V24.9482L26.1671 15.7676C26.2372 15.6274 26.2372 15.4873 26.2372 15.3471C26.2372 15.207 26.2372 15.0668 26.1671 14.9967C26.0971 14.9266 26.0971 14.8566 26.0269 14.8566L25.9569 14.7865C25.8168 14.7164 25.6765 14.7164 25.4663 14.7164H20.841V14.6463Z" fill="white"/>
</g>
</g>
</g>
<defs>
<clipPath id="clip0_4853_674">
<rect width="40" height="39.2453" fill="white"/>
</clipPath>
</defs>
</svg>
