<svg width="40" height="40" viewBox="0 0 40 40" fill="none" xmlns="http://www.w3.org/2000/svg">
<g clip-path="url(#clip0_4853_446)">
<path d="M30.8562 13.3831H27.3317C26.9244 13.3831 26.5337 13.2086 26.2593 12.901L24.8296 11.2884C24.6135 11.0473 24.3142 10.906 23.99 10.906C23.6658 10.906 23.3666 11.0473 23.1505 11.2884L21.9202 12.6766C21.5212 13.1255 20.9393 13.3915 20.3408 13.3915H1.04738C0.498753 14.9459 0.141313 16.6001 0 18.3208H18.2128C18.537 18.3208 18.8362 18.1878 19.0607 17.955L20.7564 16.1845C20.9643 15.96 21.2635 15.8353 21.5628 15.8353H21.6293C21.9534 15.8353 22.2527 15.9767 22.4688 16.2177L23.8986 17.8304C24.1729 18.1379 24.5636 18.3125 24.9709 18.3125H39.8337C39.6924 16.6001 39.335 14.9376 38.7864 13.3748L30.8562 13.3831Z" fill="#8B8B8B"/>
<path d="M11.0224 28.6949C11.3466 28.6949 11.6459 28.5619 11.8703 28.3291L13.5661 26.5586C13.7822 26.3341 14.0731 26.2094 14.3807 26.2094H14.4472C14.7714 26.2094 15.079 26.3507 15.2868 26.5835L16.7165 28.1961C16.9908 28.5037 17.3815 28.6783 17.7889 28.6783H37.9385C38.6949 27.1155 39.2435 25.4447 39.5761 23.6907H20.2327C19.8254 23.6907 19.4347 23.5162 19.1604 23.2086L17.7307 21.6126C17.5145 21.3715 17.2153 21.2385 16.8911 21.2385C16.5669 21.2385 16.2593 21.3798 16.0515 21.6126L14.8213 23.0008C14.4223 23.458 13.8404 23.7157 13.2336 23.7157H0.274307C0.606809 25.4696 1.15544 27.1404 1.91188 28.7032L11.0224 28.6949Z" fill="#8B8B8B"/>
<path d="M25.3117 7.98836C25.6359 7.98836 25.9352 7.85536 26.1596 7.62261L27.8554 5.85204C28.0632 5.6276 28.3624 5.50291 28.67 5.50291H28.7365C29.0607 5.50291 29.3599 5.64422 29.5761 5.88529L31.0058 7.50623C31.2801 7.8138 31.6708 7.98836 32.0781 7.98836H35.9102C32.261 3.13383 26.4589 0 19.9252 0C13.3915 0 7.58105 3.13383 3.93184 7.98836H25.3117Z" fill="#8B8B8B"/>
<path d="M17.6226 33.6409H12.3857C11.9784 33.6409 11.5877 33.4664 11.3134 33.1588L9.88362 31.5462C9.6675 31.3051 9.36824 31.1721 9.04405 31.1721C8.71986 31.1721 8.4123 31.3134 8.20449 31.5462L6.97423 32.9344C6.57523 33.3916 5.99335 33.6493 5.38653 33.6493H5.30341C8.95262 37.5562 14.148 40.0084 19.9252 40.0084C25.7024 40.0084 30.8894 37.5562 34.547 33.6493L17.6226 33.6409Z" fill="#8B8B8B"/>
</g>
<defs>
<clipPath id="clip0_4853_446">
<rect width="39.8421" height="40" fill="white"/>
</clipPath>
</defs>
</svg>
