<svg width="48" height="19" viewBox="0 0 48 19" fill="none" xmlns="http://www.w3.org/2000/svg">
<g clip-path="url(#clip0_4853_699)">
<path d="M28.8385 5.92175H33.0271V18.006H28.8385V5.92175Z" fill="#8B8B8B"/>
<path d="M23.1093 5.00705C21.5206 5.00705 19.8836 5.3922 19.4503 6.11437C19.4503 6.11437 19.4503 6.11437 19.4503 6.16251V1.0592H15.1655V9.09933C15.5988 9.2919 16.0321 9.53262 16.4654 9.77335C16.6098 9.86964 16.7543 9.91778 16.8505 9.96593C16.8987 10.0141 16.9468 10.0141 17.0431 10.0622C17.0431 10.0622 14.5878 13.8656 11.2658 14.6359C9.29187 15.1174 6.98094 14.5396 6.4995 12.5657C6.4995 12.4694 6.45135 12.4213 6.45135 12.325C6.78836 12.1324 7.07723 11.988 7.41424 11.7954C8.2327 11.4584 8.85857 11.1695 9.09929 11.0732H9.14744C11.1214 10.3511 12.7583 10.1104 12.7583 10.1104C11.2658 9.96593 10.014 10.0622 8.90672 10.3029C7.94383 10.4955 7.12537 10.7844 6.54764 11.0732C6.88465 9.67706 8.13641 8.4253 9.62888 8.08829C9.77332 8.04015 9.86961 8.04015 10.014 7.992C10.0622 7.992 10.1103 7.992 10.1103 7.992C10.2066 7.992 10.3029 7.94386 10.3992 7.94386C10.4473 7.94386 10.4473 7.94386 10.4955 7.94386C10.6399 7.94386 10.7362 7.94386 10.8806 7.94386C10.9288 7.94386 10.9288 7.94386 10.9769 7.94386C11.0732 7.94386 11.2177 7.94386 11.3139 7.94386C11.3621 7.94386 11.4102 7.94386 11.4102 7.94386C11.4584 7.94386 11.5065 7.94386 11.5065 7.94386C12.1324 7.992 12.9027 8.18458 13.7693 8.47345V5.77736C13.336 5.63293 12.9027 5.53664 12.4694 5.3922C11.2177 5.10334 9.14744 4.76633 6.88465 5.29591C3.22567 6.16251 2.21464 8.8586 2.21464 12.1324C2.21464 12.5657 2.26279 12.9509 2.31093 13.2879C1.54062 13.8175 0.722164 14.3952 0.0481415 15.0692C0.0481415 15.0692 1.10732 14.5878 2.50351 14.0101C3.41825 17.1394 6.69207 18.1986 9.09929 18.1986C11.651 18.1986 13.2879 17.4765 15.2136 16.2728V17.8135H19.4985V10.2548C19.4985 10.2548 19.4985 10.2548 19.4985 10.2066V10.1104C19.8836 9.05118 20.6058 8.76231 21.3761 8.76231C22.3872 8.76231 23.013 9.48448 23.013 10.6399V17.8616H27.2979V9.38819C27.2979 6.74025 25.6128 5.00705 23.1093 5.00705Z" fill="#8B8B8B"/>
<path d="M30.8606 0C29.5607 0 28.6459 0.914744 28.6459 2.21464C28.6459 3.51454 29.5607 4.42929 30.8606 4.42929C32.1605 4.42929 33.0752 3.51454 33.0752 2.21464C33.0752 0.914744 32.1605 0 30.8606 0Z" fill="#8B8B8B"/>
<path d="M47.2778 10.9769V5.58473H42.993V6.35505C38.8526 3.7071 36.2046 6.45133 36.2046 6.45133C34.9528 7.6068 34.2307 9.38814 34.2307 11.6991C34.2307 15.7432 36.686 18.1504 39.8154 18.1504C41.019 18.1504 42.0782 17.8616 43.0411 16.5617C43.1374 16.8505 43.3781 17.6208 43.5707 17.8616H48.0481C47.2297 16.5617 47.2297 12.2287 47.2778 10.9769ZM40.7783 14.5877C39.3821 14.5877 38.4193 13.3841 38.4193 11.6991C38.4193 10.014 39.3821 8.81041 40.7783 8.81041C41.7412 8.81041 42.5115 9.38815 42.8967 10.351V13.0953C42.5115 14.01 41.7412 14.5877 40.7783 14.5877Z" fill="#8B8B8B"/>
</g>
<defs>
<clipPath id="clip0_4853_699">
<rect width="48" height="18.1986" fill="white"/>
</clipPath>
</defs>
</svg>
