<svg width="40" height="40" viewBox="0 0 40 40" fill="none" xmlns="http://www.w3.org/2000/svg">
<g clip-path="url(#clip0_4853_706)">
<mask id="mask0_4853_706" style="mask-type:luminance" maskUnits="userSpaceOnUse" x="0" y="0" width="40" height="40">
<path d="M40 20C40 8.95431 31.0457 0 20 0C8.95431 0 0 8.95431 0 20C0 31.0457 8.95431 40 20 40C31.0457 40 40 31.0457 40 20Z" fill="white"/>
</mask>
<g mask="url(#mask0_4853_706)">
<path d="M39.9545 0.0452881H0.0451965V39.9546H39.9545V0.0452881Z" fill="#8B8B8B" stroke="#8B8B8B" stroke-miterlimit="10"/>
<path d="M33.8864 11.5556C33.4147 11.1837 32.8524 10.6757 31.8274 10.5488C30.866 10.4218 29.8864 11.0657 29.2243 11.4921C28.5621 11.9184 27.3104 13.1701 26.7934 13.551C26.2764 13.932 24.9522 14.2857 22.8206 15.5646C20.6891 16.8436 12.3263 22.2132 12.3263 22.2132L14.5032 22.2404L4.79795 27.2381H5.76845L4.37164 28.2993C4.37164 28.2993 5.6052 28.6258 6.63919 27.9728V28.2721C6.63919 28.2721 18.1948 23.7188 20.4261 24.898L19.0655 25.297C19.1834 25.297 21.3784 25.4422 21.3784 25.4422C21.4317 25.8967 21.5845 26.3339 21.8259 26.7227C22.0674 27.1115 22.3915 27.4423 22.7752 27.6916C24.0995 28.5624 24.1267 29.0431 24.1267 29.0431C24.1267 29.0431 23.4374 29.3242 23.4374 29.678C23.4374 29.678 24.4533 29.3696 25.3966 29.3968C25.9952 29.4195 26.5891 29.5139 27.1653 29.678C27.1653 29.678 27.0927 29.297 26.1766 29.0431C25.2605 28.7891 24.3535 27.7914 23.9091 27.2472C23.6369 26.9008 23.4594 26.4895 23.3942 26.0537C23.329 25.618 23.3783 25.1728 23.5372 24.7619C23.8546 23.9365 24.9612 23.483 27.2469 22.3038C29.9408 20.907 30.5576 19.873 30.9386 19.0657C31.3195 18.2585 31.8818 16.653 32.1993 15.9002C32.5984 14.9297 33.0882 14.4127 33.4963 14.1043C33.9045 13.7959 35.7186 13.1157 35.7186 13.1157C35.7186 13.1157 34.3309 11.9093 33.8864 11.5556Z" fill="white"/>
</g>
</g>
<defs>
<clipPath id="clip0_4853_706">
<rect width="40" height="40" fill="white"/>
</clipPath>
</defs>
</svg>
