<svg width="40" height="40" viewBox="0 0 40 40" fill="none" xmlns="http://www.w3.org/2000/svg">
<g clip-path="url(#clip0_4853_715)">
<mask id="mask0_4853_715" style="mask-type:luminance" maskUnits="userSpaceOnUse" x="0" y="0" width="40" height="40">
<path d="M40 0H0V40H40V0Z" fill="white"/>
</mask>
<g mask="url(#mask0_4853_715)">
<path fill-rule="evenodd" clip-rule="evenodd" d="M20 0C31.0465 0 40 8.95354 40 20C40 31.0465 31.0465 40 20 40C8.95354 40 0 31.0465 0 20C0 8.95354 8.95354 0 20 0Z" fill="#8B8B8B"/>
<path d="M10.992 20L11.0064 25.2884L15.5 27.9327V31.0288L8.37666 26.851V18.4535L10.992 20ZM10.992 14.7115V17.7932L8.375 16.2452V13.1634L10.992 11.6154L13.6218 13.1634L10.992 14.7115ZM17.3767 13.1634L19.9936 11.6154L22.6234 13.1634L19.9936 14.7115L17.3767 13.1634Z" fill="white"/>
<path d="M12.8828 24.1923V21.0962L15.4998 22.6442V25.7259L12.8828 24.1923ZM17.3764 29.0416L19.9934 30.5897L22.6232 29.0416V32.1234L19.9934 33.6715L17.3764 32.1234V29.0416ZM26.3764 13.1634L28.9934 11.6154L31.6232 13.1634V16.2452L28.9934 17.7932V14.7115L26.3764 13.1634ZM28.9934 25.2884L29.0078 20L31.6248 18.4519V26.8494L24.5014 31.0272V27.9311L28.9934 25.2884Z" fill="white"/>
<path d="M27.117 24.1922L24.5 25.7259V22.6441L27.117 21.0961V24.1922Z" fill="white"/>
<path d="M27.1168 15.8078L27.1312 18.9039L22.6248 21.5482V26.8494L20.0078 28.3831L17.3908 26.8494V21.5482L12.8844 18.9039V15.8078L15.5126 14.2597L19.9918 16.9167L24.4982 14.2597L27.128 15.8078H27.1168ZM12.8828 10.5209L19.9934 6.32861L27.1168 10.5209L24.4998 12.069L19.9934 9.41193L15.4998 12.069L12.8828 10.5209Z" fill="white"/>
</g>
</g>
<defs>
<clipPath id="clip0_4853_715">
<rect width="40" height="40" fill="white"/>
</clipPath>
</defs>
</svg>
