<svg width="40" height="40" viewBox="0 0 40 40" fill="none" xmlns="http://www.w3.org/2000/svg">
<g clip-path="url(#clip0_4853_453)">
<mask id="mask0_4853_453" style="mask-type:luminance" maskUnits="userSpaceOnUse" x="0" y="0" width="40" height="40">
<path d="M39.6226 0H0.377357V39.2453H39.6226V0Z" fill="white"/>
</mask>
<g mask="url(#mask0_4853_453)">
<mask id="mask1_4853_453" style="mask-type:luminance" maskUnits="userSpaceOnUse" x="0" y="0" width="40" height="40">
<path d="M39.6226 0H0.377357V39.2453H39.6226V0Z" fill="white"/>
</mask>
<g mask="url(#mask1_4853_453)">
<path d="M19.9986 8.2314C24.155 8.2314 27.5245 6.38875 27.5245 4.11571C27.5245 1.84266 24.155 0 19.9986 0C15.8422 0 12.4728 1.84266 12.4728 4.11571C12.4728 6.38875 15.8422 8.2314 19.9986 8.2314Z" fill="#8B8B8B"/>
<path d="M19.9986 39.2427C24.155 39.2427 27.5245 37.4 27.5245 35.127C27.5245 32.8539 24.155 31.0112 19.9986 31.0112C15.8422 31.0112 12.4728 32.8539 12.4728 35.127C12.4728 37.4 15.8422 39.2427 19.9986 39.2427Z" fill="#8B8B8B"/>
<path d="M9.51057 13.9291C11.5888 10.5446 11.5753 6.87885 9.48045 5.74156C7.38559 4.60427 4.00264 6.42605 1.92443 9.81059C-0.15379 13.1952 -0.140301 16.8609 1.95455 17.9981C4.04941 19.1354 7.43235 17.3137 9.51057 13.9291Z" fill="#8B8B8B"/>
<path d="M38.0694 29.4319C40.1475 26.0473 40.1352 22.3823 38.0418 21.2458C35.9484 20.1092 32.5666 21.9316 30.4883 25.3162C28.4101 28.7008 28.4224 32.3658 30.5159 33.5024C32.6094 34.6389 35.9911 32.8165 38.0694 29.4319Z" fill="#8B8B8B"/>
<path d="M9.48151 33.5023C11.5764 32.365 11.5899 28.6994 9.5117 25.3148C7.43346 21.9302 4.05051 20.1084 1.95566 21.2457C-0.139195 22.383 -0.152683 26.0487 1.92553 29.4332C4.00375 32.8179 7.3867 34.6396 9.48151 33.5023Z" fill="#8B8B8B"/>
<path d="M38.0436 17.9979C40.1371 16.8614 40.1494 13.1964 38.0712 9.81183C35.993 6.42724 32.6112 4.60484 30.5177 5.74136C28.4243 6.87788 28.4119 10.5429 30.4902 13.9275C32.5684 17.3121 35.9502 19.1345 38.0436 17.9979Z" fill="#8B8B8B"/>
</g>
</g>
</g>
<defs>
<clipPath id="clip0_4853_453">
<rect width="40" height="39.2453" fill="white"/>
</clipPath>
</defs>
</svg>
