<svg width="40" height="40" viewBox="0 0 40 40" fill="none" xmlns="http://www.w3.org/2000/svg">
<g clip-path="url(#clip0_4853_535)">
<mask id="mask0_4853_535" style="mask-type:luminance" maskUnits="userSpaceOnUse" x="0" y="0" width="40" height="40">
<path d="M39.6227 0H0.37738V39.2453H39.6227V0Z" fill="white"/>
</mask>
<g mask="url(#mask0_4853_535)">
<mask id="mask1_4853_535" style="mask-type:luminance" maskUnits="userSpaceOnUse" x="0" y="0" width="40" height="40">
<path d="M39.6227 0H0.37738V39.2453H39.6227V0Z" fill="white"/>
</mask>
<g mask="url(#mask1_4853_535)">
<path d="M3.92505 11.9305V27.3146C3.92505 28.3036 4.44309 29.1984 5.30648 29.7007L18.6342 37.3928C19.4819 37.8795 20.5337 37.8795 21.3814 37.3928L34.7091 29.7007C35.5568 29.2141 36.0905 28.3036 36.0905 27.3146V11.9305C36.0905 10.9415 35.5725 10.0467 34.7091 9.54436L21.3814 1.85229C20.5337 1.36564 19.4819 1.36564 18.6342 1.85229L5.30648 9.54436C4.45878 10.031 3.94075 10.9415 3.94075 11.9305H3.92505Z" fill="#8B8B8B"/>
<path d="M22.904 22.6043L21.0046 27.816C20.9575 27.9573 20.9575 28.1143 21.0046 28.2713L24.2698 37.2349L28.053 35.0529L23.5163 22.6043C23.4064 22.3217 23.0139 22.3217 22.904 22.6043Z" fill="#8B8B8B"/>
<path d="M26.7186 13.8455C26.6087 13.5629 26.2162 13.5629 26.1064 13.8455L24.2069 19.0572C24.1598 19.1985 24.1598 19.3555 24.2069 19.5125L29.5599 34.1902L33.3432 32.0082L26.7186 13.8612V13.8455Z" fill="#8B8B8B"/>
<path d="M20 2.43321C20.0942 2.43321 20.1884 2.4646 20.2669 2.5117L34.6777 10.8317C34.8504 10.9259 34.9446 11.1143 34.9446 11.3026V27.9426C34.9446 28.131 34.8347 28.3194 34.6777 28.4136L20.2669 36.7336C20.1884 36.7807 20.0942 36.8121 20 36.8121C19.9058 36.8121 19.8116 36.7807 19.7331 36.7336L5.32228 28.4136C5.1496 28.3194 5.05541 28.131 5.05541 27.9426V11.2869C5.05541 11.0986 5.1653 10.9102 5.32228 10.816L19.7331 2.496C19.8116 2.44891 19.9058 2.41751 20 2.41751V2.43321ZM20 0C19.482 0 18.9796 0.125585 18.5087 0.392453L4.09783 8.71245C3.17164 9.24619 2.60651 10.2195 2.60651 11.2869V27.9269C2.60651 28.9944 3.17164 29.9677 4.09783 30.5014L18.5087 38.8214C18.9639 39.0883 19.482 39.2139 20 39.2139C20.518 39.2139 21.0204 39.0883 21.4913 38.8214L35.9022 30.5014C36.8284 29.9677 37.3935 28.9944 37.3935 27.9269V11.2869C37.3935 10.2195 36.8284 9.24619 35.9022 8.71245L21.4756 0.392453C21.0204 0.125585 20.5023 0 19.9843 0H20Z" fill="#8B8B8B"/>
<path d="M10.4555 34.2064L11.7898 30.5645L14.4585 32.7779L11.9625 35.0698L10.4555 34.2064Z" fill="#8B8B8B"/>
<path d="M18.7755 10.1099H15.1179C14.851 10.1099 14.5998 10.2826 14.5056 10.5338L6.6723 32.0088L10.4555 34.1908L19.0895 10.5338C19.168 10.314 19.011 10.0942 18.7912 10.0942L18.7755 10.1099Z" fill="white"/>
<path d="M25.1805 10.1099H21.5229C21.256 10.1099 21.0048 10.2826 20.9106 10.5338L11.9627 35.0542L15.746 37.2363L25.4788 10.5338C25.5573 10.314 25.4003 10.0942 25.1805 10.0942V10.1099Z" fill="white"/>
</g>
</g>
</g>
<defs>
<clipPath id="clip0_4853_535">
<rect width="40" height="39.2453" fill="white"/>
</clipPath>
</defs>
</svg>
