<svg width="40" height="40" viewBox="0 0 40 40" fill="none" xmlns="http://www.w3.org/2000/svg">
<path d="M19.9874 39.9688C31.0261 39.9688 39.9748 31.0215 39.9748 19.9844C39.9748 8.94732 31.0261 0 19.9874 0C8.94867 0 0 8.94732 0 19.9844C0 31.0215 8.94867 39.9688 19.9874 39.9688Z" fill="#8B8B8B"/>
<path d="M31.6486 3.75374C28.438 1.44773 24.6156 0.145416 20.6647 0.0114807C16.7138 -0.122455 12.812 0.918004 9.45256 3.00128C6.09312 5.08456 3.42698 8.1171 1.79128 11.7154C0.155582 15.3137 -0.3762 19.3162 0.263179 23.2166C0.902559 27.1171 2.68438 30.7404 5.38333 33.6284C8.08227 36.5165 11.5771 38.5393 15.4259 39.4414C19.2748 40.3434 23.3046 40.0841 27.006 38.6962C30.7074 37.3082 33.9141 34.854 36.2205 31.644C37.7519 29.5125 38.8483 27.1003 39.4474 24.5452C40.0464 21.9901 40.1362 19.3419 39.7117 16.7521C39.2871 14.1623 38.3566 11.6814 36.9731 9.45112C35.5897 7.22086 33.7804 5.28488 31.6486 3.75374Z" fill="#8B8B8B"/>
<path d="M3.47656 31.2619C3.47656 31.2619 16.6844 26.9357 39.9627 19.3457C39.9627 19.3457 41.2378 31.7754 28.3516 38.2589C28.3516 38.2589 21.9971 41.3044 15.0257 39.3507C15.0257 39.3507 8.08381 38.0405 3.47656 31.2619Z" fill="#6D6D6D"/>
</svg>
