<svg width="40" height="35" viewBox="0 0 40 35" fill="none" xmlns="http://www.w3.org/2000/svg">
<path d="M33.2768 21.8214L20.6191 0.351403C20.5578 0.245388 20.4691 0.157077 20.3618 0.0953831C20.2545 0.0336886 20.1325 0.000792631 20.0081 1.41455e-05C19.8837 -0.00076434 19.7613 0.0306023 19.6533 0.0909491C19.5452 0.151295 19.4554 0.238488 19.3927 0.343728L15.6018 6.77707C15.4777 6.98761 15.4124 7.22655 15.4124 7.46969C15.4124 7.71284 15.4777 7.95177 15.6018 8.16232L23.8554 22.1687C23.9797 22.3795 24.1585 22.5545 24.3738 22.6761C24.5892 22.7977 24.8333 22.8616 25.0819 22.8613H32.6636C32.7877 22.861 32.9096 22.8287 33.017 22.7678C33.1243 22.7069 33.2136 22.6194 33.2756 22.5141C33.3377 22.4089 33.3704 22.2894 33.3706 22.1679C33.3709 22.0464 33.3385 21.9269 33.2768 21.8214Z" fill="#8B8B8B"/>
<path d="M0.0976043 33.0425L12.7553 11.5725C12.8174 11.4673 12.9067 11.38 13.0142 11.3193C13.1216 11.2585 13.2434 11.2266 13.3675 11.2266C13.4916 11.2266 13.6135 11.2585 13.7209 11.3193C13.8284 11.38 13.9176 11.4673 13.9797 11.5725L17.7725 18C17.8967 18.211 17.962 18.4502 17.962 18.6936C17.962 18.9371 17.8967 19.1763 17.7725 19.3873L9.51887 33.3936C9.39509 33.6043 9.21666 33.7794 9.0017 33.901C8.78673 34.0227 8.54276 34.0865 8.29443 34.0862H0.710798C0.585873 34.0868 0.463015 34.055 0.354711 33.9941C0.246408 33.9331 0.156536 33.8451 0.094232 33.739C0.0319281 33.633 -0.000586543 33.5127 8.00983e-06 33.3903C0.000602563 33.2679 0.0342723 33.1479 0.0976043 33.0425Z" fill="#8B8B8B"/>
<path d="M13.978 34.0817H39.2934C39.4176 34.0816 39.5395 34.0495 39.647 33.9886C39.7545 33.9276 39.8437 33.84 39.9056 33.7346C39.9676 33.6292 40.0001 33.5097 40 33.3881C39.9998 33.2664 39.9669 33.147 39.9047 33.0418L36.1177 26.6104C35.9935 26.3996 35.8147 26.2246 35.5994 26.103C35.3841 25.9814 35.1398 25.9175 34.8913 25.9177H18.384C18.1355 25.9175 17.8913 25.9814 17.676 26.103C17.4607 26.2246 17.2819 26.3996 17.1576 26.6104L13.3668 33.0418C13.3045 33.147 13.2716 33.2664 13.2715 33.3881C13.2713 33.5097 13.3037 33.6292 13.3657 33.7346C13.4277 33.84 13.5169 33.9276 13.6244 33.9886C13.7319 34.0495 13.8538 34.0816 13.978 34.0817Z" fill="#8B8B8B"/>
</svg>
