<svg width="35" height="40" viewBox="0 0 35 40" fill="none" xmlns="http://www.w3.org/2000/svg">
<path d="M13.6492 9.09757C13.2149 9.03568 13.1942 9.01505 13.401 8.99442C13.7939 8.93253 14.7038 9.01505 15.3449 9.15946C16.8337 9.51015 18.1779 10.4178 19.6047 12.0063L19.977 12.4395L20.5146 12.357C22.81 11.9857 25.1674 12.2745 27.1319 13.1821C27.6695 13.4297 28.5174 13.9248 28.6208 14.0486C28.6621 14.0898 28.7242 14.358 28.7655 14.6262C28.9103 15.5958 28.8482 16.3178 28.5381 16.8748C28.3726 17.1842 28.3726 17.2667 28.476 17.5349C28.5587 17.7412 28.8069 17.8856 29.0343 17.8856C29.5306 17.8856 30.0476 17.1017 30.2958 16.0083L30.3992 15.5751L30.5853 15.7814C31.6399 16.9573 32.4671 18.587 32.5911 19.7422L32.6325 20.0517L32.4464 19.7835C32.1362 19.309 31.8467 18.9996 31.4538 18.7314C30.7507 18.2569 30.0063 18.1125 28.0418 18.0094C26.2634 17.9062 25.2501 17.7618 24.2575 17.4318C22.5618 16.8748 21.6933 16.1527 19.6874 13.4916C18.7983 12.3157 18.2399 11.6762 17.6816 11.1399C16.4615 9.96399 15.2415 9.34512 13.6492 9.09757Z" fill="#8B8B8B"/>
<path d="M29.0551 11.7173C29.0964 10.9334 29.1998 10.4177 29.4273 9.94322C29.51 9.75756 29.5927 9.59253 29.6134 9.59253C29.6341 9.59253 29.5927 9.73693 29.5307 9.90197C29.3653 10.3558 29.3446 10.9953 29.448 11.7173C29.5927 12.6456 29.6548 12.7694 30.6474 13.7803C31.1023 14.2547 31.6399 14.853 31.8467 15.1005L32.1983 15.5544L31.8467 15.2243C31.4125 14.8117 30.4199 14.0278 30.1924 13.9247C30.0477 13.8421 30.027 13.8421 29.9236 13.9453C29.8409 14.0278 29.8202 14.1516 29.8202 14.7498C29.7995 15.6781 29.6754 16.2557 29.3653 16.854C29.1998 17.1634 29.1791 17.1015 29.3239 16.7508C29.4273 16.4827 29.448 16.3589 29.448 15.4718C29.448 13.6771 29.2412 13.2439 27.9798 12.5219C27.6696 12.3362 27.1319 12.068 26.8217 11.9236C26.4909 11.7792 26.2427 11.6554 26.2634 11.6554C26.3048 11.6142 27.5248 11.9649 28.0004 12.1712C28.7242 12.46 28.8483 12.4806 28.931 12.46C28.993 12.3981 29.0344 12.2331 29.0551 11.7173Z" fill="#8B8B8B"/>
<path d="M14.4967 14.7911C13.6282 13.5946 13.0699 11.738 13.194 10.3558L13.2353 9.92261L13.4421 9.96387C13.8143 10.0258 14.4554 10.2733 14.7656 10.459C15.5927 10.9541 15.9649 11.6348 16.3165 13.3264C16.4199 13.8215 16.5646 14.3991 16.6267 14.5848C16.7301 14.8942 17.123 15.6163 17.4538 16.0701C17.6813 16.4002 17.5366 16.5652 17.0196 16.5239C16.2338 16.4414 15.1792 15.7194 14.4967 14.7911Z" fill="#8B8B8B"/>
<path d="M28 23.7648C23.9055 22.1145 22.458 20.6911 22.458 18.2774C22.458 17.9267 22.4787 17.6379 22.4787 17.6379C22.4994 17.6379 22.6441 17.7617 22.8302 17.9061C23.6574 18.5663 24.5879 18.8551 27.1728 19.2264C28.6824 19.4533 29.5509 19.6183 30.3367 19.8865C32.8389 20.7117 34.3898 22.4033 34.762 24.6931C34.8654 25.3532 34.8034 26.6116 34.6379 27.2718C34.4932 27.7875 34.0796 28.7364 33.9762 28.7571C33.9555 28.7571 33.9142 28.6539 33.9142 28.4889C33.8728 27.6225 33.4385 26.7973 32.7148 26.1578C31.8463 25.4151 30.7296 24.8581 28 23.7648Z" fill="#8B8B8B"/>
<path d="M25.1054 24.4454C25.0641 24.136 24.9607 23.744 24.8986 23.579L24.7952 23.2695L24.9813 23.4965C25.2502 23.8059 25.457 24.1772 25.6431 24.6929C25.7878 25.0849 25.7878 25.2087 25.7878 25.8482C25.7878 26.4671 25.7671 26.6115 25.6431 26.9622C25.4363 27.5191 25.1881 27.9111 24.7746 28.3443C24.0301 29.1076 23.0582 29.5202 21.6727 29.7058C21.4246 29.7265 20.7215 29.7883 20.1011 29.8296C18.5502 29.9121 17.5162 30.0772 16.5857 30.4072C16.4616 30.4485 16.3375 30.4897 16.3168 30.4691C16.2755 30.4279 16.9165 30.0565 17.4335 29.809C18.1573 29.4583 18.9017 29.2726 20.5354 28.9838C21.3418 28.86 22.169 28.695 22.3758 28.6125C24.423 27.973 25.4363 26.3845 25.1054 24.4454Z" fill="#8B8B8B"/>
<path d="M26.9871 27.767C26.4494 26.5911 26.3254 25.4771 26.6149 24.425C26.6562 24.3219 26.6976 24.2188 26.739 24.2188C26.7803 24.2188 26.9044 24.2806 27.0285 24.3632C27.2766 24.5282 27.7936 24.817 29.117 25.539C30.792 26.4467 31.7433 27.1481 32.405 27.9526C32.984 28.654 33.3356 29.4586 33.501 30.4488C33.6044 31.0057 33.5423 32.3466 33.3976 32.9036C32.9427 34.6571 31.9087 36.0599 30.3991 36.8644C30.1717 36.9882 29.9856 37.0707 29.9649 37.0707C29.9442 37.0707 30.0269 36.8644 30.151 36.6169C30.6473 35.5648 30.7093 34.554 30.3371 33.4194C30.1096 32.718 29.634 31.8722 28.6828 30.4488C27.5454 28.7984 27.2766 28.3652 26.9871 27.767Z" fill="#8B8B8B"/>
<path d="M11.5812 34.0795C13.1115 32.8004 14.9933 31.8928 16.7303 31.604C17.4747 31.4802 18.7155 31.5214 19.3979 31.7071C20.4939 31.9959 21.4865 32.6148 22.0034 33.3781C22.4997 34.1207 22.7272 34.7602 22.9547 36.1836C23.0374 36.7406 23.1408 37.3182 23.1615 37.442C23.3269 38.1847 23.6578 38.7623 24.0713 39.0717C24.7124 39.5462 25.8291 39.5668 26.925 39.1542C27.1111 39.0923 27.2766 39.0305 27.2766 39.0511C27.3179 39.0923 26.7596 39.4637 26.3874 39.6493C25.8704 39.9175 25.4568 40 24.8985 40C23.9059 40 23.0581 39.4843 22.3757 38.4528C22.2309 38.2465 21.9414 37.6483 21.6933 37.0913C20.9695 35.4204 20.5973 34.9253 19.7494 34.3683C19.005 33.8938 18.0538 33.7906 17.33 34.1413C16.3788 34.5952 16.1306 35.8123 16.7923 36.555C17.0612 36.8644 17.5575 37.1119 17.971 37.1738C18.7362 37.277 19.3979 36.6787 19.3979 35.9155C19.3979 35.4204 19.2118 35.1315 18.7155 34.9046C18.0538 34.6158 17.33 34.9459 17.3507 35.5854C17.3507 35.8536 17.4747 36.0186 17.7436 36.1424C17.909 36.2249 17.909 36.2249 17.7849 36.2043C17.1852 36.0805 17.0405 35.3378 17.5161 34.8634C18.0951 34.2857 19.3152 34.5333 19.7288 35.3378C19.8942 35.6679 19.9149 36.328 19.7701 36.7406C19.4186 37.6483 18.426 38.1228 17.4127 37.8546C16.7303 37.6689 16.4408 37.4833 15.6136 36.6375C14.1661 35.1522 13.6078 34.8634 11.5399 34.5539L11.147 34.492L11.5812 34.0795Z" fill="#8B8B8B"/>
<path fill-rule="evenodd" clip-rule="evenodd" d="M0.704006 0.887054C5.52221 6.72511 12.946 15.8019 13.3182 16.297C13.6284 16.7096 13.5043 17.1016 12.9873 17.3904C12.6978 17.5554 12.0981 17.7205 11.8086 17.7205C11.4778 17.7205 11.0849 17.5554 10.816 17.2872C10.6299 17.1016 9.82344 15.9257 8.00369 13.0995C6.61819 10.9335 5.43949 9.13872 5.41881 9.11809C5.3361 9.07683 5.3361 9.07683 7.85893 13.574C9.45122 16.4002 9.96819 17.411 9.96819 17.5348C9.96819 17.803 9.88547 17.9474 9.55461 18.3187C8.99628 18.9376 8.74813 19.639 8.56202 21.1036C8.35523 22.7333 7.7969 23.8886 6.20462 25.8483C5.27406 27.0036 5.12931 27.2099 4.90184 27.6843C4.61233 28.262 4.52962 28.592 4.48826 29.3347C4.4469 30.1186 4.52962 30.6137 4.75709 31.3563C4.96388 32.0165 5.19135 32.4497 5.74968 33.2955C6.2253 34.0381 6.5148 34.5951 6.5148 34.8014C6.5148 34.9664 6.55616 34.9664 7.3006 34.8014C9.07899 34.3888 10.5472 33.6874 11.3537 32.821C11.85 32.2846 11.9741 31.9958 11.9741 31.2532C11.9741 30.7787 11.9534 30.6756 11.8293 30.3868C11.6225 29.9329 11.2296 29.5616 10.3818 28.984C9.2651 28.2207 8.78949 27.6018 8.66541 26.7767C8.56202 26.0753 8.68609 25.6008 9.30646 24.3012C9.94751 22.9603 10.1129 22.4033 10.2163 21.0417C10.2784 20.1753 10.3818 19.8246 10.6299 19.5564C10.8987 19.2676 11.1262 19.1645 11.7673 19.082C12.8219 18.9376 13.5043 18.6694 14.0419 18.1537C14.5176 17.7205 14.7244 17.2872 14.745 16.6477L14.7657 16.1733L14.4969 15.8845C13.525 14.7705 0.0629568 0 0.00091981 0C-0.0197592 0 0.311105 0.391954 0.704006 0.887054ZM7.05245 30.2217C7.27992 29.8298 7.15585 29.3347 6.78363 29.0871C6.43208 28.8602 5.89443 28.9633 5.89443 29.2728C5.89443 29.3553 5.93579 29.4378 6.05986 29.4791C6.24597 29.5822 6.26665 29.6854 6.1219 29.9123C5.97715 30.1392 5.97715 30.3455 6.16326 30.4899C6.45276 30.7168 6.84566 30.5931 7.05245 30.2217Z" fill="#8B8B8B"/>
<path fill-rule="evenodd" clip-rule="evenodd" d="M15.4274 19.371C14.9311 19.5154 14.4555 20.0517 14.3107 20.5881C14.228 20.9182 14.2694 21.5164 14.4141 21.7021C14.6416 21.9909 14.8484 22.0734 15.4274 22.0734C16.5647 22.0734 17.5366 21.5783 17.64 20.9801C17.7434 20.485 17.3092 19.8042 16.7095 19.4948C16.3993 19.3297 15.7582 19.2678 15.4274 19.371ZM16.7508 20.4024C16.9163 20.1549 16.8542 19.8867 16.544 19.7011C15.9857 19.3504 15.1379 19.6392 15.1379 20.1755C15.1379 20.4437 15.5721 20.7325 15.9857 20.7325C16.2545 20.7325 16.6268 20.5675 16.7508 20.4024Z" fill="#8B8B8B"/>
</svg>
