<svg width="40" height="40" viewBox="0 0 40 40" fill="none" xmlns="http://www.w3.org/2000/svg">
<path d="M27.5 19.9985C27.5018 18.5647 27.0367 17.1694 26.175 16.0235L29.5 12.7235C30.1502 12.9939 30.8459 13.1382 31.55 13.1485C32.187 13.1685 32.8217 13.0628 33.4178 12.8373C34.0139 12.6119 34.5597 12.2712 35.0241 11.8347C35.4884 11.3982 35.8622 10.8745 36.124 10.2935C36.3859 9.71243 36.5306 9.08549 36.55 8.44849C36.55 7.1224 36.0232 5.85063 35.0855 4.91295C34.1479 3.97527 32.8761 3.44849 31.55 3.44849C30.2239 3.44849 28.9521 3.97527 28.0145 4.91295C27.0768 5.85063 26.55 7.1224 26.55 8.44849C26.5532 9.2218 26.7601 9.98062 27.15 10.6485L23.825 13.9735C22.6562 13.3193 21.3394 12.975 20 12.9735C18.3462 12.9507 16.7313 13.4752 15.4065 14.4654C14.0817 15.4556 13.1214 16.8559 12.675 18.4485H10.95C10.5724 17.5149 9.92172 16.717 9.08309 16.1594C8.24446 15.6018 7.257 15.3105 6.25 15.3235C4.96772 15.283 3.72163 15.7522 2.78453 16.6284C1.84743 17.5046 1.29565 18.7164 1.25 19.9985C1.2694 20.6355 1.41415 21.2624 1.67598 21.8435C1.93781 22.4245 2.31158 22.9482 2.77594 23.3847C3.2403 23.8212 3.78612 24.1619 4.38223 24.3873C4.97833 24.6128 5.61301 24.7185 6.25 24.6985C7.257 24.7115 8.24446 24.4202 9.08309 23.8626C9.92172 23.305 10.5724 22.5071 10.95 21.5735H12.675C13.1214 23.166 14.0817 24.5664 15.4065 25.5566C16.7313 26.5468 18.3462 27.0713 20 27.0485C20.9555 27.0785 21.9075 26.9199 22.8017 26.5818C23.6958 26.2436 24.5146 25.7326 25.2111 25.0778C25.9076 24.4231 26.4683 23.6375 26.861 22.766C27.2538 21.8944 27.4709 20.954 27.5 19.9985ZM31.55 6.89849C32.0039 6.85669 32.4559 6.99625 32.8073 7.28669C33.1586 7.57712 33.3807 7.99481 33.425 8.44849C33.3521 8.89321 33.1236 9.29756 32.7801 9.58933C32.4366 9.8811 32.0007 10.0413 31.55 10.0413C31.0993 10.0413 30.6634 9.8811 30.3199 9.58933C29.9764 9.29756 29.7479 8.89321 29.675 8.44849C29.7255 7.99741 29.9493 7.5836 30.2991 7.2944C30.649 7.00521 31.0975 6.86325 31.55 6.89849ZM6.25 21.5735C5.79357 21.6083 5.34165 21.463 4.99115 21.1686C4.64064 20.8741 4.41945 20.4541 4.375 19.9985C4.4255 19.5474 4.64929 19.1336 4.99913 18.8444C5.34896 18.5552 5.79748 18.4132 6.25 18.4485C6.70252 18.4132 7.15104 18.5552 7.50087 18.8444C7.85071 19.1336 8.0745 19.5474 8.125 19.9985C8.08055 20.4541 7.85936 20.8741 7.50885 21.1686C7.15835 21.463 6.70643 21.6083 6.25 21.5735ZM20 23.9235C18.9006 23.9781 17.8241 23.5964 17.0048 22.8613C16.1855 22.1262 15.6896 21.0973 15.625 19.9985C15.6895 18.9017 16.1862 17.8752 17.0063 17.1441C17.8265 16.4131 18.903 16.037 20 16.0985C21.0953 16.0437 22.1682 16.422 22.9869 17.1518C23.8055 17.8815 24.3041 18.9041 24.375 19.9985C24.3041 21.095 23.8063 22.12 22.9885 22.8538C22.1706 23.5875 21.0977 23.9716 20 23.9235Z" fill="#FFDD2E"/>
<path d="M6.25 10.9485C6.95567 10.953 7.65431 10.8082 8.3 10.5235L12.7 14.9985C13.3371 14.1477 14.115 13.4121 15 12.8235L10.65 8.44846C11.0399 7.7806 11.2468 7.02178 11.25 6.24846C11.2043 4.96636 10.6526 3.75457 9.71547 2.87838C8.77837 2.00218 7.53228 1.53297 6.25 1.57346C4.96772 1.53297 3.72163 2.00218 2.78453 2.87838C1.84743 3.75457 1.29565 4.96636 1.25 6.24846C1.2694 6.88547 1.41415 7.51241 1.67598 8.09344C1.93781 8.67447 2.31158 9.1982 2.77594 9.6347C3.2403 10.0712 3.78612 10.4119 4.38223 10.6373C4.97833 10.8627 5.61301 10.9685 6.25 10.9485ZM6.25 4.69846C6.70252 4.66322 7.15104 4.80518 7.50087 5.09438C7.85071 5.38358 8.0745 5.79739 8.125 6.24846C8.08055 6.70406 7.85936 7.1241 7.50885 7.41853C7.15835 7.71296 6.70643 7.85832 6.25 7.82346C5.79357 7.85832 5.34165 7.71296 4.99115 7.41853C4.64064 7.1241 4.41945 6.70406 4.375 6.24846C4.4255 5.79739 4.64929 5.38358 4.99913 5.09438C5.34896 4.80518 5.79748 4.66322 6.25 4.69846ZM33.75 29.0735C33.0443 29.0689 32.3457 29.2137 31.7 29.4985L27.3 24.9985C26.649 25.8246 25.8629 26.5346 24.975 27.0985L29.325 31.4485C28.9428 32.1183 28.7444 32.8773 28.75 33.6485C28.75 34.9745 29.2768 36.2463 30.2145 37.184C31.1521 38.1217 32.4239 38.6485 33.75 38.6485C35.0761 38.6485 36.3479 38.1217 37.2855 37.184C38.2232 36.2463 38.75 34.9745 38.75 33.6485C38.6789 32.3841 38.116 31.1976 37.1817 30.3427C36.2474 29.4878 35.0157 29.0323 33.75 29.0735ZM33.75 35.3235C33.2936 35.3583 32.8417 35.213 32.4911 34.9185C32.1406 34.6241 31.9194 34.2041 31.875 33.7485C31.9479 33.3037 32.1764 32.8994 32.5199 32.6076C32.8634 32.3159 33.2993 32.1557 33.75 32.1557C34.2007 32.1557 34.6366 32.3159 34.9801 32.6076C35.3236 32.8994 35.5521 33.3037 35.625 33.7485C35.5806 34.2041 35.3594 34.6241 35.0089 34.9185C34.6583 35.213 34.2064 35.3583 33.75 35.3235Z" fill="#FFDD2E"/>
</svg>
