<svg width="40" height="40" viewBox="0 0 40 40" fill="none" xmlns="http://www.w3.org/2000/svg">
<path fill-rule="evenodd" clip-rule="evenodd" d="M10.4167 9.16552C10.4165 8.05156 10.7599 6.96466 11.3999 6.05291C12.0399 5.14116 12.9454 4.4489 13.9931 4.07045C15.0408 3.692 16.1797 3.64578 17.2546 3.93807C18.3295 4.23037 19.2882 4.84696 20 5.70385C20.879 4.63822 22.1319 3.94868 23.5025 3.77626C24.8731 3.60385 26.2577 3.96159 27.3733 4.77631C28.4888 5.59104 29.2509 6.80119 29.5037 8.15924C29.7565 9.51728 29.481 10.9206 28.7333 12.0822H30C31.2156 12.0822 32.3814 12.5651 33.2409 13.4246C34.1004 14.2842 34.5833 15.4499 34.5833 16.6655V19.9988C34.5837 20.6364 34.3751 21.2566 33.9895 21.7644C33.604 22.2722 33.0626 22.6396 32.4483 22.8105C32.6883 25.8538 32.5483 28.9188 32.0317 31.9322C31.8814 32.8078 31.4508 33.611 30.8045 34.2206C30.1582 34.8302 29.3313 35.2133 28.4483 35.3122L26.9233 35.4822C22.3215 35.9965 17.6768 35.9965 13.075 35.4822L11.5517 35.3122C10.6687 35.2133 9.84182 34.8302 9.19552 34.2206C8.54922 33.611 8.11853 32.8078 7.96832 31.9322C7.45182 28.9207 7.31185 25.8566 7.55166 22.8105C6.93738 22.6396 6.39603 22.2722 6.01044 21.7644C5.62486 21.2566 5.41629 20.6364 5.41666 19.9988V16.6655C5.41666 15.4499 5.89954 14.2842 6.75908 13.4246C7.61863 12.5651 8.78441 12.0822 9.99999 12.0822H11.2667C10.7096 11.2115 10.4146 10.1991 10.4167 9.16552ZM18.75 9.16552C18.75 8.39197 18.4427 7.6501 17.8957 7.10312C17.3487 6.55614 16.6069 6.24885 15.8333 6.24885C15.0598 6.24885 14.3179 6.55614 13.7709 7.10312C13.2239 7.6501 12.9167 8.39197 12.9167 9.16552C12.9167 9.93906 13.2239 10.6809 13.7709 11.2279C14.3179 11.7749 15.0598 12.0822 15.8333 12.0822C16.6069 12.0822 17.3487 11.7749 17.8957 11.2279C18.4427 10.6809 18.75 9.93906 18.75 9.16552ZM24.1667 12.0822C24.5497 12.0822 24.9289 12.0067 25.2828 11.8602C25.6367 11.7136 25.9582 11.4987 26.2291 11.2279C26.4999 10.9571 26.7147 10.6355 26.8613 10.2817C27.0079 9.92781 27.0833 9.54854 27.0833 9.16552C27.0833 8.78249 27.0079 8.40322 26.8613 8.04936C26.7147 7.69549 26.4999 7.37396 26.2291 7.10312C25.9582 6.83228 25.6367 6.61744 25.2828 6.47087C24.9289 6.32429 24.5497 6.24885 24.1667 6.24885C23.3931 6.24885 22.6512 6.55614 22.1043 7.10312C21.5573 7.6501 21.25 8.39197 21.25 9.16552C21.25 9.93906 21.5573 10.6809 22.1043 11.2279C22.6512 11.7749 23.3931 12.0822 24.1667 12.0822ZM7.91666 16.6655C7.91666 15.5155 8.84999 14.5822 9.99999 14.5822H18.75V20.4155H8.33332C8.22282 20.4155 8.11684 20.3716 8.0387 20.2935C7.96056 20.2153 7.91666 20.1094 7.91666 19.9988V16.6655ZM21.25 22.9155H29.9483C30.1817 25.7822 30.055 28.6705 29.5683 31.5089C29.5097 31.8505 29.3416 32.1639 29.0894 32.4017C28.8372 32.6394 28.5145 32.7888 28.17 32.8272L26.6467 32.9988C24.8533 33.1988 23.0517 33.3172 21.25 33.3555V22.9155ZM21.25 20.4155H31.6667C31.7772 20.4155 31.8831 20.3716 31.9613 20.2935C32.0394 20.2153 32.0833 20.1094 32.0833 19.9988V16.6655C32.0833 15.5155 31.15 14.5822 30 14.5822H21.25V20.4155ZM18.75 22.9155V33.3555C16.9466 33.318 15.1459 33.199 13.3533 32.9988L11.83 32.8272C11.4857 32.7889 11.1632 32.6398 10.911 32.4023C10.6588 32.1648 10.4906 31.8519 10.4317 31.5105C9.94532 28.6728 9.81765 25.7851 10.0517 22.9155H18.75Z" fill="#FFDD2E"/>
</svg>
