<svg width="40" height="40" viewBox="0 0 40 40" fill="none" xmlns="http://www.w3.org/2000/svg">
<path fill-rule="evenodd" clip-rule="evenodd" d="M19.9133 2.08203H20.0867C21.585 2.08203 22.8333 2.08203 23.8233 2.21536C24.87 2.35536 25.815 2.66536 26.5733 3.4237C27.3333 4.1837 27.6433 5.1287 27.7833 6.1737C27.8833 6.90703 27.9083 7.78036 27.915 8.79036C28.995 8.82536 29.9583 8.89036 30.815 9.0037C32.7683 9.26703 34.35 9.82036 35.5983 11.067C36.845 12.3154 37.3983 13.897 37.6617 15.8504C37.9167 17.7504 37.9167 20.1754 37.9167 23.2387V23.4254C37.9167 26.4887 37.9167 28.9154 37.6617 30.8137C37.3983 32.767 36.845 34.3487 35.5983 35.597C34.35 36.8437 32.7683 37.397 30.815 37.6604C28.915 37.9154 26.49 37.9154 23.4267 37.9154H16.5733C13.51 37.9154 11.0833 37.9154 9.185 37.6604C7.23167 37.397 5.65 36.8437 4.40167 35.597C3.155 34.3487 2.60167 32.767 2.33834 30.8137C2.08334 28.9137 2.08334 26.4887 2.08334 23.4254V23.2387C2.08334 20.1754 2.08334 17.7487 2.33834 15.8504C2.60167 13.897 3.155 12.3154 4.40167 11.067C5.65 9.82036 7.23167 9.26703 9.185 9.0037C10.1475 8.88452 11.1154 8.81332 12.085 8.79036C12.0917 7.78036 12.1183 6.90703 12.2167 6.1737C12.3567 5.1287 12.6667 4.1837 13.425 3.4237C14.185 2.66536 15.13 2.35703 16.175 2.21536C17.1667 2.08203 18.4167 2.08203 19.9133 2.08203ZM14.5867 8.75203C15.2167 8.7487 15.8783 8.7487 16.5733 8.7487H23.4267C24.1217 8.7487 24.7833 8.7487 25.4133 8.75203C25.4067 7.80203 25.3833 7.08536 25.3067 6.50703C25.2017 5.7387 25.0233 5.4087 24.8067 5.19203C24.59 4.97536 24.26 4.79703 23.49 4.69203C22.6867 4.58536 21.6067 4.58203 20 4.58203C18.3933 4.58203 17.3133 4.58536 16.5083 4.6937C15.74 4.79703 15.41 4.97536 15.1933 5.1937C14.9767 5.41036 14.7983 5.7387 14.6933 6.50703C14.6167 7.0837 14.5933 7.80036 14.5867 8.75203ZM9.51667 11.482C7.84 11.707 6.87334 12.1304 6.16667 12.8354C5.46334 13.5404 5.04 14.507 4.815 16.1837C4.585 17.8954 4.58167 20.1537 4.58167 23.332C4.58167 26.5104 4.585 28.7687 4.815 30.482C5.04 32.157 5.46334 33.1237 6.16834 33.8287C6.87334 34.5337 7.84 34.957 9.51667 35.182C11.23 35.412 13.4867 35.4154 16.665 35.4154H23.3317C26.51 35.4154 28.7683 35.412 30.4817 35.182C32.1567 34.957 33.1233 34.5337 33.8283 33.8287C34.5333 33.1237 34.9567 32.157 35.1817 30.4804C35.4117 28.7687 35.415 26.5104 35.415 23.332C35.415 20.1537 35.4117 17.897 35.1817 16.182C34.9567 14.507 34.5333 13.5404 33.8283 12.8354C33.1233 12.1304 32.1567 11.707 30.48 11.482C28.7683 11.252 26.51 11.2487 23.3317 11.2487H16.665C13.4867 11.2487 11.2317 11.252 9.51667 11.482ZM20 15.4154C20.3315 15.4154 20.6495 15.5471 20.8839 15.7815C21.1183 16.0159 21.25 16.3338 21.25 16.6654V16.682C23.065 17.1387 24.5833 18.5704 24.5833 20.5537C24.5833 20.8852 24.4516 21.2032 24.2172 21.4376C23.9828 21.672 23.6649 21.8037 23.3333 21.8037C23.0018 21.8037 22.6839 21.672 22.4495 21.4376C22.215 21.2032 22.0833 20.8852 22.0833 20.5537C22.0833 19.9137 21.3733 19.027 20 19.027C18.6267 19.027 17.9167 19.9137 17.9167 20.5537C17.9167 21.1937 18.6267 22.082 20 22.082C22.3083 22.082 24.5833 23.682 24.5833 26.1104C24.5833 28.0937 23.065 29.5237 21.25 29.982V29.9987C21.25 30.3302 21.1183 30.6482 20.8839 30.8826C20.6495 31.117 20.3315 31.2487 20 31.2487C19.6685 31.2487 19.3505 31.117 19.1161 30.8826C18.8817 30.6482 18.75 30.3302 18.75 29.9987V29.982C16.935 29.5254 15.4167 28.0937 15.4167 26.1104C15.4167 25.7788 15.5484 25.4609 15.7828 25.2265C16.0172 24.9921 16.3351 24.8604 16.6667 24.8604C16.9982 24.8604 17.3161 24.9921 17.5506 25.2265C17.785 25.4609 17.9167 25.7788 17.9167 26.1104C17.9167 26.7504 18.6267 27.637 20 27.637C21.3733 27.637 22.0833 26.7504 22.0833 26.1104C22.0833 25.4704 21.3733 24.582 20 24.582C17.6917 24.582 15.4167 22.982 15.4167 20.5537C15.4167 18.5704 16.935 17.1387 18.75 16.682V16.6654C18.75 16.3338 18.8817 16.0159 19.1161 15.7815C19.3505 15.5471 19.6685 15.4154 20 15.4154Z" fill="#FFDD2E"/>
</svg>
