<svg width="20" height="20" viewBox="0 0 20 20" fill="none" xmlns="http://www.w3.org/2000/svg">
<g clip-path="url(#clip0_2983_849)">
<mask id="mask0_2983_849" style="mask-type:luminance" maskUnits="userSpaceOnUse" x="0" y="0" width="20" height="20">
<path d="M10 18.3334C11.0946 18.3348 12.1786 18.1199 13.1899 17.701C14.2011 17.2821 15.1196 16.6675 15.8925 15.8925C16.6675 15.1196 17.2821 14.2011 17.701 13.1899C18.1199 12.1786 18.3348 11.0946 18.3334 10C18.3348 8.90548 18.1198 7.82144 17.701 6.81021C17.2821 5.79897 16.6675 4.88049 15.8925 4.10753C15.1196 3.33254 14.2011 2.71794 13.1899 2.29906C12.1786 1.88018 11.0946 1.66528 10 1.66669C8.90548 1.6653 7.82144 1.88022 6.81021 2.29909C5.79897 2.71797 4.88049 3.33256 4.10753 4.10753C3.33256 4.88049 2.71797 5.79897 2.29909 6.81021C1.88022 7.82144 1.6653 8.90548 1.66669 10C1.66528 11.0946 1.88018 12.1786 2.29906 13.1899C2.71794 14.2011 3.33254 15.1196 4.10753 15.8925C4.88049 16.6675 5.79897 17.2821 6.81021 17.701C7.82144 18.1198 8.90548 18.3348 10 18.3334Z" fill="white" stroke="white" stroke-width="1.66667" stroke-linejoin="round"/>
<path d="M6.66669 10L9.16669 12.5L14.1667 7.5" stroke="black" stroke-width="1.66667" stroke-linecap="round" stroke-linejoin="round"/>
</mask>
<g mask="url(#mask0_2983_849)">
<path d="M0 0H20V20H0V0Z" fill="#FFDD2E"/>
</g>
</g>
<defs>
<clipPath id="clip0_2983_849">
<rect width="20" height="20" fill="white"/>
</clipPath>
</defs>
</svg>
