<svg width="40" height="40" viewBox="0 0 40 40" fill="none" xmlns="http://www.w3.org/2000/svg">
<path d="M33.3334 24.9988V12.4988L22.9167 6.63965M17.0834 6.63965L6.66669 12.4988V24.9988M9.16669 28.9055L20 34.9988L26.6667 31.2488L30.8334 28.9055M20 14.1655L22.5 15.6238L25 17.0821V22.9155L22.5 24.3738L20 25.8321L17.5 24.3738L15 22.9155V17.0821L17.5 15.6238L20 14.1655ZM20 14.1655V8.33215M25 22.4988L30.8334 25.8321M15 22.4988L9.16669 25.8321" stroke="#FFDD2E" stroke-width="2" stroke-linecap="round" stroke-linejoin="round"/>
<path d="M20 8.33203C21.3807 8.33203 22.5 7.21274 22.5 5.83203C22.5 4.45132 21.3807 3.33203 20 3.33203C18.6193 3.33203 17.5 4.45132 17.5 5.83203C17.5 7.21274 18.6193 8.33203 20 8.33203Z" stroke="#FFDD2E" stroke-width="2" stroke-linecap="round" stroke-linejoin="round"/>
<path d="M6.66669 29.9988C8.0474 29.9988 9.16669 28.8795 9.16669 27.4988C9.16669 26.1181 8.0474 24.9988 6.66669 24.9988C5.28598 24.9988 4.16669 26.1181 4.16669 27.4988C4.16669 28.8795 5.28598 29.9988 6.66669 29.9988Z" stroke="#FFDD2E" stroke-width="2" stroke-linecap="round" stroke-linejoin="round"/>
<path d="M33.3334 29.9988C34.7141 29.9988 35.8334 28.8795 35.8334 27.4988C35.8334 26.1181 34.7141 24.9988 33.3334 24.9988C31.9527 24.9988 30.8334 26.1181 30.8334 27.4988C30.8334 28.8795 31.9527 29.9988 33.3334 29.9988Z" stroke="#FFDD2E" stroke-width="2" stroke-linecap="round" stroke-linejoin="round"/>
</svg>
