<svg width="40" height="40" viewBox="0 0 40 40" fill="none" xmlns="http://www.w3.org/2000/svg">
<path d="M36.5333 11.0321C36.3642 10.6249 36.0406 10.3012 35.6333 10.1321C35.433 10.0467 35.2178 10.0014 35 9.99878H26.6667C26.2246 9.99878 25.8007 10.1744 25.4882 10.4869C25.1756 10.7995 25 11.2234 25 11.6654C25 12.1075 25.1756 12.5314 25.4882 12.844C25.8007 13.1565 26.2246 13.3321 26.6667 13.3321H30.9833L21.6667 22.6488L16.1833 17.1488C16.0284 16.9926 15.8441 16.8686 15.641 16.784C15.4379 16.6993 15.22 16.6558 15 16.6558C14.78 16.6558 14.5621 16.6993 14.359 16.784C14.1559 16.8686 13.9716 16.9926 13.8167 17.1488L3.81667 27.1488C3.66045 27.3037 3.53646 27.4881 3.45185 27.6911C3.36723 27.8942 3.32367 28.1121 3.32367 28.3321C3.32367 28.5521 3.36723 28.77 3.45185 28.9731C3.53646 29.1762 3.66045 29.3605 3.81667 29.5154C3.9716 29.6717 4.15594 29.7957 4.35904 29.8803C4.56214 29.9649 4.77998 30.0084 5 30.0084C5.22002 30.0084 5.43786 29.9649 5.64096 29.8803C5.84406 29.7957 6.0284 29.6717 6.18333 29.5154L15 20.6821L20.4833 26.1821C20.6383 26.3383 20.8226 26.4623 21.0257 26.5469C21.2288 26.6315 21.4466 26.6751 21.6667 26.6751C21.8867 26.6751 22.1045 26.6315 22.3076 26.5469C22.5107 26.4623 22.6951 26.3383 22.85 26.1821L33.3333 15.6821V19.9988C33.3333 20.4408 33.5089 20.8647 33.8215 21.1773C34.1341 21.4899 34.558 21.6654 35 21.6654C35.442 21.6654 35.866 21.4899 36.1785 21.1773C36.4911 20.8647 36.6667 20.4408 36.6667 19.9988V11.6654C36.664 11.4477 36.6187 11.2325 36.5333 11.0321Z" fill="#FFDD2E"/>
</svg>
