<svg width="40" height="40" viewBox="0 0 40 40" fill="none" xmlns="http://www.w3.org/2000/svg">
<path d="M28.3333 14.9986H15V11.6653C14.9976 10.6756 15.2889 9.70748 15.8371 8.88349C16.3853 8.05949 17.1657 7.41672 18.0795 7.03658C18.9932 6.65644 19.9993 6.55602 20.9701 6.74806C21.941 6.94009 22.8331 7.41593 23.5333 8.11531C24.1599 8.75543 24.6081 9.54836 24.8333 10.4153C24.888 10.6276 24.984 10.8271 25.1158 11.0023C25.2476 11.1775 25.4126 11.325 25.6015 11.4364C25.7903 11.5479 25.9992 11.621 26.2163 11.6517C26.4333 11.6824 26.6544 11.67 26.8667 11.6153C27.079 11.5606 27.2784 11.4646 27.4536 11.3328C27.6288 11.201 27.7763 11.036 27.8878 10.8472C27.9992 10.6584 28.0724 10.4495 28.103 10.2324C28.1337 10.0153 28.1214 9.79428 28.0667 9.58198C27.687 8.13998 26.9339 6.82354 25.8833 5.76531C24.717 4.60259 23.2322 3.81154 21.6166 3.49205C20.001 3.17256 18.3269 3.33896 16.8058 3.97024C15.2846 4.60152 13.9847 5.66936 13.07 7.03893C12.1553 8.40851 11.667 10.0184 11.6667 11.6653V14.9986C10.3406 14.9986 9.0688 15.5254 8.13112 16.4631C7.19344 17.4008 6.66666 18.6726 6.66666 19.9986V31.6653C6.66666 32.9914 7.19344 34.2632 8.13112 35.2008C9.0688 36.1385 10.3406 36.6653 11.6667 36.6653H28.3333C29.6594 36.6653 30.9312 36.1385 31.8689 35.2008C32.8065 34.2632 33.3333 32.9914 33.3333 31.6653V19.9986C33.3333 18.6726 32.8065 17.4008 31.8689 16.4631C30.9312 15.5254 29.6594 14.9986 28.3333 14.9986ZM30 31.6653C30 32.1073 29.8244 32.5313 29.5118 32.8438C29.1993 33.1564 28.7754 33.332 28.3333 33.332H11.6667C11.2246 33.332 10.8007 33.1564 10.4881 32.8438C10.1756 32.5313 9.99999 32.1073 9.99999 31.6653V19.9986C9.99999 19.5566 10.1756 19.1327 10.4881 18.8201C10.8007 18.5076 11.2246 18.332 11.6667 18.332H28.3333C28.7754 18.332 29.1993 18.5076 29.5118 18.8201C29.8244 19.1327 30 19.5566 30 19.9986V31.6653Z" fill="#FFDD2E"/>
</svg>
