<svg width="20" height="20" viewBox="0 0 20 20" fill="none" xmlns="http://www.w3.org/2000/svg">
<path d="M4.61333 18.2382C4.74813 18.3083 4.89949 18.3404 5.05115 18.331C5.20281 18.3216 5.34904 18.2711 5.47416 18.1849L16.3075 10.6849C16.4182 10.6082 16.5087 10.5058 16.5711 10.3865C16.6336 10.2672 16.6663 10.1345 16.6663 9.99986C16.6663 9.86519 16.6336 9.73253 16.5711 9.61323C16.5087 9.49393 16.4182 9.39155 16.3075 9.31486L5.47416 1.81486C5.34928 1.72774 5.20287 1.67658 5.05091 1.66695C4.89894 1.65732 4.74725 1.6896 4.61237 1.76026C4.47749 1.83092 4.3646 1.93726 4.28601 2.06768C4.20741 2.1981 4.16613 2.34759 4.16666 2.49986V17.4999C4.16664 17.652 4.20825 17.8012 4.28698 17.9313C4.36572 18.0615 4.47858 18.1676 4.61333 18.2382ZM5.83333 4.09069L14.3692 9.99986L5.83333 15.909V4.09069Z" fill="black"/>
</svg>
