<svg width="16" height="16" viewBox="0 0 16 16" fill="none" xmlns="http://www.w3.org/2000/svg">
<path d="M5.29301 1.63605C5.10554 1.82358 5.00023 2.07788 5.00023 2.34305C5.00023 2.60821 5.10554 2.86252 5.29301 3.05005L10.243 8.00005L5.29301 12.95C5.11085 13.1387 5.01006 13.3913 5.01234 13.6534C5.01462 13.9156 5.11979 14.1665 5.30519 14.3519C5.4906 14.5373 5.74141 14.6424 6.00361 14.6447C6.26581 14.647 6.51841 14.5462 6.70701 14.364L12.364 8.70705C12.5515 8.51952 12.6568 8.26521 12.6568 8.00005C12.6568 7.73488 12.5515 7.48058 12.364 7.29305L6.70701 1.63605C6.51948 1.44858 6.26518 1.34326 6.00001 1.34326C5.73485 1.34326 5.48054 1.44858 5.29301 1.63605Z" fill="black"/>
</svg>
