<svg width="146" height="44" viewBox="0 0 146 44" fill="none" xmlns="http://www.w3.org/2000/svg">
<g clip-path="url(#clip0_2975_744)">
<path d="M61.0919 18.0914C60.7187 16.6342 59.7772 15.5677 57.9305 15.5677C55.2111 15.5677 54.0743 17.9669 54.0743 20.4006C54.0743 22.8343 55.2111 25.2355 57.9305 25.2355C59.9016 25.2355 60.9924 23.7611 61.1627 21.9133H63.331C63.153 24.9521 61.0039 27.0488 57.9305 27.0488C54.1279 27.0488 51.8544 24.0273 51.8544 20.4006C51.8544 16.774 54.1279 13.7544 57.9305 13.7544C60.7896 13.7716 63.0458 15.3532 63.3118 18.0914H61.0919ZM64.6457 22.1431C64.6457 19.336 66.3336 17.3082 69.2826 17.3082C72.2316 17.3082 73.9176 19.336 73.9176 22.1431C73.9176 24.9502 72.2297 26.9952 69.2826 26.9952C66.3355 26.9952 64.6457 24.9693 64.6457 22.1431ZM71.8929 22.1431C71.8929 20.5615 71.093 18.909 69.2826 18.909C67.4722 18.909 66.6704 20.5615 66.6704 22.1431C66.6704 23.7247 67.4703 25.3982 69.2826 25.3982C71.0949 25.3982 71.8929 23.7439 71.8929 22.1431ZM75.6591 14.0569H77.6838V15.9717H75.6591V14.0569ZM75.6591 17.5572H77.6838V26.7482H75.6591V17.5572ZM79.8884 17.5572H81.8021V18.909L81.8385 18.9435C82.1292 18.4434 82.5467 18.029 83.0486 17.7419C83.5506 17.4548 84.1194 17.3052 84.6976 17.3082C86.6878 17.3082 87.9509 18.3748 87.9509 20.437V26.7558H85.9281V20.9712C85.8917 19.5313 85.3233 18.909 84.133 18.909C82.7839 18.909 81.9131 19.9756 81.9131 21.3255V26.7463H79.8884V17.5572ZM101.437 26.7463H100.015L99.6781 25.2546C98.4878 26.6046 97.4027 27.0488 95.8507 27.0488C92.0481 27.0488 89.7746 24.0273 89.7746 20.4006C89.7746 16.774 92.0481 13.7544 95.8507 13.7544C98.6217 13.7544 100.949 15.2288 101.286 18.0914H99.127C98.9126 16.4198 97.4563 15.5677 95.8583 15.5677C93.1409 15.5677 92.0022 17.9669 92.0022 20.4006C92.0022 22.8343 93.1409 25.2355 95.8583 25.2355C98.1318 25.2719 99.3757 23.8951 99.4102 21.7525H96.0363V20.0636H101.437V26.7463ZM105.149 22.6773C105.149 24.1172 105.93 25.3963 107.618 25.3963C108.791 25.3963 109.501 24.8812 109.857 23.8645H111.771C111.327 25.8731 109.622 26.9914 107.614 26.9914C104.744 26.9914 103.121 24.9827 103.121 22.1565C103.121 19.5447 104.826 17.3044 107.561 17.3044C110.456 17.3044 112.234 19.9181 111.895 22.6658L105.149 22.6773ZM109.874 21.337C109.804 20.0579 108.933 18.9033 107.565 18.9033C106.162 18.9033 105.203 19.9698 105.149 21.337H109.874ZM119.646 20.6323C119.485 19.5122 118.668 18.909 117.541 18.909C116.494 18.909 115.018 19.4605 115.018 22.2503C115.018 23.7822 115.694 25.3963 117.453 25.3963C118.626 25.3963 119.443 24.6151 119.638 23.2996H121.663C121.28 25.6797 119.816 26.9952 117.453 26.9952C114.582 26.9952 112.994 24.9521 112.994 22.2503C112.994 19.4777 114.504 17.3082 117.523 17.3082C119.655 17.3082 121.468 18.3748 121.663 20.6323H119.646ZM123.376 14.0569H125.402V21.2719L129.071 17.5572H131.559L128.041 20.9349L131.897 26.7463H129.415L126.61 22.2848L125.402 23.4586V26.7463H123.376V14.0569ZM132.437 22.1431C132.437 19.336 134.125 17.3082 137.072 17.3082C140.019 17.3082 141.701 19.336 141.701 22.1431C141.701 24.9502 140.013 26.9952 137.064 26.9952C134.115 26.9952 132.437 24.9693 132.437 22.1431ZM139.684 22.1431C139.684 20.5615 138.884 18.909 137.072 18.909C135.26 18.909 134.462 20.5615 134.462 22.1431C134.462 23.7247 135.262 25.3982 137.072 25.3982C138.882 25.3982 139.684 23.7439 139.684 22.1431Z" fill="#4C4C4C"/>
<path d="M40.6152 21.9192C40.6311 25.5134 39.5814 29.0316 37.5989 32.0289C35.6165 35.0263 32.7902 37.3681 29.4776 38.7583C26.165 40.1485 22.5147 40.5247 18.9884 39.8392C15.4622 39.1537 12.2182 37.4374 9.66678 34.9073C7.11536 32.3772 5.37104 29.1469 4.65441 25.6249C3.93778 22.1029 4.28102 18.4474 5.64072 15.1206C7.00043 11.7938 9.31553 8.94511 12.2933 6.93475C15.271 4.9244 18.7777 3.84267 22.3699 3.82635C27.1872 3.80497 31.8158 5.69912 35.2374 9.09215C38.659 12.4852 40.5934 17.0992 40.6152 21.9192Z" fill="#696969"/>
<path d="M39.2469 21.9229C39.262 25.2464 38.2918 28.4997 36.459 31.2715C34.6261 34.0433 32.013 36.2091 28.95 37.4949C25.887 38.7807 22.5117 39.1289 19.2509 38.4954C15.9902 37.8618 12.9904 36.2751 10.6309 33.9357C8.27146 31.5963 6.6583 28.6094 5.99542 25.3527C5.33254 22.0961 5.64973 18.7158 6.90686 15.6395C8.16399 12.5632 10.3046 9.92892 13.058 8.06986C15.8114 6.2108 19.054 5.21043 22.3756 5.19524C24.5811 5.18516 26.7671 5.60984 28.8085 6.44503C30.85 7.28022 32.7071 8.50957 34.2738 10.0629C35.8404 11.6162 37.0859 13.463 37.9392 15.498C38.7925 17.5329 39.2369 19.7161 39.2469 21.9229Z" fill="#A7A7A7"/>
<path d="M22.7584 6.28487C23.8261 6.09417 24.9191 6.09417 25.9868 6.28487C27.0647 6.45578 28.1067 6.80523 29.0698 7.31886C30.0266 7.84543 30.8553 8.55964 31.6782 9.23365C32.5011 9.90766 33.3221 10.5893 34.1029 11.3399C34.899 12.0779 35.594 12.9182 36.1697 13.8387C36.7632 14.7531 37.2493 15.7329 37.6183 16.7588C38.3363 18.8078 38.5407 21.0019 38.2135 23.1484H38.1063C37.7911 21.0978 37.264 19.0854 36.5333 17.1437C36.1831 16.1834 35.7708 15.247 35.2989 14.3404C34.803 13.4364 34.2574 12.5607 33.6646 11.7171C33.0599 10.8634 32.319 10.1149 31.4715 9.50172C30.6199 8.89473 29.6401 8.50028 28.6909 8.1269C27.7417 7.75352 26.7925 7.38205 25.8069 7.09674C24.8213 6.81144 23.8128 6.5989 22.7622 6.3921L22.7584 6.28487Z" fill="#939393"/>
<path d="M30.9682 15.987C29.7491 15.6328 28.4803 15.133 27.2058 14.6275C27.1331 14.3058 26.848 13.9056 26.2738 13.4174C25.4375 12.6917 23.8683 12.7108 22.5115 13.0344C21.015 12.6821 19.5357 12.5576 18.1099 12.8985C6.50327 16.0962 13.0864 23.9142 8.82269 31.7649C9.42934 33.0516 15.9685 40.5729 25.4299 38.549C25.4299 38.549 22.1957 30.7692 29.4965 27.0354C35.4195 23.9966 39.7004 18.3709 30.9682 15.987Z" fill="#575757"/>
<path d="M32.4015 21.1015C32.4026 21.241 32.3624 21.3777 32.2858 21.4943C32.2092 21.6109 32.0997 21.7021 31.9712 21.7564C31.8427 21.8107 31.7011 21.8256 31.5641 21.7992C31.4272 21.7728 31.3012 21.7063 31.202 21.6082C31.1029 21.5101 31.0351 21.3847 31.0072 21.248C30.9794 21.1113 30.9927 20.9694 31.0455 20.8403C31.0984 20.7111 31.1883 20.6006 31.304 20.5227C31.4197 20.4448 31.5559 20.403 31.6954 20.4026C31.7876 20.4021 31.879 20.4198 31.9644 20.4546C32.0498 20.4895 32.1275 20.5408 32.1931 20.6057C32.2587 20.6706 32.3108 20.7478 32.3466 20.8329C32.3823 20.9179 32.401 21.0092 32.4015 21.1015Z" fill="white"/>
<path d="M22.5115 13.0306C23.3573 13.0919 26.4174 14.0914 27.2058 14.6275C26.5532 12.7127 24.3352 12.4638 22.5115 13.0306Z" fill="#575757"/>
<path d="M23.3172 17.8596C23.3172 18.5034 23.1264 19.1328 22.7689 19.6681C22.4114 20.2034 21.9033 20.6206 21.3088 20.867C20.7144 21.1134 20.0603 21.1778 19.4292 21.0522C18.7981 20.9266 18.2184 20.6166 17.7634 20.1614C17.3084 19.7061 16.9986 19.1261 16.8731 18.4947C16.7475 17.8632 16.812 17.2087 17.0582 16.6139C17.3044 16.0191 17.7214 15.5108 18.2564 15.1531C18.7914 14.7954 19.4204 14.6045 20.0639 14.6045C20.9267 14.6045 21.7542 14.9474 22.3643 15.5579C22.9744 16.1684 23.3172 16.9963 23.3172 17.8596Z" fill="#939393"/>
<path d="M22.3546 17.8884C22.3549 18.3406 22.2212 18.7828 21.9704 19.1591C21.7195 19.5353 21.3628 19.8286 20.9453 20.0019C20.5278 20.1753 20.0683 20.2208 19.625 20.1328C19.1816 20.0448 18.7743 19.8272 18.4545 19.5076C18.1348 19.1879 17.917 18.7805 17.8287 18.337C17.7403 17.8935 17.7855 17.4337 17.9584 17.0158C18.1312 16.5979 18.4241 16.2407 18.7999 15.9894C19.1757 15.7381 19.6176 15.604 20.0696 15.604C20.6751 15.6045 21.2557 15.8453 21.6841 16.2735C22.1124 16.7018 22.3535 17.2825 22.3546 17.8884Z" fill="#575757"/>
<path d="M35.0329 22.5337C32.4016 24.3892 29.4085 25.7889 25.1639 25.7889C23.1775 25.7889 22.7756 23.6826 21.4628 24.7128C20.7834 25.247 18.4008 26.4361 16.4967 26.3518C14.5926 26.2676 11.521 25.1474 10.6694 21.0977C10.3307 25.1474 10.1566 28.1307 8.63708 31.5505C11.6646 36.4007 18.8812 40.1403 25.4299 38.5318C24.7276 33.6146 29.022 28.797 31.4428 26.3327C32.3576 25.4002 34.122 23.876 35.0329 22.5261V22.5337Z" fill="#575757"/>
<path d="M34.9295 22.6564C34.0912 23.3778 33.1559 23.9779 32.1508 24.4391C31.149 24.9154 30.1046 25.2962 29.0315 25.5765C27.9598 25.8541 26.8384 26.0628 25.7035 25.9594C24.5687 25.856 23.4071 25.4693 22.6588 24.6191L22.6952 24.577C23.6214 25.1763 24.6797 25.3869 25.7361 25.4176C26.8086 25.4487 27.8812 25.3594 28.9339 25.1514C29.9973 24.9296 31.0378 24.6091 32.0417 24.194C33.0619 23.8042 34.0224 23.2731 34.8951 22.6162L34.9295 22.6564Z" fill="#575757"/>
</g>
<defs>
<clipPath id="clip0_2975_744">
<rect width="146" height="44" fill="white" transform="translate(0 0.000488281)"/>
</clipPath>
</defs>
</svg>
