<svg width="246" height="31" viewBox="0 0 246 31" fill="none" xmlns="http://www.w3.org/2000/svg">
<g clip-path="url(#clip0_2947_2866)">
<mask id="mask0_2947_2866" style="mask-type:luminance" maskUnits="userSpaceOnUse" x="0" y="-1" width="246" height="32">
<path d="M246 -0.0012207H0V30.9988H246V-0.0012207Z" fill="white"/>
</mask>
<g mask="url(#mask0_2947_2866)">
<path d="M47.835 21.2244L37.3219 2.83988C35.0171 -0.991917 29.3966 -1.03268 27.1726 3.00292L16.134 22.1212C14.0717 25.6268 16.6191 30.0293 20.7435 30.0293H42.8614C47.0263 30.0293 50.1398 25.5045 47.835 21.2244Z" fill="#575757"/>
<path d="M32.6717 22.6512L32.0248 21.5098C31.4183 20.4499 30.0839 18.1671 30.0839 18.1671L21.1882 2.59538C18.8834 -0.869537 13.4247 -1.15489 11.1199 3.20684L0.768568 21.2652C-1.37449 25.0562 1.17292 29.9886 5.82295 30.0295H27.8195H37.2005H42.7806C37.0792 30.0702 35.2597 27.0943 32.6717 22.6512Z" fill="#575757"/>
<path d="M32.6717 22.651L32.0248 21.5097C31.4183 20.4498 30.0839 18.167 30.0839 18.167L24.3421 7.97607L16.0934 22.1619C14.0313 25.6676 16.5786 30.07 20.7031 30.07H27.7791H37.1601H42.7806C37.0388 30.0293 35.2596 27.0943 32.6717 22.651Z" fill="#454545"/>
<path d="M83.5233 28.3981V7.16016H101.032V8.50536C101.032 9.56521 100.182 10.4213 99.1313 10.4213H87.8902V16.1281H99.1313V19.3893H87.8902V25.0961H99.1313C100.182 25.0961 101.032 25.9522 101.032 27.0121V28.3573L83.5233 28.3981Z" fill="#575757"/>
<path d="M126.182 7.16016H122.058C121.29 7.16016 120.602 7.48626 120.117 8.09771L115.144 14.4161L110.17 8.13849C109.685 7.52703 108.997 7.20091 108.229 7.20091H104.105L112.475 17.7995L104.105 28.3981H108.229C108.997 28.3981 109.685 28.072 110.17 27.4606L115.144 21.1829L120.157 27.5013C120.643 28.072 121.33 28.4388 122.098 28.4388H126.223L117.853 17.8402L126.182 7.16016Z" fill="#575757"/>
<path d="M69.816 26.1575L75.5577 16.0481V28.3588H79.9248V7.12085H77.2156C76.3665 7.12085 75.5577 7.56924 75.1534 8.34376L68.2795 20.9805L61.4056 8.34376C61.0011 7.56924 60.1924 7.12085 59.3433 7.12085H56.6342V28.3588H61.0011V16.0481L66.7429 26.1575H69.816Z" fill="#575757"/>
<path d="M137.585 28.6429C131.52 28.7244 126.587 23.9142 126.546 17.7997C126.546 14.4571 127.557 11.6851 129.458 9.76923C131.358 7.8941 134.108 6.875 137.383 6.875C141.224 6.875 144.257 8.22021 146.44 10.8291L145.066 12.0112C144.216 12.745 142.963 12.7858 142.033 12.0928C140.82 11.1552 139.283 10.7068 137.545 10.7068C133.258 10.7068 130.711 13.3157 130.711 17.7182C130.711 22.1614 133.339 24.8926 137.545 24.8926C139.324 24.8926 140.82 24.4034 142.033 23.5066C142.922 22.8136 144.176 22.8545 145.066 23.5881L146.44 24.7703C144.257 27.3384 141.346 28.6429 137.585 28.6429Z" fill="#575757"/>
</g>
</g>
<defs>
<clipPath id="clip0_2947_2866">
<rect width="246" height="31" fill="white" transform="translate(0 -0.0012207)"/>
</clipPath>
</defs>
</svg>
