<svg width="74" height="26" viewBox="0 0 74 26" fill="none" xmlns="http://www.w3.org/2000/svg">
<g clip-path="url(#clip0_2905_608)">
<path d="M12.9758 25.8182C20.1411 25.8182 25.9498 20.0386 25.9498 12.9091C25.9498 5.77961 20.1411 0 12.9758 0C5.81037 0 0.00167847 5.77961 0.00167847 12.9091C0.00167847 20.0386 5.81037 25.8182 12.9758 25.8182Z" fill="#575757"/>
<path d="M20.5435 2.42477C18.4594 0.935176 15.9783 0.0939328 13.4137 0.00741605C10.8491 -0.0791009 8.31642 0.592994 6.13577 1.93871C3.95512 3.28442 2.22449 5.24332 1.16274 7.56771C0.10099 9.89203 -0.244196 12.4775 0.170833 14.997C0.585862 17.5166 1.74246 19.8571 3.49438 21.7226C5.2463 23.5882 7.51485 24.8949 10.0132 25.4775C12.5115 26.0602 15.1273 25.8927 17.5299 24.9962C19.9326 24.0996 22.014 22.5143 23.5111 20.4408C24.5052 19.0639 25.2169 17.5057 25.6058 15.8552C25.9946 14.2047 26.0529 12.4941 25.7773 10.8212C25.5017 9.14829 24.8977 7.54572 23.9997 6.10505C23.1017 4.66439 21.9272 3.41382 20.5435 2.42477Z" fill="#575757"/>
<path d="M2.2583 20.1908C2.2583 20.1908 10.8317 17.3963 25.9419 12.4934C25.9419 12.4934 26.7696 20.5225 18.405 24.7106C18.405 24.7106 14.2802 26.6778 9.75497 25.4159C9.75497 25.4159 5.24892 24.5695 2.2583 20.1908Z" fill="#414141"/>
<path d="M33.7542 6.45972H38.253C39.0559 6.45972 39.7822 6.59316 40.4316 6.86003C41.0928 7.12691 41.6537 7.5272 42.1142 8.06095C42.5866 8.58258 42.9466 9.24372 43.1946 10.0444C43.4544 10.8328 43.5843 11.7548 43.5843 12.8102C43.5843 13.8656 43.4544 14.7935 43.1946 15.5942C42.9466 16.3827 42.5866 17.0438 42.1142 17.5775C41.6537 18.0992 41.0928 18.4934 40.4316 18.7603C39.7822 19.0271 39.0559 19.1606 38.253 19.1606H33.7542V6.45972ZM38.253 17.0317C39.1268 17.0317 39.8175 16.7709 40.3253 16.2492C40.8449 15.7155 41.1046 14.9027 41.1046 13.811V11.8094C41.1046 10.7176 40.8449 9.91088 40.3253 9.38932C39.8175 8.85551 39.1268 8.58867 38.253 8.58867H36.0922V17.0317H38.253Z" fill="#575757"/>
<path d="M51.173 17.5776H51.0845C51.0018 17.8203 50.8896 18.0508 50.7479 18.2691C50.6181 18.4753 50.4468 18.6633 50.2343 18.8332C50.0335 19.003 49.7856 19.1365 49.4904 19.2335C49.207 19.3306 48.8764 19.3791 48.4985 19.3791C47.5421 19.3791 46.81 19.0576 46.3022 18.4147C45.7945 17.7718 45.5406 16.8559 45.5406 15.6671V9.66235H47.8078V15.4305C47.8078 16.0855 47.9317 16.589 48.1797 16.9408C48.4277 17.2804 48.8233 17.4503 49.3664 17.4503C49.5907 17.4503 49.8092 17.4199 50.0218 17.3593C50.2461 17.2986 50.4409 17.2077 50.6062 17.0864C50.7715 16.9529 50.9073 16.7952 51.0136 16.6133C51.1199 16.4192 51.173 16.1947 51.173 15.94V9.66235H53.4401V19.1607H51.173V17.5776Z" fill="#575757"/>
<path d="M55.8824 19.1606V9.66225H58.1496V11.2453H58.2381C58.4271 10.7358 58.7223 10.3112 59.1237 9.97157C59.537 9.61976 60.1038 9.44385 60.8241 9.44385C61.7805 9.44385 62.5126 9.76536 63.0203 10.4083C63.5281 11.0512 63.7819 11.9671 63.7819 13.1559V19.1606H61.5149V13.3924C61.5149 12.7131 61.3968 12.2036 61.1606 11.864C60.9244 11.5243 60.5348 11.3545 59.9917 11.3545C59.7554 11.3545 59.5252 11.3909 59.3009 11.4637C59.0883 11.5243 58.8935 11.6214 58.7163 11.7548C58.551 11.8761 58.4152 12.0338 58.309 12.2279C58.2027 12.4099 58.1496 12.6282 58.1496 12.883V19.1606H55.8824Z" fill="#575757"/>
<path d="M69.8552 19.379C69.1704 19.379 68.5563 19.2638 68.0132 19.0332C67.4818 18.7906 67.0272 18.457 66.6494 18.0325C66.2833 17.5957 65.9999 17.0741 65.7992 16.4676C65.5985 15.8489 65.4981 15.1575 65.4981 14.3932C65.4981 13.6411 65.5926 12.9618 65.7815 12.3553C65.9822 11.7487 66.2656 11.2332 66.6317 10.8086C66.9977 10.3719 67.4464 10.0383 67.9777 9.80777C68.5091 9.56516 69.1113 9.44385 69.7844 9.44385C70.5047 9.44385 71.1305 9.57125 71.6618 9.82597C72.1932 10.0808 72.6301 10.4265 72.9725 10.8632C73.3149 11.2999 73.5688 11.8094 73.7341 12.3917C73.9113 12.9618 73.9998 13.5744 73.9998 14.2295V14.9937H67.8538V15.2303C67.8538 15.9217 68.0427 16.4797 68.4205 16.9043C68.7984 17.3167 69.3593 17.5229 70.1032 17.5229C70.6699 17.5229 71.1305 17.4016 71.4847 17.159C71.8507 16.9164 72.1755 16.6071 72.4589 16.231L73.681 17.6321C73.3031 18.1781 72.7836 18.6087 72.1223 18.924C71.4729 19.2274 70.7172 19.379 69.8552 19.379ZM69.8198 11.1907C69.2176 11.1907 68.7393 11.397 68.3851 11.8094C68.0309 12.2218 67.8538 12.7556 67.8538 13.4106V13.5562H71.6441V13.3924C71.6441 12.7374 71.4847 12.2097 71.1659 11.8094C70.8589 11.397 70.4102 11.1907 69.8198 11.1907Z" fill="#575757"/>
</g>
<defs>
<clipPath id="clip0_2905_608">
<rect width="74" height="26" fill="white"/>
</clipPath>
</defs>
</svg>
