<svg width="107" height="21" viewBox="0 0 107 21" fill="none" xmlns="http://www.w3.org/2000/svg">
<g clip-path="url(#clip0_2905_616)">
<path d="M2.43211 0.260715C2.14535 0.0865444 1.83077 0 1.43059 0C1.00152 0 0.65805 0.0865444 0.40018 0.260715C0.14338 0.433804 0 0.66531 0 0.955234V20.0166C0 20.2481 0.14338 20.4797 0.40018 20.6819C0.68694 20.8842 1.00152 21 1.4017 21C1.76015 21.0011 2.11004 20.8897 2.40322 20.6819C2.68891 20.4797 2.83229 20.2481 2.83229 20.0166V0.955234C2.86118 0.66531 2.7178 0.433804 2.43211 0.260715ZM4.80644 10.2685C4.63524 10.4427 4.54857 10.6742 4.60635 11.0203C4.63524 11.3676 4.77755 11.6857 5.06431 11.9756C5.32111 12.2644 5.63569 12.4667 5.97916 12.5543C6.32263 12.6409 6.5805 12.5825 6.7517 12.4386L8.26789 11.4834V20.0166C8.26789 20.2481 8.41127 20.4797 8.66914 20.6819C8.92594 20.8842 9.26941 21 9.66959 21C10.0708 21 10.4143 20.8842 10.7 20.6819C10.9857 20.4797 11.1291 20.2481 11.1291 20.0166V8.50407C11.1291 8.21523 10.9857 8.01293 10.7 7.83876C10.4143 7.66567 10.0708 7.57913 9.64177 7.57913C9.2127 7.57913 8.89812 7.66567 8.64025 7.83876L4.80644 10.2685ZM16.1067 17.0081C16.1067 17.5869 16.279 18.0499 16.5936 18.3388C16.9081 18.6287 17.3372 18.8018 17.8519 18.8018C18.5388 18.8018 19.1969 18.5129 19.7982 17.9342C20.4274 17.3554 20.742 16.7193 20.742 16.054V15.0414H20.055C19.2547 15.0414 18.5966 15.0706 18.0809 15.1572C17.5662 15.2437 17.1082 15.4179 16.7081 15.7359C16.3079 16.0248 16.1067 16.4586 16.1067 17.0081ZM13.2466 17.3554C13.2466 15.8798 13.7902 14.8683 14.8773 14.2896C15.9644 13.7108 17.5095 13.422 19.5692 13.422H20.742V12.9005C20.742 12.0621 20.513 11.3676 20.0839 10.7607C19.6548 10.1527 18.9679 9.8639 18.0809 9.8639C17.3083 9.8639 16.6225 10.0089 16.05 10.3269C15.4776 10.6158 15.1341 10.7899 15.0774 10.7899C14.7628 10.7899 14.5338 10.645 14.3337 10.3269C14.1336 10.037 14.047 9.68973 14.047 9.31434C14.047 8.85133 14.476 8.41752 15.3631 8.07026C16.2212 7.72301 17.166 7.54992 18.1386 7.54992C19.9983 7.54992 21.3711 8.07026 22.2581 9.08283C23.1452 10.0954 23.6031 11.3676 23.6031 12.9005V19.7851C23.6031 20.0458 23.4598 20.2774 23.2019 20.4504C22.9451 20.6527 22.6016 20.7393 22.2292 20.7393C21.858 20.7393 21.5712 20.6527 21.3144 20.4504C21.0565 20.2481 20.942 20.0458 20.942 19.7851V18.831C19.7404 20.2481 18.3676 20.9708 16.8793 20.9708C15.821 20.9708 14.9629 20.6527 14.3048 20.0458C13.5901 19.4379 13.2466 18.5411 13.2466 17.3554ZM26.0352 15.5336V13.0455C26.0352 11.426 26.4921 10.0954 27.4369 9.08283C28.3807 8.07026 29.7535 7.57913 31.6132 7.57913C32.7869 7.57913 33.7596 7.78142 34.5599 8.18602C35.3614 8.59061 35.7615 9.05363 35.7615 9.57506C35.7615 9.89311 35.6481 10.2112 35.4191 10.5C35.1902 10.8181 34.9323 10.963 34.6177 10.963C34.5321 10.963 34.2175 10.8181 33.6451 10.5584C33.1015 10.2977 32.5002 10.1527 31.8143 10.1527C29.8402 10.1527 28.8386 11.108 28.8386 13.0455V15.5044C28.8386 17.4419 29.8402 18.3972 31.8421 18.3972C32.5291 18.3972 33.1304 18.2522 33.7018 17.9634C34.2453 17.6734 34.5888 17.5285 34.6744 17.5285C35.0468 17.5285 35.3325 17.6734 35.5615 17.9634C35.7904 18.2522 35.9049 18.5703 35.9049 18.8883C35.9049 19.4087 35.5047 19.8717 34.6744 20.3055C33.8452 20.7393 32.8437 20.9708 31.642 20.9708C29.7824 20.9708 28.3807 20.4797 27.4369 19.4671C26.521 18.5129 26.0352 17.1823 26.0352 15.5336ZM37.9936 19.8143V0.926025C37.9936 0.637183 38.1081 0.433804 38.3659 0.260715C38.6227 0.0865444 38.9373 0 39.3664 0C39.7676 0 40.1389 0.0865444 40.3968 0.260715C40.6825 0.433804 40.8259 0.66531 40.8259 0.926025V13.1612L46.4615 7.89718C46.6338 7.72301 46.8339 7.63646 47.0629 7.63646C47.3775 7.63646 47.6632 7.78142 47.9788 8.07026C48.2934 8.36019 48.4357 8.67824 48.4357 8.99629C48.4357 9.2278 48.3501 9.43009 48.2067 9.60318L44.7164 12.7566L48.9514 18.9749C49.0659 19.149 49.1226 19.2929 49.1226 19.4671C49.1226 19.7851 48.9514 20.1324 48.5791 20.4504C48.2067 20.7685 47.8643 20.9427 47.5208 20.9427C47.2063 20.9427 46.9773 20.7977 46.7772 20.537L42.8 14.5784L40.8259 16.4012V19.8435C40.8259 20.074 40.6825 20.3055 40.3968 20.5078C40.1111 20.7112 39.7676 20.7977 39.3664 20.7977C38.9662 20.7977 38.6516 20.7112 38.3937 20.5078C38.1369 20.2774 37.9936 20.0458 37.9936 19.8143ZM53.0132 13.1904H57.505C57.9063 13.1904 58.1631 13.132 58.3064 13.0163C58.4498 12.9005 58.5065 12.6982 58.5065 12.351C58.5065 11.6283 58.2497 11.0203 57.734 10.5C57.2193 10.0089 56.5613 9.74814 55.7887 9.74814C55.0451 9.74814 54.387 9.97965 53.8435 10.4708C53.2999 10.963 53.042 11.5699 53.042 12.2936V13.1904H53.0132ZM50.1809 15.5336V12.9297C50.1809 11.4834 50.7244 10.2404 51.8404 9.16938C52.9276 8.12868 54.2725 7.57913 55.8176 7.57913C57.3049 7.57913 58.5643 8.07026 59.6225 8.99629C60.6808 9.95044 61.1965 11.1361 61.1965 12.6117C61.1965 13.1612 61.1387 13.6243 60.9954 13.9715C60.8809 14.3188 60.6808 14.5492 60.3951 14.6942C60.1372 14.8391 59.8804 14.9257 59.6514 14.9549C59.4225 14.9841 59.1079 15.0122 58.7355 15.0122H53.042V15.6494C53.042 16.5743 53.3566 17.2981 54.0147 17.8476C54.6727 18.3972 55.503 18.6568 56.5613 18.6568C57.3049 18.6568 57.9919 18.4837 58.6499 18.1365C59.308 17.7892 59.7081 17.6161 59.8515 17.6161C60.1661 17.6161 60.424 17.76 60.6241 18.0499C60.853 18.3388 60.9386 18.6287 60.9386 18.9175C60.9386 19.3805 60.5096 19.8143 59.6514 20.3055C58.7933 20.7685 57.734 21 56.4757 21C54.6449 21 53.1276 20.5078 51.9549 19.4963C50.7533 18.4837 50.1809 17.1531 50.1809 15.5336ZM63.4564 19.8143V8.67824C63.4564 8.38832 63.5997 8.18602 63.8565 8.01293C64.1144 7.83876 64.4579 7.75221 64.8581 7.75221C65.2015 7.75221 65.5161 7.83876 65.774 8.01293C66.0308 8.18602 66.1453 8.41753 66.1453 8.70637V9.92123C66.4598 9.28513 66.9178 8.73557 67.547 8.27256C68.1772 7.81063 68.8352 7.57913 69.5789 7.57913H70.437C70.7227 7.57913 70.9806 7.69488 71.1807 7.95451C71.4097 8.21523 71.4953 8.50407 71.4953 8.85133C71.4953 9.19859 71.3808 9.51664 71.1807 9.77735C70.9517 10.037 70.7227 10.1527 70.437 10.1527H69.5789C68.7208 10.1527 67.9482 10.5292 67.2902 11.2811C66.6321 12.0329 66.3175 12.9882 66.3175 14.1738V19.7851C66.3175 20.0166 66.1742 20.2481 65.8885 20.4504C65.6017 20.6527 65.2582 20.7393 64.8581 20.7393C64.4579 20.7393 64.1433 20.6527 63.8565 20.4504C63.5708 20.2774 63.4564 20.0458 63.4564 19.8143ZM74.0419 15.7359C74.0419 16.6609 74.3564 17.5004 75.0145 18.223C75.6725 18.9467 76.474 19.2929 77.3888 19.2929C78.3336 19.2929 79.134 18.9467 79.792 18.223C80.4501 17.5004 80.7936 16.6901 80.7936 15.7359V12.7566C80.7936 11.8598 80.4501 11.0496 79.792 10.355C79.1051 9.63239 78.3336 9.28513 77.4177 9.28513C76.5018 9.28513 75.7014 9.63239 75.0434 10.355C74.3853 11.0788 74.0708 11.8598 74.0708 12.7566V15.7359H74.0419ZM72.2967 15.7359V12.7566C72.2967 11.3676 72.8114 10.1527 73.8129 9.14017C74.8144 8.12868 76.016 7.60725 77.4177 7.60725C78.7905 7.60725 80.021 8.09947 81.0225 9.11204C82.0519 10.1246 82.5676 11.3395 82.5676 12.7274V15.7067C82.5676 17.0666 82.0519 18.2814 81.0225 19.3513C79.9921 20.3931 78.7905 20.9427 77.4177 20.9427C76.0727 20.9427 74.8711 20.4212 73.8418 19.3513C72.8114 18.3388 72.2967 17.1239 72.2967 15.7359ZM84.6841 20.0458V8.44673C84.6841 8.24444 84.7707 8.09947 84.9131 7.95451C85.0853 7.83876 85.2854 7.78142 85.5433 7.78142C85.7712 7.78142 85.9435 7.83876 86.1147 7.98372C86.2869 8.12868 86.3437 8.27256 86.3437 8.44673V9.71894C86.6582 9.11204 87.1162 8.61982 87.7454 8.21523C88.3756 7.81063 89.1192 7.60725 89.9485 7.60725C91.2357 7.60725 92.3806 8.09947 93.3243 9.11204C94.2691 10.1246 94.7549 11.3395 94.7549 12.7274V20.0458C94.7549 20.2774 94.6693 20.4504 94.4981 20.5662C94.3259 20.6819 94.0969 20.7685 93.8679 20.7685C93.6389 20.7685 93.4677 20.7112 93.2676 20.5662C93.0954 20.4504 93.0098 20.2774 93.0098 20.0458V12.7566C93.0098 11.8598 92.6663 11.0496 92.0082 10.355C91.3502 9.63239 90.5498 9.28513 89.6339 9.28513C88.7758 9.28513 88.0321 9.60318 87.4019 10.2404C86.7449 10.8765 86.4292 11.7149 86.4292 12.7566V20.0458C86.4292 20.2189 86.3437 20.3931 86.1436 20.537C85.9724 20.6819 85.7712 20.7685 85.5144 20.7685C85.2565 20.7685 85.0564 20.6819 84.8852 20.537C84.7708 20.4212 84.6841 20.2481 84.6841 20.0458ZM98.5598 13.4793H103.968C104.511 13.4793 104.855 13.422 105.055 13.3062C105.226 13.1904 105.312 12.9297 105.312 12.5543C105.312 11.6575 104.997 10.8473 104.339 10.1527C103.71 9.4593 102.908 9.11204 101.936 9.11204C100.992 9.11204 100.191 9.43009 99.5325 10.0954C98.8744 10.7607 98.5598 11.5418 98.5598 12.4386V13.4793ZM96.8147 15.7359V12.669C96.8147 11.2811 97.3304 10.0954 98.3309 9.11204C99.3324 8.12868 100.563 7.60725 101.965 7.60725C103.338 7.60725 104.511 8.09947 105.513 9.0255C106.513 9.97965 107 11.1653 107 12.6117C107 13.132 106.942 13.5377 106.829 13.8558C106.714 14.1738 106.513 14.3761 106.256 14.5211C105.998 14.6368 105.77 14.7234 105.541 14.7807C105.312 14.8099 105.026 14.8391 104.653 14.8391H98.5598V15.8517C98.5598 16.9216 98.9322 17.7892 99.7047 18.4545C100.477 19.0906 101.45 19.4379 102.652 19.4379C103.252 19.4379 103.795 19.3513 104.253 19.149C104.627 19.0084 104.982 18.8234 105.312 18.5995C105.569 18.4253 105.742 18.3095 105.884 18.3095C106.084 18.3095 106.256 18.3972 106.399 18.5995C106.542 18.8018 106.628 18.9749 106.628 19.149C106.628 19.5244 106.227 19.9301 105.455 20.3347C104.682 20.7393 103.71 20.9427 102.566 20.9427C100.849 20.9427 99.4758 20.4504 98.3886 19.4963C97.3582 18.5703 96.8147 17.2981 96.8147 15.7359Z" fill="#575757"/>
</g>
<defs>
<clipPath id="clip0_2905_616">
<rect width="107" height="21" fill="white"/>
</clipPath>
</defs>
</svg>
