<svg width="107" height="26" viewBox="0 0 107 26" fill="none" xmlns="http://www.w3.org/2000/svg">
<g clip-path="url(#clip0_2905_618)">
<mask id="mask0_2905_618" style="mask-type:luminance" maskUnits="userSpaceOnUse" x="0" y="0" width="107" height="26">
<path d="M106.876 0H0V26H106.876V0Z" fill="white"/>
</mask>
<g mask="url(#mask0_2905_618)">
<path fill-rule="evenodd" clip-rule="evenodd" d="M22.0329 3.99168L22.167 4.8188C22.2726 5.58824 22.3215 6.3647 22.3134 7.14164C22.3125 8.85855 22.1096 10.5691 21.7089 12.2366C21.1671 14.502 20.2233 16.647 18.9244 18.5655C17.4234 20.7687 15.2531 22.9357 12.0896 24.6769L11.7025 24.8898L11.3156 24.6769C8.15206 22.9357 5.98265 20.7687 4.48077 18.5655C3.18184 16.647 2.23811 14.502 1.69625 12.2366C1.29568 10.5694 1.09273 8.85913 1.09177 7.14255C1.08359 6.3656 1.13255 5.58915 1.23823 4.8197L1.37226 3.99258C1.3837 3.92513 1.38195 3.85603 1.36711 3.78927C1.35227 3.72251 1.32463 3.65941 1.28578 3.6036C1.24693 3.54779 1.19765 3.50038 1.14077 3.46411C1.08389 3.42782 1.02053 3.40339 0.954359 3.39222C0.888185 3.38104 0.820501 3.38334 0.755199 3.39898C0.689897 3.41462 0.628279 3.44331 0.573888 3.48337C0.519497 3.52343 0.473411 3.57407 0.438287 3.63239C0.403163 3.69072 0.379695 3.75555 0.369235 3.82317L0.235202 4.65029C0.119915 5.47569 0.0662063 6.30883 0.0745396 7.14255C0.0751784 8.9437 0.287963 10.7382 0.70831 12.4876C1.28051 14.8764 2.2766 17.1381 3.64728 19.1607C5.23171 21.488 7.5298 23.7764 10.8371 25.5928L11.4656 25.9379C11.5396 25.9788 11.6224 26.0002 11.7066 26.0002C11.7907 26.0002 11.8736 25.9788 11.9476 25.9379L12.5751 25.5928C15.8789 23.7755 18.1779 21.488 19.765 19.1607C21.135 17.1382 22.1305 14.8769 22.7021 12.4885C23.1225 10.7391 23.3353 8.94461 23.3359 7.14346C23.3443 6.30974 23.2905 5.4766 23.1753 4.6512L23.0412 3.82408C23.0308 3.75646 23.0073 3.69162 22.9722 3.6333C22.9371 3.57498 22.891 3.52433 22.8366 3.48427C22.7822 3.44421 22.7206 3.41553 22.6553 3.39989C22.59 3.38424 22.5223 3.38195 22.4561 3.39312C22.3899 3.4043 22.3266 3.42873 22.2697 3.46501C22.2128 3.50129 22.1635 3.5487 22.1247 3.60451C22.0859 3.66032 22.0582 3.72342 22.0434 3.79018C22.0286 3.85694 22.0268 3.92604 22.0382 3.99349L22.0329 3.99168Z" fill="#575757"/>
<path fill-rule="evenodd" clip-rule="evenodd" d="M4.14979 3.42812L11.7038 1.07271L19.4265 3.47886C19.5558 3.51831 19.6951 3.50388 19.814 3.43873C19.9329 3.37358 20.0217 3.26302 20.0608 3.13124C20.1001 2.99946 20.0865 2.8572 20.0232 2.73558C19.9599 2.61397 19.8519 2.52291 19.7229 2.48234L11.852 0.029984C11.7555 -0.000229057 11.6522 -0.000229057 11.5555 0.029984L3.85242 2.42979C3.78804 2.44943 3.72811 2.48185 3.67604 2.5252C3.62398 2.56854 3.58083 2.62196 3.54904 2.68237C3.51726 2.74278 3.49748 2.80901 3.49084 2.87724C3.4842 2.94547 3.49083 3.01437 3.51035 3.07998C3.52987 3.1456 3.5619 3.20663 3.60459 3.25958C3.64728 3.31253 3.6998 3.35634 3.75913 3.38853C3.81846 3.4207 3.88344 3.4406 3.95032 3.44709C4.01721 3.45357 4.08469 3.44651 4.1489 3.42631L4.14979 3.42812Z" fill="#575757"/>
<path fill-rule="evenodd" clip-rule="evenodd" d="M0.419694 4.14391L11.2496 25.7161C11.2918 25.8004 11.3559 25.8713 11.4348 25.921C11.5137 25.9708 11.6045 25.9976 11.6973 25.9984C11.79 25.9993 11.8812 25.9742 11.961 25.9258C12.0407 25.8775 12.106 25.8077 12.1497 25.7242L18.7542 13.1181L18.7639 13.0982L22.9912 4.12942C23.0484 4.00565 23.0556 3.8638 23.0109 3.73471C22.9663 3.60562 22.8736 3.49971 22.7528 3.44003C22.6321 3.38034 22.4932 3.37169 22.3663 3.41596C22.2394 3.46024 22.1347 3.55385 22.0751 3.67645L17.8549 12.6379L11.7174 24.3608L1.32425 3.6692C1.2943 3.60777 1.2527 3.553 1.20186 3.5081C1.15102 3.46319 1.09196 3.42902 1.02808 3.40757C0.964212 3.38612 0.896809 3.37783 0.829768 3.38316C0.762734 3.3885 0.6974 3.40735 0.637556 3.43864C0.57771 3.46992 0.524545 3.51302 0.481137 3.56543C0.43773 3.61783 0.404945 3.67851 0.384681 3.74394C0.364417 3.80937 0.357078 3.87825 0.363088 3.9466C0.369098 4.01495 0.388338 4.0814 0.419694 4.1421V4.14391Z" fill="#575757"/>
<path fill-rule="evenodd" clip-rule="evenodd" d="M5.6039 13.7509H17.647C17.7817 13.7509 17.911 13.6963 18.0063 13.599C18.1016 13.5017 18.1552 13.3698 18.1552 13.2322C18.1552 13.0947 18.1016 12.9628 18.0063 12.8655C17.911 12.7683 17.7817 12.7136 17.647 12.7136H5.6039C5.46911 12.7136 5.33985 12.7683 5.24455 12.8655C5.14925 12.9628 5.0957 13.0947 5.0957 13.2322C5.0957 13.3698 5.14925 13.5017 5.24455 13.599C5.33985 13.6963 5.46911 13.7509 5.6039 13.7509ZM39.1952 9.27562H31.3606C31.2252 9.27634 31.0955 9.33159 30.9998 9.42928C30.9041 9.52698 30.85 9.65925 30.8493 9.79744V16.215C30.8502 16.3531 30.9044 16.4853 31.0001 16.5829C31.0957 16.6806 31.2253 16.7359 31.3606 16.7368H39.1952V17.8239H31.3606C31.1539 17.8249 30.9491 17.7841 30.7579 17.7038C30.5667 17.6234 30.393 17.5053 30.2469 17.3562C30.1007 17.207 29.985 17.0297 29.9062 16.8347C29.8276 16.6395 29.7876 16.4305 29.7885 16.2196V9.80199C29.7876 9.591 29.8276 9.38196 29.9062 9.1869C29.985 8.99177 30.1007 8.81451 30.2469 8.66534C30.393 8.51616 30.5667 8.39806 30.7579 8.31778C30.9491 8.23744 31.1539 8.19662 31.3606 8.1976H39.1952V9.27562ZM53.9066 8.19214V9.27926H46.3614V12.4563H52.4259V13.5525H46.3605V16.735H53.9057V17.8221H45.2953V8.19214H53.9066Z" fill="#575757"/>
<path d="M69.4436 9.80997V12.631C69.4449 12.842 69.4048 13.0509 69.3258 13.246C69.2468 13.441 69.1315 13.6183 68.9851 13.7674C68.8392 13.9165 68.6653 14.0346 68.4743 14.115C68.2832 14.1953 68.0781 14.2363 67.8717 14.2354H66.4311L69.3914 17.8184H67.9896L65.042 14.2354H61.5799C61.4087 14.2265 61.238 14.2087 61.0686 14.182V17.8184H60.0034V8.20558H67.8635C68.0705 8.20473 68.2749 8.24568 68.466 8.32602C68.6577 8.40636 68.8309 8.52447 68.9774 8.67364C69.1233 8.82282 69.2392 9.00001 69.3175 9.19501C69.3965 9.39007 69.4366 9.59905 69.436 9.80997H69.4436ZM61.5835 13.1393H67.8717C67.9373 13.1401 68.0023 13.1276 68.0634 13.1023C68.124 13.0771 68.1794 13.0397 68.2259 12.9923C68.2724 12.9449 68.3087 12.8886 68.3335 12.8266C68.3583 12.7645 68.3704 12.698 68.3698 12.631V9.80997C68.3704 9.74205 68.3583 9.67451 68.3341 9.6114C68.3093 9.54828 68.2724 9.49076 68.2259 9.4422C68.1806 9.39248 68.1259 9.35302 68.0647 9.3265C68.0036 9.29992 67.9373 9.28692 67.8711 9.28815H61.5826C61.4472 9.28887 61.3175 9.34412 61.2218 9.44181C61.126 9.53951 61.072 9.67185 61.0713 9.80997V12.631C61.0699 12.6989 61.0826 12.7662 61.1086 12.8287C61.1346 12.8912 61.1733 12.9473 61.2221 12.9934C61.2698 13.041 61.3263 13.0784 61.3884 13.1035C61.4504 13.1285 61.5167 13.1407 61.5835 13.1393Z" fill="#575757"/>
<path fill-rule="evenodd" clip-rule="evenodd" d="M75.0777 8.19214H84.5064V9.27926H80.3347V17.823H79.2692V9.27926H75.0777V8.19214ZM90.2214 17.8185V8.19214H91.2869V17.8185H90.2214ZM105.444 8.19214H106.807L102.864 13.0053L106.82 17.8185H105.444L101.933 13.5534H98.8941V17.8185H97.8216V8.19214H98.896V12.4563H101.935L105.444 8.19214Z" fill="#575757"/>
</g>
</g>
<defs>
<clipPath id="clip0_2905_618">
<rect width="107" height="26" fill="white"/>
</clipPath>
</defs>
</svg>
