<svg width="174" height="26" viewBox="0 0 174 26" fill="none" xmlns="http://www.w3.org/2000/svg">
<path d="M24.4588 3.3572C24.8173 3.25748 25.0962 3.51675 25.3352 3.73612C27.1477 5.61082 28.9602 7.50546 30.7727 9.38015C31.0316 9.61947 31.2507 9.87874 31.4698 10.1579C31.5495 10.3973 31.5495 10.6366 31.4897 10.8759C30.7129 13.7677 29.9361 16.6795 29.1594 19.5713C29.0996 19.7309 29.0199 19.8904 28.9004 20.0101C28.7013 20.2095 28.3826 20.2494 28.1236 20.3292C25.5144 21.0671 22.9052 21.8249 20.316 22.5828C19.9574 22.7423 19.5392 22.6626 19.2603 22.3833L13.2054 16.1011C12.9664 15.9017 12.8668 15.5826 12.9464 15.2834C13.7431 12.3318 14.5199 9.40009 15.3166 6.44845C15.3565 6.22907 15.476 6.04958 15.6353 5.90997C15.8345 5.81025 16.0536 5.75042 16.2727 5.69059C19.0014 4.9128 21.7301 4.13499 24.4588 3.3572ZM17.6072 7.00687C18.1449 7.54534 18.6429 8.10376 19.2006 8.64224C20.0969 7.665 21.0529 6.76754 21.9492 5.77037C20.4952 6.16924 19.0412 6.58805 17.6072 7.00687ZM20.7143 9.38015C22.2878 9.79897 23.8613 10.2377 25.4348 10.6366C25.0165 9.00122 24.6181 7.36585 24.1999 5.73048C23.0447 6.94704 21.8695 8.14365 20.7143 9.38015ZM26.1319 6.90715C26.4306 8.20348 26.7892 9.49981 27.1078 10.7762C27.8249 10.5568 28.5618 10.3574 29.2988 10.1579C28.2232 9.06105 27.2074 7.96416 26.1319 6.90715ZM16.4918 8.20348C16.0735 9.69925 15.6951 11.195 15.2967 12.6908C16.2129 11.7335 17.1491 10.7961 18.0453 9.81891C17.5474 9.24055 17.0096 8.72201 16.4918 8.20348ZM20.2761 10.9357C20.6745 12.5711 21.0927 14.2065 21.511 15.8419C22.6662 14.6054 23.8414 13.4088 24.9966 12.1922C23.4231 11.7734 21.8496 11.3346 20.2761 10.9357ZM15.2569 15.0242C16.8304 15.443 18.4039 15.8818 19.9774 16.2806C19.579 14.6453 19.1806 13.0099 18.7624 11.3745C17.5872 12.5911 16.4121 13.8076 15.2569 15.0242ZM27.4863 12.3318C27.805 13.6281 28.1236 14.9045 28.4423 16.2008C28.8407 14.7051 29.239 13.2093 29.6374 11.7135C28.9203 11.913 28.2033 12.1324 27.4863 12.3318ZM22.5866 16.9986C24.16 17.4174 25.7335 17.8562 27.3269 18.255C26.9286 16.6197 26.5103 14.9843 26.112 13.3489C24.9169 14.5655 23.7617 15.782 22.5866 16.9986ZM16.3524 16.9986C16.8304 17.557 17.3681 18.0357 17.8661 18.5741C18.4238 19.1326 18.9416 19.7109 19.4993 20.2494C19.6985 19.4915 19.8977 18.7337 20.0969 17.9758C18.862 17.6567 17.6072 17.3177 16.3524 16.9986ZM21.6305 18.4146C21.4313 19.1724 21.2322 19.9303 21.033 20.6881C22.487 20.2693 23.9609 19.8505 25.4149 19.4516C24.16 19.0727 22.8853 18.7536 21.6305 18.4146Z" fill="#575757"/>
<path d="M61.7844 6.34888H63.8558C63.8558 8.6025 63.8558 10.8561 63.8558 13.1097C64.8915 11.9331 65.9272 10.7365 66.9828 9.55979C67.8592 9.55979 68.7157 9.55979 69.5721 9.55979C68.5563 10.6966 67.5405 11.8533 66.5247 12.9901C67.6202 14.6853 68.7356 16.3406 69.8311 18.0358C69.0742 18.0358 68.3372 18.0358 67.5804 18.0358C67.3414 17.7566 67.1422 17.4574 66.943 17.1583C66.2658 16.1611 65.6085 15.144 64.9313 14.1468C64.5529 14.5457 64.2143 14.9645 63.8359 15.3634C63.8359 16.2608 63.8359 17.1383 63.8359 18.0358C63.1387 18.0358 62.4416 18.0358 61.7644 18.0358C61.7844 14.1468 61.7844 10.2379 61.7844 6.34888Z" fill="#575757"/>
<path d="M70.9663 6.34888H73.0577C73.0577 7.00701 73.0577 7.66515 73.0577 8.32329H70.9663C70.9663 7.64521 70.9663 6.98707 70.9663 6.34888Z" fill="#575757"/>
<path d="M150.099 6.34888C150.796 6.34888 151.473 6.34888 152.17 6.34888C152.17 10.2578 152.17 14.1468 152.17 18.0557C151.533 18.0557 150.876 18.0557 150.238 18.0557C150.238 17.7765 150.238 17.4973 150.238 17.2181C149.88 17.6569 149.422 17.976 148.884 18.1355C148.067 18.3748 147.171 18.315 146.394 17.956C145.737 17.6369 145.199 17.0985 144.861 16.4403C144.402 15.5827 144.263 14.6055 144.283 13.6283C144.263 12.7707 144.482 11.9131 144.881 11.1553C145.478 10.1382 146.534 9.34041 147.729 9.30052C148.645 9.22075 149.541 9.61962 150.079 10.3775C150.119 9.04126 150.079 7.6851 150.099 6.34888ZM147.689 11.255C147.052 11.4145 146.633 12.0128 146.494 12.6112C146.315 13.3491 146.315 14.1069 146.454 14.8448C146.593 15.4631 146.972 16.0614 147.569 16.3007C148.266 16.54 149.163 16.4204 149.661 15.8021C149.959 15.4431 150.119 14.9645 150.099 14.5058C150.099 13.9873 150.099 13.4687 150.099 12.9303C150.099 12.2522 149.701 11.6339 149.103 11.3348C148.645 11.1553 148.147 11.1154 147.689 11.255Z" fill="#575757"/>
<path d="M40.3132 6.64799C41.568 6.4685 42.9423 6.66793 43.978 7.42579C44.715 7.94432 45.1532 8.78195 45.3125 9.63952C44.6154 9.81901 43.9183 9.99851 43.2212 10.178C43.022 9.49992 42.524 8.84178 41.807 8.68223C41.1896 8.54263 40.4526 8.54263 39.9148 8.92156C39.3771 9.30048 39.3372 10.2179 39.9547 10.537C41.2892 11.2151 42.8029 11.4743 44.0975 12.2322C44.7747 12.5712 45.2727 13.1895 45.4718 13.9274C45.6909 14.785 45.5914 15.6824 45.1731 16.4602C44.6154 17.3776 43.6793 18.0158 42.6037 18.2153C41.807 18.3549 40.9904 18.3549 40.1937 18.1953C39.2775 18.0158 38.4609 17.5172 37.8633 16.7793C37.3654 16.0614 37.0467 15.2237 36.967 14.3462C37.7239 14.1667 38.4808 14.0271 39.2177 13.8476C39.3571 14.5257 39.4966 15.2437 39.9348 15.8021C40.3132 16.1611 40.8111 16.3605 41.3489 16.3406C41.9265 16.3406 42.544 16.2807 43.022 15.9217C43.6593 15.463 43.5598 14.3861 42.9025 13.9872C41.5282 13.1695 39.8352 13.0698 38.5206 12.1325C37.8633 11.6937 37.4451 10.9757 37.3654 10.178C37.2658 9.36031 37.5048 8.54263 38.0426 7.90443C38.66 7.18647 39.4567 6.76765 40.3132 6.64799Z" fill="#575757"/>
<path d="M98.5522 6.80762H102.456C103.153 6.80762 103.85 6.80762 104.508 7.00705C105.384 7.24638 106.121 7.84468 106.559 8.64242C106.898 9.34045 107.017 10.1182 106.918 10.896C106.858 11.5941 106.559 12.2323 106.081 12.7309C105.663 13.1696 105.165 13.4887 104.587 13.6483C105.364 15.1041 106.181 16.56 106.957 18.0159H104.627C103.87 16.6398 103.133 15.2238 102.356 13.8477C101.799 13.8277 101.261 13.8477 100.703 13.8477C100.703 15.2437 100.703 16.6198 100.703 18.0159C99.9863 18.0159 99.2692 18.0159 98.5522 18.0159C98.5522 14.3064 98.5522 10.557 98.5522 6.80762ZM100.703 8.76209C100.703 9.83904 100.703 10.916 100.703 11.9929C101.241 11.9929 101.759 11.9929 102.297 11.9929C102.795 11.9929 103.293 12.0328 103.771 11.8733C104.229 11.7536 104.587 11.3946 104.687 10.9359C104.826 10.3775 104.786 9.69943 104.388 9.24073C104.03 8.8618 103.492 8.76209 102.994 8.76209H100.703Z" fill="#575757"/>
<path d="M47.603 7.46558H49.555C49.555 8.1636 49.555 8.86163 49.555 9.55965H51.7061C51.7061 10.158 51.7061 10.7363 51.7061 11.3147H49.5948C49.5948 12.5113 49.5948 13.688 49.5948 14.8846C49.6147 15.2436 49.6346 15.6823 49.9732 15.9017C50.4313 16.1211 50.9293 16.0214 51.4272 16.0413C51.4272 16.6994 51.4272 17.3775 51.4272 18.0357C50.4712 18.0157 49.4354 18.1154 48.579 17.6168C47.862 17.1781 47.6429 16.2806 47.5831 15.5028C47.5632 14.1068 47.5831 12.7107 47.5831 11.3147H46.2686C46.2686 10.7363 46.2686 10.138 46.2686 9.55965C46.7267 9.55965 47.1648 9.55965 47.623 9.55965C47.5831 8.86163 47.603 8.1636 47.603 7.46558Z" fill="#575757"/>
<path d="M54.4746 9.61946C55.2713 9.30036 56.1477 9.22059 56.9842 9.36019C57.8407 9.45991 58.6175 9.91861 59.1552 10.5967C59.5735 11.195 59.693 11.9529 59.693 12.6908C59.693 14.4657 59.693 16.2607 59.693 18.0356C59.1154 18.0356 58.5378 18.0356 57.9602 18.0356C57.9602 17.7564 57.9602 17.4972 57.9602 17.2179C57.7012 17.537 57.3626 17.8163 57.0041 17.9957C56.2672 18.3148 55.4306 18.3148 54.6539 18.1752C54.0165 18.0755 53.4389 17.7165 53.0405 17.198C52.5426 16.5399 52.4828 15.6424 52.7019 14.8646C52.8812 14.2464 53.4389 13.8475 53.9966 13.5882C55.0323 13.0896 56.2074 13.0298 57.2631 12.5512C57.6017 12.3916 57.7411 11.9927 57.5817 11.6537C57.5618 11.6338 57.5618 11.6138 57.5419 11.5739C57.3228 11.195 56.8448 11.0753 56.4464 11.0554C55.9883 11.0354 55.4904 11.0554 55.112 11.3147C54.7933 11.6138 54.5343 11.9927 54.4148 12.4315C53.8372 12.1922 53.2596 11.9528 52.7019 11.7135C52.9409 10.8161 53.5982 10.0383 54.4746 9.61946ZM57.5021 13.9871C56.785 14.4059 55.9286 14.4857 55.1717 14.7848C54.7136 14.9444 54.4746 15.423 54.5941 15.8817C54.6738 16.2607 55.0721 16.4202 55.4306 16.4601C55.9883 16.5 56.5859 16.5 57.0838 16.2208C57.4423 16.0413 57.6813 15.6823 57.7012 15.2834C57.7012 14.7848 57.7012 14.2663 57.7012 13.7677C57.6415 13.8475 57.5618 13.9273 57.5021 13.9871Z" fill="#575757"/>
<path d="M77.2802 10.3775C78.3757 9.14099 80.248 8.94155 81.5625 9.95867C82.2596 10.557 82.5584 11.4744 82.5385 12.3718C82.5385 14.2665 82.5385 16.1412 82.5385 18.0358C81.8414 18.0358 81.1642 18.0358 80.467 18.0358C80.467 16.3406 80.467 14.6255 80.467 12.9303C80.467 12.4317 80.3874 11.8932 80.0089 11.5342C79.6504 11.2351 79.1326 11.2151 78.6944 11.255C78.1765 11.2949 77.7383 11.614 77.5192 12.0727C77.3798 12.3918 77.34 12.7508 77.3599 13.0898C77.3599 14.7451 77.3599 16.4004 77.3599 18.0358C76.6628 18.0358 75.9657 18.0358 75.2686 18.0358V9.53986C75.9258 9.53986 76.603 9.53986 77.2603 9.53986C77.2802 9.81907 77.2802 10.0983 77.2802 10.3775Z" fill="#575757"/>
<path d="M84.7294 11.3147C85.2472 10.3375 86.1635 9.63946 87.2191 9.40014C87.9959 9.26054 88.8523 9.30042 89.5295 9.75912C89.7885 9.93862 90.0275 10.158 90.2266 10.4173C90.2266 10.1381 90.2266 9.85884 90.2266 9.57963H92.1985V17.6568C92.2184 18.4146 92.1786 19.1924 91.8599 19.8904C91.4615 20.768 90.6848 21.4261 89.7685 21.7053C88.8723 21.9845 87.9162 21.9845 87 21.7452C86.0041 21.466 85.1676 20.768 84.7493 19.8107C85.2672 19.4517 85.785 19.0927 86.3029 18.7337C86.6016 19.2722 87 19.8506 87.6374 20.0101C88.3942 20.2095 89.3503 20.1298 89.8482 19.4317C90.2665 18.7736 90.0872 17.9559 90.147 17.218C89.7486 17.7565 89.171 18.1155 88.5137 18.2351C87.4581 18.3947 86.3826 18.0955 85.5659 17.3776C84.7891 16.6596 84.3111 15.7023 84.2115 14.6453C84.092 13.5285 84.1717 12.3318 84.7294 11.3147ZM87.8565 11.2349C87.1992 11.3746 86.6813 11.8532 86.4622 12.4914C86.2232 13.1894 86.1834 13.9473 86.3228 14.6852C86.4423 15.3633 86.8805 15.9416 87.4979 16.2607C88.1154 16.52 88.8125 16.4801 89.3901 16.1411C89.888 15.822 90.1669 15.2635 90.1669 14.6652C90.1669 14.0669 90.1669 13.4686 90.1669 12.8903C90.1669 12.3119 89.8482 11.7535 89.3503 11.4543C88.8922 11.1751 88.3544 11.1153 87.8565 11.2349Z" fill="#575757"/>
<path d="M110.662 9.49993C111.877 9.121 113.311 9.28055 114.307 10.1381C114.905 10.6567 115.343 11.3148 115.562 12.0726C115.761 12.8305 115.841 13.6282 115.801 14.426C113.909 14.4459 111.997 14.426 110.104 14.426C110.144 14.9645 110.264 15.5628 110.682 15.9616C111.16 16.4602 111.937 16.54 112.594 16.3805C113.251 16.2209 113.69 15.6425 114.068 15.144C114.566 15.5628 115.044 15.9816 115.522 16.4203C115.124 17.0186 114.606 17.4973 113.988 17.8363C113.112 18.2751 112.096 18.4147 111.12 18.2153C109.925 17.956 108.929 17.1383 108.451 16.0215C107.993 15.0043 107.953 13.8476 108.113 12.7507C108.292 11.2948 109.268 9.95863 110.662 9.49993ZM110.782 11.5142C110.383 11.8533 110.144 12.3519 110.084 12.8704C111.319 12.8704 112.554 12.8704 113.769 12.8704C113.709 12.1923 113.351 11.4943 112.674 11.2749C112.076 11.0555 111.319 11.0755 110.782 11.5142Z" fill="#575757"/>
<path d="M131.416 9.73921C132.173 9.3204 133.069 9.26057 133.906 9.34034C134.742 9.40017 135.539 9.75916 136.137 10.3774C136.674 10.9757 136.874 11.8133 136.854 12.6111V18.0357C136.276 18.0357 135.698 18.0357 135.121 18.0357C135.121 17.7565 135.121 17.4773 135.121 17.1981C134.802 17.6369 134.344 17.956 133.826 18.1155C133.049 18.3349 132.213 18.3149 131.436 18.0956C130.5 17.8163 129.843 17.0186 129.743 16.0613C129.663 15.5228 129.763 14.9644 130.042 14.4858C130.361 13.9872 130.918 13.688 131.436 13.4886C132.352 13.1296 133.348 13.01 134.284 12.651C134.543 12.5712 134.742 12.3518 134.782 12.0726C134.842 11.6139 134.444 11.2549 134.025 11.1751C133.567 11.0754 133.109 11.0754 132.651 11.1751C132.054 11.3347 131.735 11.933 131.556 12.4715C130.978 12.2322 130.4 11.9928 129.823 11.7535C130.062 10.8959 130.639 10.178 131.416 9.73921ZM134.663 13.9872C133.926 14.406 133.049 14.4658 132.293 14.8049C131.894 14.9644 131.655 15.4231 131.775 15.8419C131.834 16.2209 132.253 16.4004 132.591 16.4402C133.169 16.5001 133.786 16.4801 134.304 16.181C134.663 16.0015 134.882 15.6425 134.882 15.2436C134.882 14.7251 134.882 14.2265 134.882 13.708C134.822 13.8276 134.742 13.9074 134.663 13.9872Z" fill="#575757"/>
<path d="M155.995 9.49999C156.731 9.30056 157.528 9.26067 158.285 9.40028C159.022 9.51994 159.699 9.89887 160.177 10.4772C160.496 10.8761 160.715 11.3348 160.854 11.8134C160.277 11.9929 159.719 12.1724 159.141 12.332C158.922 11.8533 158.644 11.3348 158.106 11.1553C157.568 10.9758 156.97 10.9758 156.453 11.1952C156.174 11.3348 155.875 11.634 156.014 11.973C156.094 12.2323 156.373 12.332 156.592 12.4317C157.449 12.7508 158.325 12.9502 159.201 13.2494C159.759 13.4488 160.337 13.7081 160.675 14.2067C161.034 14.7451 161.173 15.3833 161.054 16.0215C160.934 16.6597 160.556 17.2181 160.038 17.5971C159.52 18.0159 158.843 18.1754 158.185 18.2552C157.309 18.315 156.393 18.2552 155.596 17.8763C154.6 17.3378 153.923 16.3606 153.764 15.2437C154.381 15.0842 154.999 14.9246 155.636 14.7651C155.696 15.3235 155.915 15.9418 156.433 16.2609C156.951 16.58 157.588 16.58 158.166 16.5002C158.544 16.4204 158.962 16.3007 159.161 15.9418C159.341 15.6227 159.221 15.2238 158.902 15.0642C158.883 15.0443 158.863 15.0443 158.843 15.0443C157.747 14.5657 156.532 14.4261 155.477 13.8876C154.999 13.6483 154.521 13.3092 154.282 12.8106C153.983 12.1126 154.043 11.2949 154.481 10.6567C154.839 10.0784 155.377 9.67949 155.995 9.49999Z" fill="#575757"/>
<path d="M142.032 9.49985C142.49 9.3403 143.008 9.3403 143.466 9.51979C143.367 10.1779 143.267 10.8361 143.148 11.4942C142.829 11.4743 142.49 11.3745 142.172 11.4543C141.753 11.5141 141.415 11.7734 141.236 12.1523C141.076 12.5313 140.997 12.9501 141.016 13.3689C141.016 14.9245 141.016 16.4601 141.016 18.0157H138.945C138.945 15.1838 138.945 12.3518 138.945 9.51979H140.897C140.897 9.81894 140.897 10.138 140.897 10.4372C141.176 10.0184 141.574 9.67934 142.032 9.49985Z" fill="#575757"/>
<path d="M70.9663 9.53979H73.0577C73.0577 12.3718 73.0577 15.2038 73.0577 18.0358C72.3606 18.0358 71.6635 18.0358 70.9663 18.0358V9.53979Z" fill="#575757"/>
<path d="M116.837 9.53979C117.514 9.53979 118.191 9.53979 118.868 9.53979C119.247 11.4344 119.605 13.349 120.003 15.2437C120.601 13.5883 121.119 11.8931 121.696 10.2179C121.796 9.9985 121.816 9.71929 121.955 9.51985C122.473 9.49991 122.991 9.51985 123.509 9.51985C123.609 9.53979 123.788 9.47996 123.808 9.61957C124.405 11.4743 124.943 13.349 125.541 15.2038C125.979 13.3091 126.397 11.4145 126.835 9.51985H128.827C128.19 12.2322 127.532 14.9246 126.895 17.6369C126.875 17.7765 126.835 17.8961 126.775 18.0158C126.098 18.0158 125.421 18.0158 124.764 18.0158C124.126 15.9616 123.489 13.9274 122.812 11.8931C122.075 13.9274 121.398 15.9816 120.701 18.0158C120.023 18.0158 119.366 18.0158 118.689 18.0158C118.091 15.2038 117.474 12.3718 116.837 9.53979Z" fill="#575757"/>
</svg>
