<svg width="86" height="30" viewBox="0 0 86 30" fill="none" xmlns="http://www.w3.org/2000/svg">
<g opacity="0.2" clip-path="url(#clip0_2915_39)">
<path d="M15.0797 29.7903C23.407 29.7903 30.1576 23.1215 30.1576 14.8952C30.1576 6.66878 23.407 0 15.0797 0C6.75231 0 0.00167847 6.66878 0.00167847 14.8952C0.00167847 23.1215 6.75231 29.7903 15.0797 29.7903Z" fill="white"/>
<path d="M23.8749 2.79781C21.4529 1.07905 18.5694 0.108384 15.5889 0.00855698C12.6085 -0.0912703 9.66502 0.684224 7.13076 2.23697C4.59649 3.78972 2.58522 6.04999 1.35129 8.73197C0.117367 11.4139 -0.283795 14.3971 0.198535 17.3043C0.680866 20.2114 2.02502 22.912 4.06104 25.0646C6.09705 27.2171 8.73347 28.7248 11.6369 29.3972C14.5404 30.0695 17.5804 29.8762 20.3726 28.8417C23.1649 27.8073 25.5839 25.978 27.3237 23.5855C28.479 21.9968 29.3061 20.1989 29.7581 18.2945C30.2099 16.39 30.2777 14.4163 29.9574 12.486C29.6371 10.5557 28.9352 8.7066 27.8915 7.04428C26.8479 5.38198 25.483 3.93903 23.8749 2.79781Z" fill="white"/>
<path d="M2.62451 23.2972C2.62451 23.2972 12.5882 20.0727 30.1487 14.4155C30.1487 14.4155 31.1106 23.6799 21.3896 28.5123C21.3896 28.5123 16.5959 30.7822 11.3369 29.326C11.3369 29.326 6.1001 28.3495 2.62451 23.2972Z" fill="#DEDEDE"/>
<path d="M39.2279 7.45361H44.4562C45.3893 7.45361 46.2333 7.60758 46.9881 7.91551C47.7565 8.22345 48.4084 8.68533 48.9436 9.30119C49.4925 9.90307 49.911 10.6659 50.1992 11.5898C50.5011 12.4995 50.652 13.5633 50.652 14.7811C50.652 15.9988 50.5011 17.0696 50.1992 17.9934C49.911 18.9032 49.4925 19.666 48.9436 20.2819C48.4084 20.8838 47.7565 21.3386 46.9881 21.6466C46.2333 21.9545 45.3893 22.1085 44.4562 22.1085H39.2279V7.45361ZM44.4562 19.652C45.4717 19.652 46.2745 19.3511 46.8646 18.7492C47.4684 18.1334 47.7703 17.1956 47.7703 15.9358V13.6263C47.7703 12.3666 47.4684 11.4357 46.8646 10.8339C46.2745 10.218 45.4717 9.9101 44.4562 9.9101H41.945V19.652H44.4562Z" fill="white"/>
<path d="M59.4713 20.2817H59.3685C59.2724 20.5617 59.142 20.8276 58.9773 21.0795C58.8264 21.3175 58.6274 21.5344 58.3804 21.7305C58.1471 21.9264 57.8589 22.0803 57.5158 22.1923C57.1865 22.3043 56.8023 22.3603 56.3631 22.3603C55.2516 22.3603 54.4008 21.9894 53.8107 21.2475C53.2207 20.5057 52.9256 19.4489 52.9256 18.0772V11.1487H55.5604V17.8042C55.5604 18.5601 55.7044 19.1409 55.9926 19.5469C56.2808 19.9388 56.7406 20.1348 57.3718 20.1348C57.6325 20.1348 57.8863 20.0997 58.1334 20.0298C58.3941 19.9598 58.6205 19.8549 58.8126 19.7149C59.0048 19.5609 59.1626 19.3789 59.2861 19.169C59.4096 18.945 59.4713 18.6861 59.4713 18.3921V11.1487H62.1061V22.1084H59.4713V20.2817Z" fill="white"/>
<path d="M64.9445 22.1084V11.1487H67.5792V12.9753H67.6822C67.9017 12.3875 68.2448 11.8975 68.7113 11.5056C69.1917 11.0997 69.8503 10.8967 70.6875 10.8967C71.799 10.8967 72.6498 11.2677 73.2398 12.0096C73.83 12.7514 74.125 13.8082 74.125 15.1799V22.1084H71.4903V15.4528C71.4903 14.6689 71.353 14.0811 71.0786 13.6892C70.8041 13.2972 70.3513 13.1013 69.72 13.1013C69.4455 13.1013 69.178 13.1433 68.9172 13.2273C68.6702 13.2972 68.4438 13.4093 68.2379 13.5632C68.0458 13.7032 67.888 13.8852 67.7645 14.1091C67.641 14.319 67.5792 14.571 67.5792 14.865V22.1084H64.9445Z" fill="white"/>
<path d="M81.1831 22.3603C80.3872 22.3603 79.6736 22.2274 79.0423 21.9614C78.4248 21.6815 77.8965 21.2965 77.4574 20.8067C77.0319 20.3028 76.7026 19.7009 76.4693 19.001C76.2361 18.2872 76.1194 17.4894 76.1194 16.6075C76.1194 15.7398 76.2292 14.9559 76.4488 14.256C76.682 13.5562 77.0114 12.9613 77.4368 12.4715C77.8622 11.9676 78.3837 11.5826 79.0012 11.3166C79.6187 11.0367 80.3186 10.8967 81.1008 10.8967C81.9379 10.8967 82.6652 11.0437 83.2827 11.3376C83.9002 11.6316 84.408 12.0306 84.8059 12.5344C85.2038 13.0383 85.4989 13.6262 85.691 14.298C85.8969 14.9559 85.9998 15.6628 85.9998 16.4186V17.3004H78.8571V17.5734C78.8571 18.3712 79.0767 19.0151 79.5158 19.5049C79.9549 19.9808 80.6068 20.2188 81.4712 20.2188C82.1299 20.2188 82.6652 20.0788 83.0769 19.7988C83.5022 19.5189 83.8796 19.162 84.209 18.7281L85.6293 20.3448C85.1901 20.9747 84.5863 21.4716 83.8178 21.8354C83.0631 22.1854 82.1849 22.3603 81.1831 22.3603ZM81.142 12.9123C80.4421 12.9123 79.8863 13.1503 79.4746 13.6262C79.0629 14.1021 78.8571 14.718 78.8571 15.4738V15.6418H83.2621V15.4528C83.2621 14.697 83.0769 14.0881 82.7063 13.6262C82.3496 13.1503 81.8281 12.9123 81.142 12.9123Z" fill="white"/>
</g>
<defs>
<clipPath id="clip0_2915_39">
<rect width="86" height="30" fill="white"/>
</clipPath>
</defs>
</svg>
