<svg width="80" height="31" viewBox="0 0 80 31" fill="none" xmlns="http://www.w3.org/2000/svg">
<path d="M55.1476 21.9262V2.65771H59.1342V21.9262H55.1476Z" fill="#444444"/>
<path d="M10.7129 27.9062H2.65771V8.6377H10.3863C14.1467 8.6377 16.3337 10.7492 16.3337 14.0541C16.3337 16.1962 14.9285 17.5732 13.9587 18.0322C15.1165 18.5728 16.6107 19.7867 16.6107 22.3674C16.6107 25.9579 14.1467 27.9062 10.7129 27.9062ZM10.0993 11.9936H6.428V16.4308H10.0993C11.6925 16.4308 12.5832 15.5331 12.5832 14.2071C12.5832 12.881 11.6925 11.9936 10.0993 11.9936ZM10.3368 19.8071H6.4181V24.54H10.3368C12.0389 24.54 12.8503 23.4588 12.8503 22.1532C12.8503 20.8475 12.0389 19.8071 10.3368 19.8071Z" fill="#444444"/>
<path d="M28.533 20.0009V27.9062H24.6419V20.0009L18.604 8.6377H22.8564L26.603 16.4002L30.298 8.6377H34.5503L28.533 20.0009Z" fill="#444444"/>
<path d="M45.2632 27.9062H37.2081V8.6377H44.9367C48.697 8.6377 50.884 10.7492 50.884 14.0541C50.884 16.1962 49.4788 17.5732 48.509 18.0322C49.6668 18.5728 51.1611 19.7867 51.1611 22.3674C51.1512 25.9579 48.697 27.9062 45.2632 27.9062ZM44.6398 11.9936H40.9685V16.4308H44.6398C46.233 16.4308 47.1236 15.5331 47.1236 14.2071C47.1236 12.881 46.233 11.9936 44.6398 11.9936ZM44.8773 19.8071H40.9586V24.54H44.8773C46.5794 24.54 47.3908 23.4588 47.3908 22.1532C47.3908 20.8475 46.5892 19.8071 44.8773 19.8071Z" fill="#444444"/>
<path d="M71.3283 11.9936V27.9062H67.5275V11.9936H62.4564V8.6377H76.4094V11.9936H71.3283Z" fill="#444444"/>
</svg>
