<svg width="96" height="34" viewBox="0 0 96 34" fill="none" xmlns="http://www.w3.org/2000/svg">
<path d="M34.5771 21.9696C33.5623 21.9696 32.5982 21.8609 31.6848 21.6434C30.786 21.4115 30.0828 21.1143 29.5754 20.7518L30.8802 18.2944C31.3876 18.6279 32.0038 18.8961 32.7287 19.0991C33.4681 19.302 34.2074 19.4035 34.9468 19.4035C35.7152 19.4035 36.2879 19.3093 36.6648 19.1208C37.0418 18.9178 37.2302 18.6351 37.2302 18.2727C37.2302 17.9827 37.0635 17.7725 36.7301 17.642C36.3966 17.5116 35.8602 17.3738 35.1208 17.2289C34.2799 17.0694 33.584 16.8954 33.0331 16.7069C32.4967 16.5185 32.0255 16.214 31.6196 15.7936C31.2282 15.3586 31.0324 14.7715 31.0324 14.0321C31.0324 12.7418 31.5689 11.7342 32.6417 11.0093C33.729 10.2844 35.1498 9.92198 36.904 9.92198C37.7159 9.92198 38.506 10.009 39.2744 10.1829C40.0428 10.3569 40.6952 10.5961 41.2316 10.9006L40.0138 13.3797C39.057 12.7853 37.9044 12.4881 36.5561 12.4881C35.8167 12.4881 35.2513 12.5968 34.8598 12.8143C34.4829 13.0318 34.2944 13.3072 34.2944 13.6407C34.2944 13.9451 34.4612 14.1698 34.7946 14.3148C35.1281 14.4453 35.6862 14.5903 36.4691 14.7497C37.2955 14.9092 37.9696 15.0832 38.4915 15.2717C39.028 15.4456 39.4919 15.7428 39.8833 16.1633C40.2748 16.5837 40.4705 17.1564 40.4705 17.8813C40.4705 19.1861 39.9196 20.1937 38.8177 20.904C37.7304 21.6144 36.3169 21.9696 34.5771 21.9696ZM55.9813 10.096L53.6544 21.7957H50.4359L50.6751 20.5343C50.1677 21.0128 49.5878 21.3752 48.9354 21.6217C48.283 21.8536 47.5943 21.9696 46.8694 21.9696C45.5936 21.9696 44.5715 21.6217 43.8032 20.9258C43.0493 20.2299 42.6723 19.2513 42.6723 17.99C42.6723 17.5116 42.7231 17.0404 42.8246 16.5765L44.1076 10.096H47.5001L46.2605 16.359C46.2025 16.6344 46.1735 16.9172 46.1735 17.2071C46.1735 18.4249 46.8259 19.0338 48.1307 19.0338C48.9861 19.0338 49.6892 18.7874 50.2402 18.2944C50.8056 17.787 51.1898 17.0331 51.3927 16.0328L52.5888 10.096H55.9813ZM65.6917 9.92198C66.605 9.92198 67.4459 10.1322 68.2143 10.5526C68.9972 10.9731 69.6133 11.582 70.0627 12.3794C70.5267 13.1622 70.7586 14.0901 70.7586 15.1629C70.7586 16.4532 70.4687 17.6203 69.8888 18.6641C69.3234 19.6935 68.5477 20.5054 67.5619 21.0998C66.576 21.6797 65.4815 21.9696 64.2781 21.9696C62.4949 21.9696 61.2336 21.3897 60.4942 20.2299L59.3416 26.0145H55.9492L59.1242 10.096H62.3427L62.1035 11.2485C63.0748 10.3642 64.2709 9.92198 65.6917 9.92198ZM63.8867 19.1643C64.5536 19.1643 65.148 19.0048 65.6699 18.6859C66.1918 18.3524 66.5978 17.8958 66.8877 17.3158C67.1777 16.7359 67.3227 16.069 67.3227 15.3152C67.3227 14.5178 67.0835 13.8871 66.605 13.4232C66.1411 12.9593 65.4887 12.7273 64.6478 12.7273C63.9954 12.7273 63.4083 12.894 62.8864 13.2275C62.3644 13.5464 61.9585 13.9959 61.6685 14.5758C61.3786 15.1557 61.2336 15.8226 61.2336 16.5765C61.2336 17.3738 61.4656 18.0045 61.9295 18.4684C62.3934 18.9323 63.0458 19.1643 63.8867 19.1643ZM84.5119 15.0759C84.5119 15.6124 84.4466 16.2068 84.3161 16.8592H75.3565C75.4725 18.4539 76.4801 19.2513 78.3793 19.2513C78.9737 19.2513 79.5391 19.1571 80.0755 18.9686C80.6265 18.7801 81.1049 18.5119 81.5108 18.164L82.9244 20.4039C82.272 20.9258 81.5253 21.3172 80.6845 21.5782C79.8436 21.8391 78.9592 21.9696 78.0314 21.9696C76.828 21.9696 75.7697 21.7594 74.8564 21.339C73.9575 20.904 73.2616 20.2879 72.7687 19.4905C72.2902 18.6931 72.051 17.7725 72.051 16.7287C72.051 15.4384 72.341 14.2786 72.9209 13.2492C73.5153 12.2054 74.3344 11.3935 75.3783 10.8136C76.4221 10.2192 77.6109 9.92198 78.9447 9.92198C80.0755 9.92198 81.0541 10.1322 81.8805 10.5526C82.7214 10.9731 83.3665 11.5747 83.816 12.3576C84.2799 13.1405 84.5119 14.0466 84.5119 15.0759ZM78.7925 12.4663C77.9951 12.4663 77.321 12.6838 76.7701 13.1187C76.2191 13.5392 75.8277 14.1263 75.5957 14.8802H81.4021C81.4021 14.1263 81.1629 13.5392 80.6845 13.1187C80.2205 12.6838 79.5899 12.4663 78.7925 12.4663ZM90.7299 11.4877C91.2373 10.9368 91.8462 10.5381 92.5566 10.2917C93.2815 10.0452 94.1296 9.92198 95.101 9.92198L94.492 13.0535C94.0861 13.0245 93.8251 13.01 93.7092 13.01C92.6798 13.01 91.8535 13.2637 91.23 13.7711C90.6211 14.2786 90.208 15.0687 89.9905 16.1415L88.8597 21.7957H85.4672L87.7941 10.096H91.0126L90.7299 11.4877Z" fill="#444444"/>
<path d="M11.7118 11.5798C11.6007 11.6123 11.4988 11.6704 11.4144 11.7493C9.70766 13.3389 8.13205 14.8012 6.68755 16.1364C6.65485 16.1668 6.62895 16.2038 6.61156 16.2449C6.59417 16.286 6.58568 16.3303 6.58664 16.3749C6.59195 16.5479 6.6884 16.6671 6.87596 16.7325C8.17352 17.1811 9.43134 17.6226 10.6494 18.0571C10.691 18.0722 10.728 18.0977 10.757 18.1311C10.786 18.1645 10.8059 18.2047 10.815 18.2479C10.824 18.2912 10.8218 18.336 10.8087 18.3782C10.7955 18.4203 10.7718 18.4584 10.7397 18.4889C9.16745 19.9707 7.59272 21.4357 6.01553 22.884C5.9323 22.9598 5.82166 22.9536 5.6836 22.8654C5.64267 22.8389 5.61181 22.7994 5.59593 22.7533C5.58004 22.7072 5.58004 22.6572 5.59593 22.6111L6.26514 20.6321C6.35544 20.3672 6.2687 20.1879 6.00492 20.0943L0.197438 18.0334C0.149519 18.0167 0.106741 17.9879 0.0732488 17.9498C0.0397566 17.9118 0.0166852 17.8657 0.00627004 17.8161C-0.00414516 17.7666 -0.00155114 17.7152 0.0138007 17.6669C0.0291526 17.6186 0.0567419 17.5751 0.0938958 17.5406L18.7729 0.150964C18.859 0.0701149 18.9688 0.0190268 19.0862 0.00524608C19.3429 -0.0247839 19.4341 0.0741109 19.3598 0.301931C18.1259 4.1204 16.868 8.01302 15.5863 11.9798C15.5013 12.2412 15.5881 12.4169 15.8465 12.5069C17.9727 13.2611 19.9874 13.9834 21.8905 14.674C21.9932 14.7098 22.0842 14.7731 22.1535 14.8568C22.1863 14.8969 22.2027 14.9479 22.1992 14.9995C22.1958 15.0512 22.1728 15.0996 22.1349 15.1349C15.5828 21.2848 9.13422 27.3508 2.78924 33.3328C2.62108 33.4917 2.45909 33.5526 2.30327 33.5156C2.15276 33.4802 2.10141 33.3902 2.14922 33.2454L3.96292 27.6183C4.03466 27.3955 4.16268 27.1947 4.33466 27.0355L15.5755 16.5815C15.6143 16.5451 15.6432 16.4995 15.6593 16.4488C15.6755 16.3982 15.6784 16.3443 15.6678 16.2922C15.6572 16.2404 15.6334 16.1922 15.5986 16.1524C15.5639 16.1125 15.5193 16.0823 15.4694 16.0648L11.4755 14.6478C11.3853 14.6159 11.3113 14.5501 11.2691 14.4645C11.2269 14.3789 11.22 14.2802 11.2497 14.1895L11.9985 11.8767C12.0118 11.8365 12.0138 11.7933 12.0043 11.752C11.9948 11.7107 11.9742 11.6727 11.9447 11.6422C11.9152 11.6117 11.878 11.5898 11.8369 11.5788C11.7959 11.5679 11.7526 11.5683 11.7118 11.5801V11.5798Z" fill="#444444"/>
</svg>
