<svg width="230" height="36" viewBox="0 0 230 36" fill="none" xmlns="http://www.w3.org/2000/svg">
<g clip-path="url(#clip0_2905_688)">
<mask id="mask0_2905_688" style="mask-type:luminance" maskUnits="userSpaceOnUse" x="0" y="0" width="230" height="36">
<path d="M229.714 0H0.00012207V36H229.714V0Z" fill="white"/>
</mask>
<g mask="url(#mask0_2905_688)">
<path d="M18.5304 35.8787C28.7645 35.8787 37.0608 27.8468 37.0608 17.9393C37.0608 8.03171 28.7645 0 18.5304 0C8.29644 0 0.00012207 8.03171 0.00012207 17.9393C0.00012207 27.8468 8.29644 35.8787 18.5304 35.8787Z" fill="black"/>
<path d="M23.657 0.697266L13.9444 14.5276L13.205 15.5763L12.4656 14.5276L9.65572 10.4937H6.06943L8.88301 14.5276L11.4156 18.1355L9.30448 21.1278L3.85852 28.8947C4.47777 29.6629 5.16027 30.3809 5.89939 31.0422L12.8944 21.1278L13.1976 20.6983L13.4971 21.1278L16.7469 25.7808H25.879C26.9035 25.7811 27.9001 25.4566 28.7161 24.8566C29.5318 24.2567 30.1226 23.4146 30.3972 22.4589C30.6717 21.5034 30.6154 20.4869 30.2369 19.5652C29.8582 18.6434 29.178 17.8673 28.3006 17.3552C28.7278 16.6669 28.9584 15.8811 28.9687 15.0782C28.9791 14.2753 28.769 13.4842 28.3597 12.7857C27.9504 12.0873 27.3569 11.5066 26.6396 11.1034C25.9225 10.7 25.1075 10.4884 24.2781 10.4902H20.385L26.574 1.76032C25.6339 1.32806 24.6581 0.972475 23.657 0.697266ZM24.2743 13.3715C24.7304 13.3715 25.1677 13.5469 25.49 13.859C25.8124 14.1711 25.9936 14.5944 25.9936 15.0358C25.9936 15.4773 25.8124 15.9006 25.49 16.2128C25.1677 16.5249 24.7304 16.7002 24.2743 16.7002H17.6195L16.5916 18.1569L17.5899 19.5887H25.8752C26.3313 19.5887 26.7685 19.7641 27.0909 20.0762C27.4133 20.3883 27.5945 20.8116 27.5945 21.253C27.5945 21.6945 27.4133 22.1178 27.0909 22.43C26.7685 22.7421 26.3313 22.9174 25.8752 22.9174H18.3219L17.0796 21.1278L15.9963 19.5887L14.9945 18.1569L16.0075 16.7252L17.5381 14.5526L18.3515 13.3965H24.267L24.2743 13.3715Z" fill="white"/>
<path d="M67.4256 9.79992H63.3919L60.2641 14.8396L57.1734 9.79992H53.0363L57.8684 17.5634L52.6295 26.0784H56.726L60.2456 20.1512L63.8653 26.0784H67.9321L62.6047 17.4882L67.4256 9.79992ZM88.1298 17.4739C88.6041 17.0485 88.9764 16.5279 89.221 15.9487C89.4658 15.3693 89.5765 14.7452 89.546 14.1201C89.509 11.1887 87.1244 9.77843 83.9115 9.79992H77.0347V26.0784H84.699C87.8934 26.1107 90.2668 24.3353 90.3077 21.4827C90.3401 20.6886 90.1564 19.9002 89.7748 19.1966C89.3933 18.4929 88.8274 17.8989 88.1335 17.4739H88.1298ZM80.6986 12.8209H83.6563C85.2758 12.8673 86.0927 13.1787 86.1703 14.4888C86.1148 15.8275 85.0021 16.3356 83.5823 16.3608H80.7283L80.6986 12.8209ZM86.1815 22.4848C85.7823 22.8428 85.1167 23.0754 84.0519 23.0754H80.6986V19.1383H84.1185C85.6677 19.1669 86.7065 19.7037 86.7471 21.1784C86.7566 21.421 86.7109 21.6626 86.614 21.8864C86.5168 22.1102 86.3706 22.3108 86.1851 22.4742L86.1815 22.4848ZM105.858 9.81067L98.5191 26.0784H102.364L103.473 23.5265H110.261L111.341 26.0784H115.275L107.932 9.79992L105.858 9.81067ZM104.778 20.3945L106.856 15.5303L108.904 20.3945H104.778ZM162.931 9.79992H158.414L153.359 16.1137V9.79992H149.688V26.0784H153.355V18.9199L159.404 26.0784H163.981L156.694 17.4882L162.931 9.79992ZM172.914 10.1579V26.0784H176.563V9.79992H172.914V10.1579ZM198.565 19.3208L189.803 9.79992H187.684V26.0784H191.352V16.4323L200.199 26.0784H202.236V9.79992H198.565V19.3208ZM135.343 19.3208L126.58 9.79992H124.458V26.0784H128.13V16.4323L136.977 26.0784H139.011V9.79992H135.343V19.3208ZM222.63 16.6221L220.12 19.736H225.872C225.602 20.7348 225.003 21.621 224.166 22.26C223.328 22.8989 222.298 23.2556 221.233 23.2759C220.496 23.2943 219.763 23.1699 219.078 22.91C218.393 22.65 217.767 22.2596 217.24 21.7622C216.712 21.2646 216.294 20.6698 216.007 20.013C215.72 19.356 215.573 18.6503 215.573 17.9374C215.573 17.2245 215.72 16.5187 216.007 15.8619C216.294 15.205 216.712 14.6103 217.24 14.1127C217.767 13.6151 218.393 13.2249 219.078 12.9649C219.763 12.7049 220.496 12.5804 221.233 12.5989C222.676 12.6103 224.061 13.1499 225.111 14.1094L225.406 14.3742L227.624 11.6289L227.337 11.407C225.606 10.043 223.441 9.29844 221.21 9.29883C216.156 9.29883 211.997 13.0321 211.968 17.9177C211.937 22.8034 216.127 26.5903 221.21 26.576C226.072 26.576 229.736 22.6101 229.714 17.9392V16.6221H222.63Z" fill="white"/>
</g>
</g>
<defs>
<clipPath id="clip0_2905_688">
<rect width="230" height="36" fill="white"/>
</clipPath>
</defs>
</svg>
