<svg width="40" height="40" viewBox="0 0 40 40" fill="none" xmlns="http://www.w3.org/2000/svg">
<g clip-path="url(#clip0_3143_12961)">
<mask id="mask0_3143_12961" style="mask-type:luminance" maskUnits="userSpaceOnUse" x="0" y="0" width="40" height="40">
<path d="M40 0H0V40H40V0Z" fill="white"/>
</mask>
<g mask="url(#mask0_3143_12961)">
<mask id="mask1_3143_12961" style="mask-type:luminance" maskUnits="userSpaceOnUse" x="0" y="0" width="40" height="40">
<path d="M40 0H0V40H40V0Z" fill="white"/>
</mask>
<g mask="url(#mask1_3143_12961)">
<path d="M28.2597 24.434C26.6747 27.3668 23.5709 29.3643 20.0105 29.3643C14.8437 29.3643 10.6404 25.1605 10.6404 19.9942C10.6404 14.8278 14.8435 10.624 20.0105 10.624C23.5709 10.624 26.675 12.6214 28.26 15.5544L32.9141 13.0502C30.4386 8.46205 25.5889 5.34375 20.0105 5.34375C11.9193 5.34375 5.36011 11.9029 5.36011 19.9942C5.36011 28.0853 11.9191 34.6445 20.0105 34.6445C25.5891 34.6445 30.4389 31.5263 32.9134 26.9382L28.2597 24.434Z" fill="white"/>
<path d="M0 19.9999C0 8.95411 8.96509 -0.000244141 20.0109 -0.000244141V40.0001C8.96509 40.0001 0 31.0457 0 19.9999Z" fill="#8B8B8B"/>
<path fill-rule="evenodd" clip-rule="evenodd" d="M20.011 29.3643V34.6445C20.0109 34.6445 20.0111 34.6445 20.011 34.6445C11.9196 34.6445 5.36011 28.0853 5.36011 19.9942C5.36011 11.9029 11.9193 5.34375 20.0105 5.34375C20.0104 5.34375 20.0106 5.34375 20.0105 5.34375L20.011 10.624C20.0109 10.624 20.0111 10.624 20.011 10.624C14.844 10.624 10.6404 14.8278 10.6404 19.9942C10.6404 25.1605 14.8442 29.3643 20.011 29.3643C20.0111 29.3643 20.0109 29.3643 20.011 29.3643Z" fill="#2A292F"/>
</g>
</g>
</g>
<defs>
<clipPath id="clip0_3143_12961">
<rect width="40" height="40" fill="white"/>
</clipPath>
</defs>
</svg>
