<svg width="35" height="40" viewBox="0 0 35 40" fill="none" xmlns="http://www.w3.org/2000/svg">
<path d="M32.8358 15.0119V28.9596L17.322 37.9148L1.7997 28.9596V11.0405L17.322 2.07657L29.2451 8.96388L31.0448 7.92559L17.322 0L0 10.0022V29.9979L17.322 40L34.6442 29.9979V13.9736L32.8358 15.0119Z" fill="#8B8B8B"/>
<path d="M12.9788 28.9684H10.3831V20.264H19.0355C19.8541 20.255 20.6362 19.924 21.2127 19.3426C21.7891 18.7614 22.1135 17.9765 22.1157 17.1578C22.1204 16.753 22.0423 16.3515 21.8861 15.9781C21.7297 15.6045 21.4988 15.267 21.2072 14.9861C20.925 14.6962 20.5873 14.4662 20.2141 14.3101C19.8409 14.1539 19.44 14.0748 19.0355 14.0775H10.3831V11.4299H19.0441C20.5604 11.439 22.0121 12.0454 23.0843 13.1176C24.1565 14.1899 24.7629 15.6415 24.7719 17.1578C24.7812 18.3185 24.4274 19.453 23.7597 20.4024C23.1452 21.3109 22.2793 22.0205 21.2678 22.4444C20.2662 22.7621 19.2209 22.9198 18.1702 22.9117H12.9788V28.9684Z" fill="#8B8B8B"/>
<path d="M24.7114 28.752H21.683L19.3469 24.6768C20.2712 24.6202 21.1828 24.4338 22.0551 24.123L24.7114 28.752Z" fill="#8B8B8B"/>
<path d="M31.0273 12.1135L32.8184 13.1085L34.6095 12.1135V10.0109L32.8184 8.97266L31.0273 10.0109V12.1135Z" fill="#8B8B8B"/>
</svg>
