<svg width="30" height="45" viewBox="0 0 30 45" fill="none" xmlns="http://www.w3.org/2000/svg">
<path d="M15.72 15.5428C15.5709 15.5865 15.4342 15.6644 15.3208 15.7704C13.03 17.9039 10.9152 19.8668 8.97628 21.6589C8.93239 21.6997 8.89764 21.7494 8.8743 21.8045C8.85095 21.8597 8.83955 21.9191 8.84083 21.979C8.84797 22.2113 8.97742 22.3713 9.22917 22.459C10.9708 23.0611 12.6591 23.6537 14.2941 24.2369C14.3499 24.2572 14.3996 24.2914 14.4385 24.3363C14.4773 24.3811 14.5041 24.4351 14.5162 24.4931C14.5284 24.5511 14.5255 24.6113 14.5078 24.6679C14.4901 24.7245 14.4583 24.7756 14.4153 24.8165C12.3049 26.8054 10.1912 28.7719 8.07428 30.7158C7.96256 30.8175 7.81405 30.8092 7.62875 30.6909C7.5738 30.6552 7.53239 30.6022 7.51107 30.5404C7.48975 30.4785 7.48975 30.4113 7.51107 30.3495L8.40931 27.6932C8.53052 27.3376 8.41409 27.097 8.06004 26.9713L0.265009 24.2051C0.20069 24.1827 0.143272 24.144 0.0983174 24.0929C0.0533628 24.0418 0.0223956 23.98 0.00841589 23.9135C-0.0055638 23.847 -0.002082 23.778 0.0185238 23.7132C0.0391297 23.6484 0.0761611 23.59 0.126031 23.5437L25.1977 0.20263C25.3132 0.0941109 25.4607 0.0255384 25.6183 0.00704149C25.9628 -0.0332659 26.0852 0.0994746 25.9854 0.405263C24.3292 5.53056 22.6409 10.7554 20.9205 16.0797C20.8065 16.4306 20.9229 16.6664 21.2698 16.7873C24.1237 17.7995 26.8278 18.7691 29.3822 19.696C29.5201 19.7441 29.6422 19.829 29.7353 19.9414C29.7794 19.9951 29.8013 20.0636 29.7967 20.1329C29.7921 20.2023 29.7612 20.2672 29.7103 20.3147C20.9158 28.5693 12.2603 36.7113 3.74382 44.7405C3.51812 44.9539 3.30068 45.0357 3.09153 44.9859C2.88952 44.9384 2.8206 44.8176 2.88477 44.6232L5.31919 37.0704C5.41548 36.7712 5.58731 36.5018 5.81814 36.288L20.9061 22.2564C20.9582 22.2075 20.9969 22.1462 21.0186 22.0782C21.0402 22.0103 21.0441 21.9379 21.0299 21.868C21.0157 21.7985 20.9838 21.7338 20.9371 21.6803C20.8904 21.6268 20.8306 21.5863 20.7636 21.5628L15.4028 19.6609C15.2818 19.6181 15.1824 19.5298 15.1258 19.4148C15.0692 19.2999 15.0599 19.1674 15.0998 19.0457L16.1049 15.9414C16.1227 15.8874 16.1254 15.8295 16.1127 15.774C16.0999 15.7185 16.0723 15.6676 16.0327 15.6266C15.9931 15.5857 15.9431 15.5562 15.888 15.5415C15.8329 15.5268 15.7748 15.5274 15.72 15.5432V15.5428Z" fill="#8B8B8B"/>
</svg>
