<svg width="40" height="40" viewBox="0 0 40 40" fill="none" xmlns="http://www.w3.org/2000/svg">
<mask id="mask0_3002_779" style="mask-type:luminance" maskUnits="userSpaceOnUse" x="0" y="0" width="40" height="40">
<path d="M40 0H0V40H40V0Z" fill="white"/>
</mask>
<g mask="url(#mask0_3002_779)">
<path d="M40 20C40 31.0457 31.0457 40 20 40C8.95429 40 4.16667e-06 31.0457 0 20C-4.16666e-06 8.95433 8.95429 4.16667e-06 20 0C31.0456 -4.16666e-06 40 8.95433 40 20Z" fill="#8B8B8B"/>
<path fill-rule="evenodd" clip-rule="evenodd" d="M20.0004 9.2002C14.0357 9.2002 9.20044 14.0355 9.20044 20.0002C9.20044 20.5855 9.24694 21.16 9.33661 21.7202C9.39586 22.1025 9.61936 22.9318 10.0389 23.1896C10.5626 23.5114 11.1554 23.2348 11.6405 23.0084L11.6429 23.0072C12.0314 22.8259 13.172 22.2943 13.6938 22.051C13.8132 21.9916 14.1289 21.9119 14.4357 22.0689C14.8193 22.2653 14.9319 22.6687 14.909 22.9091C14.8862 23.1496 14.7569 23.4672 14.43 23.6186C14.1686 23.7398 12.6301 24.4568 11.8935 24.8002C11.7354 24.8613 11.3854 25.0903 11.2499 25.5175C11.0805 26.0515 11.3446 26.4636 11.4371 26.5821C11.5062 26.6762 11.7122 26.8864 11.9832 26.9741C12.3219 27.0837 12.6128 27.0419 12.8399 26.9382C13.0217 26.8554 16.6268 25.1739 18.4065 24.3437C18.5232 24.2859 18.8329 24.2104 19.1388 24.371C19.5211 24.5719 19.6312 24.9503 19.6119 25.1839C19.5925 25.4176 19.4632 25.7614 19.1445 25.91C18.8897 26.029 16.5219 27.1315 15.3699 27.6679C15.1668 27.7599 14.7545 28.0837 14.7304 28.6434C14.7004 29.343 15.1843 29.6747 15.3868 29.7679C15.5467 29.8504 15.9673 29.9684 16.3704 29.7819C16.7737 29.5953 21.0589 27.5968 23.151 26.6208C23.2751 26.5568 23.6124 26.4741 23.8998 26.6208C24.2763 26.8129 24.4014 27.1408 24.4014 27.3888C24.4014 27.6368 24.3901 27.8186 23.9978 28.1701C23.6546 28.4775 23.151 28.78 21.4352 29.5113C20.8474 29.7617 20.447 29.946 20.5129 30.2622C20.5624 30.4999 20.7354 30.5903 21.3099 30.5643C21.8846 30.5383 24.472 30.3352 27.0641 28.1701C29.3526 26.1898 30.8004 23.264 30.8004 20.0002C30.8004 18.7975 30.6039 17.6408 30.241 16.5603C30.1177 16.6119 29.9823 16.6403 29.8403 16.6403C29.2659 16.6403 28.8003 16.1747 28.8003 15.6003C28.8003 15.1868 29.0416 14.8297 29.3911 14.662C27.5327 11.3999 24.0234 9.2002 20.0004 9.2002ZM24.0005 16.0004C24.0005 16.5749 23.5349 17.0404 22.9605 17.0404C22.3861 17.0404 21.9205 16.5749 21.9205 16.0004C21.9205 15.4261 22.3861 14.9604 22.9605 14.9604C23.5349 14.9604 24.0005 15.4261 24.0005 16.0004Z" fill="white"/>
</g>
</svg>
