<svg width="32" height="32" viewBox="0 0 32 32" fill="none" xmlns="http://www.w3.org/2000/svg">
<path fill-rule="evenodd" clip-rule="evenodd" d="M26.7728 18.2123C26.2575 18.7275 25.362 18.4936 25.0579 17.8314C24.998 17.7009 24.9654 17.5609 24.9654 17.4173V6C24.9654 4.61928 23.8461 3.49999 22.4654 3.49999C21.0846 3.49999 19.9654 4.61928 19.9654 6V11.7786C19.9654 12.2755 19.4563 12.6128 18.9825 12.4631C18.6827 12.3683 18.466 12.0953 18.466 11.7808V2.50001C18.466 1.11929 17.3467 -3.62118e-07 15.966 0C14.5853 3.62118e-07 13.466 1.11929 13.466 2.50001V11.7801C13.466 12.0948 13.2492 12.368 12.9491 12.4628C12.475 12.6126 11.9657 12.2751 11.9657 11.7779V5.99999C11.9657 4.61928 10.8464 3.49998 9.46569 3.49999C8.08497 3.49999 6.96568 4.61928 6.96568 6L6.96569 17.4211C6.96569 17.562 6.93369 17.6994 6.87484 17.8274C6.57705 18.4751 5.70193 18.7018 5.19784 18.1977L4.26779 17.2677C3.29147 16.2914 1.70855 16.2914 0.732237 17.2677C-0.24408 18.244 -0.244078 19.8269 0.732238 20.8033L8.08179 28.1528C9.91204 30.4946 12.763 32 15.9655 32C19.0348 32 21.7812 30.6172 23.6156 28.4406L31.2529 20.8032C32.2292 19.8269 32.2292 18.244 31.2529 17.2677C30.2766 16.2914 28.6937 16.2914 27.7173 17.2677L26.7728 18.2123ZM15.9649 28.0001C20.3832 28.0001 23.965 23.0001 23.965 23.0001C23.965 23.0001 20.3832 18 15.9649 18C11.5466 18 7.96487 23.0001 7.96487 23.0001C7.96487 23.0001 11.5466 28.0001 15.9649 28.0001Z" fill="#8B8B8B"/>
<path d="M18.9659 23.0007C18.9659 24.6576 17.6227 26.0008 15.9658 26.0008C14.309 26.0008 12.9658 24.6576 12.9658 23.0007C12.9658 21.3439 14.309 20.0007 15.9658 20.0007C17.6227 20.0007 18.9659 21.3439 18.9659 23.0007Z" fill="#8B8B8B"/>
</svg>
