<svg width="40" height="40" viewBox="0 0 40 40" fill="none" xmlns="http://www.w3.org/2000/svg">
<path d="M40 0H0V40H40V0Z" fill="#8B8B8B"/>
<path d="M20.0026 7.23999C22.2586 7.23999 24.2266 7.68399 25.9066 8.57199C27.5866 9.45999 28.8826 10.78 29.7946 12.532C30.7306 14.26 31.1986 16.36 31.1986 18.832V32.8H26.5186V26.32H13.4146V32.8H8.80664V18.832C8.80664 16.36 9.26264 14.26 10.1746 12.532C11.1106 10.78 12.4186 9.45999 14.0986 8.57199C15.7786 7.68399 17.7466 7.23999 20.0026 7.23999ZM26.5186 22.396V18.4C26.5186 16.072 25.9426 14.32 24.7906 13.144C23.6386 11.944 22.0306 11.344 19.9666 11.344C17.9026 11.344 16.2946 11.944 15.1426 13.144C13.9906 14.32 13.4146 16.072 13.4146 18.4V22.396H26.5186Z" fill="white"/>
</svg>
