<svg width="50" height="23" viewBox="0 0 50 23" fill="none" xmlns="http://www.w3.org/2000/svg">
<path d="M37.3151 9.29404C36.2706 8.24952 36.2706 6.55604 37.3151 5.51152C38.3596 4.46701 40.0531 4.46701 41.0977 5.51152C42.1422 6.55604 42.1422 8.24952 41.0977 9.29404C40.0531 10.3385 38.3596 10.3385 37.3151 9.29404ZM28.3317 18.2775C27.5483 17.4941 27.5483 16.224 28.3317 15.4406C29.1151 14.6572 30.3852 14.6572 31.1686 15.4406C31.9519 16.224 31.9519 17.4941 31.1686 18.2775C30.3852 19.0609 29.1151 19.0609 28.3317 18.2775ZM42.5161 13.5494C41.7327 12.766 41.7327 11.4959 42.5161 10.7125C43.2995 9.92909 44.5696 9.92909 45.353 10.7125C46.1364 11.4959 46.1364 12.766 45.353 13.5494C44.5696 14.3327 43.2995 14.3327 42.5161 13.5494ZM37.788 18.2775C37.0046 17.4941 37.0046 16.224 37.788 15.4406C38.5713 14.6572 39.8414 14.6572 40.6248 15.4406C41.4082 16.224 41.4082 17.4941 40.6248 18.2775C39.8414 19.0609 38.5713 19.0609 37.788 18.2775ZM47.717 17.8047C47.1948 17.2824 47.1948 16.4357 47.717 15.9134C48.2393 15.3912 49.0861 15.3912 49.6083 15.9134C50.1306 16.4357 50.1306 17.2824 49.6083 17.8047C49.0861 18.3269 48.2393 18.3269 47.717 17.8047ZM42.9889 22.5328C42.4667 22.0106 42.4667 21.1638 42.9889 20.6416C43.5112 20.1193 44.3579 20.1193 44.8802 20.6416C45.4024 21.1638 45.4024 22.0106 44.8802 22.5328C44.3579 23.0551 43.5112 23.0551 42.9889 22.5328ZM32.587 14.0222C31.5425 12.9777 31.5425 11.2842 32.587 10.2397C33.6315 9.19515 35.325 9.19515 36.3695 10.2397C37.414 11.2842 37.414 12.9777 36.3695 14.0222C35.325 15.0667 33.6315 15.0667 32.587 14.0222ZM32.587 4.5659C31.5425 3.52138 31.5425 1.8279 32.587 0.783384C33.6315 -0.261128 35.325 -0.261128 36.3695 0.783384C37.414 1.8279 37.414 3.52138 36.3695 4.5659C35.325 5.61041 33.6315 5.61041 32.587 4.5659ZM27.8589 9.29404C26.8143 8.24952 26.8143 6.55604 27.8589 5.51152C28.9034 4.46701 30.5969 4.46701 31.6414 5.51152C32.6859 6.55604 32.6859 8.24952 31.6414 9.29404C30.5969 10.3385 28.9034 10.3385 27.8589 9.29404ZM18.3586 9.29404C17.3141 8.24952 17.3141 6.55604 18.3586 5.51152C19.4031 4.46701 21.0966 4.46701 22.1411 5.51152C23.1856 6.55604 23.1856 8.24952 22.1411 9.29404C21.0966 10.3385 19.4031 10.3385 18.3586 9.29404ZM9.37516 18.2775C8.59177 17.4941 8.59177 16.224 9.37516 15.4406C10.1585 14.6572 11.4287 14.6572 12.212 15.4406C12.9954 16.224 12.9954 17.4941 12.212 18.2775C11.4287 19.0609 10.1585 19.0609 9.37516 18.2775ZM23.5596 13.5494C22.7762 12.766 22.7762 11.4959 23.5596 10.7125C24.343 9.92909 25.6131 9.92909 26.3965 10.7125C27.1798 11.4959 27.1798 12.766 26.3965 13.5494C25.6131 14.3327 24.343 14.3327 23.5596 13.5494ZM18.8314 18.2775C18.0481 17.4941 18.0481 16.224 18.8314 15.4406C19.6148 14.6572 20.8849 14.6572 21.6683 15.4406C22.4517 16.224 22.4517 17.4941 21.6683 18.2775C20.8849 19.0609 19.6148 19.0609 18.8314 18.2775ZM0.391692 17.8047C-0.130564 17.2824 -0.130564 16.4357 0.391692 15.9134C0.913948 15.3912 1.76069 15.3912 2.28295 15.9134C2.8052 16.4357 2.8052 17.2824 2.28295 17.8047C1.76069 18.3269 0.913948 18.3269 0.391692 17.8047ZM5.11983 22.5328C4.59758 22.0106 4.59758 21.1638 5.11983 20.6416C5.64209 20.1193 6.48883 20.1193 7.01109 20.6416C7.53334 21.1638 7.53334 22.0106 7.01109 22.5328C6.48883 23.0551 5.64209 23.0551 5.11983 22.5328ZM24.0324 22.5328C23.5101 22.0106 23.5101 21.1638 24.0324 20.6416C24.5547 20.1193 25.4014 20.1193 25.9237 20.6416C26.4459 21.1638 26.4459 22.0106 25.9237 22.5328C25.4014 23.0551 24.5547 23.0551 24.0324 22.5328ZM4.64702 13.5494C3.86363 12.766 3.86363 11.4959 4.64702 10.7125C5.4304 9.92909 6.70052 9.92909 7.4839 10.7125C8.26729 11.4959 8.26729 12.766 7.4839 13.5494C6.70052 14.3327 5.4304 14.3327 4.64702 13.5494ZM13.6305 14.0222C12.586 12.9777 12.586 11.2842 13.6305 10.2397C14.675 9.19515 16.3685 9.19515 17.413 10.2397C18.4575 11.2842 18.4575 12.9777 17.413 14.0222C16.3685 15.0667 14.675 15.0667 13.6305 14.0222ZM13.6305 4.5659C12.586 3.52138 12.586 1.8279 13.6305 0.783384C14.675 -0.261128 16.3685 -0.261128 17.413 0.783384C18.4575 1.8279 18.4575 3.52138 17.413 4.5659C16.3685 5.61041 14.675 5.61041 13.6305 4.5659ZM8.90234 9.29404C7.85783 8.24952 7.85783 6.55604 8.90234 5.51152C9.94686 4.46701 11.6403 4.46701 12.6849 5.51152C13.7294 6.55604 13.7294 8.24952 12.6849 9.29404C11.6403 10.3385 9.94686 10.3385 8.90234 9.29404Z" fill="#8B8B8B"/>
</svg>
