<svg width="70" height="53" viewBox="0 0 70 53" fill="none" xmlns="http://www.w3.org/2000/svg">
<path fill-rule="evenodd" clip-rule="evenodd" d="M35 4.50244C47.0121 4.50244 56.7476 14.2379 56.7476 26.25C56.7476 38.2621 47.0121 47.9976 35 47.9976C22.9879 47.9976 13.2524 38.2621 13.2524 26.25C13.2524 14.2379 22.9879 4.50244 35 4.50244Z" fill="#8B8B8B"/>
<path d="M27.0741 21.2973C31.4491 17.0243 38.551 17.0243 42.926 21.2973L43.4527 21.8155C43.6736 22.0279 43.6736 22.3762 43.4527 22.5886L41.6518 24.3471C41.5413 24.4575 41.3629 24.4575 41.2525 24.3471L40.5304 23.642C37.4722 20.6602 32.528 20.6602 29.4697 23.642L28.6967 24.3981C28.5862 24.5085 28.4078 24.5085 28.2974 24.3981L26.4964 22.6396C26.2755 22.4272 26.2755 22.0789 26.4964 21.8665L27.0741 21.2973ZM46.6554 24.9332L48.261 26.4964C48.4819 26.7087 48.4819 27.057 48.261 27.2694L41.0316 34.3289C40.8107 34.5413 40.4539 34.5413 40.2416 34.3289L35.1105 29.3167C35.0595 29.2658 34.9661 29.2658 34.9151 29.3167L29.784 34.3289C29.5632 34.5413 29.2064 34.5413 28.994 34.3289L21.7391 27.2694C21.5183 27.057 21.5183 26.7087 21.7391 26.4964L23.3447 24.9332C23.5656 24.7209 23.9224 24.7209 24.1348 24.9332L29.2658 29.9454C29.3168 29.9964 29.4103 29.9964 29.4612 29.9454L34.5923 24.9332C34.8132 24.7209 35.17 24.7209 35.3823 24.9332L40.5134 29.9454C40.5644 29.9964 40.6578 29.9964 40.7088 29.9454L45.8399 24.9332C46.0777 24.7209 46.4345 24.7209 46.6554 24.9332Z" fill="white"/>
</svg>
