<svg width="40" height="40" viewBox="0 0 40 40" fill="none" xmlns="http://www.w3.org/2000/svg">
<g clip-path="url(#clip0_3000_820)">
<path fill-rule="evenodd" clip-rule="evenodd" d="M1.34549 6.8208C-0.0161133 9.496 -0.0161133 13.0032 -0.0161133 20C-0.0161133 27.0144 -0.0161133 30.504 1.34549 33.1792C2.54709 35.5328 4.46869 37.4384 6.80629 38.64C9.47989 40 12.9871 40 19.9839 40C26.9983 40 30.4879 40 33.1631 38.6384C35.5167 37.4368 37.4223 35.5152 38.6239 33.1776C39.9855 30.504 39.9855 26.9968 39.9855 19.9984C39.9855 12.984 39.9855 9.4944 38.6239 6.8192C37.4223 4.4656 35.5007 2.56 33.1631 1.3584C30.4879 0 26.9807 0 19.9839 0C12.9695 0 9.47989 0 6.80469 1.3616C4.45109 2.5616 2.54549 4.4832 1.34549 6.8208ZM29.9919 10.792C30.3439 10.792 30.6799 10.936 30.9199 11.176C31.1599 11.432 31.3039 11.768 31.2879 12.104C31.2239 15.8352 31.0799 18.6848 30.8079 20.9424C30.5519 23.2 30.1519 24.8816 29.5583 26.2272C29.1583 27.1392 28.6623 27.8928 28.0847 28.5168C27.3007 29.3648 26.4031 29.9744 25.4271 30.5504C25.0111 30.8064 24.5791 31.0464 24.1135 31.3024C23.1375 31.8464 22.0799 32.456 20.8623 33.272C20.4303 33.56 19.8527 33.56 19.4207 33.272C18.1871 32.456 17.1151 31.8464 16.1375 31.2864C15.9135 31.1584 15.7055 31.0464 15.4975 30.9184C14.3599 30.2624 13.3199 29.6208 12.4223 28.7088C11.8143 28.1008 11.3007 27.3792 10.8847 26.4992C10.3247 25.3296 9.94069 23.9216 9.65109 22.112C9.28309 19.6784 9.09109 16.4912 9.02709 12.072C9.02709 11.736 9.15509 11.384 9.39509 11.144C9.63509 10.904 9.97109 10.76 10.3231 10.76H10.8671C12.5327 10.76 16.1839 10.6 19.3535 8.1344C19.8175 7.7664 20.4751 7.7664 20.9551 8.1344C24.1263 10.6 27.7759 10.76 29.4415 10.76H29.9855V10.792H29.9919ZM27.0783 25.4128C27.4783 24.5808 27.8303 23.4112 28.0879 21.7456C28.3919 19.76 28.5839 17.0544 28.6639 13.3712C26.7103 13.3072 23.3631 12.9392 20.1615 10.7936C16.9583 12.9392 13.6127 13.3072 11.6751 13.3712C11.7391 16.4144 11.8831 18.784 12.1071 20.6416C12.3631 22.7552 12.7151 24.1808 13.1647 25.1888C13.4527 25.8608 13.7887 26.3424 14.1743 26.7584C14.6863 27.3344 15.3439 27.8 16.2399 28.328C16.6079 28.552 17.0239 28.776 17.4735 29.032C18.2735 29.48 19.1711 29.992 20.1951 30.6336C21.1871 29.9936 22.0847 29.496 22.8687 29.048C23.1087 28.92 23.3327 28.792 23.5407 28.664C24.6463 28.04 25.4623 27.5104 26.0543 26.8864C26.4543 26.4704 26.7903 26.0064 27.0959 25.3808L27.0783 25.4128Z" fill="#8B8B8B"/>
</g>
<defs>
<clipPath id="clip0_3000_820">
<rect width="40" height="40" fill="white"/>
</clipPath>
</defs>
</svg>
