<svg width="70" height="70" viewBox="0 0 70 70" fill="none" xmlns="http://www.w3.org/2000/svg">
<path fill-rule="evenodd" clip-rule="evenodd" d="M35 52.5C47.0813 52.5 52.5 47.0813 52.5 35C52.5 22.9188 47.0813 17.5 35 17.5C22.9188 17.5 17.5 22.9188 17.5 35C17.5 47.0813 22.9188 52.5 35 52.5ZM31.7127 24.9207H36.5811V32.9433H33.5626V27.5032H30.8586L31.7127 24.9207ZM35 45.0793C38.0664 45.0793 40.5524 42.5935 40.5524 39.5272C40.5524 36.4608 38.0664 33.975 35 33.975C31.9336 33.975 29.4479 36.4608 29.4479 39.5272C29.4479 42.5935 31.9336 45.0793 35 45.0793ZM35 42.5588C36.6744 42.5588 38.0316 41.2016 38.0316 39.5272C38.0316 37.853 36.6744 36.4955 35 36.4955C33.3258 36.4955 31.9686 37.853 31.9686 39.5272C31.9686 41.2016 33.3258 42.5588 35 42.5588Z" fill="#8B8B8B"/>
</svg>
