<svg width="80" height="27" viewBox="0 0 80 27" fill="none" xmlns="http://www.w3.org/2000/svg">
<g clip-path="url(#clip0_3002_762)">
<path d="M68.3576 25.2998V26.9996H79.9102V19.3334H78.2268V25.2998H68.3576ZM68.3576 0V1.69983H78.2268V7.66657H79.9102V0H68.3576ZM62.4 13.1501V9.20021H65.0406C66.3281 9.20021 66.7902 9.63343 66.7902 10.8169V11.5168C66.7902 12.7334 66.3444 13.1501 65.0406 13.1501H62.4ZM66.5918 13.8499C67.7963 13.5333 68.6379 12.3998 68.6379 11.0501C68.6379 10.2002 68.3081 9.43336 67.6811 8.8166C66.8888 8.04978 65.8323 7.66657 64.4627 7.66657H60.7495V19.333H62.4V14.6833H64.8756C66.1462 14.6833 66.658 15.2166 66.658 16.5501V19.3334H68.3413V16.8168C68.3413 14.9834 67.9123 14.2836 66.5918 14.0835V13.8499ZM52.696 14.2331H57.7792V12.6999H52.696V9.19981H58.2743V7.66657H51.0124V19.333H58.5218V17.7998H52.696V14.2331ZM47.167 14.8499V15.6498C47.167 17.3331 46.5562 17.8833 45.0216 17.8833H44.6586C43.1236 17.8833 42.381 17.3831 42.381 15.0665V11.9331C42.381 9.59996 43.1568 9.11632 44.6914 9.11632H45.0212C46.5232 9.11632 47.0018 9.68304 47.0181 11.2498H48.8336C48.6686 8.94972 47.1503 7.49999 44.8727 7.49999C43.7671 7.49999 42.8428 7.8501 42.1498 8.5165C41.11 9.49993 40.5324 11.1667 40.5324 13.4998C40.5324 15.7498 41.0277 17.4166 42.0508 18.4496C42.7438 19.133 43.7011 19.4996 44.6419 19.4996C45.632 19.4996 46.5399 19.0995 47.0018 18.233H47.2326V19.333H48.7509V13.3167H44.2784V14.8499H47.167ZM32.6112 9.19981H34.4102C36.1103 9.19981 37.0346 9.63303 37.0346 11.9666V15.033C37.0346 17.3662 36.1103 17.7998 34.4102 17.7998H32.6112V9.19981ZM34.5585 19.3334C37.7109 19.3334 38.8823 16.9168 38.8823 13.5002C38.8823 10.0336 37.6282 7.66697 34.5253 7.66697H30.9604V19.3334H34.5585ZM22.9897 14.2331H28.0729V12.6999H22.9897V9.19981H28.5677V7.66657H21.3059V19.333H28.8155V17.7998H22.9897V14.2331ZM13.2525 7.66657H11.5693V19.333H19.161V17.7998H13.2525V7.66657ZM0 19.3334V27H11.5525V25.2998H1.68323V19.3334H0ZM0 0V7.66657H1.68323V1.69983H11.5525V0H0Z" fill="#8B8B8B"/>
</g>
<defs>
<clipPath id="clip0_3002_762">
<rect width="80" height="27" fill="white"/>
</clipPath>
</defs>
</svg>
