<svg width="60" height="37" viewBox="0 0 60 37" fill="none" xmlns="http://www.w3.org/2000/svg">
<g clip-path="url(#clip0_3002_764)">
<path d="M32.7377 8.71166C32.709 8.6391 32.6627 8.57481 32.6029 8.52457C32.5432 8.47433 32.472 8.43972 32.3956 8.42385C32.3192 8.40798 32.24 8.41135 32.1652 8.43365C32.0905 8.45595 32.0224 8.49649 31.9672 8.55162L31.0143 9.50447L30.858 9.6608L23.2854 2.14032C21.9084 0.769416 20.0445 -0.000244141 18.1015 -0.000244141C16.1584 -0.000244141 14.2945 0.769416 12.9176 2.14032L2.14025 12.9344C0.768958 14.3198 -0.000244141 16.1904 -0.000244141 18.1397C-0.000244141 20.089 0.768958 21.9596 2.14025 23.345L12.9343 34.0777C14.3086 35.4492 16.171 36.2196 18.1126 36.2196C20.0543 36.2196 21.9167 35.4492 23.291 34.0777L25.7439 31.6248C26.1414 31.25 26.4509 30.7917 26.6502 30.283C26.8149 29.8217 26.867 29.3277 26.8023 28.8421C26.7375 28.3566 26.5578 27.8935 26.278 27.4914C26.1709 27.3364 26.0494 27.1918 25.9151 27.0597C25.3367 26.4946 24.5592 26.1797 23.7506 26.1832C22.942 26.1867 22.1672 26.5082 21.5937 27.0783L18.9473 29.7265C18.7895 29.8871 18.5884 29.9983 18.3685 30.0467C18.1613 30.0991 17.9428 30.0861 17.7432 30.0094C17.5324 29.937 17.3413 29.8166 17.1849 29.6577L6.46904 18.9418C6.28005 18.7564 6.15895 18.5127 6.12519 18.2501C6.09143 17.9875 6.14699 17.7211 6.28293 17.4939L6.33876 17.4307C6.46345 17.3022 17.1533 6.6366 17.2501 6.53425C17.4191 6.36477 17.6361 6.25112 17.8716 6.20856C17.9429 6.19556 18.0151 6.18871 18.0875 6.18809C18.2432 6.18769 18.3974 6.21824 18.5412 6.27799C18.685 6.33774 18.8154 6.42548 18.925 6.5361L26.4752 14.0342L26.103 14.4065L25.3586 15.1509C25.3034 15.206 25.2628 15.2739 25.2404 15.3486C25.2179 15.4233 25.2144 15.5023 25.2301 15.5787C25.2458 15.6551 25.2802 15.7264 25.3302 15.7862C25.3803 15.846 25.4444 15.8924 25.5168 15.9213L32.3282 16.7588C32.6108 16.7549 32.8806 16.6406 33.0799 16.4402C33.2792 16.2399 33.3922 15.9694 33.3946 15.6869L32.7377 8.71166Z" fill="#8B8B8B"/>
<path opacity="0.49" d="M6.39645 18.8561C6.24201 18.6679 6.15005 18.4364 6.13338 18.1935C6.1167 17.9507 6.17613 17.7087 6.3034 17.5012C6.3034 17.5012 2.75626 21.3703 4.46097 25.6545L6.70539 27.8877L9.97709 22.4535L6.39645 18.8561Z" fill="#8B8B8B"/>
<path opacity="0.49" d="M17.4417 29.8847C21.4392 33.5584 25.8424 31.5113 25.8424 31.5113C26.1995 31.1669 26.4755 30.7473 26.6501 30.283C26.0583 29.9927 21.7611 26.9182 21.7611 26.9182L19.2245 29.4641C18.3145 30.551 17.4417 29.8847 17.4417 29.8847Z" fill="#8B8B8B"/>
<path opacity="0.49" d="M14.8083 9.01122C14.8083 9.01122 17.3709 6.43368 17.3765 6.44484C17.3821 6.45601 18.0595 5.8977 18.7779 6.40204C18.7779 6.40204 14.5217 2.89769 9.96957 5.09931L8.63892 6.43181L14.8083 9.01122Z" fill="#8B8B8B"/>
<path d="M27.2623 27.5025C27.2906 27.5754 27.3368 27.64 27.3964 27.6905C27.4561 27.7411 27.5275 27.7759 27.6041 27.7918C27.6807 27.8077 27.76 27.8042 27.8349 27.7816C27.9097 27.759 27.9778 27.7181 28.0328 27.6625L28.9856 26.7115L29.142 26.5533L36.7146 34.0757C38.0913 35.447 39.9553 36.217 41.8985 36.217C43.8417 36.217 45.7057 35.447 47.0824 34.0757L57.8597 23.2816C59.231 21.8962 60.0002 20.0256 60.0002 18.0763C60.0002 16.127 59.231 14.2564 57.8597 12.871L47.0657 2.13646C45.6909 0.765786 43.8287 -0.00390625 41.8873 -0.00390625C39.946 -0.00390625 38.0838 0.765786 36.709 2.13646L34.2617 4.5949C33.8602 4.96644 33.5467 5.42296 33.3442 5.93112C33.1801 6.39309 33.1284 6.88751 33.1935 7.37343C33.2685 7.94101 33.5011 8.47622 33.8647 8.91841C34.2284 9.36061 34.7086 9.69211 35.251 9.87537C35.7934 10.0586 36.3763 10.0863 36.9337 9.95526C37.491 9.82423 38.0005 9.53973 38.4044 9.13398L41.0508 6.48758C41.209 6.3272 41.4099 6.21548 41.6296 6.16562C41.8368 6.11312 42.0553 6.12612 42.2549 6.20284C42.4649 6.27685 42.6557 6.39704 42.8132 6.55457L53.5291 17.2705C53.7178 17.4561 53.8387 17.6997 53.8724 17.9622C53.9062 18.2248 53.8508 18.491 53.7152 18.7183L53.6594 18.7835C53.5347 18.91 42.8448 29.5775 42.7481 29.678C42.5796 29.8487 42.3625 29.9631 42.1265 30.0056C42.0552 30.018 41.983 30.0242 41.9106 30.0242C41.7549 30.0246 41.6007 29.994 41.4569 29.9343C41.3131 29.8745 41.1827 29.7868 41.0731 29.6762L33.5229 22.1799L33.8951 21.8077L34.6395 21.0633C34.6942 21.0079 34.7345 20.94 34.7566 20.8654C34.7788 20.7908 34.7822 20.7119 34.7665 20.6357C34.7509 20.5595 34.7167 20.4883 34.6669 20.4285C34.6171 20.3687 34.5534 20.3221 34.4813 20.2928L27.6699 19.4572C27.387 19.4601 27.1166 19.5742 26.9171 19.7747C26.7176 19.9753 26.605 20.2462 26.6035 20.5291L27.2623 27.5025Z" fill="#8B8B8B"/>
<path opacity="0.49" d="M53.6036 17.3673C53.7578 17.5556 53.8496 17.7871 53.8662 18.0299C53.8829 18.2727 53.8236 18.5146 53.6966 18.7222C53.6966 18.7222 57.2438 14.8549 55.5391 10.5689L53.2947 8.33569L50.0229 13.7699L53.6036 17.3673Z" fill="#8B8B8B"/>
<path opacity="0.49" d="M42.5583 6.3293C38.5626 2.65002 34.1575 4.6953 34.1575 4.6953C33.7977 5.04146 33.5199 5.46366 33.3442 5.93103C33.936 6.22136 38.2332 9.29766 38.2332 9.29766L40.7754 6.7592C41.6854 5.66491 42.5583 6.3293 42.5583 6.3293Z" fill="#8B8B8B"/>
<path opacity="0.49" d="M45.1918 27.2029C45.1918 27.2029 42.6291 29.7823 42.6235 29.7711C42.618 29.76 41.9405 30.3183 41.2222 29.8139C41.2222 29.8139 45.4784 33.3164 50.0305 31.1167L51.3611 29.7841L45.1918 27.2029Z" fill="#8B8B8B"/>
</g>
<defs>
<clipPath id="clip0_3002_764">
<rect width="60" height="36.2159" fill="white"/>
</clipPath>
</defs>
</svg>
