<svg width="40" height="40" viewBox="0 0 40 40" fill="none" xmlns="http://www.w3.org/2000/svg">
<g clip-path="url(#clip0_3002_807)">
<path d="M23.5256 22.4357C20.4906 24.3265 16.4284 25.3002 12.3143 25.0923C8.85522 24.9221 6.01826 23.6742 4.30287 21.6227C2.79484 19.7886 2.21047 17.3684 2.60633 14.5841C2.7405 13.6588 3.01546 12.7598 3.42161 11.9182L3.47817 11.8C4.90203 9.05035 7.01512 6.71995 9.60947 5.03819C12.2039 3.35643 15.1901 2.38123 18.2743 2.20859C21.3585 2.03595 24.4344 2.6718 27.1992 4.05357C29.964 5.43534 32.3225 7.51542 34.0425 10.089C35.7626 12.6627 36.7849 15.6412 37.0088 18.7315C37.2328 21.8218 36.6507 24.9173 35.3198 27.7134C33.9889 30.5095 31.9551 32.9099 29.4186 34.6782C26.882 36.4464 23.9302 37.5218 20.8535 37.7984L21.042 39.9681C24.4964 39.6595 27.8109 38.4535 30.6592 36.469C33.5076 34.4846 35.7913 31.79 37.2856 28.6509C38.7797 25.5117 39.4329 22.0363 39.1807 18.5669C38.9283 15.0975 37.7794 11.7539 35.8468 8.86552C33.9143 5.97706 31.2649 3.64344 28.1597 2.09453C25.0544 0.545618 21.6005 -0.165139 18.1381 0.0322754C14.6757 0.22969 11.3243 1.32847 8.41399 3.22035C5.50372 5.11225 3.13505 7.73195 1.54129 10.8215L1.46588 10.9775C0.962044 12.0218 0.621879 13.1379 0.457388 14.2864C-0.0138719 17.6803 0.716576 20.7009 2.62518 23.0266C4.71286 25.5697 8.11062 27.0823 12.187 27.2808C17.1494 27.5314 22.0835 26.1747 25.5849 23.6789L23.5256 22.4357Z" fill="#8B8B8B"/>
<path d="M27.6771 24.9031C25.7025 26.6237 21.1124 29.7435 13.4969 30.169C4.97179 30.6417 1.41849 27.8622 1.3855 27.8338L0.697462 28.6847L1.39021 27.848L0 29.5214C0.150803 29.649 3.558 32.4096 11.56 32.4096C12.215 32.4096 12.9031 32.4096 13.6194 32.3528C22.8231 31.8376 27.8797 27.8102 29.6422 26.0896L27.6771 24.9031Z" fill="#8B8B8B"/>
<path d="M31.3725 27.1534C30.2049 28.6929 28.7676 30.0064 27.1312 31.0296C21.3629 34.7639 14.0254 35.2461 8.88863 34.9861L8.78027 37.1652C9.64265 37.2078 10.4721 37.2267 11.278 37.2267C25.7645 37.2267 31.6175 30.6089 33.2528 28.2454L31.3678 27.1345" fill="#8B8B8B"/>
<path d="M30.8208 18.9023C31.7811 18.9023 32.5596 18.1214 32.5596 17.1582C32.5596 16.195 31.7811 15.4141 30.8208 15.4141C29.8605 15.4141 29.082 16.195 29.082 17.1582C29.082 18.1214 29.8605 18.9023 30.8208 18.9023Z" fill="#8B8B8B"/>
</g>
<defs>
<clipPath id="clip0_3002_807">
<rect width="39.2337" height="40" fill="white"/>
</clipPath>
</defs>
</svg>
