<svg width="36" height="36" viewBox="0 0 36 36" fill="none" xmlns="http://www.w3.org/2000/svg">
<path d="M36 17.5272V18.4728C33.0588 18.9377 26.7516 20.0276 23.65 21.2137C22.5441 21.6385 21.6625 22.512 21.2297 23.61C20.0356 26.6955 18.9377 33.0427 18.4728 36H17.5272C17.0543 33.0508 15.9644 26.7035 14.7703 23.61C14.3375 22.504 13.4559 21.6305 12.35 21.2137C9.24844 20.0276 2.94123 18.9377 0 18.4728V17.5272C2.94123 17.0623 9.24844 15.9724 12.35 14.7863C13.4559 14.3615 14.3375 13.488 14.7703 12.39C15.9644 9.30454 17.0623 2.95726 17.5272 0H18.4728C18.9457 2.94924 20.0356 9.29653 21.2297 12.39C21.6625 13.496 22.5441 14.3695 23.65 14.7863C26.7516 15.9724 33.0588 17.0623 36 17.5272Z" fill="#8B8B8B"/>
</svg>
