<svg width="48" height="48" viewBox="0 0 48 48" fill="none" xmlns="http://www.w3.org/2000/svg">
<path d="M23.9966 13.5507C27.5801 13.5507 30.4851 11.8604 30.4851 9.77537C30.4851 7.69029 27.5801 6 23.9966 6C20.4131 6 17.5081 7.69029 17.5081 9.77537C17.5081 11.8604 20.4131 13.5507 23.9966 13.5507Z" fill="#8B8B8B"/>
<path d="M23.9966 41.9974C27.5801 41.9974 30.4851 40.3072 30.4851 38.2221C30.4851 36.137 27.5801 34.4467 23.9966 34.4467C20.4131 34.4467 17.5081 36.137 17.5081 38.2221C17.5081 40.3072 20.4131 41.9974 23.9966 41.9974Z" fill="#8B8B8B"/>
<path d="M14.9543 18.7767C16.7461 15.672 16.7345 12.3095 14.9284 11.2662C13.1223 10.223 10.2056 11.8941 8.41388 14.9988C6.62213 18.1035 6.63376 21.4661 8.43986 22.5093C10.246 23.5526 13.1626 21.8814 14.9543 18.7767Z" fill="#8B8B8B"/>
<path d="M39.5763 32.9984C41.3681 29.8937 41.3574 26.5317 39.5525 25.4892C37.7477 24.4466 34.832 26.1183 33.0403 29.223C31.2485 32.3277 31.2592 35.6897 33.0641 36.7322C34.8689 37.7748 37.7846 36.1031 39.5763 32.9984Z" fill="#8B8B8B"/>
<path d="M14.9293 36.7314C16.7354 35.6881 16.747 32.3256 14.9553 29.2209C13.1635 26.1162 10.2469 24.4451 8.44077 25.4883C6.63467 26.5315 6.62304 29.8941 8.4148 32.9988C10.2066 36.1035 13.1232 37.7746 14.9293 36.7314Z" fill="#8B8B8B"/>
<path d="M39.5541 22.5102C41.359 21.4676 41.3696 18.1056 39.5779 15.0009C37.7861 11.8962 34.8705 10.2245 33.0656 11.2671C31.2607 12.3096 31.2501 15.6716 33.0418 18.7763C34.8336 21.881 37.7492 23.5527 39.5541 22.5102Z" fill="#8B8B8B"/>
</svg>
