<svg width="63" height="70" viewBox="0 0 63 70" fill="none" xmlns="http://www.w3.org/2000/svg">
<g clip-path="url(#clip0_3002_887)">
<mask id="mask0_3002_887" style="mask-type:luminance" maskUnits="userSpaceOnUse" x="0" y="0" width="63" height="70">
<path d="M62.2125 0H0V70H62.2125V0Z" fill="white"/>
</mask>
<g mask="url(#mask0_3002_887)">
<path d="M32.286 25.368C28.5711 25.368 24.9451 26.8004 22.2343 29.3414C19.2611 32.1292 17.3795 36.2462 16.301 40.1191C15.5946 42.6535 15.2407 45.282 15.2407 47.9118C15.2407 48.707 15.2734 49.4957 15.336 50.2752C15.4131 51.2232 16.3362 51.88 17.2555 51.6319C18.0572 51.4164 18.9007 51.3002 19.7704 51.3002C21.5566 51.3002 23.2306 51.786 24.6656 52.6347C24.7009 52.6556 24.7348 52.6765 24.7701 52.6961C27.1022 54.0867 29.8534 54.8506 32.7874 54.7526C40.4404 54.4993 46.6923 48.2722 46.9744 40.6205C47.2825 32.2493 40.5893 25.3667 32.2873 25.3667L32.286 25.368ZM32.286 46.781C28.5764 46.781 25.5692 43.7739 25.5692 40.0655C25.5692 36.3572 28.5764 33.3488 32.286 33.3488C35.9956 33.3488 39.0028 36.3559 39.0028 40.0655C39.0028 43.7752 35.9956 46.781 32.286 46.781Z" fill="#8B8B8B"/>
<path d="M26.2431 20.7405C26.2431 22.6769 25.2285 24.4736 23.5624 25.4608C22.5165 26.081 21.5358 26.8135 20.6479 27.6479C18.6775 29.4942 17.2073 31.7597 16.1183 34.0056C15.9041 34.4482 15.2395 34.2916 15.2395 33.7993V20.7405C15.2395 17.702 17.7035 15.238 20.7419 15.238C23.7804 15.238 26.2444 17.702 26.2444 20.7405H26.2431Z" fill="#8B8B8B"/>
</g>
</g>
<defs>
<clipPath id="clip0_3002_887">
<rect width="62.2125" height="70" fill="white"/>
</clipPath>
</defs>
</svg>
