<svg width="36" height="36" viewBox="0 0 36 36" fill="none" xmlns="http://www.w3.org/2000/svg">
<path d="M28.1328 0H7.70703C3.45056 0 0 3.45056 0 7.70703V28.1328C0 32.3893 3.45056 35.8398 7.70703 35.8398H28.1328C32.3893 35.8398 35.8398 32.3893 35.8398 28.1328V7.70703C35.8398 3.45056 32.3893 0 28.1328 0Z" fill="#8B8B8B"/>
<path d="M18.8604 35.8398H16.7061L7.76172 10.8525L6.97949 8.66699L6.99121 8.61719L9.28711 9.11035L9.87695 10.7598L10.0889 11.3535L10.9873 13.8623L18.8604 35.8398Z" fill="white"/>
<path d="M28.8301 27.7393L28.6875 29.8545L28.2822 35.8398H26.2559L26.7764 28.1289L26.8105 27.6045L28.8301 27.7393Z" fill="white"/>
<path d="M35.8398 18.6211V21.4805L30.3252 26.9951L29.3965 27.9238L27.9668 26.4941L35.8398 18.6211Z" fill="white"/>
<path d="M35.8398 26.0479V28.1016L27.5469 29.5234L27.2031 27.5313L35.8398 26.0479Z" fill="white"/>
<path d="M6.97949 8.66699L6.99121 8.61719L9.28711 9.11035L35.8398 14.8057V16.8721L10.0889 11.3535L7.76172 10.8525L6.97949 8.66699Z" fill="white"/>
<path d="M10.1901 10.4132L8.8335 11.9146L28.0488 29.2769L29.4054 27.7756L10.1901 10.4132Z" fill="white"/>
</svg>
