<svg width="80" height="12" viewBox="0 0 80 12" fill="none" xmlns="http://www.w3.org/2000/svg">
<g clip-path="url(#clip0_3003_910)">
<path fill-rule="evenodd" clip-rule="evenodd" d="M63.4295 4.72751L63.6597 5.12216C63.5095 5.11366 63.3785 5.10511 63.2665 5.0965L63.2652 5.09641C62.9815 5.07368 62.6942 5.02273 62.4031 4.94455L62.4012 4.94403L62.3994 4.9435C62.1034 4.8606 61.8332 4.72674 61.6548 4.50401C61.4798 4.28581 61.4092 4.01873 61.4092 3.73756C61.4092 3.21047 61.6812 2.79764 62.1385 2.51302C62.6031 2.2203 63.2308 2.09741 63.976 2.09741C64.7409 2.09741 65.3858 2.24943 65.848 2.61501C66.1902 2.88558 66.416 3.2235 66.5028 3.62234H68.5182C68.4326 2.79466 68.0554 2.15132 67.3828 1.66449L67.3815 1.66383L67.3809 1.66317C66.6068 1.09634 65.4671 0.787354 63.9114 0.787354C62.3785 0.787354 61.2489 1.0958 60.4742 1.66317L60.473 1.66406L60.4718 1.66492C59.7001 2.22087 59.3335 2.92379 59.3335 3.7998C59.3335 4.76561 59.6676 5.44423 60.306 5.90088C60.9833 6.36696 62.0012 6.62554 63.4092 6.62554C63.8874 6.62554 64.2708 6.63588 64.5551 6.65767M63.6597 5.12216C63.8812 5.13469 64.1434 5.14716 64.4468 5.15954L64.4542 5.15986H64.4622C65.0363 5.15986 65.5637 5.20502 66.0462 5.29364C66.5231 5.38144 66.9975 5.52809 67.4689 5.73476L67.4732 5.73668L67.4775 5.7385C67.9163 5.91774 68.2542 6.19545 68.5022 6.57508L68.5034 6.57681L68.5046 6.57853C68.7471 6.94074 68.8775 7.39293 68.8775 7.95447C68.8775 9.08979 68.4763 9.89354 67.7003 10.4316C66.8997 10.9872 65.6505 11.2937 63.8948 11.2937C62.1865 11.2937 60.9819 10.9528 60.2145 10.3366C59.5483 9.78505 59.1777 9.10327 59.0931 8.27194H61.2038C61.2944 8.71391 61.5465 9.08481 61.9323 9.37742C62.432 9.75668 63.1028 9.92136 63.8948 9.92136C64.7342 9.92136 65.4252 9.80345 65.9182 9.52111C66.4437 9.22056 66.7212 8.74524 66.7212 8.14118C66.7212 7.80794 66.6228 7.50216 66.3957 7.26351C66.1785 7.01268 65.856 6.87496 65.4966 6.80493C65.1698 6.72942 64.856 6.67994 64.5557 6.65773M63.6597 5.12216C63.6597 5.12215 63.6597 5.12217 63.6597 5.12216L64.5551 6.65767L63.6597 5.12216ZM63.6597 5.12216L63.4302 4.72753C63.4295 4.72752 63.4295 4.72751 63.4295 4.72751M73.4517 2.84156C73.4517 2.84155 73.4517 2.84156 73.4517 2.84156V2.84156ZM74.7815 5.12215C74.6314 5.11364 74.5003 5.1051 74.3889 5.0965L74.3877 5.09641C74.1034 5.07368 73.816 5.02273 73.5255 4.94455L73.5237 4.94403L73.5212 4.9435C73.2258 4.86059 72.9551 4.72674 72.7766 4.50401C72.6019 4.28581 72.5317 4.01873 72.5317 3.73756C72.5317 3.2107 72.8031 2.79799 73.2603 2.51337C73.7249 2.2204 74.3532 2.09741 75.0985 2.09741C75.8634 2.09741 76.5077 2.24943 76.9698 2.61501C77.312 2.88558 77.5385 3.2235 77.6252 3.62234H79.6406C79.5545 2.79466 79.1778 2.15132 78.5046 1.66449L78.504 1.66383L78.5028 1.66317C77.7286 1.09634 76.5889 0.787354 75.0332 0.787354C73.5009 0.787354 72.3711 1.0958 71.5963 1.66317L71.5951 1.66406L71.5938 1.66492C70.8222 2.22087 70.456 2.92379 70.456 3.7998C70.456 4.76552 70.7895 5.44409 71.4283 5.90074C72.1052 6.36696 73.1231 6.62554 74.5311 6.62554C75.0092 6.62554 75.3926 6.63588 75.6769 6.65767M74.7815 5.12215L74.5514 4.72748C74.5514 4.72748 74.5514 4.72749 74.5514 4.72748L74.7822 5.12217C74.7815 5.12216 74.7815 5.12215 74.7815 5.12215ZM8.79951 4.88274C8.64135 4.17581 8.30019 3.59839 7.76406 3.17679C7.16406 2.68591 6.40431 2.4553 5.51755 2.4553C4.47242 2.4553 3.60865 2.75289 2.97977 3.39236C2.34744 4.02482 2.05488 4.92796 2.04345 6.0366L2.04342 6.04052L2.04345 6.04443C2.05489 7.15434 2.34801 8.06105 2.9785 8.70296L2.97977 8.70425L2.98105 8.70548C3.61041 9.33416 4.47374 9.62573 5.51755 9.62573C6.41317 9.62573 7.17865 9.4013 7.77994 8.92007C8.31108 8.4949 8.64597 7.90567 8.80142 7.18271H10.8517C10.6905 8.49674 10.1935 9.47305 9.38849 10.1532C8.49612 10.8969 7.21711 11.2937 5.50135 11.2937C3.66186 11.2937 2.31046 10.8326 1.38796 9.96585C0.470878 9.09398 -0.0102179 7.80782 0.000164563 6.04275C0.0105484 4.28743 0.501599 3.00378 1.4211 2.13002C2.34445 1.2526 3.68537 0.787354 5.50135 0.787354C7.18191 0.787354 8.45169 1.18803 9.35674 1.94391L9.35754 1.94456L9.35828 1.9452C10.1821 2.62583 10.6875 3.59196 10.8507 4.88274H8.79951ZM48.0247 1.86201L48.0268 1.86409L48.029 1.86615C48.6274 2.43188 48.947 3.23508 48.947 4.32886C48.947 5.39982 48.6287 6.1869 48.0313 6.74284L48.0302 6.74382L48.029 6.74487C47.4334 7.30782 46.6269 7.60585 45.5682 7.60585H42.6976C42.4179 7.60585 42.1913 7.83256 42.1913 8.11219V11.107H40.2776V0.97408H45.5682C46.6236 0.97408 47.4286 1.28036 48.0247 1.86201ZM75.5686 5.15954C75.2659 5.14715 75.0031 5.1347 74.7822 5.12217L75.6775 6.65773C75.9778 6.67994 76.2923 6.72942 76.6191 6.80493C76.9785 6.87496 77.3003 7.01268 77.5182 7.26339C77.7446 7.50204 77.8431 7.80794 77.8431 8.14118C77.8431 8.74524 77.5655 9.22056 77.0406 9.52111C76.5477 9.80345 75.8566 9.92136 75.0172 9.92136C74.2246 9.92136 73.5545 9.75668 73.0542 9.37742C72.6683 9.08481 72.4166 8.71391 72.3262 8.27194H70.2154C70.2997 9.10327 70.6702 9.78505 71.3366 10.3366C72.104 10.9528 73.3089 11.2937 75.0172 11.2937C76.7723 11.2937 78.0215 10.9872 78.8228 10.4316C79.5988 9.89354 80 9.08979 80 7.95447C80 7.39293 79.8689 6.94074 79.6265 6.57853L79.6258 6.57681L79.6246 6.57508C79.376 6.19545 79.0382 5.91773 78.6 5.7385L78.5951 5.73668L78.5908 5.73476C78.1194 5.52809 77.6455 5.38144 77.168 5.29364C76.6862 5.20502 76.1588 5.15986 75.584 5.15986H75.5766L75.5686 5.15954ZM26.386 11.107H24.4724V0.97408H27.9558L30.9007 7.95102C31.0746 8.36321 31.6585 8.36376 31.8332 7.95188L34.7936 0.97408H38.2613V11.107H36.3476V3.98796C36.3476 3.43341 35.5844 3.28231 35.3732 3.79505L32.3601 11.107H30.3736L27.3605 3.79505C27.1492 3.28233 26.386 3.43339 26.386 3.98796V11.107ZM42.6976 6.18684H44.5961C45.3055 6.18684 45.906 6.0608 46.3373 5.74928C46.7915 5.42123 47.001 4.93013 47.001 4.34442C47.001 3.7551 46.7927 3.26028 46.3388 2.92901C45.9073 2.61398 45.3061 2.48642 44.5961 2.48642H42.6976C42.4179 2.48642 42.1913 2.71311 42.1913 2.99275V5.68053C42.1913 5.96017 42.4179 6.18684 42.6976 6.18684ZM50.4866 11.107H48.4391L52.4179 0.97408H54.7515L58.7303 11.107H56.6827L56.1095 9.58327C56.0353 9.38591 55.8465 9.25527 55.6356 9.25527H51.5338C51.323 9.25527 51.1342 9.38591 51.0599 9.58327L50.4866 11.107ZM52.2435 7.97631H54.9725C55.3271 7.97631 55.5719 7.62111 55.4456 7.28967L54.0597 3.65305C53.8931 3.21596 53.2737 3.21916 53.1116 3.65795L51.7685 7.29459C51.6464 7.62517 51.891 7.97631 52.2435 7.97631Z" fill="#8B8B8B"/>
<path d="M18.2075 3.35374C18.2075 3.62664 17.9863 3.84787 17.7134 3.84787C17.4405 3.84787 17.2192 3.62664 17.2192 3.35374C17.2192 3.08084 17.4405 2.85962 17.7134 2.85962C17.9863 2.85962 18.2075 3.08084 18.2075 3.35374Z" fill="#8B8B8B"/>
<path fill-rule="evenodd" clip-rule="evenodd" d="M19.1621 1.24217C18.5348 0.098638 16.892 0.0986373 16.2646 1.24217L15.3785 2.85737C15.2272 3.13315 15.0003 3.36002 14.7246 3.51132L13.1094 4.39743C11.9658 5.02479 11.9658 6.66756 13.1094 7.29495L14.7246 8.18104C15.0003 8.33236 15.2272 8.55926 15.3785 8.83501L16.2646 10.4502C16.892 11.5937 18.5348 11.5937 19.1621 10.4502L20.0483 8.83501C20.1995 8.55926 20.4264 8.33236 20.7022 8.18104L22.3174 7.29495C23.461 6.66756 23.461 5.02479 22.3174 4.39743L20.7022 3.51132C20.4264 3.36002 20.1995 3.13315 20.0483 2.85737L19.1621 1.24217ZM18.4982 2.43148C18.2276 1.70024 17.1934 1.70024 16.9228 2.43148L16.3473 3.98671C16.2622 4.21661 16.081 4.39787 15.851 4.48294L14.2958 5.05842C13.5646 5.32901 13.5646 6.36326 14.2958 6.63384L15.851 7.20935C16.081 7.29439 16.2622 7.47569 16.3473 7.70559L16.9228 9.26079C17.1934 9.99206 18.2276 9.99206 18.4982 9.26079L19.0737 7.70559C19.1587 7.47569 19.34 7.29439 19.5699 7.20935L21.1251 6.63384C21.8564 6.36326 21.8564 5.32901 21.1251 5.05842L19.5699 4.48294C19.34 4.39787 19.1587 4.21661 19.0737 3.98671L18.4982 2.43148Z" fill="#8B8B8B"/>
</g>
<defs>
<clipPath id="clip0_3003_910">
<rect width="80" height="11.6923" fill="white"/>
</clipPath>
</defs>
</svg>
