<svg width="41" height="40" viewBox="0 0 41 40" fill="none" xmlns="http://www.w3.org/2000/svg">
<g clip-path="url(#clip0_3000_787)">
<path d="M38.0305 1.50073L22.4033 13.0623L25.3089 6.24793L38.0305 1.50073Z" fill="#959595" stroke="#959595" stroke-width="0.7799" stroke-miterlimit="22.9236" stroke-linecap="round" stroke-linejoin="round"/>
<path d="M1.9873 1.50073L17.4737 13.1711L14.7073 6.24793L1.9873 1.50073Z" fill="#959595" stroke="#959595" stroke-width="0.7799" stroke-miterlimit="22.9236" stroke-linecap="round" stroke-linejoin="round"/>
<path d="M32.4031 28.3088L28.2463 34.6608L37.1487 37.112L39.6991 28.448L32.4031 28.3088Z" fill="#959595" stroke="#959595" stroke-width="0.7799" stroke-miterlimit="22.9236" stroke-linecap="round" stroke-linejoin="round"/>
<path d="M0.332764 28.448L2.86716 37.112L11.7552 34.6608L7.61276 28.3088L0.332764 28.448Z" fill="#959595" stroke="#959595" stroke-width="0.7799" stroke-miterlimit="22.9236" stroke-linecap="round" stroke-linejoin="round"/>
<path d="M11.2752 17.5793L8.80322 21.3105L17.6128 21.7121L17.3184 12.2305L11.2752 17.5793Z" fill="#959595" stroke="#959595" stroke-width="0.7799" stroke-miterlimit="22.9236" stroke-linecap="round" stroke-linejoin="round"/>
<path d="M28.7409 17.5793L22.6049 12.1233L22.4033 21.7121L31.2129 21.3105L28.7409 17.5793Z" fill="#959595" stroke="#959595" stroke-width="0.7799" stroke-miterlimit="22.9236" stroke-linecap="round" stroke-linejoin="round"/>
<path d="M11.7554 34.6609L17.0866 32.0865L12.4962 28.5105L11.7554 34.6609Z" fill="#959595" stroke="#959595" stroke-width="0.7799" stroke-miterlimit="22.9236" stroke-linecap="round" stroke-linejoin="round"/>
<path d="M22.9297 32.0865L28.2465 34.6609L27.5201 28.5105L22.9297 32.0865Z" fill="#959595" stroke="#959595" stroke-width="0.7799" stroke-miterlimit="22.9236" stroke-linecap="round" stroke-linejoin="round"/>
<path d="M28.2465 34.6608L22.9297 32.0864L23.3617 35.5392L23.3153 37.0048L28.2465 34.6608Z" fill="#C4C4C4" stroke="#959595" stroke-width="0.7799" stroke-miterlimit="22.9236" stroke-linecap="round" stroke-linejoin="round"/>
<path d="M11.7554 34.6608L16.701 37.0048L16.6706 35.5392L17.0866 32.0864L11.7554 34.6608Z" fill="#C4C4C4" stroke="#959595" stroke-width="0.7799" stroke-miterlimit="22.9236" stroke-linecap="round" stroke-linejoin="round"/>
<path d="M16.7936 26.2289L12.3728 24.9329L15.4944 23.4993L16.7936 26.2289Z" fill="#313131" stroke="#313131" stroke-width="0.7799" stroke-miterlimit="22.9236" stroke-linecap="round" stroke-linejoin="round"/>
<path d="M23.2224 26.2289L24.5216 23.4993L27.6592 24.9329L23.2224 26.2289Z" fill="#313131" stroke="#313131" stroke-width="0.7799" stroke-miterlimit="22.9236" stroke-linecap="round" stroke-linejoin="round"/>
<path d="M11.7552 34.6608L12.528 28.3088L7.61279 28.448L11.7552 34.6608Z" fill="#828282" stroke="#828282" stroke-width="0.7799" stroke-miterlimit="22.9236" stroke-linecap="round" stroke-linejoin="round"/>
<path d="M27.488 28.3088L28.2464 34.6608L32.4032 28.448L27.488 28.3088Z" fill="#828282" stroke="#828282" stroke-width="0.7799" stroke-miterlimit="22.9236" stroke-linecap="round" stroke-linejoin="round"/>
<path d="M31.2129 21.3103L22.4033 21.7119L23.2225 26.2287L24.5201 23.4991L27.6593 24.9327L31.2129 21.3103Z" fill="#828282" stroke="#959595" stroke-width="0.7799" stroke-miterlimit="22.9236" stroke-linecap="round" stroke-linejoin="round"/>
<path d="M12.3728 24.9327L15.4944 23.4991L16.7936 26.2287L17.6128 21.7119L8.80322 21.3103L12.3728 24.9327Z" fill="#828282" stroke="#959595" stroke-width="0.7799" stroke-miterlimit="22.9236" stroke-linecap="round" stroke-linejoin="round"/>
<path d="M8.80322 21.3103L12.496 28.5103L12.3728 24.9327L8.80322 21.3103Z" fill="#959595" stroke="#959595" stroke-width="0.7799" stroke-miterlimit="22.9236" stroke-linecap="round" stroke-linejoin="round"/>
<path d="M27.6592 24.9327L27.52 28.5103L31.2128 21.3103L27.6592 24.9327Z" fill="#959595" stroke="#959595" stroke-width="0.7799" stroke-miterlimit="22.9236" stroke-linecap="round" stroke-linejoin="round"/>
<path d="M17.6129 21.7119L16.7937 26.2287L17.8289 31.5615L18.0609 24.5327L17.6129 21.7119Z" fill="#959595" stroke="#959595" stroke-width="0.7799" stroke-miterlimit="22.9236" stroke-linecap="round" stroke-linejoin="round"/>
<path d="M22.4032 21.7119L21.9712 24.5167L22.1872 31.5615L23.2224 26.2287L22.4032 21.7119Z" fill="#959595" stroke="#959595" stroke-width="0.7799" stroke-miterlimit="22.9236" stroke-linecap="round" stroke-linejoin="round"/>
<path d="M23.2225 26.2289L22.1873 31.5617L22.9297 32.0865L27.5201 28.5105L27.6593 24.9329L23.2225 26.2289Z" fill="#A4A4A4" stroke="#A4A4A4" stroke-width="0.7799" stroke-miterlimit="22.9236" stroke-linecap="round" stroke-linejoin="round"/>
<path d="M12.3728 24.9329L12.496 28.5105L17.0864 32.0865L17.8288 31.5617L16.7936 26.2289L12.3728 24.9329Z" fill="#A4A4A4" stroke="#A4A4A4" stroke-width="0.7799" stroke-miterlimit="22.9236" stroke-linecap="round" stroke-linejoin="round"/>
<path d="M23.3154 37.0049L23.3618 35.5393L22.9602 35.2001H17.0562L16.6706 35.5393L16.701 37.0049L11.7554 34.6609L13.4866 36.0801L16.9938 38.4993H23.0066L26.5298 36.0801L28.2466 34.6609L23.3154 37.0049Z" fill="#B0B0B0" stroke="#B0B0B0" stroke-width="0.7799" stroke-miterlimit="22.9236" stroke-linecap="round" stroke-linejoin="round"/>
<path d="M22.9297 32.0863L22.1873 31.5615H17.8289L17.0865 32.0863L16.6689 35.5391L17.0561 35.1999H22.9601L23.3617 35.5391L22.9297 32.0863Z" fill="#131313" stroke="#131313" stroke-width="0.7799" stroke-miterlimit="22.9236" stroke-linecap="round" stroke-linejoin="round"/>
<path d="M38.6945 13.8175L40.0081 7.43513L38.0289 1.50073L22.9297 12.6783L28.7409 17.5791L36.9473 19.9695L38.7569 17.8575L37.9681 17.2863L39.2193 16.1455L38.2609 15.4063L39.5137 14.4495L38.6945 13.8175Z" fill="#4D4D4D" stroke="#4D4D4D" stroke-width="0.7799" stroke-miterlimit="22.9236" stroke-linecap="round" stroke-linejoin="round"/>
<path d="M0.00805664 7.43513L1.33766 13.8175L0.488057 14.4495L1.75526 15.4063L0.796857 16.1455L2.04806 17.2863L1.25926 17.8575L3.06886 19.9695L11.2753 17.5791L17.0865 12.6783L1.98726 1.50073L0.00805664 7.43513Z" fill="#4D4D4D" stroke="#4D4D4D" stroke-width="0.7799" stroke-miterlimit="22.9236" stroke-linecap="round" stroke-linejoin="round"/>
<path d="M36.9472 19.9695L28.7408 17.5791L31.2128 21.3103L27.52 28.5103L32.4032 28.4479H39.6992L36.9472 19.9695Z" fill="#A4A4A4" stroke="#A4A4A4" stroke-width="0.7799" stroke-miterlimit="22.9236" stroke-linecap="round" stroke-linejoin="round"/>
<path d="M11.2752 17.5791L3.06876 19.9695L0.332764 28.4479H7.61276L12.496 28.5103L8.80316 21.3103L11.2752 17.5791Z" fill="#A4A4A4" stroke="#A4A4A4" stroke-width="0.7799" stroke-miterlimit="22.9236" stroke-linecap="round" stroke-linejoin="round"/>
<path d="M22.4033 21.712L22.9297 12.6768L25.3089 6.24805H14.7073L17.0865 12.6768L17.6129 21.712L17.8129 24.5472L17.8289 31.5616H22.1873L22.2033 24.5472L22.4033 21.712Z" fill="#A4A4A4" stroke="#A4A4A4" stroke-width="0.7799" stroke-miterlimit="22.9236" stroke-linecap="round" stroke-linejoin="round"/>
</g>
<defs>
<clipPath id="clip0_3000_787">
<rect width="40.016" height="40" fill="white"/>
</clipPath>
</defs>
</svg>
