<svg width="40" height="34" viewBox="0 0 40 34" fill="none" xmlns="http://www.w3.org/2000/svg">
<g clip-path="url(#clip0_3000_823)">
<path d="M4.72544 33.2546C9.82152 33.2546 13.6513 28.8227 15.9368 25.3206C15.6588 26.0954 15.5044 26.8702 15.5044 27.614C15.5044 29.6596 16.678 31.1162 18.9944 31.1162C22.1756 31.1162 25.5729 28.3269 27.3334 25.3206C27.2098 25.7545 27.1481 26.1574 27.1481 26.5293C27.1481 27.9549 27.9511 28.8538 29.5881 28.8538C34.7459 28.8538 39.9346 19.711 39.9346 11.7151C39.9346 5.48562 36.7843 0 28.8777 0C14.9794 0 0 16.9837 0 27.9549C0 32.2629 2.31639 33.2546 4.72544 33.2546ZM24.0905 11.0333C24.0905 9.48364 24.9553 8.39892 26.2215 8.39892C27.4569 8.39892 28.3218 9.48364 28.3218 11.0333C28.3218 12.5829 27.4569 13.6986 26.2215 13.6986C24.9553 13.6986 24.0905 12.5829 24.0905 11.0333ZM30.6999 11.0333C30.6999 9.48364 31.5647 8.39892 32.831 8.39892C34.0664 8.39892 34.9312 9.48364 34.9312 11.0333C34.9312 12.5829 34.0664 13.6986 32.831 13.6986C31.5647 13.6986 30.6999 12.5829 30.6999 11.0333Z" fill="#8B8B8B"/>
</g>
<defs>
<clipPath id="clip0_3000_823">
<rect width="40" height="33.2546" fill="white"/>
</clipPath>
</defs>
</svg>
