<svg width="40" height="40" viewBox="0 0 40 40" fill="none" xmlns="http://www.w3.org/2000/svg">
<path d="M0 17C0 10.4531 1.19209e-07 7.17973 1.4736 4.77501C2.29816 3.42946 3.42945 2.29816 4.77501 1.47359C7.17971 -2.38419e-07 10.4531 0 17 0H23C29.5468 0 32.8203 -2.38419e-07 35.225 1.47359C36.5705 2.29816 37.7018 3.42946 38.5263 4.77501C40 7.17973 40 10.4531 40 17V23C40 29.5469 40 32.8203 38.5263 35.225C37.7018 36.5706 36.5705 37.7019 35.225 38.5264C32.8203 40 29.5468 40 23 40H17C10.4531 40 7.17971 40 4.77501 38.5264C3.42945 37.7019 2.29816 36.5706 1.4736 35.225C1.19209e-07 32.8203 0 29.5469 0 23V17Z" fill="#8B8B8B"/>
<path d="M0 17C0 10.4531 1.19209e-07 7.17973 1.4736 4.77501C2.29816 3.42946 3.42945 2.29816 4.77501 1.47359C7.17971 -2.38419e-07 10.4531 0 17 0H23C29.5468 0 32.8203 -2.38419e-07 35.225 1.47359C36.5705 2.29816 37.7018 3.42946 38.5263 4.77501C40 7.17973 40 10.4531 40 17V23C40 29.5469 40 32.8203 38.5263 35.225C37.7018 36.5706 36.5705 37.7019 35.225 38.5264C32.8203 40 29.5468 40 23 40H17C10.4531 40 7.17971 40 4.77501 38.5264C3.42945 37.7019 2.29816 36.5706 1.4736 35.225C1.19209e-07 32.8203 0 29.5469 0 23V17Z" fill="#8B8B8B"/>
<path d="M0 17C0 10.4531 1.19209e-07 7.17973 1.4736 4.77501C2.29816 3.42946 3.42945 2.29816 4.77501 1.47359C7.17971 -2.38419e-07 10.4531 0 17 0H23C29.5468 0 32.8203 -2.38419e-07 35.225 1.47359C36.5705 2.29816 37.7018 3.42946 38.5263 4.77501C40 7.17973 40 10.4531 40 17V23C40 29.5469 40 32.8203 38.5263 35.225C37.7018 36.5706 36.5705 37.7019 35.225 38.5264C32.8203 40 29.5468 40 23 40H17C10.4531 40 7.17971 40 4.77501 38.5264C3.42945 37.7019 2.29816 36.5706 1.4736 35.225C1.19209e-07 32.8203 0 29.5469 0 23V17Z" fill="#8B8B8B"/>
<path d="M0 17C0 10.4531 1.19209e-07 7.17973 1.4736 4.77501C2.29816 3.42946 3.42945 2.29816 4.77501 1.47359C7.17971 -2.38419e-07 10.4531 0 17 0H23C29.5468 0 32.8203 -2.38419e-07 35.225 1.47359C36.5705 2.29816 37.7018 3.42946 38.5263 4.77501C40 7.17973 40 10.4531 40 17V23C40 29.5469 40 32.8203 38.5263 35.225C37.7018 36.5706 36.5705 37.7019 35.225 38.5264C32.8203 40 29.5468 40 23 40H17C10.4531 40 7.17971 40 4.77501 38.5264C3.42945 37.7019 2.29816 36.5706 1.4736 35.225C1.19209e-07 32.8203 0 29.5469 0 23V17Z" fill="#8B8B8B"/>
<path d="M15.2654 31V21.2561L24.7335 31H30V30.7471L19.1108 19.6538L29.16 9.12644V9H23.8596L15.2654 18.3024V9H11V31H15.2654Z" fill="white"/>
</svg>
