<svg width="128" height="24" viewBox="0 0 128 24" fill="none" xmlns="http://www.w3.org/2000/svg">
<path fill-rule="evenodd" clip-rule="evenodd" d="M3.65333 13.9464C3.75999 14.0531 3.86666 14.0531 3.86666 14.1598C4.39999 14.4798 5.03999 14.7998 5.54666 15.0131C6.18666 15.2264 6.90666 15.3331 7.65333 15.4398H8.50666C9.04 15.4398 9.57333 15.0131 9.57333 14.3731C9.57333 13.8398 9.14666 13.3064 8.50666 13.3064H7.97333C7.33333 13.3064 6.61333 13.0931 6.08 12.8798C5.54666 12.6664 5.11999 12.3464 4.71999 12.0264C4.61333 11.9198 4.39999 11.8131 4.29333 11.5998C3.43999 10.6398 2.93333 9.49309 2.82666 8.10643V7.99976C2.82666 5.03976 5.03999 2.71976 7.99999 2.71976H12.5333V4.82643C12.5333 5.78643 13.0667 6.39976 14.2133 6.39976C16.32 6.39976 18.4267 7.14643 19.92 8.18643C20.9867 9.03976 21.6 8.07976 21.6 7.33309C21.3867 3.94643 18.8533 1.22643 15.4933 0.693095C15.0667 0.586428 14.64 0.586426 14.24 0.586426H7.97333C7.54666 0.586426 7.22666 0.586428 6.79999 0.693095C3.51999 1.22643 0.98666 3.97309 0.693327 7.33309V7.75976C0.693327 10.4531 1.86666 12.5864 3.65333 13.9464ZM18.5333 10.2398C18.4267 10.1331 18.32 10.1331 18.32 10.0264C17.7867 9.70643 17.1467 9.38643 16.64 9.17309C16 8.95976 15.28 8.85309 14.5333 8.74643H13.68C13.1467 8.74643 12.6133 9.17309 12.6133 9.81309C12.6133 10.4531 13.04 10.8798 13.68 10.8798H14.4267C15.0667 10.8798 15.7867 11.0931 16.32 11.3064C16.8533 11.5198 17.28 11.8398 17.68 12.1598C17.7867 12.2664 18 12.3731 18.1067 12.5864C18.96 13.5464 19.4667 14.6931 19.5733 16.0798V16.2931C19.5733 19.1464 17.2533 21.4664 14.4 21.5731H9.68V19.3598C9.68 18.3998 9.14666 17.7864 7.99999 17.7864C5.89333 17.7864 3.78666 17.0398 2.29333 15.9998C1.22666 15.1464 0.613327 16.1064 0.613327 16.8531C0.82666 20.2398 3.35999 22.9598 6.71999 23.4931C7.14666 23.5998 7.46666 23.5998 7.89333 23.5998H14.32C14.7467 23.5998 15.1733 23.5998 15.4933 23.4931C18.7733 22.9598 21.3067 20.2131 21.6 16.8531V16.4264C21.4933 13.7331 20.32 11.6264 18.5333 10.2398ZM67.7067 10.5598C68.0267 10.5598 68.3467 10.4531 68.6667 10.1331C68.9867 9.91976 69.0933 9.49309 69.0933 9.06643C69.0933 8.10643 68.24 7.70643 67.6267 7.70643H62.9867V2.74643C62.9867 2.21309 62.56 1.27976 61.52 1.27976C60.4533 1.27976 60.0533 2.23976 60.0533 2.74643V7.73309H56.4533C55.8133 7.73309 54.9867 8.26643 54.9867 9.0931C54.9867 10.0531 55.9467 10.4531 56.4533 10.4531H60V16.2664C60 20.0531 63.1733 23.2264 66.96 23.2264H67.6C67.8133 23.2264 68.0267 23.2264 68.24 23.1198C68.7733 22.9064 69.2 22.3731 69.2 21.7598L69.0933 21.1198C68.88 20.5864 68.3467 20.2664 67.7333 20.2664H66.88C64.88 20.1598 63.2 18.4798 63.2 16.4798V10.5598C63.1733 10.5598 67.7067 10.5598 67.7067 10.5598ZM86.16 19.7598C85.9467 19.7598 85.7333 19.5464 85.7333 19.3331V8.55976C85.7333 7.91976 85.2 7.0931 84.2667 7.0931C83.3067 7.0931 82.8 7.94643 82.8 8.55976V9.51976C82.3733 8.87976 81.7333 8.34643 81.12 7.94643C80.2667 7.51976 79.3333 7.19976 78.2667 7.19976C77.3067 7.19976 76.3733 7.41309 75.52 7.73309C74.6667 8.05309 73.9467 8.58643 73.3067 9.19976C72.6667 9.81309 72.1333 10.6664 71.84 11.6264C71.52 12.5864 71.3067 13.6264 71.3067 14.9064V15.3331C71.3067 16.5864 71.52 17.6531 71.84 18.6131C72.16 19.5731 72.6933 20.3998 73.3067 21.0398C73.92 21.6798 74.6667 22.2131 75.52 22.5064C76.3733 22.8264 77.3067 23.0398 78.2667 23.0398C79.2267 23.0398 80.16 22.8264 81.0133 22.2931C81.76 21.8664 82.3733 21.2264 82.9067 20.3998C83.3333 21.6531 84.48 22.5064 85.76 22.6131H86.08C86.9333 22.6131 87.6533 21.8664 87.6533 21.0398C87.6533 20.8264 87.5467 20.5064 87.44 20.2931C87.3333 20.0531 86.8 19.7598 86.16 19.7598ZM82.7733 15.4131C82.7733 16.1598 82.6667 16.8798 82.4533 17.4131C82.24 18.0531 81.92 18.5864 81.6 18.9864C81.28 19.3864 80.7467 19.7331 80.24 19.9464C79.7333 20.1598 79.1733 20.2664 78.56 20.2664C77.3067 20.2664 76.24 19.8398 75.4933 19.0131C74.7467 18.1598 74.32 17.0131 74.32 15.4131V14.9864C74.32 14.2398 74.4267 13.6264 74.64 12.9864C74.8533 12.3464 75.1733 11.8131 75.4933 11.5198C75.92 11.0931 76.3467 10.7731 76.8533 10.5598C77.3867 10.3464 77.92 10.2398 78.5333 10.2398C79.1733 10.2398 79.7067 10.3464 80.2133 10.5598C80.7467 10.7731 81.1733 11.0931 81.5733 11.5198C82 11.9464 82.2133 12.4798 82.4267 13.0931C82.64 13.7331 82.7467 14.3464 82.7467 15.0931C82.7733 15.0931 82.7733 15.4131 82.7733 15.4131ZM108.427 7.19976C107.36 7.19976 106.96 8.05309 106.96 8.66643V21.9731C106.96 22.7198 107.493 23.4398 108.427 23.4398C109.493 23.4398 109.893 22.5864 109.893 21.9731V8.58643C109.893 7.91976 109.36 7.19976 108.427 7.19976ZM108.427 1.38643C107.893 1.38643 107.36 1.59976 106.96 2.02643C106.56 2.45309 106.32 2.87976 106.32 3.4931C106.32 4.02643 106.533 4.55976 106.96 4.95976C107.387 5.35976 107.813 5.59976 108.427 5.59976C108.96 5.59976 109.493 5.38643 109.893 4.95976C110.293 4.5331 110.533 4.10643 110.533 3.4931C110.533 2.95976 110.32 2.42643 109.893 2.02643C109.36 1.59976 108.96 1.38643 108.427 1.38643ZM125.733 8.98643C124.667 7.91976 123.307 7.30643 121.52 7.30643C119.413 7.30643 117.92 8.15976 116.88 9.73309V8.66643C116.88 8.13309 116.24 7.19976 115.413 7.19976C114.453 7.19976 113.947 8.15976 113.947 8.66643V21.9731C113.947 22.5064 114.373 23.4398 115.413 23.4398C116.48 23.4398 116.88 22.4798 116.88 21.9731V15.0131C116.88 13.5464 117.2 12.3731 117.947 11.5198C118.693 10.6664 119.627 10.2664 120.907 10.2664C121.973 10.2664 122.8 10.5864 123.333 11.3331C123.973 11.9731 124.293 13.0131 124.293 14.5064V22.1064C124.293 22.8531 124.827 23.5731 125.76 23.5731C126.827 23.5731 127.227 22.7198 127.227 22.1064V14.0798C127.307 11.7331 126.773 10.0531 125.733 8.98643ZM104.32 20.6931C103.573 16.9064 100.827 13.8398 97.2533 12.5598L102.64 6.63976V6.31976C102.64 5.06643 101.893 4.85309 101.387 4.85309C100.533 4.85309 99.8133 5.49309 99.1733 6.02643C98.64 6.55976 94.7467 10.8798 93.8933 11.8398V2.77309C93.8933 2.13309 93.36 1.30642 92.4267 1.30642C91.36 1.30642 90.96 2.37309 90.96 2.77309V21.9731C90.96 22.7198 91.4933 23.4398 92.4267 23.4398C93.4933 23.4398 93.8933 22.6931 93.8933 21.9731V14.7998H94.1067C97.6 15.0131 100.533 17.4398 101.493 20.7198C101.6 20.9331 101.6 21.1464 101.6 21.3598L101.813 22.8264V23.0398L102.027 23.1464C102.24 23.2531 102.56 23.3598 102.88 23.3598C103.733 23.3598 104.347 22.8264 104.56 22.1064V21.8664C104.507 21.5464 104.427 21.1198 104.32 20.6931ZM47.3333 10.8798C46.3733 10.7731 45.6533 10.5598 44.9067 10.3464C44.2667 10.1331 43.6533 9.91976 43.2267 9.70643C42.8 9.49309 42.48 9.06643 42.2667 8.74643C42.0533 8.42643 41.9467 7.89309 41.9467 7.38643V7.19976C41.9467 6.66643 42.0533 6.23976 42.2667 5.94643C42.48 5.51976 42.8 5.19976 43.12 4.98643L44.3733 4.34643C44.9067 4.23976 45.44 4.13309 45.9467 4.13309C46.5867 4.13309 47.2 4.23976 47.7333 4.34643C48.2667 4.55976 48.8 4.7731 49.2 5.0931C49.6267 5.41309 49.9467 5.83976 50.2667 6.26643C50.3733 6.47976 51.0133 7.43976 51.9467 7.43976H52.2667C52.5867 7.33309 52.9067 7.11976 53.12 6.79976C53.44 6.26643 53.3333 5.62643 53.12 5.33309C52.8 4.58643 52.2667 3.86643 51.6533 3.22643C51.0133 2.69309 50.1867 2.15976 49.2267 1.86643C48.2667 1.54643 47.2267 1.33309 46.0533 1.33309C44.9867 1.33309 44.0533 1.43976 43.2 1.75976C42.3467 2.07976 41.6267 2.39976 40.9867 2.93309C40.3467 3.46643 39.8133 4.10643 39.52 4.71976C39.2 5.46643 38.9867 6.18643 38.9867 7.03976V7.35976C38.9867 8.31976 39.2 9.03976 39.52 9.78643C39.84 10.4264 40.3733 11.0398 40.9867 11.5731C41.6267 12.1064 42.3467 12.4264 43.2 12.7464C44.0533 13.0664 44.9867 13.2798 46.0533 13.3864C47.84 13.5998 49.12 14.0264 49.84 14.5598C50.5867 15.0931 50.9067 15.8131 50.9067 16.8798V17.0931C50.9067 18.1598 50.5867 18.9864 49.84 19.6264C49.0933 20.2664 48.0533 20.5864 46.56 20.5864C44.88 20.5864 43.4933 20.1598 42.56 19.3331C41.6 18.4798 41.2 17.1198 41.2 15.4398C41.2 15.0131 40.88 14.0798 39.7333 14.0798C38.48 14.0798 38.2667 15.1464 38.2667 15.5464C38.2667 16.7198 38.48 17.6531 38.8 18.6131C39.12 19.5731 39.76 20.3998 40.3733 21.1464C41.12 21.8931 41.9467 22.3998 43.0133 22.8264C44.08 23.2531 45.2267 23.4664 46.6133 23.4664C47.7867 23.4664 48.8267 23.3598 49.7867 23.0398C50.7467 22.7198 51.4667 22.2931 52.1067 21.7864C52.7467 21.2531 53.1733 20.5331 53.5733 19.7864C53.8933 19.0398 54.1067 18.2131 54.1067 17.2531V16.7998C54.1067 15.1198 53.5733 13.8398 52.5333 12.9064C51.2267 11.9464 49.5467 11.3064 47.3333 10.8798Z" fill="#363636"/>
</svg>
