<svg width="126" height="34" viewBox="0 0 126 34" fill="none" xmlns="http://www.w3.org/2000/svg">
<g clip-path="url(#clip0_2962_905)">
<path d="M47.7864 15.2659C51.141 15.2659 53.7523 13.6098 54.0496 9.8942H50.9496C50.5039 11.7626 49.315 12.527 47.7864 12.527C45.1747 12.527 44.1344 10.4038 44.1344 7.62236C44.1344 4.84092 45.1962 2.73895 47.7864 2.73895C49.3362 2.73895 50.5039 3.50329 50.9496 5.35051H54.0496C53.7523 1.65611 51.141 0 47.7864 0C43.5824 0 40.8649 2.82388 40.8649 7.62236C40.8649 12.4421 43.5824 15.2659 47.7864 15.2659Z" fill="#363636"/>
<path d="M76.9628 15.2659C81.2516 15.2659 84.0539 12.166 84.0539 7.62236C84.0539 3.05743 81.2516 0 76.9628 0C72.6741 0 69.8714 3.05743 69.8714 7.62236C69.8714 12.166 72.6741 15.2659 76.9628 15.2659ZM76.9628 12.527C74.5212 12.527 73.141 10.5736 73.141 7.62236C73.141 4.64984 74.5212 2.73895 76.9628 2.73895C79.4042 2.73895 80.7844 4.64984 80.7844 7.62236C80.7844 10.5736 79.4042 12.527 76.9628 12.527Z" fill="#363636"/>
<path d="M105.581 15.2658C109.191 15.2658 111.696 13.3761 111.696 9.40569V0.190918H108.49V9.17211C108.49 11.3803 107.407 12.5056 105.581 12.5056C103.755 12.5056 102.651 11.3803 102.651 9.17211V0.190918H99.4453V9.40569C99.4453 13.3761 101.929 15.2658 105.581 15.2658Z" fill="#363636"/>
<path d="M119.799 15.2659C123.175 15.2659 125.829 13.8858 125.829 10.6798C125.829 8.42918 124.491 7.09155 121.009 6.43334L119.013 6.05118C117.676 5.8176 117.315 5.09572 117.315 4.41629C117.315 3.50329 117.952 2.63279 119.65 2.63279C121.094 2.63279 122.198 3.22729 122.156 4.56491H125.425C125.425 1.52872 123.005 0 119.608 0C116.275 0 113.982 1.44379 113.982 4.2889C113.982 6.98537 115.956 8.04698 118.292 8.51411L120.436 8.91752C121.774 9.17228 122.453 9.68187 122.453 10.701C122.453 11.9113 121.54 12.6331 119.82 12.6331C117.782 12.6331 116.933 11.5291 116.869 10.1914H113.578C113.578 13.4612 115.999 15.2659 119.799 15.2659Z" fill="#363636"/>
<path d="M65.2449 0.339844V6.35492H62.118V8.94477H65.2449V14.9598H68.4487V0.339844H65.2449Z" fill="#363636"/>
<path d="M59.393 6.35492H59.3937V8.94477H59.393V14.9598H56.1892V0.339844H59.393V6.35492Z" fill="#363636"/>
<path fill-rule="evenodd" clip-rule="evenodd" d="M80.4653 33.66H70.1044V19.04H80.2532V21.7552H73.2891V25.0342H79.616V27.4779H73.2891V30.9449H80.4653V33.66Z" fill="#363636"/>
<path d="M47.9563 33.9661C52.2451 33.9661 55.0474 30.8662 55.0474 26.3226C55.0474 21.7576 52.2451 18.7002 47.9563 18.7002C43.6675 18.7002 40.8649 21.7576 40.8649 26.3226C40.8649 30.8662 43.6675 33.9661 47.9563 33.9661ZM47.9563 31.2272C45.5146 31.2272 44.1344 29.2738 44.1344 26.3226C44.1344 23.35 45.5146 21.4391 47.9563 21.4391C50.3976 21.4391 51.7778 23.35 51.7778 26.3226C51.7778 29.2738 50.3976 31.2272 47.9563 31.2272Z" fill="#363636"/>
<path fill-rule="evenodd" clip-rule="evenodd" d="M0.00964355 30.216L3.8099 33.9931L7.61016 30.216L3.8099 26.439L0.00964355 30.216Z" fill="#363636"/>
<path fill-rule="evenodd" clip-rule="evenodd" d="M34.2117 3.77706L30.4113 0L26.6111 3.77706L30.4113 7.55412L34.2117 3.77706Z" fill="#363636"/>
<path fill-rule="evenodd" clip-rule="evenodd" d="M20.9107 20.7735L17.1104 24.5506L13.3102 20.7735L9.50994 16.9965L13.3102 13.2194L17.1104 9.44239L20.9107 13.2194L24.7109 16.9965L20.9107 20.7735ZM32.3114 16.9964L28.5112 13.2194L24.7109 9.44229L20.9106 5.66523L17.1104 1.88818L13.3101 5.66523L9.50991 9.44229L5.70965 13.2194L1.90939 16.9964L5.70965 20.7734L9.50991 24.5506L13.3101 28.3276L17.1104 32.1046L20.9106 28.3276L24.7109 24.5506L28.5112 20.7734L32.3114 16.9964Z" fill="#363636"/>
<path fill-rule="evenodd" clip-rule="evenodd" d="M26.6069 30.2229L30.4071 33.9999L34.2073 30.2229L30.4071 26.4458L26.6069 30.2229Z" fill="#363636"/>
<path fill-rule="evenodd" clip-rule="evenodd" d="M7.60052 3.7795L3.80026 0.00244141L0 3.7795L3.80026 7.55656L7.60052 3.7795Z" fill="#363636"/>
<path d="M59.301 19.04H56.1892V33.66H59.3007V24.2406H59.301V19.04Z" fill="#363636"/>
<path d="M62.0254 28.621L65.0882 33.66H68.4486V19.04H65.3371V28.6475H65.2748L62.0254 23.3106V28.621Z" fill="#363636"/>
<path d="M94.6526 9.6817L97.7733 15.0534H94.6311L91.856 10.1913V7.34617C93.5925 7.34413 94.3553 6.4741 94.3553 5.15926C94.3553 3.82163 93.5907 2.9511 91.8499 2.9511H89.1324V6.26796H89.1317V10.4731H89.1324V15.0534H85.9477V0.190918H91.9562C95.9051 0.190918 97.6248 2.25044 97.6248 5.15926C97.6248 7.28245 96.7118 8.93856 94.6526 9.6817Z" fill="#363636"/>
</g>
<defs>
<clipPath id="clip0_2962_905">
<rect width="126" height="34" fill="white"/>
</clipPath>
</defs>
</svg>
