<svg width="169" height="44" viewBox="0 0 169 44" fill="none" xmlns="http://www.w3.org/2000/svg">
<mask id="mask0_2962_1071" style="mask-type:luminance" maskUnits="userSpaceOnUse" x="0" y="0" width="169" height="44">
<path d="M168.192 0H0V43.2596H168.192V0Z" fill="white"/>
</mask>
<g mask="url(#mask0_2962_1071)">
<path d="M56.648 25.329H60.3345C60.3345 26.5681 60.955 27.4063 63.3275 27.4063C65.481 27.4063 66.2475 26.7867 66.2475 25.8027C66.2475 25.329 65.992 24.9281 65.2985 24.7823C64.605 24.6365 63.51 24.5272 62.1595 24.4178C60.225 24.2721 58.7285 23.9441 57.9255 23.3974C57.159 22.8507 56.648 21.8667 56.648 20.7734C56.648 17.8578 59.641 16.2543 63.364 16.2543C67.7805 16.2543 69.788 17.9307 69.788 21.065H66.138C66.1015 19.6436 65.4445 18.9147 63.437 18.9147C61.5755 18.9147 60.7725 19.5343 60.7725 20.4454C60.7725 21.0285 60.9915 21.4658 61.758 21.6481C62.4515 21.7938 63.6195 21.9032 65.0795 22.049C66.722 22.1947 67.89 22.377 68.912 22.9601C69.788 23.4338 70.4085 24.4543 70.4085 25.6205C70.4085 28.4267 67.9995 30.1032 63.4005 30.1032C58.619 30.0303 56.648 28.0258 56.648 25.329ZM73.3285 25.2196V19.6436H71.3575V16.4365H72.9635C73.584 16.4365 73.803 16.0721 73.876 15.2703L74.0585 13.4116H77.453V16.4365H81.76V19.6436H77.453V25.001C77.453 26.3858 78.11 26.8232 79.716 26.8232C80.3 26.8232 81.1395 26.7503 81.5775 26.641V29.7752C81.2125 29.8481 80.081 30.0667 78.986 30.0667C74.825 30.0303 73.3285 28.2081 73.3285 25.2196Z" fill="#383836"/>
<path fill-rule="evenodd" clip-rule="evenodd" d="M82.9645 25.9849C82.9645 23.7982 84.534 22.1947 88.111 22.1947H92.491V21.2835C92.491 19.6435 91.5785 18.9876 89.6805 18.9876C88.1475 18.9876 87.235 19.6435 87.235 20.7369C87.235 20.8098 87.235 21.0284 87.2715 21.32H83.4755C83.439 21.0649 83.439 20.8098 83.4025 20.5182C83.4025 17.8213 85.8115 16.2178 89.863 16.2178C94.1335 16.2178 96.6155 18.1129 96.6155 21.6844V29.8116H92.4545C92.5275 29.1191 92.637 27.9164 92.637 27.1147H92.6005C92.199 29.0098 90.666 30.0302 88.2205 30.0302C85.118 30.0302 82.9645 28.6818 82.9645 25.9849ZM92.4545 24.6729V24.4178H88.476C87.3445 24.4178 86.6875 24.928 86.6875 25.6933C86.6875 26.7138 87.6 27.2604 89.06 27.2604C91.2135 27.2604 92.4545 26.3129 92.4545 24.6729Z" fill="#383836"/>
<path d="M98.5135 16.4364H102.638L102.492 20.2631H102.565C103.149 17.712 104.572 16.2178 107.2 16.2178C109.938 16.2178 111.544 17.9671 111.544 21.4658C111.544 22.2311 111.471 23.4338 111.398 24.1262H107.638C107.675 23.4702 107.711 22.8142 107.711 22.3769C107.711 20.4089 106.908 19.6435 105.631 19.6435C103.879 19.6435 102.638 21.0649 102.638 24.0533V29.848H98.5135C98.5135 29.8116 98.5135 16.4364 98.5135 16.4364Z" fill="#383836"/>
<path fill-rule="evenodd" clip-rule="evenodd" d="M127.531 30.9417C127.531 34.003 124.793 35.643 120.158 35.643C115.413 35.643 112.639 34.331 112.639 32.1079C112.639 30.6866 113.551 29.8483 115.048 29.6661V29.6297C114.245 29.1194 113.807 28.3905 113.807 27.443C113.807 26.1674 114.464 25.3657 115.449 24.9283V24.8919C114.026 24.0901 113.259 22.7417 113.259 21.0288C113.259 18.0039 115.595 16.2181 119.537 16.2181C121.107 16.2181 122.421 16.4732 123.406 17.0199L123.443 16.947C122.895 16.4732 122.64 15.9265 122.64 15.4163C122.64 14.323 123.771 13.667 125.45 13.667C126.18 13.667 126.582 13.7399 126.947 13.8128V16.4003C126.691 16.3274 126.399 16.3274 126.144 16.3274C125.268 16.3274 124.866 16.6919 124.866 17.3479C124.866 17.6759 124.976 18.0768 125.158 18.587C125.596 19.2794 125.815 20.0812 125.815 21.0288C125.815 24.0537 123.479 25.803 119.501 25.803C118.698 25.803 117.968 25.7301 117.274 25.5843C117.128 25.8394 117.019 26.131 117.019 26.459C117.019 27.0421 117.493 27.4065 118.333 27.4065H122.676C125.742 27.3701 127.531 28.7185 127.531 30.9417ZM123.406 31.5248C123.406 30.7959 122.859 30.395 121.654 30.395H118.479C117.347 30.395 116.727 30.8688 116.727 31.6341C116.727 32.6546 117.968 33.1648 120.085 33.1648C122.165 33.1283 123.406 32.5817 123.406 31.5248ZM117.128 21.0288C117.128 22.3772 118.041 23.2154 119.537 23.2154C121.07 23.2154 121.946 22.4137 121.946 21.0288C121.946 19.6439 121.034 18.8421 119.537 18.8421C118.004 18.8057 117.128 19.6439 117.128 21.0288ZM128.443 25.9852C128.443 23.7985 130.013 22.195 133.59 22.195H137.97V21.2839C137.97 19.6439 137.057 18.9879 135.159 18.9879C133.626 18.9879 132.714 19.6439 132.714 20.7372C132.714 20.8101 132.714 21.0288 132.75 21.3203H128.954C128.918 21.0652 128.918 20.8101 128.881 20.5185C128.881 17.8217 131.29 16.2181 135.342 16.2181C139.612 16.2181 142.094 18.1132 142.094 21.6848V29.8119H137.97C138.043 29.1194 138.152 27.9168 138.152 27.115H138.116C137.714 29.0101 136.181 30.0305 133.736 30.0305C130.633 30.0305 128.443 28.6821 128.443 25.9852ZM137.97 24.6732V24.4181H133.991C132.86 24.4181 132.203 24.9283 132.203 25.6937C132.203 26.7141 133.115 27.2608 134.575 27.2608C136.729 27.2608 137.97 26.3132 137.97 24.6732Z" fill="#383836"/>
<path d="M145.161 25.2196V19.6436H143.19V16.4365H144.796C145.416 16.4365 145.635 16.0721 145.708 15.2703L145.891 13.4116H149.285V16.4365H153.592V19.6436H149.285V25.001C149.285 26.3858 149.942 26.8232 151.585 26.8232C152.169 26.8232 153.008 26.7503 153.446 26.641V29.7752C153.081 29.8481 151.95 30.0667 150.855 30.0667C146.657 30.0303 145.161 28.2081 145.161 25.2196Z" fill="#383836"/>
<path fill-rule="evenodd" clip-rule="evenodd" d="M168.192 23.9079H158.666C158.848 26.0945 159.98 27.0421 161.805 27.0421C163.411 27.0421 164.433 26.459 164.542 25.1834H168.192C168.119 28.2448 165.564 30.0305 161.732 30.0305C157.279 30.0305 154.505 27.5159 154.505 23.2519C154.505 18.8421 157.279 16.1816 161.805 16.1816C165.564 16.1816 168.192 18.3319 168.192 22.7052V23.9079ZM164.579 21.5025C164.579 19.9719 163.557 19.2065 161.841 19.2065C160.089 19.2065 159.14 19.9719 158.812 21.7212H164.615V21.5025H164.579Z" fill="#383836"/>
<mask id="mask1_2962_1071" style="mask-type:luminance" maskUnits="userSpaceOnUse" x="0" y="0" width="43" height="43">
<path d="M42.4495 0.4375H0V42.8224H42.4495V0.4375Z" fill="white"/>
</mask>
<g mask="url(#mask1_2962_1071)">
<mask id="mask2_2962_1071" style="mask-type:luminance" maskUnits="userSpaceOnUse" x="0" y="0" width="43" height="43">
<path d="M42.4495 0.4375H0V42.8224H42.4495V0.4375Z" fill="white"/>
</mask>
<g mask="url(#mask2_2962_1071)">
<path d="M25.4403 2.11377L26.5718 4.77421C28.7983 9.94932 32.9228 14.104 38.1423 16.3271L40.8068 17.4569C41.5003 17.7484 42.0478 18.1858 42.4858 18.696C41.1718 9.25688 33.6893 1.78577 24.2358 0.473767C24.7103 0.874656 25.1483 1.42132 25.4403 2.11377ZM1.67882 17.4204L4.34332 16.2907C9.52632 14.0675 13.6873 9.94932 15.9138 4.73777L17.0453 2.07732C17.3008 1.42132 17.7388 0.838212 18.2863 0.400879C8.83282 1.71288 1.35032 9.18399 0.0363195 18.6231C0.43782 18.1493 0.98532 17.712 1.67882 17.4204ZM40.7703 25.8391L38.1058 26.9689C32.9228 29.192 28.7618 33.3102 26.5353 38.5218L25.4038 41.1458C25.1483 41.8018 24.7103 42.3849 24.1628 42.8222C33.6163 41.5102 41.0988 34.0391 42.4128 24.6C42.0113 25.1467 41.4273 25.584 40.7703 25.8391ZM17.0088 41.1458L15.8773 38.5218C13.6508 33.3467 9.52632 29.192 4.30682 26.9689L1.64232 25.8391C0.985317 25.584 0.401318 25.1467 -0.0366821 24.6C1.27732 34.0391 8.75982 41.5102 18.2133 42.8222C17.7023 42.3849 17.3008 41.8018 17.0088 41.1458Z" fill="#383836"/>
</g>
<path d="M11.607 19.5708L12.921 19.0242C15.476 17.9308 17.52 15.8899 18.615 13.3388L19.1625 12.0268C19.929 10.2046 22.5205 10.2046 23.3235 12.0268L23.871 13.3388C24.966 15.8899 27.01 17.9308 29.565 19.0242L30.879 19.5708C32.704 20.3362 32.704 22.9237 30.879 23.7255L29.565 24.2722C27.01 25.3655 24.966 27.4064 23.871 29.9575L23.3235 31.2695C22.557 33.0917 19.9655 33.0917 19.1625 31.2695L18.615 29.9575C17.52 27.4064 15.476 25.3655 12.921 24.2722L11.607 23.7255C9.78203 22.9237 9.78203 20.3362 11.607 19.5708Z" fill="#383836"/>
</g>
</g>
</svg>
