<svg width="116" height="25" viewBox="0 0 116 25" fill="none" xmlns="http://www.w3.org/2000/svg">
<g clip-path="url(#clip0_2962_922)">
<path fill-rule="evenodd" clip-rule="evenodd" d="M15.7459 3.16058C15.7459 3.16058 15.7459 12.6146 15.7459 14.4249C15.7459 16.2353 15.7459 19.9997 20.3975 20.287C23.0555 20.4307 24.789 19.5974 24.789 19.5974L24.2401 16.5226C22.9399 16.9249 19.7619 17.6433 19.6752 15.287C19.5596 13.1031 19.6174 9.76977 19.6174 9.76977L24.2112 9.74104V6.49391H19.6174V2.55713L15.7459 3.16058Z" fill="#363636"/>
<path fill-rule="evenodd" clip-rule="evenodd" d="M37.4435 11.7526C37.4435 8.93651 36.7501 4.45375 27.0425 6.7526L27.5337 9.88478C31.3474 8.76409 33.8321 9.13766 33.7165 11.7239C32.0408 11.3503 27.996 11.2641 26.5803 13.2756C25.1357 15.2871 25.8869 17.7871 26.5803 18.4767C27.3314 19.2239 27.996 20.5744 33.7165 20.2009C35.9123 20.0572 37.4724 19.5687 37.4724 19.5687C37.4724 19.5687 37.4435 14.5687 37.4435 11.7526ZM33.7165 17.0974C33.7165 17.0974 31.983 17.356 30.8273 17.0974C29.2672 16.7526 29.2094 14.7698 30.8273 14.3388C31.9252 14.0515 33.2253 14.1664 33.7165 14.3101V17.0974Z" fill="#363636"/>
<path fill-rule="evenodd" clip-rule="evenodd" d="M40.8528 0.775812V20H44.7532V14.1379C44.7532 14.1379 47.2956 16.5804 49.2892 19.9712H53.854C53.854 19.9712 50.7337 14.5402 48.1335 12.3563L53.594 6.46547H48.8558L44.7532 11.1781V0.172363L40.8528 0.775812Z" fill="#363636"/>
<path fill-rule="evenodd" clip-rule="evenodd" d="M60.6147 6.12061C54.2007 6.12061 54.1141 13.0459 54.1141 13.0459C54.1141 13.0459 53.6807 18.6781 58.8812 19.9999C62.4349 20.8907 66.0463 19.4827 66.0463 19.4827L65.5263 16.293C61.1925 17.7298 58.4478 16.7528 58.13 14.5689H66.7397C67.0286 12.2126 67.0286 6.12061 60.6147 6.12061ZM58.13 11.8677C58.13 11.8677 58.2745 9.31026 60.6147 9.31026C63.1572 9.31026 63.0994 11.8677 63.0994 11.8677H58.13Z" fill="#363636"/>
<path fill-rule="evenodd" clip-rule="evenodd" d="M69.6866 0.775739L73.587 0.143555V11.5803C73.587 11.5803 73.6159 13.5631 73.587 14.7987C73.5581 15.8045 74.136 16.6953 75.725 16.6953L75.2049 20.2872C75.2049 20.2872 69.6866 20.9769 69.6866 14.7987V0.775739Z" fill="#363636"/>
<path fill-rule="evenodd" clip-rule="evenodd" d="M76.1584 6.49414H80.1454L82.9768 15.1148L85.5482 6.49414H89.593C89.593 6.49414 86.126 18.4194 83.6124 21.9539C81.0989 25.4884 78.2964 24.6838 75.9272 24.0229L76.5918 21.0056C76.5918 21.0056 78.2675 21.5516 79.3942 21.2068C80.521 20.862 81.0411 19.339 81.0411 19.339C81.0411 19.339 77.1118 10.862 76.1584 6.49414Z" fill="#363636"/>
<path d="M91.4709 20.3162C92.8272 20.3162 93.9267 19.2227 93.9267 17.8737C93.9267 16.5247 92.8272 15.4312 91.4709 15.4312C90.1146 15.4312 89.0151 16.5247 89.0151 17.8737C89.0151 19.2227 90.1146 20.3162 91.4709 20.3162Z" fill="#363636"/>
<path d="M97.9138 4.91362C99.1903 4.91362 100.225 3.88439 100.225 2.61477C100.225 1.34515 99.1903 0.315918 97.9138 0.315918C96.6373 0.315918 95.6025 1.34515 95.6025 2.61477C95.6025 3.88439 96.6373 4.91362 97.9138 4.91362Z" fill="#363636"/>
<path d="M99.8784 6.49414H95.978V19.9712H99.8784V6.49414Z" fill="#363636"/>
<path fill-rule="evenodd" clip-rule="evenodd" d="M109.008 6.12061C104.559 6.12061 102.363 9.54015 102.363 13.1896C102.363 16.839 104.559 20.2873 109.008 20.2873C113.486 20.2873 115.653 16.839 115.653 13.1896C115.653 9.54015 113.486 6.12061 109.008 6.12061ZM109.008 16.9252C106.668 16.9252 106.321 14.1953 106.321 13.1896C106.321 12.1838 106.639 9.45394 109.008 9.45394C111.377 9.45394 111.695 12.1551 111.695 13.1896C111.695 14.2241 111.348 16.9252 109.008 16.9252Z" fill="#363636"/>
<path fill-rule="evenodd" clip-rule="evenodd" d="M12.3078 3.01695L11.1233 6.32155C8.72526 5.02845 5.63385 4.88477 4.91156 5.94799C4.33373 6.78132 4.4493 8.16063 6.73174 8.87902C7.02065 8.96523 7.13622 9.33879 6.90509 9.56868L5.31605 11.2928C4.796 11.8675 3.92925 12.0112 3.23585 11.6376C2.05129 11.0055 0.49114 9.71235 0.375574 7.24109C0.173332 2.03994 6.58728 0.574423 12.3078 3.01695Z" fill="#363636"/>
<path fill-rule="evenodd" clip-rule="evenodd" d="M5.98055 12.0116C5.74941 12.2415 5.83609 12.6151 6.1539 12.73C7.39624 13.1898 9.21641 13.8794 8.84082 15.5174C8.37855 17.4714 3.84256 16.9254 1.24231 15.7185L0.11554 18.9944C0.11554 18.9944 4.18926 21.0921 9.27419 19.9139C14.388 18.707 13.059 13.5059 12.5967 12.5576C12.1923 11.7243 11.181 10.5174 9.2453 9.74149C8.75414 9.54035 8.2052 9.65529 7.8585 10.0289L5.98055 12.0116Z" fill="#363636"/>
</g>
<defs>
<clipPath id="clip0_2962_922">
<rect width="116" height="25" fill="white"/>
</clipPath>
</defs>
</svg>
