<svg width="28" height="28" viewBox="0 0 28 28" fill="none" xmlns="http://www.w3.org/2000/svg">
<path d="M18.0833 14C18.0833 13.5359 18.2676 13.0908 18.5958 12.7626C18.924 12.4344 19.3691 12.25 19.8333 12.25C20.2974 12.25 20.7425 12.4344 21.0707 12.7626C21.3989 13.0908 21.5833 13.5359 21.5833 14C21.5833 14.4641 21.3989 14.9092 21.0707 15.2374C20.7425 15.5656 20.2974 15.75 19.8333 15.75C19.3691 15.75 18.924 15.5656 18.5958 15.2374C18.2676 14.9092 18.0833 14.4641 18.0833 14Z" fill="white"/>
<path fill-rule="evenodd" clip-rule="evenodd" d="M23.8479 7.78634C23.4642 6.88505 22.8465 6.10273 22.0588 5.52038C21.2711 4.93803 20.3421 4.57682 19.3679 4.47417L18.6072 4.39484C14.7663 3.99062 10.8923 4.01723 7.05725 4.47417L6.55325 4.53367C5.60651 4.64627 4.72416 5.07072 4.04526 5.74011C3.36637 6.40951 2.92952 7.28578 2.80358 8.23084C2.29269 12.06 2.29269 15.94 2.80358 19.7692C2.92952 20.7142 3.36637 21.5905 4.04526 22.2599C4.72416 22.9293 5.60651 23.3537 6.55325 23.4663L7.05725 23.5258C10.8921 23.9832 14.7654 24.01 18.6072 23.6052L19.3679 23.5258C20.3421 23.4232 21.2711 23.062 22.0588 22.4796C22.8465 21.8973 23.4642 21.115 23.8479 20.2137C24.4526 20.0345 24.9916 19.6823 25.3985 19.2005C25.8054 18.7188 26.0625 18.1284 26.1381 17.5023C26.4099 15.176 26.4099 12.824 26.1381 10.4977C26.0625 9.87157 25.8054 9.28126 25.3985 8.79948C24.9916 8.31771 24.4526 7.96552 23.8479 7.78634ZM18.4229 6.13434C14.712 5.74394 10.969 5.76977 7.26375 6.21134L6.75975 6.272C6.19898 6.33876 5.67635 6.59017 5.27418 6.98663C4.87202 7.38309 4.61317 7.90208 4.53842 8.46184C4.04792 12.1377 4.04792 15.8624 4.53842 19.5382C4.61298 20.098 4.87176 20.6171 5.27397 21.0136C5.67617 21.4101 6.1989 21.6614 6.75975 21.728L7.26375 21.7887C10.9691 22.2297 14.7129 22.2553 18.4241 21.8657L19.1847 21.7852C20.1507 21.6836 21.0393 21.2105 21.6627 20.4657C19.9019 20.5684 18.1355 20.5223 16.3824 20.328C15.6579 20.2476 14.9818 19.9247 14.4638 19.4118C13.9458 18.8989 13.6163 18.226 13.5287 17.5023C13.2566 15.1754 13.2566 12.8246 13.5287 10.4977C13.6163 9.77399 13.9458 9.10113 14.4638 8.58822C14.9818 8.07531 15.6579 7.75245 16.3824 7.672C18.1355 7.47761 19.9019 7.43156 21.6627 7.53434C21.0393 6.78954 20.1507 6.31636 19.1847 6.21484L18.4229 6.13434ZM22.4899 9.35084L22.4922 9.36367L22.4992 9.41034L22.7314 9.37301C22.8516 9.38467 22.9706 9.39751 23.0907 9.41151C23.7756 9.48734 24.3216 10.0298 24.3997 10.7007C24.6564 12.8928 24.6564 15.1072 24.3997 17.2993C24.358 17.63 24.2062 17.937 23.9687 18.1708C23.7313 18.4047 23.422 18.5518 23.0907 18.5885C22.9706 18.6025 22.8516 18.6153 22.7314 18.627L22.4992 18.5908L22.4922 18.6363L22.4899 18.6492C20.5322 18.8265 18.5232 18.8067 16.5761 18.5885C16.2448 18.5518 15.9356 18.4047 15.6981 18.1708C15.4606 17.937 15.3088 17.63 15.2671 17.2993C15.0107 15.1073 15.0107 12.8928 15.2671 10.7007C15.3088 10.37 15.4606 10.063 15.6981 9.82916C15.9356 9.5953 16.2448 9.44818 16.5761 9.41151C18.5408 9.19383 20.5212 9.1735 22.4899 9.35084Z" fill="white"/>
</svg>
